<svg id="Layer_1" data-name="Layer 1" xmlns="http://www.w3.org/2000/svg" viewBox="0 0 357.48 275.98"><defs><style>.cls-1,.cls-10,.cls-18{fill:#d33f95;}.cls-18,.cls-2{font-size:18.56px;font-family:Futura-CondensedMedium, Futura;}.cls-2,.cls-4,.cls-6,.cls-7,.cls-8{fill:#fff;}.cls-3{letter-spacing:0em;}.cls-4{font-size:29.73px;}.cls-10,.cls-4,.cls-6,.cls-7{font-family:Futura-Bold, Futura;font-weight:700;}.cls-5{font-size:13.61px;}.cls-6{font-size:24.71px;}.cls-7{font-size:20.1px;}.cls-9{fill:#c5428a;}.cls-10{font-size:19.8px;}.cls-11{letter-spacing:-0.01em;}.cls-12{letter-spacing:0em;}.cls-13{letter-spacing:0em;}.cls-14{letter-spacing:0.01em;}.cls-15{letter-spacing:0.01em;}.cls-16{letter-spacing:0.01em;}.cls-17{letter-spacing:-0.03em;}.cls-19{letter-spacing:0.03em;}.cls-20{letter-spacing:0em;}</style></defs><title>Infografía FIRAN 2019</title><rect class="cls-1" y="39.31" width="356.43" height="235.67" rx="12" ry="12"/><text class="cls-2" transform="translate(33.74 231.73)">REALIZÓ <tspan x="-3.92" y="22.27">NEGOCIOS</tspan></text><text class="cls-2" transform="translate(152.88 231.73)">POSIBLES <tspan x="-0.69" y="22.27">NEGOCIOS</tspan></text><text class="cls-2" transform="translate(264.69 231.73)"><tspan class="cls-3">N</tspan><tspan x="8.7" y="0">O REALIZÓ </tspan><tspan x="6.79" y="22.27">NEGOCIOS</tspan></text><text class="cls-4" transform="translate(41.58 80.91)">52<tspan class="cls-5" x="40.43" y="0">%</tspan></text><text class="cls-6" transform="translate(164.27 111.04)">40<tspan class="cls-5" x="33.6" y="0">%</tspan></text><text class="cls-7" transform="translate(293.71 135.87)">8<tspan class="cls-5" x="13.67" y="0">%</tspan></text><ellipse class="cls-8" cx="59.76" cy="112.1" rx="36.69" ry="21.21"/><path class="cls-8" d="M23.31,178.76s5.09,18.09,36.47,18.09,36.67-18.09,36.67-18.09v4.8s-4.2,18.81-36.67,18.81-36.47-18-36.47-18Z"/><path class="cls-8" d="M23.31,170.24s5.09,18.08,36.47,18.08,36.67-18.08,36.67-18.08V175s-4.2,18.81-36.67,18.81-36.47-18-36.47-18Z"/><path class="cls-8" d="M23.21,161.65s5.09,18.09,36.47,18.09,36.67-18.09,36.67-18.09v4.8s-4.2,18.81-36.67,18.81-36.47-18-36.47-18Z"/><path class="cls-8" d="M23.21,153.15s5.09,18.09,36.47,18.09,36.67-18.09,36.67-18.09v4.79s-4.2,18.82-36.67,18.82-36.47-18-36.47-18Z"/><path class="cls-8" d="M23.21,144.15s5.09,18.09,36.47,18.09,36.67-18.09,36.67-18.09V149s-4.2,18.81-36.67,18.81-36.47-18-36.47-18Z"/><path class="cls-8" d="M23.19,135s5.08,18.08,36.47,18.08S96.33,135,96.33,135v4.79s-4.2,18.81-36.67,18.81-36.47-18-36.47-18Z"/><path class="cls-8" d="M23.07,126.51s5.08,18.09,36.46,18.09S96.2,126.51,96.2,126.51v4.79S92,150.12,59.53,150.12s-36.46-18-36.46-18Z"/><path class="cls-8" d="M23.21,118.07s5.09,18.09,36.47,18.09,36.67-18.09,36.67-18.09v4.79s-4.2,18.82-36.67,18.82-36.47-18-36.47-18Z"/><path class="cls-9" d="M89.14,111H82.85c0-1.83-2.27-8.2-14.08-8.2S55.36,111,55.36,111H39.8c0-4.1,7.45-4.06,7.45-4.06v-3.43c-12,0-12.57,7.49-12.57,7.49H30.62v2.09h4.06s.71,8,12.57,8,13.26-8,13.26-8H77.82c0,5-10.07,4.82-10.07,4.82v3.43c15.73,0,15.1-8.11,15.1-8.11h6.29Zm-41.86,6.33c-5.86,0-7.6-2.79-7.6-4.34H54.53S53.13,117.36,47.28,117.36ZM61.54,111s.59-4.77,8.21-4.77S78,111,78,111Z"/><ellipse class="cls-8" cx="182.22" cy="140.59" rx="36.69" ry="21.21"/><path class="cls-8" d="M145.67,181.64s5.08,18.09,36.47,18.09,36.67-18.09,36.67-18.09v4.79s-4.2,18.82-36.67,18.82-36.47-18-36.47-18Z"/><path class="cls-8" d="M145.67,172.64s5.08,18.09,36.47,18.09,36.67-18.09,36.67-18.09v4.8s-4.2,18.81-36.67,18.81-36.47-18-36.47-18Z"/><path class="cls-8" d="M145.65,163.52s5.08,18.08,36.46,18.08,36.67-18.08,36.67-18.08v4.79s-4.2,18.82-36.67,18.82-36.46-18-36.46-18Z"/><path class="cls-8" d="M145.52,155s5.09,18.09,36.47,18.09S218.66,155,218.66,155v4.79s-4.2,18.82-36.67,18.82-36.47-18-36.47-18Z"/><path class="cls-8" d="M145.67,146.56s5.08,18.09,36.47,18.09,36.67-18.09,36.67-18.09v4.79s-4.2,18.82-36.67,18.82-36.47-18-36.47-18Z"/><path class="cls-9" d="M211.6,139.52h-6.29c0-1.83-2.27-8.2-14.08-8.2s-13.41,8.2-13.41,8.2H162.26c0-4.1,7.44-4.06,7.44-4.06V132c-12,0-12.56,7.49-12.56,7.49h-4.06v2.09h4.06s.71,8,12.56,8,13.27-8,13.27-8h17.31c0,5-10.08,4.82-10.08,4.82v3.43c15.74,0,15.11-8.11,15.11-8.11h6.29Zm-41.87,6.33c-5.85,0-7.6-2.79-7.6-4.34H177S175.59,145.85,169.73,145.85ZM184,139.49s.58-4.77,8.2-4.77,8.2,4.77,8.2,4.77Z"/><ellipse class="cls-8" cx="301.42" cy="164.24" rx="36.69" ry="21.21"/><path class="cls-8" d="M264.73,178.65s5.08,18.09,36.46,18.09,36.67-18.09,36.67-18.09v4.79s-4.2,18.82-36.67,18.82-36.46-18-36.46-18Z"/><path class="cls-8" d="M264.87,170.21S270,188.3,301.34,188.3,338,170.21,338,170.21V175s-4.2,18.82-36.67,18.82-36.47-18-36.47-18Z"/><path class="cls-9" d="M330.8,163.17h-6.28c0-1.83-2.28-8.2-14.09-8.2s-13.41,8.2-13.41,8.2H281.47c0-4.1,7.44-4.06,7.44-4.06v-3.43c-12,0-12.57,7.49-12.57,7.49h-4.06v2.09h4.06s.71,8,12.57,8,13.26-8,13.26-8h17.31c0,5-10.07,4.82-10.07,4.82v3.43c15.73,0,15.11-8.11,15.11-8.11h6.28Zm-41.86,6.33c-5.86,0-7.6-2.79-7.6-4.34h14.85S294.79,169.5,288.94,169.5Zm14.27-6.36s.58-4.77,8.2-4.77,8.2,4.77,8.2,4.77Z"/><text class="cls-10" transform="translate(208 16.43)">EXPOSI<tspan class="cls-11" x="78.73" y="0">T</tspan><tspan x="89.17" y="0">ORES</tspan><tspan class="cls-5"><tspan class="cls-12" x="3.9" y="16.33">r</tspan><tspan x="10.25" y="16.33">ub</tspan><tspan class="cls-13" x="28.89" y="16.33">r</tspan><tspan x="35.29" y="16.33">os p</tspan><tspan class="cls-14" x="65.91" y="16.33">r</tspan><tspan x="72.31" y="16.33">oduc</tspan><tspan class="cls-15" x="107.15" y="16.33">t</tspan><tspan class="cls-16" x="112.42" y="16.33">i</tspan><tspan class="cls-17" x="116.71" y="16.33">v</tspan><tspan x="125.23" y="16.33">os</tspan></tspan></text><rect class="cls-8" x="264.8" y="57.54" width="73.24" height="48.82" rx="12" ry="12"/><text class="cls-18" transform="translate(276.21 76.89)">Se<tspan class="cls-19" x="13.77" y="0">r</tspan><tspan class="cls-20" x="19.2" y="0">vicios</tspan><tspan x="1.64" y="22.27">Públicos</tspan></text><polyline class="cls-8" points="301.3 106.36 296.19 106.36 301.16 114.28 306.71 106.36"/></svg>