<svg id="Layer_1" data-name="Layer 1" xmlns="http://www.w3.org/2000/svg" viewBox="0 0 357.64 323.68"><defs><style>.cls-1{fill:#d33f95;}.cls-15,.cls-17,.cls-2,.cls-3,.cls-7{fill:#fff;}.cls-3{font-size:15.01px;}.cls-15,.cls-17,.cls-20,.cls-3,.cls-7{font-family:Futura-Bold, Futura;}.cls-15,.cls-17,.cls-21,.cls-3,.cls-7{font-weight:700;}.cls-4{letter-spacing:0em;}.cls-5{letter-spacing:-0.01em;}.cls-6{letter-spacing:-0.02em;}.cls-7{font-size:27.78px;}.cls-8{letter-spacing:-0.08em;}.cls-9{letter-spacing:-0.11em;}.cls-10{letter-spacing:0em;}.cls-11{font-size:24px;}.cls-12,.cls-15{font-size:13.68px;}.cls-13{letter-spacing:0em;}.cls-14{font-size:8.84px;}.cls-16{letter-spacing:0.01em;}.cls-17{font-size:36.57px;}.cls-18{letter-spacing:-0.04em;}.cls-19,.cls-24{fill:none;stroke-miterlimit:10;}.cls-19{stroke:#cd3d8a;stroke-width:2px;}.cls-20{font-size:14.9px;fill:#cd3d8a;}.cls-22,.cls-23{font-family:Futura-Medium, Futura;}.cls-22{letter-spacing:0em;}.cls-24{stroke:#d33f95;stroke-width:3px;}</style></defs><title>Infografía FIRAN 2019</title><rect class="cls-1" width="356.52" height="225.13" rx="12" ry="12"/><path class="cls-2" d="M71.38,165.44s24.84,8.42,41.33-.21V151.71s-1.42-14.44-13.66-14.44H85.67S67.91,137.13,71.38,165.44Z"/><ellipse class="cls-2" cx="92.23" cy="124.4" rx="12.17" ry="12.13"/><path class="cls-2" d="M68.7,156.44s-2.61-15.55,12.94-21.37c0,0-4.7-4.65-4.39-10.29H64.92s-14.38,1.93-14.44,13.63-.06,14.5-.06,14.5S64.23,157,68.7,156.44Z"/><path class="cls-2" d="M77.33,122.05s1.27-6.37,5.57-9.49c0,0,1.13-11.38-11.84-12.79,0,0-10.63-.7-12.16,12,0,0,.36,11.91,11.63,11.91C70.53,123.72,75.26,123.74,77.33,122.05Z"/><path class="cls-2" d="M107.2,122.84s-2.73-8-7-11.13c0,0-.59-10.77,12.38-12.18,0,0,10.63-.7,12.15,12,0,0-.25,11.32-10.85,12.07C113.84,123.64,109.27,124.53,107.2,122.84Z"/><path class="cls-2" d="M107.16,124.7s-.48,7-4.55,10.31c0,0,15.12,5.15,13.15,21.42,0,0,13.43-.34,17.09-3.73V138.94s-2.1-13.83-13.42-14S107.16,124.7,107.16,124.7Z"/><path class="cls-2" d="M82.62,102.88s3.09,4.53,2.65,8.05c0,0,6.47-3.25,12.6-.41,0,0,.21-4.89,2.65-7.67C100.52,102.85,94.82,101.54,82.62,102.88Z"/><ellipse class="cls-2" cx="91.52" cy="88.42" rx="13.13" ry="13.08"/><path class="cls-2" d="M127.08,112.64a14.39,14.39,0,0,1-4.37,10.21s14.33,3.93,12.88,21.29c0,0,13.94-.14,17.28-3.55V126.73s-3.27-14.15-14.07-14.15S127.08,112.64,127.08,112.64Z"/><path class="cls-2" d="M120.1,99.57s6.22,3.66,6.85,10.8c0,0,12.47,6,17.11-8.45,0,0,2.13-10.66-9.32-14C134.74,87.92,121.75,85.17,120.1,99.57Z"/><path class="cls-2" d="M56,113.06a14.36,14.36,0,0,0,4.37,10.2S46,127.2,47.46,144.55c0,0-13.94-.13-17.28-3.55V127.14S33.45,113,44.25,113,56,113.06,56,113.06Z"/><path class="cls-2" d="M62.89,100s-6.21,3.66-6.85,10.8c0,0-12.46,6-17.1-8.45,0,0-2.13-10.67,9.32-14C48.26,88.39,61.25,85.64,62.89,100Z"/><ellipse class="cls-2" cx="243.71" cy="79.38" rx="10.42" ry="10.32"/><ellipse class="cls-2" cx="270.45" cy="79.38" rx="10.42" ry="10.32"/><ellipse class="cls-2" cx="297.19" cy="79.18" rx="10.42" ry="10.32"/><path class="cls-2" d="M262.2,93.63l2.36,13h3.14l1-8.65-1.77-4.33h6.89L272.22,98l.79,8.65h3.34l2.56-12.78h3.14s6.1,1.57,6.1,6.09v23.21s-2,5.3-5.9,5.3h-1.57s-.59,0-.59,1.18v30.28s-1.38,3.54-4.52,3.54a5.29,5.29,0,0,1-4.92-4.13s-.39-.39-.59,0-.59,4.13-4.32,4.13a4.7,4.7,0,0,1-4.92-3.54V128.83s0-.4-.59-.4-7.47-1.37-7.47-5.3V99.33s1.77-5.7,6.09-5.7Z"/><path class="cls-2" d="M291.69,106.81h2.75l1-9-1.57-3.93h6.49L298.77,98l1,8.65h3.15l2.75-12.78h3s6.09,1.38,6.09,4.92v24s-1.18,5.51-4.91,5.51h-2s-.79,0-.79,1v29.49s-.78,4.72-4.71,4.72-5.12-4.13-5.12-4.13-1.57,4.13-4.71,4.13-5.12-3-5.12-3.93V130s4.43-2.85,4.43-7.57S291.69,106.81,291.69,106.81Z"/><path class="cls-2" d="M249.22,106.81h-2.75l-1-9,1.58-3.93h-6.49L242.14,98l-1,8.65H238l-2.75-12.78h-2.95s-6.1,1.38-6.1,4.92v24s1.18,5.51,4.92,5.51h2s.78,0,.78,1v29.49s.79,4.72,4.72,4.72,5.11-4.13,5.11-4.13,1.58,4.13,4.72,4.13,5.11-3,5.11-3.93V130s-4.42-2.85-4.42-7.57S249.22,106.81,249.22,106.81Z"/><text class="cls-3" transform="translate(227.11 190.91)">PERSO<tspan class="cls-4" x="52.96" y="0">N</tspan><tspan x="66.67" y="0">AL</tspan><tspan x="-12.67" y="18.02">TRA</tspan><tspan class="cls-5" x="18.03" y="18.02">B</tspan><tspan x="28.25" y="18.02">A</tspan><tspan class="cls-6" x="40.29" y="18.02">J</tspan><tspan x="47.97" y="18.02">ANDO</tspan></text><text class="cls-7" transform="translate(38.46 36.61)"><tspan class="cls-8">1</tspan><tspan class="cls-9" x="16.73" y="0">7</tspan><tspan class="cls-10" x="32.67" y="0">.000</tspan><tspan class="cls-11" x="98.8" y="0"> </tspan><tspan class="cls-12"><tspan x="10.96" y="16.41">ASI</tspan><tspan class="cls-13" x="35.61" y="16.41">S</tspan><tspan x="44.51" y="16.41">TENTES</tspan></tspan><tspan class="cls-14"><tspan x="31.88" y="27.02">en 3 días</tspan></tspan></text><text class="cls-15" transform="translate(27.95 190.42)">60% MASCULI<tspan class="cls-16" x="103.44" y="0">N</tspan><tspan x="116.02" y="0">O</tspan><tspan x="5.89" y="16.41">40% FEMENI</tspan><tspan class="cls-16" x="97.54" y="16.41">N</tspan><tspan x="110.13" y="16.41">O</tspan></text><text class="cls-17" transform="translate(212.89 47.56)"><tspan class="cls-18">1</tspan><tspan x="23.26" y="0">.300</tspan></text><polyline class="cls-19" points="33.72 291.8 40.46 298.54 33.72 305.28"/><polyline class="cls-19" points="40.46 252.05 33.72 245.31 40.46 238.57"/><text class="cls-20" transform="translate(48.04 250.03)"><tspan class="cls-21">25 AÑOS = </tspan><tspan class="cls-22" x="94.55" y="0">12%</tspan></text><text class="cls-20" transform="translate(13.14 267.91)"><tspan class="cls-21">25 - 34 AÑOS = </tspan><tspan class="cls-23" x="129.23" y="0">33%</tspan></text><text class="cls-20" transform="translate(13.26 285.8)"><tspan class="cls-21">35 - 44 AÑOS = </tspan><tspan class="cls-23" x="129.23" y="0">53%</tspan></text><text class="cls-20" transform="translate(47.97 303.68)"><tspan class="cls-21">44 AÑOS = </tspan><tspan class="cls-22" x="94.55" y="0">2%</tspan></text><rect class="cls-24" x="1.93" y="208.89" width="188.24" height="111.19" rx="12" ry="12"/></svg>