<svg id="Layer_1" data-name="Layer 1" xmlns="http://www.w3.org/2000/svg" viewBox="0 0 358.05 264.34"><defs><style>.cls-1,.cls-38{fill:#d33f95;}.cls-2{font-size:13.4px;}.cls-10,.cls-16,.cls-17,.cls-2,.cls-20,.cls-22,.cls-24,.cls-26,.cls-27,.cls-29,.cls-31,.cls-33,.cls-5,.cls-9{fill:#fff;}.cls-10,.cls-16,.cls-17,.cls-2,.cls-20,.cls-22,.cls-24,.cls-26,.cls-27,.cls-29,.cls-31,.cls-33,.cls-38,.cls-5{font-family:Futura-Bold, Futura;}.cls-11,.cls-2,.cls-22,.cls-24,.cls-26,.cls-27,.cls-29,.cls-33,.cls-38,.cls-5{font-weight:700;}.cls-3{letter-spacing:0.01em;}.cls-4{letter-spacing:-0.03em;}.cls-5{font-size:13.33px;}.cls-6{letter-spacing:0.01em;}.cls-7{letter-spacing:0em;}.cls-21,.cls-37,.cls-8{fill:none;stroke:#fff;stroke-miterlimit:10;}.cls-10{font-size:9.36px;}.cls-12{font-size:8.09px;font-family:Futura-CondensedMedium, Futura;}.cls-13{letter-spacing:-0.01em;}.cls-14{letter-spacing:0.03em;}.cls-15{letter-spacing:-0.01em;}.cls-16{font-size:8.58px;}.cls-17{font-size:10.92px;}.cls-18{letter-spacing:-0.12em;}.cls-19{letter-spacing:-0.03em;}.cls-20{font-size:12.48px;}.cls-21{stroke-width:3px;}.cls-22{font-size:5.53px;}.cls-23{letter-spacing:-0.07em;}.cls-24{font-size:5.56px;}.cls-25{letter-spacing:-0.06em;}.cls-26{font-size:20.76px;}.cls-27{font-size:6.35px;}.cls-28{letter-spacing:-0.04em;}.cls-29{font-size:7.49px;}.cls-30{letter-spacing:0.01em;}.cls-31{font-size:14.04px;}.cls-32{letter-spacing:0.01em;}.cls-33{font-size:9.46px;}.cls-34{letter-spacing:-0.05em;}.cls-35{letter-spacing:-0.07em;}.cls-36{letter-spacing:0em;}.cls-37{stroke-width:0.5px;}.cls-38{font-size:20.21px;}.cls-39{letter-spacing:-0.04em;}.cls-40{letter-spacing:-0.03em;}.cls-41{letter-spacing:-0.01em;}.cls-42{font-size:13.89px;}</style></defs><title>Infografía FIRAN 2019</title><rect class="cls-1" y="40.22" width="356.52" height="222.09" rx="12" ry="12"/><text class="cls-2" transform="translate(17.45 75.44)">¿RE<tspan class="cls-3" x="25.41" y="0">C</tspan><tspan x="34.5" y="0">OMEN</tspan><tspan class="cls-4" x="80.62" y="0">D</tspan><tspan x="90.73" y="0">ARÍAS </tspan><tspan x="43.42" y="16.08">FIRAN?</tspan></text><text class="cls-5" transform="translate(180.52 75.43)">¿<tspan class="cls-6" x="8.23" y="0">C</tspan><tspan x="17.27" y="0">ÓMO TE ENTERA</tspan><tspan class="cls-7" x="134.13" y="0">S</tspan><tspan x="142.81" y="0">TE </tspan><tspan x="43.44" y="16">DE FIRAN?</tspan></text><polygon class="cls-8" points="248.48 208.98 238.78 150.03 294.64 197.1 228.84 186.88 291.22 149.34 248.48 208.98"/><polyline class="cls-8" points="239.21 150.22 228.65 187.31 248.91 209.18 294.45 197.53 291.04 149.56 238.59 150.46"/><circle class="cls-9" cx="226.49" cy="187.08" r="3.88"/><circle class="cls-9" cx="237.74" cy="148.55" r="3.88"/><circle class="cls-9" cx="292" cy="147.73" r="3.88"/><circle class="cls-9" cx="295.89" cy="198.09" r="3.88"/><circle class="cls-9" cx="248.22" cy="211.37" r="3.88"/><text class="cls-10" transform="translate(189.35 181.5)"><tspan class="cls-11">5,8%</tspan><tspan class="cls-12"><tspan x="-1.47" y="9.71">MEDIOS DE</tspan><tspan class="cls-13" x="-7.23" y="19.41">C</tspan><tspan x="-4.19" y="19.41">OMUNI</tspan><tspan class="cls-14" x="13.58" y="19.41">C</tspan><tspan class="cls-15" x="16.89" y="19.41">A</tspan><tspan x="20.13" y="19.41">CIÓN</tspan></tspan></text><text class="cls-16" transform="translate(237.19 224.91)"><tspan class="cls-11">2,2%</tspan><tspan class="cls-12"><tspan x="6.11" y="9.71">WEB</tspan></tspan></text><text class="cls-17" transform="translate(307.07 200.76)"><tspan class="cls-11"><tspan class="cls-18">1</tspan><tspan class="cls-19" x="6.12" y="0">1</tspan><tspan x="13.18" y="0">,7%</tspan></tspan><tspan class="cls-12"><tspan x="-4.33" y="9.71">RE</tspan><tspan class="cls-13" x="2.02" y="9.71">C</tspan><tspan x="5.06" y="9.71">OMEN</tspan><tspan class="cls-13" x="20.26" y="9.71">D</tspan><tspan class="cls-15" x="23.97" y="9.71">A</tspan><tspan x="27.22" y="9.71">CIÓN</tspan></tspan></text><text class="cls-20" transform="translate(297.45 136.07)"><tspan class="cls-11">26,3%</tspan><tspan class="cls-12"><tspan x="0.47" y="9.71">REDES SOCIALES</tspan></tspan></text><circle class="cls-21" cx="87.3" cy="172.78" r="58.14"/><path class="cls-21" d="M87.3,172.78l-5.42,57.89s12.08,1,18.73-1.29L87.3,172.78"/><line class="cls-21" x1="134.02" y1="207.39" x2="87.3" y2="172.78"/><text class="cls-22" transform="translate(84.69 249.1)">5<tspan class="cls-23" x="3.76" y="0">,</tspan><tspan x="5.26" y="0">1%</tspan></text><text class="cls-24" transform="translate(129.83 238.68)"><tspan class="cls-25">1</tspan><tspan x="3.45" y="0">8,8%</tspan></text><text class="cls-26" transform="translate(56.84 154.46)">SI</text><text class="cls-27" transform="translate(125.61 231.89)"><tspan class="cls-28">T</tspan><tspan x="3.17" y="0">AL VEZ</tspan></text><text class="cls-29" transform="translate(84.88 241.95)"><tspan class="cls-30">N</tspan><tspan x="6.89" y="0">O</tspan></text><text class="cls-31" transform="translate(198.13 138.94)"><tspan class="cls-11"><tspan class="cls-32">5</tspan><tspan x="9.65" y="0">4%</tspan></tspan><tspan class="cls-12"><tspan x="1.19" y="9.71">VÍA PÚBLI</tspan><tspan class="cls-14" x="25.63" y="9.71">C</tspan><tspan x="28.94" y="9.71">A</tspan></tspan></text><text class="cls-33" transform="translate(51.75 166.93)"><tspan class="cls-34">7</tspan><tspan x="5.92" y="0">6</tspan><tspan class="cls-35" x="12.36" y="0">,</tspan><tspan class="cls-36" x="14.92" y="0">1%</tspan></text><line class="cls-37" x1="90.05" y1="230.85" x2="97.9" y2="222.17"/><line class="cls-37" x1="84.17" y1="229.59" x2="95.93" y2="216.57"/><line class="cls-37" x1="83.31" y1="223.08" x2="95.07" y2="210.06"/><line class="cls-37" x1="83.31" y1="215.67" x2="95.07" y2="202.65"/><line class="cls-37" x1="83.31" y1="208.32" x2="94.27" y2="196.18"/><line class="cls-37" x1="84.73" y1="199.64" x2="92.58" y2="190.96"/><line class="cls-37" x1="84.73" y1="191.9" x2="90.97" y2="185"/><line class="cls-37" x1="107.89" y1="227.23" x2="128.38" y2="204.7"/><line class="cls-37" x1="100.61" y1="227.65" x2="125.1" y2="200.22"/><line class="cls-37" x1="99.85" y1="220.99" x2="120.89" y2="197.66"/><line class="cls-37" x1="96.97" y1="216.57" x2="116.94" y2="194.73"/><line class="cls-37" x1="96.97" y1="209.32" x2="112.11" y2="192.56"/><line class="cls-37" x1="95.07" y1="204.29" x2="109.61" y2="188.22"/><line class="cls-37" x1="93.98" y1="197.66" x2="104.91" y2="185.66"/><line class="cls-37" x1="90.66" y1="193.82" x2="101.6" y2="181.83"/><line class="cls-37" x1="89.52" y1="186.34" x2="96.51" y2="178.67"/><line class="cls-37" x1="115.56" y1="222.17" x2="95.07" y2="199.64"/><line class="cls-37" x1="121.1" y1="218.66" x2="89.52" y2="183.92"/><line class="cls-37" x1="125.8" y1="214.5" x2="94.44" y2="179.99"/><line class="cls-37" x1="110.85" y1="226.1" x2="94.27" y2="207.86"/><line class="cls-37" x1="130.31" y1="210.96" x2="113.73" y2="192.72"/><circle class="cls-9" cx="87.3" cy="172.78" r="1.99"/><line class="cls-37" x1="119.61" y1="221.9" x2="89.53" y2="188.8"/><line class="cls-37" x1="123.87" y1="216.98" x2="90.25" y2="179.99"/><line class="cls-37" x1="128.38" y1="212.73" x2="98.3" y2="179.63"/><line class="cls-37" x1="113.73" y1="224.86" x2="95.07" y2="204.29"/><line class="cls-37" x1="108.69" y1="228.17" x2="95.31" y2="213.45"/><text class="cls-38" transform="translate(237.61 16.77)">IM<tspan class="cls-39" x="28.07" y="0">P</tspan><tspan class="cls-40" x="40.92" y="0">A</tspan><tspan x="56.56" y="0">C</tspan><tspan class="cls-41" x="70.04" y="0">T</tspan><tspan x="80.69" y="0">O</tspan><tspan class="cls-42"><tspan x="-7.1" y="16.67">comunicacional</tspan></tspan></text></svg>