<svg id="Layer_1" data-name="Layer 1" xmlns="http://www.w3.org/2000/svg" viewBox="0 0 128 128"><defs><style>.cls-1{fill:#009fcb;}</style></defs><title>iconos Firan 128x128 px</title><path class="cls-1" d="M29,66A29,29,0,1,0,58,95,29,29,0,0,0,29,66Zm0,41.92A12.92,12.92,0,1,1,41.93,95,12.92,12.92,0,0,1,29,107.93Z"/><path class="cls-1" d="M100.23,88.88a17.59,17.59,0,1,0,17.59,17.59A17.59,17.59,0,0,0,100.23,88.88Zm0,27.25a9.67,9.67,0,1,1,9.67-9.66A9.66,9.66,0,0,1,100.23,116.13Z"/><path class="cls-1" d="M127.37,54.38c-.93-1.45-2.78-2.18-5.48-2.18H102c0-4.09,0-14.12.16-18,.12-3.66,2.53-5.13,4-6a6.65,6.65,0,0,0,.64-.41c1.42-1,1-4.38.45-7l-.19-.86-.87,0C90,19.35,88.82,33,88.81,33.23v19H73L60.39,9.57c0-.23-.74-5.62-10.86-5.62H12.46c-.06,0-6.14.71-6.14,9.32,0,7,.71,37.54.83,42.58a44.72,44.72,0,0,0-4,2.45L4.5,60.13C4.68,60,23.16,47,41.44,52.66c12,3.72,21.38,14.61,27.82,32.35l.27.74h44.63l.21-.09A12.86,12.86,0,0,0,120.9,78c1.79-5.27,6.64-19,6.64-19A5.22,5.22,0,0,0,127.37,54.38ZM18.61,37.5V17H51.17L58,41.16H23.21C18,41.16,18.61,37.5,18.61,37.5Z"/></svg>