<svg id="Layer_1" data-name="Layer 1" xmlns="http://www.w3.org/2000/svg" viewBox="0 0 128 128"><defs><style>.cls-1{fill:#009fcb;}</style></defs><title>iconos Firan 128x128 px</title><path class="cls-1" d="M40.41,7.71l7.24-4s8.17,8.17,17,8.17S80.16,3.72,80.16,3.72L88.7,8.27,64.93,47.36Z"/><polygon class="cls-1" points="36.79 9.57 26.2 15.32 64.83 74.2 100.31 14.68 92.6 10.22 64.93 55.07 36.79 9.57"/><polygon class="cls-1" points="22.62 17.22 13.39 22.21 64.84 106.61 114.68 22.26 103.99 16.51 65.05 81.74 22.62 17.22"/><path class="cls-1" d="M9.2,43.83a9.2,9.2,0,1,1,9.2-9.2A9.21,9.21,0,0,1,9.2,43.83Zm0-13.94a4.74,4.74,0,1,0,4.74,4.74A4.74,4.74,0,0,0,9.2,29.89Z"/><path class="cls-1" d="M25.68,70.71a9.2,9.2,0,1,1,9.2-9.2A9.21,9.21,0,0,1,25.68,70.71Zm0-13.94a4.74,4.74,0,1,0,4.74,4.74A4.75,4.75,0,0,0,25.68,56.77Z"/><path class="cls-1" d="M42.17,95.43a9.2,9.2,0,1,1,9.2-9.2A9.21,9.21,0,0,1,42.17,95.43Zm0-13.94a4.74,4.74,0,1,0,4.74,4.74A4.74,4.74,0,0,0,42.17,81.49Z"/><path class="cls-1" d="M65,124.28a9.2,9.2,0,1,1,9.2-9.2A9.21,9.21,0,0,1,65,124.28Zm0-13.94a4.74,4.74,0,1,0,4.74,4.74A4.75,4.75,0,0,0,65,110.34Z"/><path class="cls-1" d="M87.9,95.44a9.2,9.2,0,1,1,9.2-9.2A9.21,9.21,0,0,1,87.9,95.44Zm0-13.94a4.74,4.74,0,1,0,4.74,4.74A4.75,4.75,0,0,0,87.9,81.5Z"/><path class="cls-1" d="M102.33,70.62a9.2,9.2,0,1,1,9.2-9.2A9.21,9.21,0,0,1,102.33,70.62Zm0-13.94a4.74,4.74,0,1,0,4.74,4.74A4.75,4.75,0,0,0,102.33,56.68Z"/><path class="cls-1" d="M118.8,43.77a9.2,9.2,0,1,1,9.2-9.2A9.21,9.21,0,0,1,118.8,43.77Zm0-13.94a4.74,4.74,0,1,0,4.74,4.74A4.75,4.75,0,0,0,118.8,29.83Z"/></svg>