<svg id="Layer_1" data-name="Layer 1" xmlns="http://www.w3.org/2000/svg" viewBox="0 0 128 128"><defs><style>.cls-1{fill:#009fcb;}</style></defs><title>iconos Firan 128x128 px</title><path class="cls-1" d="M14.6,73.49s.33-14.44,15-14.72S44.4,73.4,44.4,73.4H88.47s1.92-14.9,14.9-14.63,14.76,11.79,14.89,14.7l5.6.09s4.14-1,4.14-4.21V58s-1.56-18.43-24.13-18.95a25.17,25.17,0,0,1-5-3.25C96.47,33.77,85.2,24,85.2,24s-7-5.72-12.6-7.86a31.18,31.18,0,0,0-11.94-1.65H32.87A30.14,30.14,0,0,0,18.18,19.9,44.53,44.53,0,0,0,0,52.05V69.14s.63,4.43,4.22,4.43S14.6,73.49,14.6,73.49Z"/><path class="cls-1" d="M41.07,103.65a14.83,14.83,0,1,1,.07-9.83h12.1s2.78-4.94,8.38-4.94,8.53,4.85,8.53,4.85l17.18.07a14.84,14.84,0,1,1,0,9.85H70.25A9.7,9.7,0,0,1,62,108.51a11.05,11.05,0,0,1-8.78-4.79Z"/></svg>