<svg id="Layer_1" data-name="Layer 1" xmlns="http://www.w3.org/2000/svg" viewBox="0 0 128 128"><defs><style>.cls-1{fill:#009fcb;}</style></defs><title>iconos Firan 128x128 px</title><path class="cls-1" d="M120.63,97.09H59.32c-10.31.16-10.06,7.8-10.06,7.8v11.49c0,6.87,10.31,7.88,10.31,7.88h60.81c6,0,7.55-8.13,7.55-8.13V103C127.93,98.18,120.63,97.09,120.63,97.09ZM119,114.84a.39.39,0,0,1-.44.47H58.62a.38.38,0,0,1-.51-.4c0-.56,0-8.27,0-8.27s-.08-.47.38-.47h60.06s.42,0,.42.53Z"/><path class="cls-1" d="M66.21,76a3.16,3.16,0,0,0,2.32-2.71c0-.32-14.86-46.45-14.86-46.45l-9.82,10.4L62.36,74.6S64.14,76.75,66.21,76Z"/><path class="cls-1" d="M97.61,45.4,79.43,70.27H71.84s2.93,8.41-5.19,9.31-10.27-9.44-10.27-9.44H53.7v18H69.33V92.7h42.8V88.16H128V45.4ZM95.79,70.11l9.15-13.47,11.76.06.06,13.35Z"/><polygon class="cls-1" points="17.54 106.24 23.46 109.39 25.69 105.32 22.96 96.24 17.54 106.24"/><path class="cls-1" d="M19.38,71.66s-1.84,4.75-7.69,3A5.66,5.66,0,0,1,9,67.37s-9,3-9,16,7.51,18.1,16.06,19.88L20,95.82Z"/><path class="cls-1" d="M16.76,69.2C17.62,68.16,50,21.94,50,21.94l.17-15.6L45.3,3.74l-13.69,7.8-20.46,54S9.82,69,12.25,70.13,15.89,70.24,16.76,69.2Z"/></svg>