<svg id="Layer_1" data-name="Layer 1" xmlns="http://www.w3.org/2000/svg" viewBox="0 0 128 128"><defs><style>.cls-1{fill:#009fcb;}</style></defs><title>iconos Firan 128x128 px</title><polygon class="cls-1" points="128 47.78 64.25 69.79 1.14 47.78 64.46 24.88 128 47.78"/><path class="cls-1" d="M94.24,63.73,64.11,73.37,34.23,63.61l-2.41,8.92a7.27,7.27,0,0,0,2.41,3.61c1.93,1.57,18.68,12.17,24.94,13.62,0,0,3.11,1,4.18,1.21a9.57,9.57,0,0,0,4.05,0c1.36-.38,6.09-2,7-2.41S90.64,80.39,94,76.14c0,0,2.41-1.79,2.27-3.58S94.24,63.73,94.24,63.73Z"/><polyline class="cls-1" points="7.12 49.65 7.15 84.58 11.59 93.02 5.74 103.13 0 93.02 4.1 84.77 4.11 48.73"/></svg>