<svg id="Layer_1" data-name="Layer 1" xmlns="http://www.w3.org/2000/svg" viewBox="0 0 128 128"><defs><style>.cls-1{fill:#009fcb;}</style></defs><title>iconos Firan 128x128 px</title><polygon class="cls-1" points="48.83 21.08 90.69 21.08 87.03 2.35 52.6 2.35 48.83 21.08"/><path class="cls-1" d="M48.71,24.85h42.1s6.81,24.46-19.1,28.72c0,0-16.19,2.07-23.12-15.45,0,0,4-5.11-.25-10.22Z"/><path class="cls-1" d="M25.08,64.72,48,36.54s2.61-4.65-1.31-7.94a7.2,7.2,0,0,0-8-1l-37.53,46s-4.3,8,3.47,10.43l39.86.65,1.76,41h2.55L84.4,62l8.7,2.77L59.58,125.6H93.17l1-32.39,3.1,32.11h15.21l-5.07-46.2S102.67,57,69.29,58.84c0,0-12.11.14-18.52,2S25.08,64.72,25.08,64.72Z"/><polygon class="cls-1" points="44.52 113.69 44.52 125.45 34.08 125.45 44.52 113.69"/><path class="cls-1" d="M94.08,61.07s6,3.57,7.31,5.41L113,53.39l-.82-.76,10.34-10.28.7.65L128,38.13l-2.49-2.49-15.09,15-5.3-5.36-2.06,2,3.25,3.52-9.79,9.74-1.36-1.09Z"/></svg>