<svg id="Layer_1" data-name="Layer 1" xmlns="http://www.w3.org/2000/svg" viewBox="0 0 128 128"><defs><style>.cls-1{fill:#009fcb;}</style></defs><title>iconos Firan 128x128 px</title><path class="cls-1" d="M118.53,64.76v57.45s.71,4.6,4.73,4.53a4.84,4.84,0,0,0,4.74-3.82V5.11s-1.55-3.89-4.81-3.89a5.78,5.78,0,0,0-4.8,2.9L111,57.83S109.06,65.39,118.53,64.76Z"/><path class="cls-1" d="M104.76,56.09l3.49-25.87S93.57,11.72,70,12,34.77,23.62,34.77,23.62s.54,12.73.22,14.19-1.3,9.95-9.55,15.37V96s14.84,21.7,43,21.61S112.3,93.76,112.3,93.76V70.38s-5.43-1.74-6.41-5.48h-.27s-.21,35.35-37.62,37.2c0,0-25.67,1.34-35.74-26S48.45,32.47,51,31.3,77.65,17.45,99,42.87C99,42.87,104.84,52.8,104.76,56.09Z"/><circle class="cls-1" cx="68.22" cy="64.76" r="31.33"/><path class="cls-1" d="M9.65,49.48v73s.73,4.29,4.28,4.29,5.17-3.7,5.17-3.7V49.63S28.64,45.86,28.64,37V6.55S27.82,4,25.46,4s-3.4,1.33-3.4,2.73v18H17.51V6.33S16.42,4,14.5,4s-3.42,1.4-3.42,2.42V24.78H6.53V6.68S5.38,4,3.83,4,0,4.69,0,6.3V37.64S1,46.9,9.65,49.48Z"/></svg>