<svg id="Layer_1" data-name="Layer 1" xmlns="http://www.w3.org/2000/svg" viewBox="0 0 128 128"><defs><style>.cls-1{fill:#009fcb;}</style></defs><title>iconos Firan 128x128 px</title><path class="cls-1" d="M76.54,69.19l-6.68-.86c-.47-2.37-3-7.58-3-7.58s2.54-3.4,4-5.15a2.38,2.38,0,0,0,.33-3.07s-5.57-5.63-7.18-7.21a2.69,2.69,0,0,0-3.35-.45l-5.5,4.31c-1.66-1.26-7.46-3.09-7.46-3.09s-.67-5.94-.95-7.39a2.2,2.2,0,0,0-1.9-1.61s-8.26,0-10.34,0a2.4,2.4,0,0,0-2.35,2.14l-.92,6.93c-3,.49-7.38,3.06-7.38,3.06s-5-3.85-5.87-4.54-2.4.14-2.4.14-6.93,6.9-7.85,7.85A2.08,2.08,0,0,0,7.49,55L12,60.89c-1.09.69-3.07,7.46-3.07,7.46s-6.15.75-7.3.84S0,70.8,0,70.8s0,9.64,0,11,1.59,2,1.59,2L9,84.68c.14,1.39,3.09,7.63,3.09,7.63s-3.15,4-4.23,5.4a2.39,2.39,0,0,0-.34,2.65s6.82,7,7.91,8,2.87-.11,2.87-.11l5.43-4.29c1.17,1,7.52,3.18,7.52,3.18s.59,5.15.78,6.91A2.18,2.18,0,0,0,33.87,116l10.7,0a2.3,2.3,0,0,0,2.17-1.67l.86-7.3c2.54-.27,7.58-3.11,7.58-3.11s4.12,3.37,5.4,4.29a2.81,2.81,0,0,0,2.79.08s6.77-6.71,7.8-7.8,0-2.62,0-2.62L66.77,92.2c1.06-1,3.15-7.5,3.15-7.5s5.65-.64,7.21-.86A1.94,1.94,0,0,0,78.72,82s.11-8.47.11-10.51S76.54,69.19,76.54,69.19ZM39.4,96.12A19.55,19.55,0,1,1,59,76.57,19.56,19.56,0,0,1,39.4,96.12Z"/><path class="cls-1" d="M126.25,36.65,121.12,36a37.3,37.3,0,0,0-2.33-5.81s1.94-2.61,3-4a1.82,1.82,0,0,0,.26-2.35s-4.28-4.32-5.52-5.54A2,2,0,0,0,114,18l-4.23,3.31c-1.27-1-5.72-2.37-5.72-2.37s-.51-4.57-.73-5.67A1.69,1.69,0,0,0,101.86,12s-6.34,0-7.93,0a1.85,1.85,0,0,0-1.81,1.64L91.42,19a22,22,0,0,0-5.67,2.35l-4.5-3.49c-.71-.53-1.84.11-1.84.11s-5.33,5.3-6,6a1.58,1.58,0,0,0-.13,1.77l3.46,4.53c-.83.54-2.35,5.73-2.35,5.73s-4.72.58-5.6.64-1.24,1.24-1.24,1.24,0,7.4,0,8.45,1.22,1.54,1.22,1.54l5.69.66c.1,1.07,2.37,5.86,2.37,5.86l-3.25,4.14a1.84,1.84,0,0,0-.26,2s5.24,5.34,6.07,6.11,2.21-.09,2.21-.09l4.16-3.29c.9.77,5.78,2.44,5.78,2.44s.45,4,.59,5.3a1.67,1.67,0,0,0,1.42,1.5l8.2,0a1.76,1.76,0,0,0,1.67-1.28l.67-5.6c1.94-.22,5.81-2.4,5.81-2.4S113,65.88,114,66.58a2.12,2.12,0,0,0,2.13.07s5.2-5.15,6-6,0-2,0-2l-3.36-4.34c.82-.79,2.42-5.75,2.42-5.75s4.34-.49,5.54-.66a1.48,1.48,0,0,0,1.21-1.45s.09-6.5.09-8.06S126.25,36.65,126.25,36.65ZM97.74,57.32a15,15,0,1,1,15-15A15,15,0,0,1,97.74,57.32Z"/></svg>