<svg id="Layer_1" data-name="Layer 1" xmlns="http://www.w3.org/2000/svg" viewBox="0 0 128 128"><defs><style>.cls-1{fill:#009fcb;}</style></defs><title>iconos Firan 128x128 px</title><path class="cls-1" d="M121.4,54.55s-1.79,20.22-8.05,31.27L89.79,74.53s1.14-2.13-1.2-5.1a77.11,77.11,0,0,1-9-17.12c-1.76-5.32-5.39-16.47-6.3-17.7a19.25,19.25,0,0,0-8.56-6.36c-4.54-1.56-12.13-4.8-21.08-4.22s-14.46,4-15.89,5.13S18.32,37.52,17,43.36,19.81,51,19.81,51s4.87,3.5,8.37-1.62L41.61,56a129.91,129.91,0,0,1-5.89,13.52C32.85,74.72,16.61,96.71,8.54,105l-3.2,3.84s-3.12,5.2.24,7.92,6.55,2.63,8.79.64S38.92,89,40,86.64L59.71,97.19s-5.35,12.24-6.55,14.24-4.56,7.75-4.56,7.75-2.32,4.64,1.52,7.44a6.86,6.86,0,0,0,8.23,0c.57-.56,8.16-12.87,9.12-15s6.24-14.56,6.24-14.56,2-3.59-1.84-6.55S58.75,81,57.56,80.48c0,0,6.23-13.43,6.23-13.75l11.45,5.61,3.14,5.06s2,3.61,5.91,3.31a4.8,4.8,0,0,0,3.83-2.18L111,89.69S99.44,110,90.47,119.89c0,0,18.55-9,27.18-26.69l3.06,1.43,2-3.89-3.15-1.58S128.14,74.37,121.4,54.55Zm-75.69-5L32.5,43c5.84-12.47,17.72-8.59,17.72-8.59ZM67.65,60.3l2.6-7.16,4.07,10.21Z"/><path class="cls-1" d="M65,24.19c11.71,2.34,13.15-8.66,13.15-8.66l7.2,2L86,15.32l-5.41-1.5S82.62,3.54,71.21.5,55.85,9.16,55.85,9.16l2,.54S54.12,22,65,24.19Z"/></svg>