<svg id="Layer_1" data-name="Layer 1" xmlns="http://www.w3.org/2000/svg" viewBox="0 0 128 128"><defs><style>.cls-1{fill:#009fcb;}</style></defs><title>iconos Firan 128x128 px</title><path class="cls-1" d="M35.5,55.75a12.35,12.35,0,0,0-9.23-4,12.3,12.3,0,0,0-9.23,4A12.58,12.58,0,0,0,14.47,60a15.37,15.37,0,0,0,0,10.42A12.39,12.39,0,0,0,17,74.69a12.19,12.19,0,0,0,4,2.88,12.33,12.33,0,0,0,5.24,1.07,12.25,12.25,0,0,0,9.23-4,12.55,12.55,0,0,0,2.57-4.26,15.53,15.53,0,0,0,0-10.42A12.74,12.74,0,0,0,35.5,55.75Z"/><path class="cls-1" d="M109.77,0H18.23A18.12,18.12,0,0,0,.16,18.07v91.86A18.12,18.12,0,0,0,18.23,128h91.54a18.12,18.12,0,0,0,18.07-18.07V18.07A18.12,18.12,0,0,0,109.77,0ZM42.52,72.22a17.1,17.1,0,0,1-3.62,5.61,16.48,16.48,0,0,1-5.54,3.74,18.24,18.24,0,0,1-7.09,1.35,18.21,18.21,0,0,1-7.09-1.35,16.42,16.42,0,0,1-5.55-3.74A17.07,17.07,0,0,1,10,72.22a19.33,19.33,0,0,1,0-14,17.22,17.22,0,0,1,3.61-5.62,16.54,16.54,0,0,1,5.55-3.73,18,18,0,0,1,7.09-1.36,18.06,18.06,0,0,1,7.09,1.36,16.6,16.6,0,0,1,5.54,3.73,17.24,17.24,0,0,1,3.62,5.62,19.33,19.33,0,0,1,0,14Zm37.09,9.85h-5.8L55.06,54.37H55v27.7H50.39V48.38h6L75,76.07H75V48.38h4.57ZM117,79.83a15.25,15.25,0,0,1-2.81,1.33,29,29,0,0,1-6.69,1.58,31.53,31.53,0,0,1-3.26.18,19.33,19.33,0,0,1-7.63-1.42A16.39,16.39,0,0,1,87.39,72a19,19,0,0,1-1.21-6.78,18.34,18.34,0,0,1,1.31-7,17.24,17.24,0,0,1,3.62-5.62,16.4,16.4,0,0,1,5.54-3.73,18.06,18.06,0,0,1,7.09-1.36,20.87,20.87,0,0,1,7.61,1.17,14,14,0,0,1,5,3.21l-3.23,3.47a12,12,0,0,0-4.43-2.78,15.34,15.34,0,0,0-4.9-.79,12.3,12.3,0,0,0-9.23,4A12.74,12.74,0,0,0,91.94,60,14.79,14.79,0,0,0,91,65.22a14,14,0,0,0,1,5.31,13.37,13.37,0,0,0,2.76,4.26,12.92,12.92,0,0,0,4.14,2.83,13.06,13.06,0,0,0,5.19,1,22.47,22.47,0,0,0,4.59-.45,12.86,12.86,0,0,0,3.69-1.31V67.51h-7.47V63.22h12Z"/></svg>