<svg id="Layer_1" data-name="Layer 1" xmlns="http://www.w3.org/2000/svg" viewBox="0 0 128 128"><defs><style>.cls-1{fill:#009fcb;}</style></defs><title>iconos Firan 128x128 px</title><polyline class="cls-1" points="87.36 63.67 87.36 44.45 104.11 44.45 104.11 64.14 123.63 64.14 123.63 80.9 104.11 80.9 104.11 100.41 87.19 100.41 87.19 80.9 67.85 80.9 67.85 63.67 87.36 63.67"/><path class="cls-1" d="M112.65,55.51h9.68s5.18-9.65,5.61-15.73c.58-8.16-2.64-38.05-34.84-38.4,0,0-15.63-2.3-29.2,14.6,0,0-9.88-14.82-28.29-14.6C16.53,1.61,3.65,10.23.2,32.65c0,0-1.81,14.2,5.46,23.1s58.18,71,58.18,71l15-18.18V89.23H59.2V55.5H78.89V35.94h33.73Z"/></svg>