<svg id="Layer_1" data-name="Layer 1" xmlns="http://www.w3.org/2000/svg" viewBox="0 0 128 128"><defs><style>.cls-1{fill:#009fcb;}</style></defs><title>iconos Firan 128x128 px</title><path class="cls-1" d="M43.87,40.11l8.33-8.27L39,18.73s10.88-5.65,20,3.49C67.64,31,63,40.65,63,40.65L97.27,74.92s4.68,5.4-.55,10.45-11.35-1.52-11.35-1.52L52.59,51A16.91,16.91,0,0,1,34.19,47C25.82,38.42,30,28,30.76,27Z"/><polygon class="cls-1" points="71.32 40.72 75.45 44.88 88.68 31.71 92.91 31.64 99.13 21.23 94.94 17.03 84.49 23.36 84.56 27.48 71.32 40.72"/><path class="cls-1" d="M49.63,56.27,59.89,66.53,41.06,85.46a7.21,7.21,0,0,1-9.51-.14c-5-4.17-1.08-9.84-1.08-9.84Z"/><path class="cls-1" d="M104.55,127.93c-.58,0-22-.24-30.55-23.4l-58.27,0A15.29,15.29,0,0,1,3,89L3,12.41C3.85,8.05,7.58-.11,15.7.08H112l.3.07C112.77.28,125,3.47,125,12.05l-.06,78.74c-.3,1.36-3.16,13.28-10.54,13.28H99c-.31,4.33-.18,14.44,7,19.37l6.4,4.4-7.77.09ZM16.35,99.61H77.54l.56,1.7c4.4,13.54,13.39,18.63,19.66,20.54-5.43-8.67-3.55-20.06-3.45-20.66l.36-2H114.4c2.31,0,4.75-5.24,5.68-9.17V12.05c0-3.8-6.2-6.34-8.76-7H15.42C10,5,8.2,11.86,7.92,13.11V89A10.36,10.36,0,0,0,16.35,99.61Z"/></svg>