<svg id="Layer_1" data-name="Layer 1" xmlns="http://www.w3.org/2000/svg" viewBox="0 0 128 128"><defs><style>.cls-1{fill:#009fcb;}</style></defs><title>iconos Firan 128x128 px</title><path class="cls-1" d="M43,109.08s25.92,8.79,43.12-.22V94.76S84.62,79.69,71.85,79.69H57.9S39.36,79.55,43,109.08Z"/><ellipse class="cls-1" cx="64.74" cy="66.27" rx="12.7" ry="12.66"/><path class="cls-1" d="M40.18,99.69s-2.71-16.22,13.51-22.3c0,0-4.91-4.84-4.59-10.73H36.24s-15,2-15.06,14.22S21.12,96,21.12,96,35.53,100.27,40.18,99.69Z"/><path class="cls-1" d="M49.19,63.81s1.33-6.65,5.81-9.9c0,0,1.18-11.87-12.35-13.34,0,0-11.09-.74-12.68,12.55,0,0,.37,12.44,12.12,12.44C42.09,65.56,47,65.57,49.19,63.81Z"/><path class="cls-1" d="M80.36,64.64S77.5,56.28,73,53c0,0-.62-11.23,12.92-12.7,0,0,11.08-.73,12.67,12.56,0,0-.26,11.81-11.32,12.59C87.28,65.47,82.51,66.4,80.36,64.64Z"/><path class="cls-1" d="M80.31,66.58s-.5,7.28-4.74,10.75c0,0,15.77,5.37,13.72,22.35,0,0,14-.36,17.82-3.89V81.43s-2.19-14.43-14-14.57S80.31,66.58,80.31,66.58Z"/><path class="cls-1" d="M54.72,43.81s3.21,4.72,2.76,8.4c0,0,6.75-3.4,13.14-.42,0,0,.21-5.11,2.77-8C73.39,43.78,67.44,42.42,54.72,43.81Z"/><ellipse class="cls-1" cx="64" cy="28.72" rx="13.69" ry="13.64"/><path class="cls-1" d="M101.09,54a15,15,0,0,1-4.56,10.64s15,4.11,13.44,22.22c0,0,14.54-.15,18-3.71V68.69s-3.42-14.76-14.68-14.76S101.09,54,101.09,54Z"/><path class="cls-1" d="M93.82,40.36s6.48,3.82,7.14,11.26c0,0,13,6.23,17.85-8.81,0,0,2.22-11.13-9.72-14.61C109.09,28.2,95.53,25.33,93.82,40.36Z"/><path class="cls-1" d="M26.91,54.43a15,15,0,0,0,4.56,10.65s-15,4.1-13.44,22.21c0,0-14.54-.14-18-3.7V69.12S3.42,54.37,14.68,54.37,26.91,54.43,26.91,54.43Z"/><path class="cls-1" d="M34.13,40.85S27.65,44.66,27,52.11c0,0-13,6.23-17.85-8.81,0,0-2.23-11.13,9.72-14.61C18.86,28.69,32.42,25.82,34.13,40.85Z"/></svg>