<svg id="Layer_1" data-name="Layer 1" xmlns="http://www.w3.org/2000/svg" viewBox="0 0 128 128"><defs><style>.cls-1{fill:#009fcb;}</style></defs><title>iconos Firan 128x128 px</title><path class="cls-1" d="M14.12,101.55l8.14-8S11,78.39,12.05,61.44,24.3,14.28,61.25,11.22c0,0,13.17-2.1,29.24,7.29l-6.12,6.37L108.8,27,106.25,1.48l-8,8.44A69.2,69.2,0,0,0,63,0S18.85.44,4.64,42.5C4.64,42.5-7.66,73.47,14.12,101.55Z"/><path class="cls-1" d="M116.9,29.44l-8.58,7.21a51.43,51.43,0,0,1,7.74,28.56c-.49,17-12.25,47.16-49.21,50.23,0,0-12.46,1.06-23.89-4.65L49.3,103l-24.6-.42L29.3,128l6.42-8.15s11.35,6.9,29.38,6.8c0,0,44.16-.44,58.36-42.49C123.46,84.16,134.36,56.53,116.9,29.44Z"/><path class="cls-1" d="M63.88,98.67a35.06,35.06,0,1,1,35-35.06A35.07,35.07,0,0,1,63.88,98.67Zm0-67.81A32.75,32.75,0,1,0,96.59,63.61,32.77,32.77,0,0,0,63.88,30.86Z"/><path class="cls-1" d="M31.59,68.26s8.21-3.53,9.2-4.75c.8-1,2.65-1.67,1.4-2.6S39.82,59.1,40,57.75s-.1-5.49.37-6a12.82,12.82,0,0,1,3.72-2.37c1.53-.6,3.89-1.52,3.86-3.58,0-2.74-2.47-6.92-3.49-7.85,0,0-8.27,5-10.78,14.22s-2.19,14.37-2.05,16.09"/><path class="cls-1" d="M54,45.53s-.49-1-1.07-.12-4,8.18-4.13,11.94.74,2.23,1.24,2a31,31,0,0,0,4.75-5.05C55,53.67,56.28,48.13,54,45.53Z"/><path class="cls-1" d="M42.84,88.13s5.5,1.69,8.51,1,2.67-1.27,2-2-4-4.37-2.2-5.45,6.29-4.93,5.82-7.51-.37-1.27-2.11-1.64a47.88,47.88,0,0,1-8.13-3.72c-.51-.42-2.58-1.22-3-.42A11.12,11.12,0,0,1,40.64,71c-.52.23-2.54,4.51-2.54,8.45s-.61,2.63-.33,3.81S42.61,88,42.84,88.13Z"/><path class="cls-1" d="M87.13,86.16S75.78,90,73.84,89.77s-4.63-.86-1.94-2.58,6.25-2.7,6.84-4.53,2-7.32,2.32-8.61,1.24-3,1.24-4-.86-2-.43-3.77S85.8,61,85.8,59.51s-.81-7.6-1.56-8.94S78.9,46,78.42,45.4a10,10,0,0,0-2.59-2.21c-.7-.32-3.33-1.46-4-3.18s-2.37-6.73-2.21-7.38a3,3,0,0,1,.59-1.13S85.94,35,92.73,48.24a3.75,3.75,0,0,1-1.65,1.3C90,50,87.76,50.43,88,54s1.57,6.47,2,6.81S93.82,64,94.2,65.05a37,37,0,0,1,1.54,4.28c0,.55-2.19,8.33-3.43,10.14s-5,6.53-5.18,6.69"/></svg>