<svg id="Layer_1" data-name="Layer 1" xmlns="http://www.w3.org/2000/svg" viewBox="0 0 128 128"><defs><style>.cls-1{fill:#009fcb;}</style></defs><title>iconos Firan 128x128 px</title><path class="cls-1" d="M88.53,66.62l-.06,0-3.2,13.32h-5.4l3.73-15s-11.48-1-18.65-1S47.42,63.82,44.36,65L48,80H42.62L39.48,66.71S16,75.65,16,99.79V128H112V99.66S112.48,77.39,88.53,66.62Zm-3.17,45.81c0,4-4.63,4.81-4.63,4.81H48.05a5.16,5.16,0,0,1-5.41-4.87V90.44a6.36,6.36,0,0,1,1.54-3.92,5,5,0,0,1,3-1.24h6.6s.89-2,1.66-3.6a3.28,3.28,0,0,1,2.37-1.83H70a2.73,2.73,0,0,1,2.22,1.4l1.9,4,6.44,0a6.09,6.09,0,0,1,3.1,1.17,6,6,0,0,1,1.67,3.77Z"/><path class="cls-1" d="M64.13,90.57a10.67,10.67,0,1,0,10.66,10.67A10.67,10.67,0,0,0,64.13,90.57Z"/><path class="cls-1" d="M63.83,53.4A26.88,26.88,0,0,0,90.89,26.7a27.06,27.06,0,0,0-54.11,0A26.87,26.87,0,0,0,63.83,53.4Z"/></svg>