<svg id="Layer_1" data-name="Layer 1" xmlns="http://www.w3.org/2000/svg" viewBox="0 0 113.79 111.99"><defs><style>.cls-1{fill:#d44095;}</style></defs><title>Footer FIRAN-01</title><path class="cls-1" d="M106.69,77.13a72.18,72.18,0,0,1-22.22-3.4,6.54,6.54,0,0,0-6.35,1.46L64.45,88.51a92.59,92.59,0,0,1-41-39.79L37.09,35.35a5.83,5.83,0,0,0,1.57-6.12A66.64,66.64,0,0,1,35.1,7.63a6.22,6.22,0,0,0-6.22-6H7.1a6.22,6.22,0,0,0-6.22,6c0,56.82,47.35,102.86,105.79,102.86a6.23,6.23,0,0,0,6.22-6.06V83.3A6.22,6.22,0,0,0,106.69,77.13ZM57,1.5V62L75.6,43.85h37.3V1.5Z"/></svg>