<svg id="Layer_1" data-name="Layer 1" xmlns="http://www.w3.org/2000/svg" viewBox="0 0 305.25 171.75"><defs><style>.cls-1{fill:#6b6b6b;}</style></defs><title>Footer FIRAN-01</title><rect class="cls-1" x="1.29" y="102.03" width="2.44" height="15.7"/><polygon class="cls-1" points="18.32 100.97 18.32 117.73 20.75 117.73 20.75 106.74 32.54 118.69 32.54 102.04 30.09 102.04 30.09 112.95 18.32 100.97"/><polygon class="cls-1" points="51.57 117.73 51.57 104.26 55.28 104.26 55.28 102.04 45.42 102.04 45.42 104.26 49.13 104.26 49.13 117.73 51.57 117.73"/><polygon class="cls-1" points="77.07 104.26 77.07 102.04 68.17 102.04 68.17 117.73 77.07 117.73 77.07 115.51 70.6 115.51 70.6 110.26 76.89 110.26 76.89 108.04 70.6 108.04 70.6 104.26 77.07 104.26"/><path class="cls-1" d="M99.05,109.51a4.41,4.41,0,0,0,1-2.87,4.27,4.27,0,0,0-1.57-3.44A7.33,7.33,0,0,0,93.85,102H91v15.71h2.43v-6.46h.44l4.61,6.46h3l-5-6.69A4.49,4.49,0,0,0,99.05,109.51Zm-4.85-.27h-.78v-5h.88c2.23,0,3.36.8,3.36,2.41S96.51,109.24,94.2,109.24Z"/><polygon class="cls-1" points="117.03 106.74 128.82 118.69 128.82 102.04 126.38 102.04 126.38 112.95 114.6 100.97 114.6 117.73 117.03 117.73 117.03 106.74"/><path class="cls-1" d="M144.3,117.74l1.8-3.87H153l1.69,3.87h2.67L149.61,101l-8,16.7Zm5.33-11.38,2.39,5.33h-4.91Z"/><path class="cls-1" d="M176.91,104a6.8,6.8,0,0,1,4.38,1.71v-2.8a8.53,8.53,0,0,0-4.21-1.15,8.2,8.2,0,0,0-6.47,2.88,7.91,7.91,0,0,0-2,5.34,7.77,7.77,0,0,0,2.43,5.72,8.28,8.28,0,0,0,5.92,2.36,9.1,9.1,0,0,0,4.39-1.15v-2.81a10,10,0,0,1-1.13.84,5.83,5.83,0,0,1-1.05.55,5.25,5.25,0,0,1-2.18.41,5.77,5.77,0,0,1-4.2-1.69,6,6,0,0,1,0-8.4A5.61,5.61,0,0,1,176.91,104Z"/><rect class="cls-1" x="195.07" y="102.03" width="2.44" height="15.7"/><path class="cls-1" d="M219.65,118a8.53,8.53,0,0,0,6-2.38,7.66,7.66,0,0,0,2.48-5.74,7.8,7.8,0,0,0-2.48-5.78,8.26,8.26,0,0,0-5.92-2.39,8.36,8.36,0,0,0-6,2.38,8,8,0,0,0-.32,11.25,5.9,5.9,0,0,0,.57.55A8.5,8.5,0,0,0,219.65,118Zm-4.16-12.36a5.85,5.85,0,0,1,4.26-1.7,5.75,5.75,0,0,1,4.24,1.7,6,6,0,0,1,0,8.43,5.88,5.88,0,0,1-4.29,1.7,5.82,5.82,0,0,1-4.14-1.68,5.94,5.94,0,0,1-.11-8.4l.05,0Z"/><polygon class="cls-1" points="241.95 100.97 241.95 117.73 244.4 117.73 244.4 106.74 256.17 118.69 256.17 102.04 253.74 102.04 253.74 112.95 241.95 100.97"/><path class="cls-1" d="M271.69,117.74l1.8-3.87h6.91l1.69,3.87h2.68L277,101l-8,16.7ZM277,106.36l2.39,5.33h-4.9Z"/><polygon class="cls-1" points="299.89 102.04 297.46 102.04 297.46 117.73 304.65 117.73 304.65 115.51 299.89 115.51 299.89 102.04"/><ellipse class="cls-1" cx="203.43" cy="12.28" rx="11.55" ry="11.23"/><path class="cls-1" d="M211.85,30.49a23.82,23.82,0,0,1-16.8,0V93.05h16.8Z"/><path class="cls-1" d="M156.67,44.09a4,4,0,0,1-.57.14l-.58.16a15.7,15.7,0,0,1-3.41.38,15.1,15.1,0,0,1-15.3-14.88H122.69V93h14.22V54.48a30,30,0,0,0,4.11,2l26.21,36.57h17.5L158.5,57.92h0a29,29,0,0,0,23.18-28c0-15.84-13.25-28.84-29.53-28.84H122.69V14.56h29.73a15,15,0,0,1,4.25,29.53Zm-27.14,4.28a27.87,27.87,0,0,1-6.84-18.3,28.2,28.2,0,0,0,6.93,18.3Z"/><path class="cls-1" d="M1.29,58V93H15.5V49.25H47.17v-13H15.54V14.56H48.39V1.09H16c-10.43,0-14.71.12-14.71,22.4V58Z"/><path class="cls-1" d="M59.49,23.49h0V57.31h0V93h47.12V79.89H73.85V49.08H106.6V35.65H73.85V14.56h32.74V1.1H74.19C64.33,1.1,60,1.22,59.52,20h0v3.44Zm0,33.76v0Zm0-2.2v.5c0-.16,0-.33,0-.5Z"/><path class="cls-1" d="M262.37,32.57c.84,2.59,24.16,60.48,24.16,60.48h18.09L267,1.08h-8.64L246,28.57,218,93.06h18.3Z"/><path class="cls-1" d="M104,156.4v4.34a9.65,9.65,0,0,1-.81-.62l-9.05-13.69h0L84.06,131.3c-1.47-2.21-2.5-3.76-4.31-3.88h-6v9.66h0v33.39h6V137l9.43,14.22h0l10.1,15.12c1.59,2.39,2.58,4,4.78,4h6v-.14h0V127.38h-6Z"/><path class="cls-1" d="M18.25,154.06a13.52,13.52,0,0,0-3-26.68H1.87v6.47H15.24a7,7,0,1,1-7,7.05v-.05H1.83v29.54H8.5V152.56a12,12,0,0,0,1.6.81H10l12.27,17.09h8.26L18.38,154.05ZM2.07,143.18a.88.88,0,0,0-.09-.47C2,142.87,2.05,143,2.07,143.18Zm13.25,11.23h0Zm2-.18-.52.07C17,154.29,17.17,154.25,17.34,154.23Z"/><path class="cls-1" d="M264.29,151.62V130.28H258v24.21c0,3.51-.58,6-1.73,7.58a8.61,8.61,0,0,1-5,3.22h-.2l-.7.1H249a10.27,10.27,0,0,1-1.11,0h-.07a3.11,3.11,0,0,1-1-.15,7.62,7.62,0,0,1-5.55-3.88h0a12.47,12.47,0,0,1-1.29-6.15V130.28h-6.24v25.85a15.79,15.79,0,0,0,1,5.73,2.72,2.72,0,0,1,.11.25,6.36,6.36,0,0,0,.34.75,13.13,13.13,0,0,0,1.15,1.95l.25.35c.14.18.28.37.44.56s.5.59.79.87.76.73,1.15,1.06h0a14.27,14.27,0,0,0,2.38,1.62l.25.14c.35.18.72.35,1.06.51l.48.19c.31.1.61.22.92.31l.57.17c.32.08.64.17,1,.23l.41.08c.41.06.82.13,1.23.17H249a15.46,15.46,0,0,0,8.77-2.59l.27-.19.74-.57.49-.39c.32-.28.66-.58,1-.89A14.19,14.19,0,0,0,264.31,156Z"/><path class="cls-1" d="M140.93,164.48a13.59,13.59,0,0,1-5.6,1,14.7,14.7,0,0,1-10.76-4.34,15.4,15.4,0,0,1-2.46-3.17,22.42,22.42,0,0,0,2.59,3.88,19.36,19.36,0,0,1-4.11-7.6c-.09-.35-.19-.7-.26-1.07V153l-.12-.88v-1.76a15.08,15.08,0,0,1,4.43-10.66,14.42,14.42,0,0,1,10.73-4.44c1,0,5.74-.11,11.19,4.39v-7.19a20.74,20.74,0,0,0-10.75-2.93,21,21,0,0,0-16.63,7.37A20.31,20.31,0,0,0,114,150.32a21,21,0,0,0,2.8,10.92c0,.12.14.22.22.34.2.32.4.63.61.93l.44.61a12.63,12.63,0,0,0,1,1.21,23.39,23.39,0,0,0,11.36,6.35,24,24,0,0,0,7.12.41h0a23.29,23.29,0,0,0,9.05-2.82V161a33.91,33.91,0,0,1-2.91,2.13A16.49,16.49,0,0,1,140.93,164.48Zm-14.79-1.06c.27.29.56.56.84.85-.28-.26-.57-.53-.84-.83Zm-1.19-1.3.86.95Zm4.81,4.57,1.51,1.13Zm-2.39-2.06.84.78Zm1.29,1.11c.29.25.57.49.86.71a6.16,6.16,0,0,1-.91-.68Zm6.92,4.65-.26-.12Zm-.93-.49-.39-.2Zm-1.05-.59-.48-.29Zm-1.12-.71-.57-.36Zm3.81,2.12h0Z"/><path class="cls-1" d="M212.63,155.23H223v.5a6.78,6.78,0,0,1-.29,1.18,10.69,10.69,0,0,1-3,4.9l-.22.22-.26.22-.3.27-.39.29c-.23.18-.45.35-.67.49s-.53.36-.8.52h0l-.4.22a12.08,12.08,0,0,1-5.7,1.46h-.27a14.23,14.23,0,0,1-8.45-2.83l-.52-.38-.32-.26c-.24-.18-.47-.36-.7-.57l-.13-.11-.14-.12a13.82,13.82,0,0,1-1.86-2l-.07-.08c-.23-.31-.44-.62-.63-.92h0a15.35,15.35,0,0,1,2.34-18.57,15,15,0,0,1,11-4.39q7.31,0,12.39,6.58l4.45-4.14a25.76,25.76,0,0,0-7.9-6.24,21.41,21.41,0,0,0-9.05-1.93,21.13,21.13,0,0,0-15.31,6.12,20.57,20.57,0,0,0-.53,29.09l.43.42a20.38,20.38,0,0,0,14.86,6.1,21.3,21.3,0,0,0,2.52-.15,19.28,19.28,0,0,0,5.35-1.29l.43-.18c.53-.24,1-.5,1.55-.77l.11-.07c.52-.3,1-.62,1.5-1l.17-.12.14-.11c.43-.33.85-.66,1.29-1a5.86,5.86,0,0,0,.44-.42c.15-.14.29-.27.42-.41a18.42,18.42,0,0,0,4.7-9,.48.48,0,0,1,0-.17c.09-.42.17-.86.22-1.29.1-.68.18-1.4.22-2.13a.33.33,0,0,0,0-.14v-3.43h-17Z"/><path class="cls-1" d="M50.51,127.44l-5.79,12.84L31.66,170.43h8.55l12.2-28.26c.39,1.16,11.28,28.26,11.28,28.26h8.48l-17.6-43Z"/><path class="cls-1" d="M167.67,127.46l-5.83,12.85-13.07,30.15h8.56l12.26-28.28c.4,1.18,11.3,28.27,11.3,28.27h8.46l-17.61-43Z"/><path class="cls-1" d="M283,127.44l-5.79,12.84-13.06,30.15h8.55l12.2-28.26c.39,1.16,11.29,28.26,11.29,28.26h8.47l-17.62-43Z"/></svg>