<svg id="Layer_1" data-name="Layer 1" xmlns="http://www.w3.org/2000/svg" viewBox="0 0 227.41 161.69"><defs><style>.cls-1{fill:#d44095;}</style></defs><title>Footer FIRAN-01</title><path class="cls-1" d="M24.84,11.29v8.45a16.52,16.52,0,0,0-4-3.67,8.18,8.18,0,0,0-4.11-1,8.2,8.2,0,0,0-6.14,2.52,8.68,8.68,0,0,0-2.45,6.31,8.85,8.85,0,0,0,2.36,6.37,8,8,0,0,0,6.08,2.48,8.51,8.51,0,0,0,4.17-1A16.41,16.41,0,0,0,24.84,28v8.45a17.54,17.54,0,0,1-8,2.06,15.53,15.53,0,0,1-11-4.12A13.62,13.62,0,0,1,1.43,24.08,13.81,13.81,0,0,1,5.9,13.66a15.45,15.45,0,0,1,11-4.24A16.92,16.92,0,0,1,24.84,11.29Z"/><path class="cls-1" d="M29.84,23.71a13.5,13.5,0,0,1,4.41-10.14,15.83,15.83,0,0,1,21.48,0A14.47,14.47,0,0,1,56,34l-.27.27a15.2,15.2,0,0,1-10.86,4.16,14.58,14.58,0,0,1-10.69-4.24A14,14,0,0,1,29.84,23.71Zm6.75.1a9.23,9.23,0,0,0,2.27,6.54,9,9,0,0,0,12.29,0,9,9,0,0,0,2.3-6.42,9,9,0,0,0-2.3-6.44A8.12,8.12,0,0,0,45,15.06a8.06,8.06,0,0,0-6.08,2.43,8.71,8.71,0,0,0-2.38,6.32Z"/><path class="cls-1" d="M67,10.11H73.6v2.55a10.92,10.92,0,0,1,7.75-3.38,10,10,0,0,1,7.72,3q2.39,2.58,2.38,8.44V37.64H84.86V22.29a9.86,9.86,0,0,0-1.16-5.64,4.74,4.74,0,0,0-4.12-1.59A5.09,5.09,0,0,0,75,17.15a14.11,14.11,0,0,0-1.35,7.23v13.3H67Z"/><path class="cls-1" d="M106.47,16.06V37.68H99.93V16.06H97.08V10.11h2.8V0h6.54V10.11h5.06v5.95Z"/><path class="cls-1" d="M137.46,10.11H144V37.68h-6.57V34.79a12.87,12.87,0,0,1-18.18-.16l-.26-.28a15.12,15.12,0,0,1-3.8-10.54A14.71,14.71,0,0,1,119,13.47a12.48,12.48,0,0,1,9.56-4.12,12.28,12.28,0,0,1,8.88,4ZM121.9,23.81a9.42,9.42,0,0,0,2.2,6.45,7.22,7.22,0,0,0,5.66,2.52,7.68,7.68,0,0,0,5.88-2.43,10.24,10.24,0,0,0,0-12.79,7.55,7.55,0,0,0-5.83-2.47,7.32,7.32,0,0,0-5.71,2.5,9,9,0,0,0-2.2,6.22Z"/><path class="cls-1" d="M174.36,11.29v8.45a16.07,16.07,0,0,0-4-3.67,8.79,8.79,0,0,0-10.25,1.51,8.66,8.66,0,0,0-2.45,6.31A8.85,8.85,0,0,0,160,30.26a8.07,8.07,0,0,0,6.09,2.48,8.36,8.36,0,0,0,4.15-1,16.2,16.2,0,0,0,4.1-3.73v8.45a17.46,17.46,0,0,1-8,2.06,15.51,15.51,0,0,1-11-4.12,13.64,13.64,0,0,1-4.44-10.34,13.79,13.79,0,0,1,4.49-10.42,15.42,15.42,0,0,1,11-4.24A16.85,16.85,0,0,1,174.36,11.29Z"/><path class="cls-1" d="M187.47,16.06V37.68h-6.55V16.06h-2.77V10.11h2.78V0h6.56V10.11h5.06v5.95Z"/><path class="cls-1" d="M196.08,23.71a13.57,13.57,0,0,1,4.41-10.14,15.84,15.84,0,0,1,21.49,0A14.45,14.45,0,0,1,222.3,34c-.11.11-.21.22-.32.32a15.2,15.2,0,0,1-10.9,4.23,14.61,14.61,0,0,1-10.67-4.24A14.08,14.08,0,0,1,196.08,23.71Zm6.76.1a9.22,9.22,0,0,0,2.26,6.54,9.06,9.06,0,0,0,12.3,0,8.92,8.92,0,0,0,2.3-6.42,8.93,8.93,0,0,0-2.3-6.44,8.91,8.91,0,0,0-12.23,0,8.71,8.71,0,0,0-2.38,6.32Z"/><path class="cls-1" d="M9.52,54.18,23.94,89.31,38.57,54.18h8.61L23.77,108.7.9,54.18Z"/><path class="cls-1" d="M82.45,61.37H61.61V73.55H81.87v7.21H61.61V97.65H82.52v7.2H53.8V54.18H82.52Z"/><path class="cls-1" d="M92.79,104.88V50.73l38.07,38.68V54.18h7.87V108l-38-38.59v35.47Z"/><path class="cls-1" d="M165.6,61.37v43.51h-7.87V61.37h-12V54.18h31.84v7.19Z"/><path class="cls-1" d="M212.38,92.59H190.06l-5.81,12.31H175.8L201.61,51l24.89,53.9h-8.61Zm-3.21-7.2-7.73-17.24-8.09,17.22Z"/><path class="cls-1" d="M28.77,122.53l-5.42,3.11a9,9,0,0,0-2.89-3.38,6.64,6.64,0,0,0-3.7-.89,6.91,6.91,0,0,0-4.61,1.52,4.77,4.77,0,0,0-1.84,3.8q0,3.13,4.82,5.06l4.42,1.69a18.64,18.64,0,0,1,7.87,5.17,11.46,11.46,0,0,1,2.5,7.48,13,13,0,0,1-4.07,9.8,14.22,14.22,0,0,1-10.13,3.9,13.86,13.86,0,0,1-9.53-3.38,15.19,15.19,0,0,1-4.61-9.34l6.76-1.45A10.76,10.76,0,0,0,10,150.86a7,7,0,0,0,6,2.78,7.09,7.09,0,0,0,5.18-2,6.94,6.94,0,0,0,2.06-5.07,7.17,7.17,0,0,0-.35-2.3,5.7,5.7,0,0,0-1.12-1.92,8,8,0,0,0-2-1.69A19.3,19.3,0,0,0,17,139.17l-4.27-1.69q-9.08-3.72-9.09-10.93a10.27,10.27,0,0,1,3.82-8.09,14,14,0,0,1,9.48-3.38A13.31,13.31,0,0,1,28.77,122.53Z"/><path class="cls-1" d="M51,122.23v36.9H44.24v-36.9H34.11v-6.12h27v6.12Z"/><path class="cls-1" d="M90.69,148.68h-19l-4.91,10.45h-7.2l22-45.72,21.11,45.72H95.39ZM88,142.58,81.4,128l-6.87,14.63Z"/><path class="cls-1" d="M108.16,159.13V113.19L140.43,146v-29.9h6.67v45.61L114.84,129v30.15Z"/><path class="cls-1" d="M157.69,159.13v-43H167a34.72,34.72,0,0,1,10.54,1.29,19.85,19.85,0,0,1,7.54,4.27,21.81,21.81,0,0,1,1,30.82c-.42.44-.85.86-1.29,1.27a21.29,21.29,0,0,1-7.52,4.26,35.49,35.49,0,0,1-10.41,1.2Zm6.76-6.1h3a25.92,25.92,0,0,0,7.48-.92,15.31,15.31,0,0,0,5.39-3.1,14.47,14.47,0,0,0,4.91-11.38,14.72,14.72,0,0,0-4.86-11.48q-4.4-3.95-12.92-3.92h-3Z"/><path class="cls-1" d="M225.32,122.53l-5.42,3.11a9.08,9.08,0,0,0-2.89-3.38,6.64,6.64,0,0,0-3.7-.89,6.9,6.9,0,0,0-4.61,1.52,4.77,4.77,0,0,0-1.84,3.8c0,2.09,1.61,3.78,4.81,5.06l4.43,1.69a18.64,18.64,0,0,1,7.87,5.17,11.35,11.35,0,0,1,2.5,7.48,13,13,0,0,1-4.07,9.8,14.22,14.22,0,0,1-10.13,3.9,13.86,13.86,0,0,1-9.53-3.38,15.19,15.19,0,0,1-4.61-9.34l6.75-1.45a10.86,10.86,0,0,0,1.69,5.24,7,7,0,0,0,6,2.78,7.09,7.09,0,0,0,5.18-2,6.94,6.94,0,0,0,2.06-5.07,7.17,7.17,0,0,0-.35-2.3,5.87,5.87,0,0,0-1.12-1.92,8.35,8.35,0,0,0-2-1.69,21,21,0,0,0-2.87-1.47l-4.27-1.69q-9.07-3.72-9.09-10.93a10.24,10.24,0,0,1,3.82-8.09,14,14,0,0,1,9.47-3.38A13.32,13.32,0,0,1,225.32,122.53Z"/></svg>