<svg id="Layer_1" data-name="Layer 1" xmlns="http://www.w3.org/2000/svg" viewBox="0 0 113.79 111.99"><defs><style>.cls-1{fill:#d44095;}</style></defs><title>Footer FIRAN-01</title><polygon class="cls-1" points="51.39 63.06 67.46 55.26 51.39 47.45 51.39 63.06"/><path class="cls-1" d="M56.91.84C25.58.84.18,25.54.18,56s25.4,55.16,56.73,55.16,56.7-24.7,56.7-55.16S88.25.84,56.91.84Zm23.22,74s-33.19,2.48-44.93,0c0,0-7.15.49-7.15-18.87,0-19.86,7.15-18.36,7.15-18.36a357.39,357.39,0,0,1,43.91,0s8.17-1,8.17,17.87-7.15,19.38-7.15,19.38Z"/><polygon class="cls-1" points="51.39 63.07 67.46 55.26 51.39 47.45 51.39 63.07"/></svg>