<?xml version="1.0" encoding="utf-8"?>
<!-- Generator: Adobe Illustrator 22.0.0, SVG Export Plug-In . SVG Version: 6.00 Build 0)  -->
<svg version="1.1" id="Layer_1" xmlns="http://www.w3.org/2000/svg" xmlns:xlink="http://www.w3.org/1999/xlink" x="0px" y="0px"
	 viewBox="0 0 1151.2 659.5" style="enable-background:new 0 0 1151.2 659.5;" xml:space="preserve">
<style type="text/css">
	.st0{fill:#D44095;}
	.st1{fill:#FFFFFF;stroke:#086888;stroke-width:7;stroke-miterlimit:10;}
</style>
<g>
	<g>
		<g>
			<path class="st0" d="M124.1,580.7H10.2V492h27.1V363.3l0.1-0.4c0.4-1,35.5-103.5,51.2-143c6.7-17,21.3-29.9,42.1-37.1
				c15.5-5.4,28.9-5.9,29.5-5.9l168.1,0v296.3h347.8c1.4,0,2.6,1.2,2.6,2.6c0,1.4-1.2,2.6-2.6,2.6H323.1V182.1H160.3
				c-1.5,0.1-52,2.3-66.8,39.7C78.4,259.9,45,357,42.5,364.2v133H15.4v78.3h108.7c1.4,0,2.6,1.2,2.6,2.6
				C126.7,579.5,125.6,580.7,124.1,580.7z"/>
		</g>
		<g>
			<path class="st0" d="M451.9,580.3H328.3c-1.4,0-2.6-1.2-2.6-2.6c0-1.4,1.2-2.6,2.6-2.6h121.6L501,530h122.8
				c1.4,0,2.6,1.2,2.6,2.6c0,1.4-1.2,2.6-2.6,2.6H503L451.9,580.3z"/>
		</g>
		<g>
			<path class="st0" d="M857.8,535.2h-42.1c-1.4,0-2.6-1.2-2.6-2.6c0-1.4,1.2-2.6,2.6-2.6h42.1c1.4,0,2.6,1.2,2.6,2.6
				C860.4,534,859.2,535.2,857.8,535.2z"/>
		</g>
		<g>
			<path class="st0" d="M1142.4,535.2h-92.9c-1.4,0-2.6-1.2-2.6-2.6c0-1.4,1.2-2.6,2.6-2.6h87.6v-50.4h-141c-1.4,0-2.6-1.2-2.6-2.6
				s1.2-2.6,2.6-2.6h146.3V535.2z"/>
		</g>
		<g>
			<path class="st0" d="M911.2,479.5H762.2c-1.4,0-2.6-1.2-2.6-2.6s1.2-2.6,2.6-2.6h148.9c1.4,0,2.6,1.2,2.6,2.6
				S912.6,479.5,911.2,479.5z"/>
		</g>
		<g>
			<path class="st0" d="M719.4,655.5c-47,0-85.3-38.3-85.3-85.3c0-47,38.3-85.3,85.3-85.3s85.3,38.3,85.3,85.3
				C804.7,617.2,766.4,655.5,719.4,655.5z M719.4,496.1c-40.9,0-74.1,33.2-74.1,74.1c0,40.9,33.2,74.1,74.1,74.1
				s74.1-33.2,74.1-74.1C793.5,529.3,760.2,496.1,719.4,496.1z"/>
		</g>
		<g>
			<path class="st0" d="M952.5,655.5c-47,0-85.3-38.3-85.3-85.3c0-47,38.3-85.3,85.3-85.3s85.3,38.3,85.3,85.3
				C1037.8,617.2,999.6,655.5,952.5,655.5z M952.5,496.1c-40.9,0-74.1,33.2-74.1,74.1c0,40.9,33.2,74.1,74.1,74.1
				s74.1-33.2,74.1-74.1C1026.6,529.3,993.4,496.1,952.5,496.1z"/>
		</g>
		<g>
			<path class="st0" d="M720.1,608.1c-21.7,0-39.4-17.7-39.4-39.4c0-21.7,17.7-39.4,39.4-39.4c21.7,0,39.4,17.7,39.4,39.4
				C759.6,590.4,741.9,608.1,720.1,608.1z M720.1,540.4c-15.6,0-28.2,12.7-28.2,28.2c0,15.6,12.7,28.2,28.2,28.2
				c15.6,0,28.2-12.7,28.2-28.2C748.4,553.1,735.7,540.4,720.1,540.4z"/>
		</g>
		<g>
			<path class="st0" d="M952.5,608.1c-21.7,0-39.4-17.7-39.4-39.4c0-21.7,17.7-39.4,39.4-39.4c21.7,0,39.4,17.7,39.4,39.4
				C992,590.4,974.3,608.1,952.5,608.1z M952.5,540.4c-15.6,0-28.2,12.7-28.2,28.2c0,15.6,12.7,28.2,28.2,28.2
				c15.6,0,28.2-12.7,28.2-28.2C980.8,553.1,968.1,540.4,952.5,540.4z"/>
		</g>
		<g>
			<path class="st0" d="M226,654c-47,0-85.3-38.3-85.3-85.3c0-47,38.3-85.3,85.3-85.3s85.3,38.3,85.3,85.3
				C311.3,615.7,273.1,654,226,654z M226,494.6c-40.9,0-74.1,33.2-74.1,74.1s33.2,74.1,74.1,74.1s74.1-33.2,74.1-74.1
				S266.9,494.6,226,494.6z"/>
		</g>
		<g>
			<path class="st0" d="M226.8,606.6c-21.7,0-39.4-17.7-39.4-39.4c0-21.7,17.7-39.4,39.4-39.4c21.7,0,39.4,17.7,39.4,39.4
				C266.2,588.9,248.5,606.6,226.8,606.6z M226.8,538.9c-15.6,0-28.2,12.7-28.2,28.2s12.7,28.2,28.2,28.2
				c15.6,0,28.2-12.7,28.2-28.2S242.4,538.9,226.8,538.9z"/>
		</g>
		<g>
			<path class="st0" d="M214.8,360.3H80.1L121,248.5c0.1-0.3,3-8.2,11.4-16.1c7.6-7.2,21.4-15.7,44-15.7h105.3v81.2
				c0,2.1-1.7,3.7-3.7,3.7s-3.7-1.7-3.7-3.7v-73.7h-97.8c-38.3,0-48.3,26.6-48.4,26.9L90.7,352.9h124c2.1,0,3.7,1.7,3.7,3.7
				C218.5,358.7,216.8,360.3,214.8,360.3z"/>
		</g>
	</g>
</g>
<rect x="374" y="6.1" class="st1" width="759.6" height="422.4"/>
</svg>
