<svg id="Layer_1" data-name="Layer 1" xmlns="http://www.w3.org/2000/svg" viewBox="0 0 408 392.29"><defs><style>.cls-1{fill:#006787;}.cls-2{fill:#d33f95;}.cls-3{fill:#00a1cf;}</style></defs><title>Seccion portal expositor</title><path class="cls-1" d="M383.45,289.3H134.65V149.2h248.7V289.3Zm-246.8-1.9h244.9V151.2H136.65Z"/><path class="cls-2" d="M54,337.6H16.85V308.7h8.8v-42c.1-.3,11.6-33.7,16.7-46.6,2.2-5.5,6.9-9.7,13.7-12.1a33.29,33.29,0,0,1,9.6-1.9h54.8v96.5h113.3a.9.9,0,1,1,0,1.8h-115V207.9h-53c-.5,0-16.9.8-21.8,12.9-4.9,12.4-15.8,44-16.6,46.4v43.3h-8.8V336H54a.9.9,0,0,1,.9.9A.81.81,0,0,1,54,337.6Z"/><path class="cls-2" d="M160.75,337.5h-40.2a.9.9,0,0,1,0-1.8h39.6l16.7-14.7h40a.9.9,0,1,1,0,1.8h-39.4Z"/><path class="cls-2" d="M292.85,322.8h-13.7a.9.9,0,0,1,0-1.8h13.7a.9.9,0,1,1,0,1.8Z"/><path class="cls-2" d="M385.55,322.8h-30.2a.9.9,0,1,1,0-1.8h28.5V304.6H338a.9.9,0,0,1,0-1.8h47.6Z"/><path class="cls-2" d="M310.25,304.7h-48.5a.9.9,0,0,1,0-1.8h48.5a.9.9,0,1,1,0,1.8Z"/><path class="cls-2" d="M247.85,362a27.8,27.8,0,1,1,27.8-27.8A27.87,27.87,0,0,1,247.85,362Zm0-51.9A24.1,24.1,0,1,0,272,334.2,24.11,24.11,0,0,0,247.85,310.1Z"/><path class="cls-2" d="M323.75,362a27.8,27.8,0,1,1,27.8-27.8A27.87,27.87,0,0,1,323.75,362Zm0-51.9a24.1,24.1,0,1,0,24.1,24.1A24.11,24.11,0,0,0,323.75,310.1Z"/><path class="cls-2" d="M248.05,346.6a12.8,12.8,0,1,1,12.8-12.8A12.82,12.82,0,0,1,248.05,346.6Zm0-22.1a9.2,9.2,0,1,0,9.2,9.2A9.18,9.18,0,0,0,248.05,324.5Z"/><path class="cls-2" d="M323.75,346.6a12.8,12.8,0,1,1,12.8-12.8A12.82,12.82,0,0,1,323.75,346.6Zm0-22.1a9.2,9.2,0,1,0,9.2,9.2A9.18,9.18,0,0,0,323.75,324.5Z"/><path class="cls-2" d="M87.15,361.5A27.8,27.8,0,1,1,115,333.7,27.87,27.87,0,0,1,87.15,361.5Zm0-51.9a24.1,24.1,0,1,0,24.1,24.1A24.11,24.11,0,0,0,87.15,309.6Z"/><path class="cls-2" d="M87.35,346.1a12.8,12.8,0,1,1,12.8-12.8A12.82,12.82,0,0,1,87.35,346.1Zm0-22.1a9.2,9.2,0,1,0,9.2,9.2A9.18,9.18,0,0,0,87.35,324Z"/><path class="cls-2" d="M83.45,265.9H39.65L53,229.5a14.13,14.13,0,0,1,3.7-5.2c2.5-2.3,7-5.1,14.3-5.1h34.3v26.4a1.2,1.2,0,0,1-2.4,0v-24H71c-12.5,0-15.7,8.7-15.8,8.7l-12.1,33.2h40.4a1.2,1.2,0,1,1,0,2.4Z"/><path class="cls-1" d="M71.55,53.8a6.68,6.68,0,0,0-5.4-2.7,7.51,7.51,0,0,0-2.6.5,6,6,0,0,0-2.1,1.4,7.71,7.71,0,0,0-1.4,2.1,5.75,5.75,0,0,0-.5,2.6,8.08,8.08,0,0,0,.5,2.7,6.43,6.43,0,0,0,3.5,3.5,7.08,7.08,0,0,0,2.6.5,7.33,7.33,0,0,0,5.4-2.6v7.4l-.6.2c-1,.3-1.9.6-2.7.8a10.55,10.55,0,0,1-2.5.2,12.8,12.8,0,0,1-4.8-.9,10.9,10.9,0,0,1-4-2.7,12,12,0,0,1-2.8-4.1,12.63,12.63,0,0,1-1.1-5.1,12.22,12.22,0,0,1,1-5.1,12.56,12.56,0,0,1,2.8-4,13.13,13.13,0,0,1,4-2.6,12.8,12.8,0,0,1,4.8-.9,12.65,12.65,0,0,1,2.8.3,19,19,0,0,1,2.9.9v7.6Z"/><path class="cls-1" d="M74.75,57.8a11.76,11.76,0,0,1,1-5,12.56,12.56,0,0,1,2.8-4,11.66,11.66,0,0,1,4.2-2.7,13.33,13.33,0,0,1,5.4-1,14,14,0,0,1,5.4,1,12.78,12.78,0,0,1,7,6.7,13,13,0,0,1,0,10,12.56,12.56,0,0,1-2.8,4,11.66,11.66,0,0,1-4.2,2.7,15.08,15.08,0,0,1-10.8,0,15.13,15.13,0,0,1-4.2-2.7,13.77,13.77,0,0,1-2.8-4A13.5,13.5,0,0,1,74.75,57.8Zm6.6,0a8.08,8.08,0,0,0,.5,2.7,8,8,0,0,0,1.5,2.1,5.55,5.55,0,0,0,2.2,1.4A7,7,0,0,0,93,62.6a6.23,6.23,0,0,0,1.5-2.1,5.92,5.92,0,0,0,.5-2.7,8.08,8.08,0,0,0-.5-2.7A5.38,5.38,0,0,0,93,53a6.36,6.36,0,0,0-2.2-1.4,7,7,0,0,0-7.4,1.4,8,8,0,0,0-1.5,2.1A6.18,6.18,0,0,0,81.35,57.8Z"/><path class="cls-1" d="M111.75,45.8V64.6h7.5v5.3h-13.8V45.8Z"/><path class="cls-1" d="M138.25,65.7h-9l-1.4,4.2h-6.7l9.2-24.1h6.8l9.2,24.1h-6.7Zm-1.7-4.8-2.8-8-2.8,8Z"/><path class="cls-1" d="M149.15,45.8h9.3a7.26,7.26,0,0,1,5.1,1.6,5.82,5.82,0,0,1,1.7,4.6,5.56,5.56,0,0,1-.7,3,4.81,4.81,0,0,1-2,2,6.9,6.9,0,0,1,2.3.8,6.39,6.39,0,0,1,1.5,1.3,3.81,3.81,0,0,1,.8,1.7,6.45,6.45,0,0,1,.3,2,7.31,7.31,0,0,1-.6,3,5.25,5.25,0,0,1-1.7,2.2,7.94,7.94,0,0,1-2.6,1.3,12.48,12.48,0,0,1-3.5.4H149V45.8Zm6.3,9.4h1.2c2,0,2.9-.8,2.9-2.3s-1-2.3-2.9-2.3h-1.2Zm0,9.8h1.4a7.1,7.1,0,0,0,3.4-.6,2.12,2.12,0,0,0,1-2,2.22,2.22,0,0,0-1-2,7.1,7.1,0,0,0-3.4-.6h-1.4Z"/><path class="cls-1" d="M170.05,57.8a11.76,11.76,0,0,1,1-5,12.56,12.56,0,0,1,2.8-4,11.66,11.66,0,0,1,4.2-2.7,13.33,13.33,0,0,1,5.4-1,14,14,0,0,1,5.4,1,12.78,12.78,0,0,1,7,6.7,13,13,0,0,1,0,10,12.56,12.56,0,0,1-2.8,4,11.66,11.66,0,0,1-4.2,2.7,15.08,15.08,0,0,1-10.8,0,15.13,15.13,0,0,1-4.2-2.7,13.77,13.77,0,0,1-2.8-4A11.76,11.76,0,0,1,170.05,57.8Zm6.5,0a8.08,8.08,0,0,0,.5,2.7,8,8,0,0,0,1.5,2.1,5.55,5.55,0,0,0,2.2,1.4,7,7,0,0,0,7.4-1.4,6.23,6.23,0,0,0,1.5-2.1,5.92,5.92,0,0,0,.5-2.7,8.08,8.08,0,0,0-.5-2.7,5.38,5.38,0,0,0-1.5-2.1,6.36,6.36,0,0,0-2.2-1.4,7,7,0,0,0-7.4,1.4,8,8,0,0,0-1.5,2.1A6.18,6.18,0,0,0,176.55,57.8Z"/><path class="cls-1" d="M220.75,69.9H213l-6-9.3v9.3h-6.3V45.8h9.8a9.51,9.51,0,0,1,3.5.6,7.16,7.16,0,0,1,2.5,1.6,7.48,7.48,0,0,1,1.5,2.4,7.1,7.1,0,0,1,.5,2.9,7.27,7.27,0,0,1-1.3,4.5,6.94,6.94,0,0,1-3.9,2.3ZM207,56.6h1.2a4.45,4.45,0,0,0,2.8-.8,2.72,2.72,0,0,0,1-2.2,2.46,2.46,0,0,0-1-2.2,4.65,4.65,0,0,0-2.8-.8H207Z"/><path class="cls-1" d="M238.15,65.7h-9l-1.4,4.2h-6.7l9.2-24.1h6.8l9.2,24.1h-6.7Zm-1.7-4.8-2.8-8-2.8,8Z"/><path class="cls-1" d="M249.05,45.8h9.3a10.3,10.3,0,0,1,4.6,1,14.24,14.24,0,0,1,3.8,2.6,12,12,0,0,1,2.5,3.8,12.21,12.21,0,0,1,0,9.2,14.44,14.44,0,0,1-2.5,3.9A10.52,10.52,0,0,1,263,69a10.73,10.73,0,0,1-4.7,1H249V45.8Zm6.3,18.8h1.4a8.36,8.36,0,0,0,2.9-.5,5.55,5.55,0,0,0,2.2-1.4,5.71,5.71,0,0,0,1.3-2.1,7.54,7.54,0,0,0,0-5.4,6,6,0,0,0-1.4-2.1,5.55,5.55,0,0,0-2.2-1.4,8.81,8.81,0,0,0-2.9-.5h-1.4V64.6Z"/><path class="cls-1" d="M273.15,57.8a11.76,11.76,0,0,1,1-5,12.56,12.56,0,0,1,2.8-4,13.17,13.17,0,0,1,4.2-2.7,13.33,13.33,0,0,1,5.4-1,14,14,0,0,1,5.4,1,13.79,13.79,0,0,1,4.2,2.7,14.37,14.37,0,0,1,2.8,4,13,13,0,0,1,0,10,12.56,12.56,0,0,1-2.8,4,11.66,11.66,0,0,1-4.2,2.7,15.27,15.27,0,0,1-5.4,1,13.33,13.33,0,0,1-5.4-1,15.13,15.13,0,0,1-4.2-2.7,13.77,13.77,0,0,1-2.8-4A11.76,11.76,0,0,1,273.15,57.8Zm6.5,0a8.08,8.08,0,0,0,.5,2.7,8,8,0,0,0,1.5,2.1,5.55,5.55,0,0,0,2.2,1.4,7,7,0,0,0,7.4-1.4,6.23,6.23,0,0,0,1.5-2.1,5.92,5.92,0,0,0,.5-2.7,8.08,8.08,0,0,0-.5-2.7,8,8,0,0,0-1.5-2.1,6.36,6.36,0,0,0-2.2-1.4,7,7,0,0,0-7.4,1.4,8,8,0,0,0-1.5,2.1A8.57,8.57,0,0,0,279.65,57.8Z"/><path class="cls-1" d="M323.85,69.9h-7.8l-6-9.3v9.3h-6.3V45.8h9.8a9.51,9.51,0,0,1,3.5.6,7.16,7.16,0,0,1,2.5,1.6,7.48,7.48,0,0,1,1.5,2.4,9.29,9.29,0,0,1,.5,2.9,7.27,7.27,0,0,1-1.3,4.5,6.94,6.94,0,0,1-3.9,2.3Zm-13.8-13.3h1.2a4.45,4.45,0,0,0,2.8-.8,2.92,2.92,0,0,0,0-4.4,4.65,4.65,0,0,0-2.8-.8h-1.2Z"/><path class="cls-1" d="M340.25,51.1h-7.5v4h7v5.3h-7v4.2h7.5v5.3h-13.7V45.8h13.7Z"/><path class="cls-1" d="M358,52a6.22,6.22,0,0,0-2-1.2,4.77,4.77,0,0,0-2-.4,3.17,3.17,0,0,0-2,.6,1.9,1.9,0,0,0-.8,1.5,1.5,1.5,0,0,0,.4,1.1,3.59,3.59,0,0,0,1,.7,5.78,5.78,0,0,0,1.4.5c.5.2,1,.3,1.6.5a10.78,10.78,0,0,1,4.5,2.7,6.91,6.91,0,0,1,1.4,4.5,9.34,9.34,0,0,1-.6,3.4,6.77,6.77,0,0,1-1.8,2.6,9.25,9.25,0,0,1-2.9,1.7,12.45,12.45,0,0,1-4,.6,14.55,14.55,0,0,1-8.5-2.7l2.7-5.1a11.56,11.56,0,0,0,2.8,1.9,6.6,6.6,0,0,0,2.7.6,3.17,3.17,0,0,0,2.3-.7,2.25,2.25,0,0,0,.8-1.6,2,2,0,0,0-.2-.9,1.87,1.87,0,0,0-.6-.7A6.66,6.66,0,0,0,353,61c-.5-.2-1.1-.4-1.7-.6-.8-.3-1.6-.5-2.4-.8a7.19,7.19,0,0,1-2.1-1.2,7,7,0,0,1-1.5-1.9,6.68,6.68,0,0,1-.6-3,7.94,7.94,0,0,1,.6-3.2,6.19,6.19,0,0,1,1.7-2.5,7.6,7.6,0,0,1,2.6-1.6,9.51,9.51,0,0,1,3.5-.6,16.41,16.41,0,0,1,3.7.5,13.09,13.09,0,0,1,3.7,1.5Z"/><path class="cls-3" d="M60.75,100.5l3-15.4,4.9,11.1,5.1-11.1,2.7,15.4h-2.2l-1.4-8.6-4.2,9.3-4.1-9.3-1.5,8.7h-2.3Z"/><path class="cls-3" d="M85.75,91.5h2.1v9h-2.1v-.9a4,4,0,0,1-5.9-.2,5.13,5.13,0,0,1-1.2-3.5,4.87,4.87,0,0,1,1.2-3.4,3.89,3.89,0,0,1,3-1.4,3.54,3.54,0,0,1,2.8,1.3v-.9Zm-4.9,4.4a2.82,2.82,0,0,0,.7,2.1,2.17,2.17,0,0,0,1.8.8,2.56,2.56,0,0,0,1.9-.8,3,3,0,0,0,.7-2.1,3.14,3.14,0,0,0-.7-2.1,2.56,2.56,0,0,0-1.9-.8,2.5,2.5,0,0,0-1.8.8A3.32,3.32,0,0,0,80.85,95.9Z"/><path class="cls-3" d="M90.45,91.5h2.1v.8a3.14,3.14,0,0,1,1-.8,2,2,0,0,1,1.1-.2,4.06,4.06,0,0,1,1.7.5l-1,1.9a1.92,1.92,0,0,0-1.2-.4c-1.1,0-1.7.9-1.7,2.6v4.7h-2.1V91.5Z"/><path class="cls-3" d="M104.45,91.8v2.8a4.56,4.56,0,0,0-1.3-1.2,2.77,2.77,0,0,0-1.3-.3,3,3,0,0,0-2,.8,3,3,0,0,0-.8,2.1,3.23,3.23,0,0,0,.8,2.1,2.73,2.73,0,0,0,1.9.8,2.77,2.77,0,0,0,1.3-.3,4.56,4.56,0,0,0,1.3-1.2v2.8a5.9,5.9,0,0,1-2.5.7,4.83,4.83,0,0,1-3.5-1.4A4.6,4.6,0,0,1,97,96.1a4.76,4.76,0,0,1,1.4-3.4,4.83,4.83,0,0,1,3.5-1.4A4.51,4.51,0,0,1,104.45,91.8Z"/><path class="cls-3" d="M113.15,91.5h2.1v9h-2.1v-.9a4,4,0,0,1-5.9-.2,5.13,5.13,0,0,1-1.2-3.5,4.87,4.87,0,0,1,1.2-3.4,3.89,3.89,0,0,1,3-1.4,3.54,3.54,0,0,1,2.8,1.3v-.9Zm-5,4.4a2.82,2.82,0,0,0,.7,2.1,2.17,2.17,0,0,0,1.8.8,2.56,2.56,0,0,0,1.9-.8,3,3,0,0,0,.7-2.1,3.14,3.14,0,0,0-.7-2.1,2.56,2.56,0,0,0-1.9-.8,2.5,2.5,0,0,0-1.8.8A4,4,0,0,0,108.15,95.9Z"/><path class="cls-3" d="M123.15,93l-1.7.9c-.3-.6-.6-.8-1-.8a.68.68,0,0,0-.7.7c0,.3.4.7,1.2,1a6.53,6.53,0,0,1,2.2,1.3,2.11,2.11,0,0,1,.6,1.6,2.7,2.7,0,0,1-1,2.2,3.09,3.09,0,0,1-2.3.8,3.21,3.21,0,0,1-3.2-2.2l1.8-.8a1.83,1.83,0,0,0,.6.8,1.8,1.8,0,0,0,.9.4c.7,0,1.1-.3,1.1-1,0-.4-.3-.7-.8-1l-.6-.3-.6-.3a4.85,4.85,0,0,1-1.3-.9,2.46,2.46,0,0,1-.5-1.5,2.56,2.56,0,0,1,.8-1.9,3,3,0,0,1,2-.8A2.73,2.73,0,0,1,123.15,93Z"/><path class="cls-3" d="M133.55,105.4h-2.1v-14h2.1v1a4,4,0,0,1,2.8-1.2,4.1,4.1,0,0,1,3.1,1.4,5,5,0,0,1,1.2,3.4,4.87,4.87,0,0,1-1.2,3.4,3.8,3.8,0,0,1-3,1.3,3.54,3.54,0,0,1-2.8-1.3v6Zm5-9.4a2.82,2.82,0,0,0-.7-2.1,2.5,2.5,0,0,0-1.8-.8,2.56,2.56,0,0,0-1.9.8,2.82,2.82,0,0,0-.7,2.1,3.14,3.14,0,0,0,.7,2.1,2.56,2.56,0,0,0,1.9.8,2.5,2.5,0,0,0,1.8-.8A3.77,3.77,0,0,0,138.55,96Z"/><path class="cls-3" d="M142.85,91.5H145v.8a3.14,3.14,0,0,1,1-.8,2,2,0,0,1,1.1-.2,4.06,4.06,0,0,1,1.7.5l-1,1.9a1.92,1.92,0,0,0-1.2-.4c-1.1,0-1.7.9-1.7,2.6v4.7h-2.1V91.5Z"/><path class="cls-3" d="M158.05,96.5h-6.5a3.59,3.59,0,0,0,.7,1.8,2.27,2.27,0,0,0,1.6.6,2,2,0,0,0,1.3-.4,4.47,4.47,0,0,0,1.1-1.4l1.8,1a6.23,6.23,0,0,1-.9,1.2,3.92,3.92,0,0,1-1,.8,3.7,3.7,0,0,1-1.1.5,5.28,5.28,0,0,1-1.3.1,4.08,4.08,0,0,1-3.2-1.3,5,5,0,0,1-1.2-3.5,5.13,5.13,0,0,1,1.2-3.5,4.59,4.59,0,0,1,6.4,0,4.79,4.79,0,0,1,1.2,3.5ZM156,94.8a2,2,0,0,0-2.1-1.7,1.48,1.48,0,0,0-.7.1l-.6.3c-.2.1-.3.3-.5.5a4.88,4.88,0,0,0-.3.7H156Z"/><path class="cls-3" d="M165.55,93l-1.7.9c-.3-.6-.6-.8-1-.8a.68.68,0,0,0-.7.7c0,.3.4.7,1.2,1a6.53,6.53,0,0,1,2.2,1.3,2.11,2.11,0,0,1,.6,1.6,2.7,2.7,0,0,1-1,2.2,3.09,3.09,0,0,1-2.3.8,3.21,3.21,0,0,1-3.2-2.2l1.8-.8a1.83,1.83,0,0,0,.6.8,1.8,1.8,0,0,0,.9.4c.7,0,1.1-.3,1.1-1,0-.4-.3-.7-.8-1l-.6-.3-.6-.3a4.85,4.85,0,0,1-1.3-.9,2.46,2.46,0,0,1-.5-1.5,2.56,2.56,0,0,1,.8-1.9,3,3,0,0,1,2-.8A2.63,2.63,0,0,1,165.55,93Z"/><path class="cls-3" d="M176.25,96.5h-6.5a3.59,3.59,0,0,0,.7,1.8,2.27,2.27,0,0,0,1.6.6,2,2,0,0,0,1.3-.4,4.47,4.47,0,0,0,1.1-1.4l1.8,1a6.23,6.23,0,0,1-.9,1.2,3.92,3.92,0,0,1-1,.8,3.7,3.7,0,0,1-1.1.5,5.28,5.28,0,0,1-1.3.1,4.08,4.08,0,0,1-3.2-1.3,5,5,0,0,1-1.2-3.5,5.13,5.13,0,0,1,1.2-3.5,4.59,4.59,0,0,1,6.4,0,4.79,4.79,0,0,1,1.2,3.5Zm-2.1-1.7a2,2,0,0,0-2.1-1.7,1.48,1.48,0,0,0-.7.1l-.6.3c-.2.1-.3.3-.5.5a4.88,4.88,0,0,0-.3.7h4.2Z"/><path class="cls-3" d="M178.55,91.5h2.1v.8a3.58,3.58,0,0,1,2.5-1.1,3,3,0,0,1,2.5,1,4.25,4.25,0,0,1,.8,2.8v5.5h-2.2v-5a2.65,2.65,0,0,0-.4-1.8,1.95,1.95,0,0,0-2.8.2,4.7,4.7,0,0,0-.4,2.4v4.4h-2.1Z"/><path class="cls-3" d="M191.15,93.4v7.1h-2.1V93.4h-.9V91.5h.9V88.2h2.1v3.3h1.6v1.9Z"/><path class="cls-3" d="M202.55,96.5h-6.5a3.59,3.59,0,0,0,.7,1.8,2.27,2.27,0,0,0,1.6.6,2,2,0,0,0,1.3-.4,4.47,4.47,0,0,0,1.1-1.4l1.8,1a6.23,6.23,0,0,1-.9,1.2,3.92,3.92,0,0,1-1,.8,3.7,3.7,0,0,1-1.1.5,5.28,5.28,0,0,1-1.3.1,4.08,4.08,0,0,1-3.2-1.3,5,5,0,0,1-1.2-3.5,5.13,5.13,0,0,1,1.2-3.5,4.59,4.59,0,0,1,6.4,0,4.79,4.79,0,0,1,1.2,3.5Zm-2.1-1.7a2,2,0,0,0-2.1-1.7,1.48,1.48,0,0,0-.7.1l-.6.3c-.2.1-.3.3-.5.5a4.88,4.88,0,0,0-.3.7h4.2Z"/><path class="cls-3" d="M210.05,93l-1.7.9c-.3-.6-.6-.8-1-.8a.68.68,0,0,0-.7.7c0,.3.4.7,1.2,1a6.53,6.53,0,0,1,2.2,1.3,2.11,2.11,0,0,1,.6,1.6,2.7,2.7,0,0,1-1,2.2,3.09,3.09,0,0,1-2.3.8,3.21,3.21,0,0,1-3.2-2.2l1.8-.8a1.83,1.83,0,0,0,.6.8,1.8,1.8,0,0,0,.9.4c.7,0,1.1-.3,1.1-1,0-.4-.3-.7-.8-1l-.6-.3-.6-.3a4.85,4.85,0,0,1-1.3-.9,2.46,2.46,0,0,1-.5-1.5,2.56,2.56,0,0,1,.8-1.9,3,3,0,0,1,2-.8A2.63,2.63,0,0,1,210.05,93Z"/><path class="cls-3" d="M226.65,96.5h-6.5a3.59,3.59,0,0,0,.7,1.8,2.27,2.27,0,0,0,1.6.6,2,2,0,0,0,1.3-.4,4.47,4.47,0,0,0,1.1-1.4l1.8,1a6.23,6.23,0,0,1-.9,1.2,3.92,3.92,0,0,1-1,.8,3.7,3.7,0,0,1-1.1.5,5.28,5.28,0,0,1-1.3.1,4.08,4.08,0,0,1-3.2-1.3,5,5,0,0,1-1.2-3.5,5.13,5.13,0,0,1,1.2-3.5,4.59,4.59,0,0,1,6.4,0,4.79,4.79,0,0,1,1.2,3.5Zm-2.1-1.7a2,2,0,0,0-2.1-1.7,1.48,1.48,0,0,0-.7.1l-.6.3c-.2.1-.3.3-.5.5a4.88,4.88,0,0,0-.3.7h4.2Z"/><path class="cls-3" d="M229,91.5h2.1v.8a3.58,3.58,0,0,1,2.5-1.1,3,3,0,0,1,2.5,1,4.25,4.25,0,0,1,.8,2.8v5.5h-2.1v-5a2.65,2.65,0,0,0-.4-1.8,1.95,1.95,0,0,0-2.8.2,4.7,4.7,0,0,0-.4,2.4v4.4h-2.1V91.5Z"/><path class="cls-3" d="M255.25,90.2v1.6H253l-.3,2.7h2.1v1.6h-2.3l-.5,4.4-1.6-.2.5-4.2h-2.8l-.6,4.4-1.7-.2.5-4.3h-2V94.4h2.3l.3-2.7h-2.1V90.1h2.3l.5-4.2,1.6.2-.5,3.9h2.7l.5-4.2,1.6.2-.5,3.9h2.3Zm-3.9,1.6h-2.7l-.3,2.7h2.7Z"/><path class="cls-3" d="M257.05,90.7V88.9a3.92,3.92,0,0,1,.4-1.8,4.18,4.18,0,0,1,1.1-1.5,5.37,5.37,0,0,1,1.6-1,6.46,6.46,0,0,1,1.9-.4,4.06,4.06,0,0,1,1.9.4,4.35,4.35,0,0,1,1.6,1,4.18,4.18,0,0,1,1.1,1.5,3.92,3.92,0,0,1,.4,1.8v.4h-3.4v-.4a2,2,0,0,0-.1-.7l-.3-.6a1,1,0,0,0-.5-.4,1.45,1.45,0,0,0-.7-.2,1.66,1.66,0,0,0-1.2.5,2.08,2.08,0,0,0-.5,1.2v1.8h2v2.9h-2v6.9H257V93.4h-1.2V90.5h1.3Zm10.2,9.8h-3.4V90.8h3.4Z"/><path class="cls-3" d="M269.55,90.7H273v1.6a4,4,0,0,1,1.3-1.3,3.83,3.83,0,0,1,1.9-.5h.7v3.3a4,4,0,0,0-1.5-.3,2.14,2.14,0,0,0-1.8.7,3.28,3.28,0,0,0-.6,2.1v4.2h-3.4V90.7Z"/><path class="cls-3" d="M286.05,90.7h3.5v9.7h-3.5V99.3a3.61,3.61,0,0,1-3,1.4,4.48,4.48,0,0,1-2-.4,5.72,5.72,0,0,1-1.6-1.1,3.67,3.67,0,0,1-1-1.7,6.54,6.54,0,0,1-.4-2.1,4.48,4.48,0,0,1,.4-2,4.35,4.35,0,0,1,1-1.6,5.83,5.83,0,0,1,1.5-1.1,4.48,4.48,0,0,1,2-.4,3.8,3.8,0,0,1,3,1.3v-.9Zm-4.3,4.9a2.92,2.92,0,0,0,.2.9,2.62,2.62,0,0,0,1.2,1.2,2.12,2.12,0,0,0,1.8,0,2.62,2.62,0,0,0,1.2-1.2,2.13,2.13,0,0,0,0-1.8,2.62,2.62,0,0,0-1.2-1.2,2.12,2.12,0,0,0-1.8,0,2.62,2.62,0,0,0-1.2,1.2A1.49,1.49,0,0,0,281.75,95.6Z"/><path class="cls-3" d="M291.85,90.7h3.4v1.2a3.75,3.75,0,0,1,1.4-1.2,4.31,4.31,0,0,1,1.7-.3,4.84,4.84,0,0,1,1.8.3,2.73,2.73,0,0,1,1.2.9,2.38,2.38,0,0,1,.6,1.1,5.9,5.9,0,0,1,.2,1.4v6.2h-3.4V95.4a4.12,4.12,0,0,0-.1-1.2,1.61,1.61,0,0,0-.4-.7c-.2-.2-.3-.3-.5-.3a1.27,1.27,0,0,0-.6-.1,1.73,1.73,0,0,0-1.3.5,2.07,2.07,0,0,0-.5,1.5v5.2H292V90.7Z"/><path class="cls-3" d="M315.35,100.5h-11.5l3.6-3.7c.9-1,1.7-1.8,2.2-2.5s.9-1.2,1.2-1.7a4.79,4.79,0,0,0,.5-1.1,2,2,0,0,0,.1-.7,1.27,1.27,0,0,0-.1-.6,2.19,2.19,0,0,0-.3-.5,1,1,0,0,0-.5-.4,1.48,1.48,0,0,0-.7-.1,1.66,1.66,0,0,0-1.2.5,1.59,1.59,0,0,0-.4,1.2,1.76,1.76,0,0,0,.1.6h-4.1a5.87,5.87,0,0,1,.4-2.3,7.84,7.84,0,0,1,1.1-1.8,4.18,4.18,0,0,1,1.8-1.1,6.25,6.25,0,0,1,4.4,0,5.44,5.44,0,0,1,1.8,1.1A6.1,6.1,0,0,1,315,89a4.48,4.48,0,0,1,.4,2,5.45,5.45,0,0,1-.5,2.2,7,7,0,0,1-1.6,2l-2.4,2.2h4.6v3.1Z"/><path class="cls-3" d="M316.65,93.3a10.12,10.12,0,0,1,.4-3.1,7,7,0,0,1,1.3-2.4,4.54,4.54,0,0,1,1.9-1.5,5.1,5.1,0,0,1,2.5-.5,5.33,5.33,0,0,1,4.4,2,7.71,7.71,0,0,1,1.2,2.4,12.21,12.21,0,0,1,0,6.2,9,9,0,0,1-1.2,2.4,4.54,4.54,0,0,1-1.9,1.5,5.1,5.1,0,0,1-2.5.5,5.33,5.33,0,0,1-4.4-2,9.21,9.21,0,0,1-1.3-2.4A9.72,9.72,0,0,1,316.65,93.3Zm3.6,0a8.81,8.81,0,0,0,.2,1.7,3.92,3.92,0,0,0,.5,1.3,2.36,2.36,0,0,0,.8.9,1.82,1.82,0,0,0,2,0,3.63,3.63,0,0,0,.8-.9,5,5,0,0,0,.5-1.3,7.33,7.33,0,0,0,0-3.4,3.92,3.92,0,0,0-.5-1.3,2.36,2.36,0,0,0-.8-.9,1.82,1.82,0,0,0-2,0,3.63,3.63,0,0,0-.8.9,5,5,0,0,0-.5,1.3A8.81,8.81,0,0,0,320.25,93.3Z"/><path class="cls-3" d="M341.25,100.5h-11.5l3.6-3.7c.9-1,1.7-1.8,2.2-2.5s.9-1.2,1.2-1.7a4.79,4.79,0,0,0,.5-1.1,2,2,0,0,0,.1-.7,1.27,1.27,0,0,0-.1-.6,2.19,2.19,0,0,0-.3-.5,1,1,0,0,0-.5-.4,1.48,1.48,0,0,0-.7-.1,1.66,1.66,0,0,0-1.2.5,1.59,1.59,0,0,0-.4,1.2,1.76,1.76,0,0,0,.1.6h-4.1a5.87,5.87,0,0,1,.4-2.3,7.84,7.84,0,0,1,1.1-1.8,3.67,3.67,0,0,1,1.8-1.1,6.25,6.25,0,0,1,4.4,0,5.44,5.44,0,0,1,1.8,1.1,6.1,6.1,0,0,1,1.2,1.6,4.48,4.48,0,0,1,.4,2,5.45,5.45,0,0,1-.5,2.2,7,7,0,0,1-1.6,2l-2.4,2.2h4.6v3.1Z"/><path class="cls-3" d="M342.45,93.3a10.12,10.12,0,0,1,.4-3.1,7,7,0,0,1,1.3-2.4,4.54,4.54,0,0,1,1.9-1.5,5.1,5.1,0,0,1,2.5-.5,5.33,5.33,0,0,1,4.4,2,7.71,7.71,0,0,1,1.2,2.4,12.21,12.21,0,0,1,0,6.2,9,9,0,0,1-1.2,2.4,4.54,4.54,0,0,1-1.9,1.5,5.1,5.1,0,0,1-2.5.5,5.33,5.33,0,0,1-4.4-2,9.21,9.21,0,0,1-1.3-2.4A9.72,9.72,0,0,1,342.45,93.3Zm3.7,0a8.81,8.81,0,0,0,.2,1.7,3.92,3.92,0,0,0,.5,1.3,2.36,2.36,0,0,0,.8.9,1.82,1.82,0,0,0,2,0,3.63,3.63,0,0,0,.8-.9A5,5,0,0,0,351,95a7.33,7.33,0,0,0,0-3.4,3.92,3.92,0,0,0-.5-1.3,2.36,2.36,0,0,0-.8-.9,1.82,1.82,0,0,0-2,0,3.63,3.63,0,0,0-.8.9,5,5,0,0,0-.5,1.3A4.68,4.68,0,0,0,346.15,93.3Z"/></svg>