<svg id="Layer_1" data-name="Layer 1" xmlns="http://www.w3.org/2000/svg" viewBox="0 0 1913 174"><defs><style>.cls-1{fill:#d44095;}.cls-2{fill:#086888;}.cls-3{fill:#fff;}</style></defs><title>Footer FIRAN</title><rect class="cls-1" x="1165.03" y="-0.72" width="748.87" height="174.27"/><rect class="cls-2" x="0.9" y="-0.72" width="1164.13" height="174.27"/><path class="cls-3" d="M776.23,28.37c-31.43,0-56.9,24.76-56.9,55.31S744.8,139,776.23,139s56.89-24.76,56.89-55.31-25.47-55.31-56.89-55.31m29,45.38s-.72,40-39.68,40c0,0-13.71.7-22.37-6.31a27.77,27.77,0,0,0,20.2-4.91,13.87,13.87,0,0,1-12.26-9.12h6.49a16.78,16.78,0,0,1-12.26-13.33,57.63,57.63,0,0,0,6.49.7s-9.38-6.31-3.61-18.24c0,0,9.38,14.73,28.14,14,0,0-.72-15.43,13.71-15.43a14.24,14.24,0,0,1,10.83,4.21,19.55,19.55,0,0,0,7.21-2.81s.72,2.81-3.61,6.31c0,0,3.61,0,5-.7a14.71,14.71,0,0,1-4.33,5.61"/><polygon class="cls-3" points="981.78 91.28 997.85 83.48 981.78 75.67 981.78 91.28"/><path class="cls-3" d="M987.3,28.56c-31.33,0-56.73,24.7-56.73,55.16s25.4,55.16,56.73,55.16S1044,114.18,1044,83.72,1018.64,28.56,987.3,28.56Zm23.22,74s-33.19,2.48-44.93,0c0,0-7.15.49-7.15-18.87,0-19.86,7.15-18.36,7.15-18.36a359.88,359.88,0,0,1,43.91,0s8.17-1,8.17,17.87S1010.52,102.58,1010.52,102.58Z"/><polygon class="cls-3" points="981.78 91.29 997.85 83.48 981.78 75.67 981.78 91.29"/><path class="cls-3" d="M565,137.87V100h13.17l2.53-16.25H565V71.91c0-7.88,7.6-6.9,7.6-6.9h9.11V50.73c-2-.49-13.17-1-13.17-1-21.78,0-21.78,19.7-21.78,19.7V83.73H532.55V100h14.18v38c-27.12-4.14-47.87-27-47.87-54.49,0-30.46,25.4-55.16,56.74-55.16S612.33,53,612.33,83.48c0,27.43-20.59,50.18-47.56,54.44"/><rect class="cls-3" x="82.77" y="99.68" width="1.89" height="12.15"/><polygon class="cls-3" points="95.95 98.86 95.95 111.83 97.83 111.83 97.83 103.33 106.95 112.57 106.95 99.69 105.06 99.69 105.06 108.13 95.95 98.86"/><polygon class="cls-3" points="121.68 111.83 121.68 101.41 124.55 101.41 124.55 99.69 116.92 99.69 116.92 101.41 119.79 101.41 119.79 111.83 121.68 111.83"/><polygon class="cls-3" points="141.41 101.41 141.41 99.69 134.52 99.69 134.52 111.83 141.41 111.83 141.41 110.11 136.4 110.11 136.4 106.05 141.27 106.05 141.27 104.33 136.4 104.33 136.4 101.41 141.41 101.41"/><path class="cls-3" d="M158.42,105.47a3.38,3.38,0,0,0,.76-2.22,3.28,3.28,0,0,0-1.21-2.66,5.68,5.68,0,0,0-3.58-.91h-2.21v12.16h1.88v-5h.34l3.57,5h2.31l-3.87-5.18A3.46,3.46,0,0,0,158.42,105.47Zm-3.76-.21h-.6v-3.85h.68c1.73,0,2.6.62,2.6,1.86S156.45,105.26,154.66,105.26Z"/><polygon class="cls-3" points="172.33 103.33 181.45 112.57 181.45 99.69 179.56 99.69 179.56 108.13 170.45 98.86 170.45 111.83 172.33 111.83 172.33 103.33"/><path class="cls-3" d="M193.43,111.84l1.39-3h5.35l1.31,3h2.06l-6-12.92-6.19,12.92Zm4.12-8.81,1.85,4.13h-3.8Z"/><path class="cls-3" d="M218.66,101.18a5.3,5.3,0,0,1,3.39,1.33v-2.17a6.59,6.59,0,0,0-3.26-.89,6.33,6.33,0,0,0-5,2.23,6.09,6.09,0,0,0-1.58,4.13,6,6,0,0,0,1.88,4.43,6.4,6.4,0,0,0,4.58,1.82,7,7,0,0,0,3.4-.89V109a8.56,8.56,0,0,1-.88.65,4.49,4.49,0,0,1-.81.42,4.08,4.08,0,0,1-1.69.32,4.46,4.46,0,0,1-3.25-1.31,4.37,4.37,0,0,1-1.33-3.23,4.44,4.44,0,0,1,1.33-3.27A4.36,4.36,0,0,1,218.66,101.18Z"/><rect class="cls-3" x="232.71" y="99.68" width="1.89" height="12.15"/><path class="cls-3" d="M251.73,112.06a6.57,6.57,0,0,0,4.68-1.84,5.91,5.91,0,0,0,1.92-4.44,6,6,0,0,0-1.92-4.47,6.36,6.36,0,0,0-4.58-1.85,6.46,6.46,0,0,0-4.63,1.84,6.16,6.16,0,0,0,.19,9.13A6.57,6.57,0,0,0,251.73,112.06Zm-3.22-9.56a4.54,4.54,0,0,1,3.3-1.32,4.46,4.46,0,0,1,3.28,1.32,4.62,4.62,0,0,1,0,6.52,4.57,4.57,0,0,1-3.32,1.32,4.52,4.52,0,0,1-3.2-1.3,4.6,4.6,0,0,1-.05-6.54Z"/><polygon class="cls-3" points="268.99 98.86 268.99 111.83 270.88 111.83 270.88 103.33 279.99 112.57 279.99 99.69 278.11 99.69 278.11 108.13 268.99 98.86"/><path class="cls-3" d="M292,111.84l1.39-3h5.35l1.31,3h2.07l-6-12.92-6.18,12.92Zm4.12-8.81,1.85,4.13h-3.79Z"/><polygon class="cls-3" points="313.82 99.69 311.94 99.69 311.94 111.83 317.5 111.83 317.5 110.11 313.82 110.11 313.82 99.69"/><ellipse class="cls-3" cx="239.18" cy="30.24" rx="8.94" ry="8.69"/><path class="cls-3" d="M245.7,44.33a18.48,18.48,0,0,1-13,0v48.4h13Z"/><path class="cls-3" d="M203,54.85a4,4,0,0,1-.44.11l-.45.12a12.07,12.07,0,0,1-2.64.3,11.7,11.7,0,0,1-11.84-11.52H176.71V92.71h11V62.89a24,24,0,0,0,3.18,1.55l20.28,28.29h13.54L204.42,65.55h0a22.41,22.41,0,0,0,17.93-21.69c0-12.25-10.25-22.31-22.85-22.31H176.71V32h23A11.63,11.63,0,0,1,203,54.85Zm-21,3.31A21.54,21.54,0,0,1,176.71,44,21.8,21.8,0,0,0,182.07,58.16Z"/><path class="cls-3" d="M82.77,65.61v27.1h11V58.84h.14l24.36,0V48.82l-24.44,0H93.8V32h25.42V21.58l-25.08,0c-8.07,0-11.38.09-11.38,17.33V65.61Z"/><path class="cls-3" d="M127.81,38.91s0,0,0,0l0,26.17h0V92.71h36.46V82.55H138.92V58.71h25.34V48.32l-25.08,0h-.26V32h25.33V21.59l-25.07,0c-7.63,0-11,.09-11.35,14.65h0v.28c0,.76,0,1.54,0,2.38Zm0,26.12c0-.1,0-.2,0-.3V65Zm0-1.7c0,.13,0,.26,0,.39C127.82,63.59,127.82,63.46,127.83,63.33Z"/><path class="cls-3" d="M284.79,45.94c.65,2,18.69,46.79,18.69,46.79h14L288.33,21.57h-6.68l-9.57,21.27-21.63,49.9h14.16Z"/><path class="cls-3" d="M162.24,141.75v3.36a7.86,7.86,0,0,1-.63-.48l-7-10.59h0l-7.79-11.71c-1.14-1.71-1.94-2.91-3.34-3h-4.67v7.47h0v25.84h4.65V126.76l7.3,11h0l7.81,11.7c1.23,1.85,2,3.13,3.7,3.13,0,0,0,0,0,0h4.66v-.11h0V119.3h-4.68Z"/><path class="cls-3" d="M95.9,139.94a10.46,10.46,0,0,0-2.33-20.64H83.22v5H93.57a5.42,5.42,0,1,1-5.38,5.42h-5c0,.22,0,.42,0,.63,0-.2,0-.41,0-.61v22.84h5.16V138.78a9.63,9.63,0,0,0,1.24.63l-.06,0,9.49,13.22h6.39L96,139.93Zm-12.52-8.42c0-.12,0-.24-.07-.36C83.33,131.28,83.36,131.4,83.38,131.52Zm10.25,8.69.46,0c-.14,0-.27,0-.41,0Zm1.56-.14-.4.06C94.93,140.12,95.06,140.09,95.19,140.07Z"/><path class="cls-3" d="M286.27,138.05V121.54h-4.83v18.73c0,2.72-.45,4.67-1.34,5.87a6.65,6.65,0,0,1-3.89,2.49l-.16,0-.54.08-.3,0c-.26,0-.52,0-.79,0a8,8,0,0,1-.86,0h-.05q-.39,0-.75-.12a5.9,5.9,0,0,1-4.29-3l0,0a9.63,9.63,0,0,1-1-4.76V121.54h-4.83v20a12.39,12.39,0,0,0,.77,4.44,1.54,1.54,0,0,1,.08.19,6.11,6.11,0,0,0,.27.58,9.92,9.92,0,0,0,.89,1.51l.19.27c.11.14.22.29.34.43s.39.46.61.68.59.56.89.82l0,0a11.7,11.7,0,0,0,1.84,1.25l.2.11c.27.14.55.27.82.39l.37.15c.24.08.47.17.71.24l.44.13c.25.06.5.13.76.18l.32.06c.31.05.63.1.95.13h.14c.4,0,.8,0,1.21,0a12,12,0,0,0,6.79-2l.21-.15.57-.44.38-.3c.25-.22.51-.45.75-.69a11,11,0,0,0,3.15-8.1Z"/><path class="cls-3" d="M190.82,148a10.43,10.43,0,0,1-4.33.8,11.38,11.38,0,0,1-8.33-3.36,11.79,11.79,0,0,1-1.9-2.45,17.67,17.67,0,0,0,2,3,15.08,15.08,0,0,1-3.18-5.88c-.07-.27-.14-.54-.2-.83l0-.19-.09-.68c0-.12,0-.24,0-.36,0-.33,0-.66,0-1a11.66,11.66,0,0,1,3.43-8.25,11.14,11.14,0,0,1,8.3-3.44c.79,0,4.44-.08,8.66,3.4v-5.56a16,16,0,0,0-8.32-2.27,16.31,16.31,0,0,0-12.87,5.7,15.73,15.73,0,0,0-4,10.42,16.25,16.25,0,0,0,2.17,8.45c0,.09.11.17.17.26.15.25.31.49.47.72l.34.47a11.16,11.16,0,0,0,.76.94,18.08,18.08,0,0,0,8.79,4.91,18.61,18.61,0,0,0,5.51.32h0a18,18,0,0,0,7-2.18v-5.66a26.48,26.48,0,0,1-2.25,1.65A12.53,12.53,0,0,1,190.82,148Zm-11.44-.82c.21.23.43.44.65.66C179.81,147.64,179.59,147.43,179.38,147.2Zm-.92-1,.66.73Zm3.72,3.53,1.17.88Zm-1.85-1.59.65.6Zm1,.86c.22.19.44.38.66.55C181.73,149.38,181.51,149.19,181.29,149Zm5.35,3.6-.2-.1Zm-.72-.38-.3-.16Zm-.81-.46-.37-.22Zm-.87-.55-.44-.28Zm2.95,1.64.07,0Z"/><path class="cls-3" d="M246.3,140.85h8l0,.38a5.81,5.81,0,0,1-.22.92,8.29,8.29,0,0,1-2.32,3.79l-.17.17-.2.17-.23.21-.3.22c-.18.14-.35.27-.52.38a7.2,7.2,0,0,1-.62.4l0,0-.31.17a9.25,9.25,0,0,1-4.41,1.13h-.21a10.5,10.5,0,0,1-2-.19,10.85,10.85,0,0,1-4.54-2l-.4-.29-.25-.2c-.18-.14-.36-.28-.54-.44l-.1-.09-.11-.09a10.86,10.86,0,0,1-1.44-1.58l-.05-.06c-.18-.24-.34-.48-.49-.71l0,0a11.88,11.88,0,0,1,1.81-14.37,11.63,11.63,0,0,1,8.52-3.4q5.66,0,9.59,5.09l3.44-3.2a20,20,0,0,0-6.11-4.83,16.55,16.55,0,0,0-7-1.49,16.36,16.36,0,0,0-11.85,4.73,15.92,15.92,0,0,0-.08,22.84,15.81,15.81,0,0,0,11.5,4.72,17.75,17.75,0,0,0,1.95-.12,14.8,14.8,0,0,0,4.14-1l.33-.14c.41-.18.81-.38,1.2-.59l.09-.06c.4-.23.78-.48,1.16-.74l.13-.09a.87.87,0,0,1,.11-.09c.33-.25.66-.51,1-.79.12-.1.23-.21.34-.32s.22-.21.32-.32A14.28,14.28,0,0,0,259.1,142a.51.51,0,0,1,0-.13c.07-.33.13-.67.17-1,.08-.53.14-1.08.17-1.65a.41.41,0,0,0,0-.11c0-.5,0-1,0-1.54v-1.11H246.3Z"/><path class="cls-3" d="M120.86,119.34l-4.48,9.94-10.11,23.33h6.62l9.44-21.87c.3.9,8.73,21.87,8.73,21.87h6.56L124,119.34Z"/><path class="cls-3" d="M211.51,119.36,207,129.3l-10.11,23.33h6.62L213,130.75c.31.91,8.74,21.87,8.74,21.87h6.55l-13.63-33.26Z"/><path class="cls-3" d="M300.73,119.34l-4.48,9.94-10.11,23.33h6.62l9.44-21.87c.3.9,8.73,21.87,8.73,21.87h6.56l-13.64-33.27Z"/><path class="cls-3" d="M1607.34,37.55H1517a11.13,11.13,0,0,0-11.24,11l0,65.85a11.17,11.17,0,0,0,11.29,11h90.31a11.17,11.17,0,0,0,11.29-11V48.53A11.17,11.17,0,0,0,1607.34,37.55Zm0,22-45.16,27.44L1517,59.5v-11L1562.18,76l45.16-27.44Z"/><path class="cls-3" d="M1819.23,100.73A58.07,58.07,0,0,1,1801.36,98a5.23,5.23,0,0,0-5.1,1.17l-11,10.71a74.46,74.46,0,0,1-33-32l11-10.75a4.68,4.68,0,0,0,1.26-4.92,53.62,53.62,0,0,1-2.86-17.37,5,5,0,0,0-5-4.86h-17.52a5,5,0,0,0-5,4.86c0,45.69,38.08,82.72,85.08,82.72a5,5,0,0,0,5-4.87v-17A5,5,0,0,0,1819.23,100.73Zm-40-60.82V88.56l15-14.59h30V39.91Z"/><path class="cls-3" d="M1278.23,41.87v5a9.71,9.71,0,0,0-2.38-2.17,4.76,4.76,0,0,0-2.43-.6,4.89,4.89,0,0,0-3.64,1.49,5.18,5.18,0,0,0-1.45,3.74,5.26,5.26,0,0,0,1.4,3.77,4.77,4.77,0,0,0,3.6,1.47,5.09,5.09,0,0,0,2.47-.58,9.74,9.74,0,0,0,2.43-2.21v5A10.36,10.36,0,0,1,1273.5,58a9.17,9.17,0,0,1-6.51-2.44,8.06,8.06,0,0,1-2.62-6.12,8.16,8.16,0,0,1,2.65-6.17,9.14,9.14,0,0,1,6.52-2.51A10,10,0,0,1,1278.23,41.87Z"/><path class="cls-3" d="M1281.19,49.22a8,8,0,0,1,2.61-6,9.37,9.37,0,0,1,12.72,0,8.57,8.57,0,0,1,0,12.28,9,9,0,0,1-6.43,2.46,8.64,8.64,0,0,1-6.33-2.51A8.32,8.32,0,0,1,1281.19,49.22Zm4,.06a5.44,5.44,0,0,0,1.34,3.87,5.35,5.35,0,0,0,7.28,0,5.31,5.31,0,0,0,1.36-3.8,5.32,5.32,0,0,0-1.36-3.81,4.82,4.82,0,0,0-3.64-1.44,4.76,4.76,0,0,0-3.6,1.44A5.15,5.15,0,0,0,1285.16,49.28Z"/><path class="cls-3" d="M1303.21,41.17h3.89v1.51a6.45,6.45,0,0,1,4.59-2,5.91,5.91,0,0,1,4.57,1.79q1.41,1.53,1.41,5v10h-3.9V48.38a5.87,5.87,0,0,0-.69-3.34,2.81,2.81,0,0,0-2.44-.94,3,3,0,0,0-2.74,1.24,8.33,8.33,0,0,0-.8,4.28v7.87h-3.89Z"/><path class="cls-3" d="M1326.56,44.69v12.8h-3.87V44.69H1321V41.17h1.66v-6h3.87v6h3v3.52Z"/><path class="cls-3" d="M1344.91,41.17h3.89V57.49h-3.89V55.78a7.61,7.61,0,0,1-10.92-.26,9,9,0,0,1-2.25-6.24,8.73,8.73,0,0,1,2.25-6.12,7.38,7.38,0,0,1,5.66-2.44,7.26,7.26,0,0,1,5.26,2.34Zm-9.21,8.11A5.57,5.57,0,0,0,1337,53.1a4.28,4.28,0,0,0,3.35,1.49,4.51,4.51,0,0,0,3.48-1.44,6.05,6.05,0,0,0,0-7.57,4.44,4.44,0,0,0-3.45-1.46A4.31,4.31,0,0,0,1337,45.6,5.3,5.3,0,0,0,1335.7,49.28Z"/><path class="cls-3" d="M1366.76,41.87v5a9.52,9.52,0,0,0-2.37-2.17,4.76,4.76,0,0,0-2.43-.6,4.87,4.87,0,0,0-3.64,1.49,5.14,5.14,0,0,0-1.45,3.74,5.26,5.26,0,0,0,1.4,3.77,4.77,4.77,0,0,0,3.6,1.47,5,5,0,0,0,2.46-.58,9.74,9.74,0,0,0,2.43-2.21v5A10.29,10.29,0,0,1,1362,58a9.15,9.15,0,0,1-6.51-2.44,8.06,8.06,0,0,1-2.63-6.12,8.17,8.17,0,0,1,2.66-6.17,9.14,9.14,0,0,1,6.52-2.51A9.94,9.94,0,0,1,1366.76,41.87Z"/><path class="cls-3" d="M1374.52,44.69v12.8h-3.88V44.69H1369V41.17h1.65v-6h3.88v6h3v3.52Z"/><path class="cls-3" d="M1379.62,49.22a8,8,0,0,1,2.61-6,9.37,9.37,0,0,1,12.72,0,8.55,8.55,0,0,1,0,12.28A9,9,0,0,1,1388.5,58a8.63,8.63,0,0,1-6.32-2.51A8.33,8.33,0,0,1,1379.62,49.22Zm4,.06a5.44,5.44,0,0,0,1.34,3.87,5.35,5.35,0,0,0,7.28,0,5.27,5.27,0,0,0,1.36-3.8,5.27,5.27,0,0,0-1.36-3.81,5.27,5.27,0,0,0-7.24,0A5.15,5.15,0,0,0,1383.59,49.28Z"/><path class="cls-3" d="M1269.16,67.26l8.54,20.8,8.66-20.8h5.1L1277.6,99.54l-13.54-32.28Z"/><path class="cls-3" d="M1312.34,71.52H1300v7.21h12V83h-12V93h12.38v4.26h-17v-30h17Z"/><path class="cls-3" d="M1318.46,97.28V65.22L1341,88.12V67.26h4.66V99.11l-22.52-22.85v21Z"/><path class="cls-3" d="M1361.57,71.52V97.28h-4.66V71.52h-7.11V67.26h18.85v4.26Z"/><path class="cls-3" d="M1389.27,90h-13.22l-3.44,7.29h-5l15.28-31.91,14.74,31.91h-5.1Zm-1.9-4.26-4.58-10.21L1378,85.73Z"/><path class="cls-3" d="M1280.56,107.73l-3.21,1.84a5.33,5.33,0,0,0-1.71-2,4,4,0,0,0-2.19-.53,4.12,4.12,0,0,0-2.73.9,2.82,2.82,0,0,0-1.09,2.25q0,1.86,2.85,3l2.62,1a11.05,11.05,0,0,1,4.66,3.06,6.79,6.79,0,0,1,1.48,4.43,7.69,7.69,0,0,1-2.41,5.8,8.41,8.41,0,0,1-6,2.31,8.21,8.21,0,0,1-5.64-2,9,9,0,0,1-2.73-5.53l4-.86a6.37,6.37,0,0,0,1,3.1,4.15,4.15,0,0,0,3.56,1.65,4.22,4.22,0,0,0,3.07-1.2,4.11,4.11,0,0,0,1.22-3,4.17,4.17,0,0,0-.21-1.36,3.46,3.46,0,0,0-.66-1.14,5,5,0,0,0-1.17-1,12,12,0,0,0-1.69-.87l-2.53-1c-3.58-1.47-5.38-3.63-5.38-6.47a6.06,6.06,0,0,1,2.26-4.79,8.28,8.28,0,0,1,5.61-2A7.88,7.88,0,0,1,1280.56,107.73Z"/><path class="cls-3" d="M1293.72,107.55V129.4h-4V107.55h-6v-3.62h16v3.62Z"/><path class="cls-3" d="M1317.22,123.21H1306l-2.91,6.19h-4.26l13-27.07,12.5,27.07H1320Zm-1.61-3.61-3.89-8.66-4.07,8.66Z"/><path class="cls-3" d="M1327.56,129.4V102.2l19.11,19.43v-17.7h3.95v27l-19.1-19.38V129.4Z"/><path class="cls-3" d="M1356.89,129.4V103.93h5.5a20.64,20.64,0,0,1,6.24.76,11.78,11.78,0,0,1,4.46,2.53,12.91,12.91,0,0,1-.16,19,12.58,12.58,0,0,1-4.45,2.52,20.88,20.88,0,0,1-6.16.71Zm4-3.61h1.78a15.4,15.4,0,0,0,4.43-.55,9,9,0,0,0,3.19-1.83,8.59,8.59,0,0,0,2.91-6.74,8.74,8.74,0,0,0-2.88-6.8q-2.6-2.33-7.65-2.32h-1.78Z"/><path class="cls-3" d="M1396.93,107.73l-3.21,1.84a5.33,5.33,0,0,0-1.71-2,4,4,0,0,0-2.19-.53,4.12,4.12,0,0,0-2.73.9,2.82,2.82,0,0,0-1.09,2.25q0,1.86,2.85,3l2.62,1a11.05,11.05,0,0,1,4.66,3.06,6.73,6.73,0,0,1,1.48,4.43,7.69,7.69,0,0,1-2.41,5.8,8.41,8.41,0,0,1-6,2.31,8.21,8.21,0,0,1-5.64-2,9,9,0,0,1-2.73-5.53l4-.86a6.37,6.37,0,0,0,1,3.1,4.15,4.15,0,0,0,3.56,1.65,4.2,4.2,0,0,0,3.07-1.2,4.11,4.11,0,0,0,1.22-3,4.17,4.17,0,0,0-.21-1.36,3.46,3.46,0,0,0-.66-1.14,5.19,5.19,0,0,0-1.16-1,12.74,12.74,0,0,0-1.7-.87l-2.53-1c-3.58-1.47-5.38-3.63-5.38-6.47a6.06,6.06,0,0,1,2.26-4.79,8.28,8.28,0,0,1,5.61-2A7.88,7.88,0,0,1,1396.93,107.73Z"/></svg>