<svg id="Layer_1" data-name="Layer 1" xmlns="http://www.w3.org/2000/svg" viewBox="0 0 1913 709"><defs><style>.cls-1{fill:#086888;}.cls-2{fill:#06a1cf;}.cls-3{fill:none;}.cls-4{fill:#d44095;}.cls-5{fill:#fff;}</style></defs><title>HEADER FIRAN</title><path class="cls-1" d="M165,392.26V435.2h-6.48V392.26Z"/><path class="cls-1" d="M203.82,435.2V389.34l31.31,32.76V392.26h6.48v45.55L210.3,405.13V435.2Z"/><path class="cls-1" d="M292.23,398.35V435.2h-6.48V398.35h-9.87v-6.09h26.2v6.09Z"/><path class="cls-1" d="M360,398.35H342.82v10.32h16.71v6.09H342.82v14.35H360v6.09H336.34V392.26H360Z"/><path class="cls-1" d="M411.57,416.9l13.29,18.3h-7.92l-12.27-17.58H403.5V435.2H397V392.26h7.6q8.5,0,12.29,3.2a11.74,11.74,0,0,1,4.17,9.4,12.21,12.21,0,0,1-2.61,7.84A11.68,11.68,0,0,1,411.57,416.9ZM403.5,412h2.06q9.21,0,9.21-7,0-6.58-9-6.59H403.5Z"/><path class="cls-1" d="M459.79,435.2V389.34l31.32,32.76V392.26h6.48v45.55l-31.32-32.68V435.2Z"/><path class="cls-1" d="M561.92,424.77H543.53l-4.78,10.43h-7L553,389.56l20.5,45.64h-7.1Zm-2.64-6.09-6.37-14.6-6.68,14.6Z"/><path class="cls-1" d="M637.09,394.57v7.67q-5.61-4.69-11.62-4.7a14.83,14.83,0,0,0-11.16,4.76,16,16,0,0,0-4.56,11.57,15.66,15.66,0,0,0,4.56,11.4,15.07,15.07,0,0,0,11.19,4.64,13.75,13.75,0,0,0,5.81-1.11,16.47,16.47,0,0,0,2.76-1.5,31.1,31.1,0,0,0,3-2.28v7.81A23.36,23.36,0,0,1,625.41,436a21.52,21.52,0,0,1-15.71-6.43,21.3,21.3,0,0,1-6.48-15.63,22.09,22.09,0,0,1,5.42-14.63,21.62,21.62,0,0,1,17.27-7.87A21.86,21.86,0,0,1,637.09,394.57Z"/><path class="cls-1" d="M680.23,392.26V435.2h-6.48V392.26Z"/><path class="cls-1" d="M716.88,413.53A21,21,0,0,1,723.53,398a21.88,21.88,0,0,1,15.91-6.51,22.45,22.45,0,0,1,22.33,22.33,21.13,21.13,0,0,1-6.62,15.72,22.68,22.68,0,0,1-31,.72Q716.88,423.85,716.88,413.53Zm6.54.09a15.91,15.91,0,0,0,27.17,11.62,16.66,16.66,0,0,0,.06-23,16,16,0,0,0-22.61,0A15.5,15.5,0,0,0,723.42,413.62Z"/><path class="cls-1" d="M798.4,435.2V389.34l31.31,32.76V392.26h6.48v45.55l-31.31-32.68V435.2Z"/><path class="cls-1" d="M900.52,424.77H882.14l-4.78,10.43h-7l21.25-45.64,20.5,45.64H905Zm-2.64-6.09-6.37-14.6-6.67,14.6Z"/><path class="cls-1" d="M952.45,392.26v36.85h12.62v6.09H946V392.26Z"/><path class="cls-2" d="M515.92,267.65v0Z"/><path class="cls-1" d="M530.11,267.67l69.68,100h46.52l-69.78-96.05a78.14,78.14,0,0,1-46.42-3.94Z"/><circle class="cls-2" cx="695.95" cy="146.8" r="30.71"/><path class="cls-1" d="M673.53,196.63v171h44.84v-171a62.08,62.08,0,0,1-44.84,0Z"/><path class="cls-3" d="M570.23,234.2c.5-.14,1-.24,1.51-.39C571.24,234,570.74,234.08,570.23,234.2Z"/><path class="cls-2" d="M568.7,234.59c.52-.1,1-.26,1.53-.39C569.72,234.34,569.22,234.48,568.7,234.59Z"/><path class="cls-2" d="M559.62,116.09H481.3v36.84h79.13a41,41,0,0,1,41.16,41,41.48,41.48,0,0,1-29.85,39.85c-.49.15-1,.25-1.51.39s-1,.29-1.53.39A40.56,40.56,0,0,1,518.93,195H481.3a78.53,78.53,0,0,0,37.89,67.23,76.85,76.85,0,0,0,10.92,5.48,78.14,78.14,0,0,0,46.42,3.94A78.63,78.63,0,0,0,638.13,195C638.13,151.67,602.91,116.09,559.62,116.09Z"/><path class="cls-1" d="M481.3,195c0,18,0,63.51,0,70.37v0l0-14.33V367.6h37.89V262.19C496.48,248.19,481.3,224,481.3,195Z"/><path class="cls-1" d="M351.48,331.68v-86c-3.4-.18-25.35-.92-32.32,10.24a50.83,50.83,0,0,0-5.89,13.86c.19-58.53,14.54-57.64,38.21-57.52v-61.7l-24.24,2-13.9,15.57-.07,101.64h0V367.6h.28v0h49.61v0h75.36V331.68Z"/><path class="cls-1" d="M196.43,367.62V247.91c-3.37-.18-25.13-.91-32.05,10.16a50.32,50.32,0,0,0-5.84,13.77v95.78Z"/><path class="cls-1" d="M164.51,163a54,54,0,0,0-6,14.43v94.43c0-59.21,11-59.27,37.89-59.27V152.93C189.34,152.93,172.21,150.65,164.51,163Z"/><path class="cls-2" d="M196.64,212.57h-.21c-26.87,0-37.89.06-37.89,59.27a50.32,50.32,0,0,1,5.84-13.77c6.92-11.07,28.68-10.34,32.05-10.16l.48,0,83.71.15V212.48C260.76,212.48,207.6,212.57,196.64,212.57Z"/><path class="cls-2" d="M197.6,116.29c-27.72,0-39.09.32-39.09,61.22l0-.1a54,54,0,0,1,6-14.43c7.7-12.33,24.83-10,31.92-10h87.34V116.2C263.39,116.2,208.85,116.29,197.6,116.29Z"/><path class="cls-2" d="M352.35,116.33c-27.73,0-39.1.33-39.1,61.23l0-.11a54,54,0,0,1,6-14.43C327,150.7,344.08,153,351.17,153h87.34V116.24C418.13,116.24,363.59,116.33,352.35,116.33Z"/><path class="cls-2" d="M352.36,210.81c-27.73,0-39.09.32-39.09,61.23l0-.11a53.39,53.39,0,0,1,6-14.43c7.69-12.32,24.82-10.05,31.91-10.05h87.34V210.72C418.15,210.72,363.6,210.81,352.36,210.81Z"/><path class="cls-1" d="M809,191.34,734.68,367.71l48.65,0,69.35-165.35C839.94,163,809,191.34,809,191.34Z"/><path class="cls-2" d="M864.84,116.17H841.91L809,191.34s30.93-28.36,43.67,11c2.23,6.87,64.22,165.35,64.22,165.35h48.17Z"/><polygon class="cls-1" points="350.95 461.58 350.95 470.81 350.95 579.32 366.93 579.32 366.93 499.52 366.93 461.58 350.95 461.58"/><polygon class="cls-1" points="431.61 461.58 431.61 540.95 431.61 578.97 447.69 578.91 447.69 569.68 447.69 461.58 431.61 461.58"/><path class="cls-2" d="M441.7,555.68c-4.3,1.43-9.58-2.29-12.28-4.57l-24.17-37.44h0c-6.85-10.59-23.82-36.77-26.78-41.36-3.91-6.05-6.67-10.3-11.47-10.68l0-.05H351s0,12.79,0,26.41a22,22,0,0,1,6-3.13c3.17-1.05,6.86.7,9.68,2.61L392,526.9h0c6.86,10.57,23.87,36.76,26.84,41.35,4.23,6.53,7,11.07,12.74,11.07,0,0,.07,0,.07,0h16s0-13.15,0-26.77A22,22,0,0,1,441.7,555.68Z"/><path class="cls-1" d="M181.88,532.6l32.61,46.72h21.93l-32.57-44.83a35.49,35.49,0,0,1-7.83,1A37.81,37.81,0,0,1,181.88,532.6Z"/><path class="cls-1" d="M160.07,498.58v80.74h17.72V530.41A37.29,37.29,0,0,1,160.07,498.58Z"/><path class="cls-2" d="M195.65,461.58H160.07v17.79h35.58c10.2,0,18.5,8.6,18.5,19.16s-8.3,19.16-18.5,19.16-18.49-8.6-18.49-19.16H160.07a37.26,37.26,0,0,0,17.21,31.65,35.34,35.34,0,0,0,5,2.58,34.42,34.42,0,0,0,21.1,1.85c16-3.65,28-18.44,28-36.08C231.33,478.15,215.32,461.58,195.65,461.58Z"/><path class="cls-2" d="M857.78,527.85V469.5H841.19v66.21q0,14.38-4.63,20.72a21.91,21.91,0,0,1-11.09,8.19C846.26,558.65,857.78,532.26,857.78,527.85Z"/><path class="cls-1" d="M857.78,527.85c0,4.41-11.52,30.8-32.31,36.77-.74.24-1.49.46-2.27.63l-.54.11c-.62.11-1.24.21-1.87.28-.34.05-.67.09-1,.12-.9.08-1.8.13-2.72.13s-2,0-3-.14l-.19,0c-.88-.09-1.74-.23-2.58-.4a20.34,20.34,0,0,1-14.73-10.55l-.09-.17C792.34,546.8,793,537.8,793,537.8V469.5H776.41v70.77A44.63,44.63,0,0,0,779.06,556l.28.67c.27.7.58,1.39.9,2.07A38.54,38.54,0,0,0,783.3,564c.22.31.44.63.67.94q.56.76,1.17,1.53c.67.82,1.35,1.62,2.09,2.39,1,1,2,2,3.07,2.9l.09.08a40,40,0,0,0,6.32,4.42c.24.13.47.27.71.39.91.5,1.85,1,2.81,1.36.42.19.84.36,1.27.52.8.32,1.61.62,2.43.88.51.16,1,.3,1.5.44.86.24,1.73.46,2.63.64l1.09.21c1.07.19,2.16.35,3.26.46l.48.05c1.37.12,2.75.18,4.17.18a40.21,40.21,0,0,0,23.31-6.95l.72-.53c.68-.49,1.34-1,2-1.53.43-.35.85-.71,1.28-1.08.88-.78,1.76-1.57,2.6-2.44q10.81-11.24,10.82-28.61Z"/><path class="cls-2" d="M520.43,581.14a60.59,60.59,0,0,0,24.17-7.74v-20a84.47,84.47,0,0,1-7.73,5.84,42.93,42.93,0,0,1-7.08,3.84,35.08,35.08,0,0,1-14.88,2.85A38.61,38.61,0,0,1,486.29,554a41.11,41.11,0,0,1-6.51-8.66C490.62,566.38,515.93,580.84,520.43,581.14Z"/><path class="cls-1" d="M457.84,524.35q0,16.9,7.46,29.87c.18.31.39.61.57.92.52.87,1.08,1.71,1.65,2.55.37.55.75,1.1,1.15,1.64a36,36,0,0,0,2.61,3.33A61.53,61.53,0,0,0,501.47,580a62.54,62.54,0,0,0,19.07,1.12c-4.72,0-38.28-19.36-44.68-46-.26-.94-.49-1.91-.68-2.91,0-.23-.07-.47-.11-.7-.13-.78-.23-1.58-.31-2.39-.05-.43-.1-.85-.13-1.29-.09-1.15-.14-2.31-.14-3.49a41.84,41.84,0,0,1,11.76-29.14C498.89,482.37,512.1,483,514.8,483s15.24-.27,29.75,12V475.42a54.1,54.1,0,0,0-28.62-8.05c-17,0-31.47,5.67-44.2,20.15A56.66,56.66,0,0,0,457.84,524.35Z"/><path class="cls-1" d="M680.39,545.29c.1.17.21.34.32.51a40,40,0,0,1-5.59-21.16q0-17.81,11.81-29.61,11.84-12,29.26-12,19.44,0,33,18L761,489.69q-10.32-11.82-21-17.09a55.74,55.74,0,0,0-24.06-5.27q-24,0-40.72,16.73t-16.73,40.58a55.24,55.24,0,0,0,16.44,40.15q16.46,16.66,39.51,16.66a60.9,60.9,0,0,0,6.7-.4C716,580.31,691.06,566,680.39,545.29Z"/><path class="cls-2" d="M720.44,522.15v15.59h27.43v0l-.09,1.32a16.66,16.66,0,0,1-.77,3.26,29.22,29.22,0,0,1-7.94,13.4l-.6.6-.7.6c-.27.24-.51.49-.79.73s-.68.52-1,.78c-.63.51-1.22,1-1.77,1.37-.74.52-1.44,1-2.16,1.41l-.14.09-1,.6a31.1,31.1,0,0,1-15.17,4h-.26l-.43,0a37,37,0,0,1-22.59-7.75c-.46-.33-.92-.66-1.37-1l-.86-.72c-.62-.51-1.25-1-1.87-1.55l-.34-.34-.37-.31a38.47,38.47,0,0,1-5-5.58l-.17-.22c-.6-.84-1.16-1.67-1.67-2.5,0-.05-.06-.1-.08-.15s-.22-.34-.32-.51c10.67,20.67,35.64,35,40.72,35.76a50.81,50.81,0,0,0,14.24-3.67l1.14-.51c1.4-.64,2.77-1.32,4.11-2.1l.33-.2c1.35-.8,2.67-1.68,4-2.62.15-.11.31-.21.45-.32l.38-.32c1.14-.87,2.26-1.79,3.34-2.77.4-.36.78-.76,1.17-1.13s.74-.75,1.11-1.13A51.35,51.35,0,0,0,764.4,541.8c0-.15.05-.31.08-.46.23-1.16.44-2.35.59-3.58q.39-2.84.59-5.86c0-.12,0-.25,0-.37.1-1.76.16-3.57.16-5.43,0-.31,0-.6,0-.88v-3.07Z"/><path class="cls-1" d="M274,496.87l-34.75,82.45,22.75,0L294.45,502C288.49,483.61,274,496.87,274,496.87Z"/><path class="cls-2" d="M300.13,461.73H289.41L274,496.87s14.46-13.26,20.42,5.13c1,3.21,30,77.3,30,77.3H347Z"/><path class="cls-1" d="M585.51,496.92l-34.75,82.45,22.74,0,32.42-77.3C600,483.66,585.51,496.92,585.51,496.92Z"/><path class="cls-2" d="M611.6,461.78H600.89l-15.38,35.14s14.46-13.26,20.41,5.13c1,3.21,30,77.3,30,77.3h22.52Z"/><path class="cls-1" d="M892.08,496.87l-34.75,82.45,22.74,0L912.49,502C906.54,483.61,892.08,496.87,892.08,496.87Z"/><path class="cls-2" d="M918.17,461.73H907.46l-15.38,35.14s14.46-13.26,20.41,5.13c1,3.21,30,77.3,30,77.3H965Z"/><path class="cls-4" d="M1366,315.74A146,146,0,0,1,1383,247.32l-32.4-16.9-.2-.1a183.77,183.77,0,0,0,50.44,230.86l.09-.12,22.84-28.73A146.43,146.43,0,0,1,1366,315.74Z"/><path class="cls-4" d="M1676.06,231,1643,247.87a146.74,146.74,0,0,1-40.08,183.7l22.49,29.49a183.78,183.78,0,0,0,50.66-230Z"/><path class="cls-4" d="M1512.33,462.27h-.25a146,146,0,0,1-84.68-26.92l-22.94,28.72a183.3,183.3,0,0,0,216.71-.41l-23.17-29A146,146,0,0,1,1512.33,462.27Z"/><path class="cls-4" d="M1371.65,315.68a141.17,141.17,0,1,0,255.38-83l-.14-.19-.08-.1,30.6-27.7C1614,150.8,1545.19,142.31,1521,141l8.37,0V127.6h-32.69v13.34l7.81,0c-87.4,3.41-137.79,63.74-137.79,63.74l31.87,28.13A140.47,140.47,0,0,0,1371.65,315.68Z"/><path class="cls-4" d="M1270.49,392.58l48.7-10.17-26.46,28.08,38.79,1.16-41.64,26.88-2.73-6.47,23.55-14.69-32.4-.92,22.13-23.51-27.18,6.17Z"/><path class="cls-4" d="M1322.93,464.36l-11.63-16.92a8.69,8.69,0,0,0-3.33,5.08,7,7,0,0,0,1.26,5.45,6.69,6.69,0,0,0,3.28,2.7,16.83,16.83,0,0,0,5.64.52l.6,6.37a23,23,0,0,1-4.67-.11,14.68,14.68,0,0,1-3.88-1.08,12.39,12.39,0,0,1-3.24-2.09,18.13,18.13,0,0,1-2.74-3.15,13.52,13.52,0,0,1-2.44-10.82c.82-3.7,3.1-6.84,6.87-9.43s7.46-3.61,11.19-3.13a13,13,0,0,1,9.12,5.94q3.58,5.21,2.34,10.52t-7.07,9.29Zm.61-8.67q3.59-4.14.58-8.5a6.72,6.72,0,0,0-1.58-1.65,6.56,6.56,0,0,0-4.18-1.27,7.49,7.49,0,0,0-2.35.47Z"/><path class="cls-4" d="M1370.17,461.74l4.56,4.84-36.14,34.07-4.56-4.84,2.19-2.05a12.38,12.38,0,0,1-8.86-3.82,12.6,12.6,0,0,1-3.57-10.05,16,16,0,0,1,5.31-10.31,15.48,15.48,0,0,1,10.44-4.54,12.37,12.37,0,0,1,12.92,13.4Zm-36.42,12.76a10,10,0,0,0-3.37,6.21,7.18,7.18,0,0,0,2,5.94,7.56,7.56,0,0,0,5.91,2.59,10.87,10.87,0,0,0,9.67-9.12,7.43,7.43,0,0,0-2.17-6,7.3,7.3,0,0,0-5.8-2.38A9.52,9.52,0,0,0,1333.75,474.5Z"/><path class="cls-4" d="M1370.82,490.45l-18.49,21.88-5.06-4.28,18.5-21.87Zm1.87-14a4.32,4.32,0,0,1,6-.48,4.14,4.14,0,0,1,1.52,2.94,4,4,0,0,1-1,3.13,4.17,4.17,0,0,1-2.94,1.52,4.1,4.1,0,0,1-3.13-1,4.21,4.21,0,0,1-1.52-2.95A4.26,4.26,0,0,1,1372.69,476.44Z"/><path class="cls-4" d="M1394.56,507.58l5.52,3.69-15.9,23.82-5.53-3.69,1.67-2.49a12.71,12.71,0,0,1-15.22-10.73,15.93,15.93,0,0,1,2.87-11.24,15.5,15.5,0,0,1,9.16-6.79,12.46,12.46,0,0,1,10.41,1.79,12.15,12.15,0,0,1,5.17,8.4Zm-21,3.12a10,10,0,0,0-1.89,6.8,7.22,7.22,0,0,0,3.3,5.34,7.6,7.6,0,0,0,6.34,1.2,10.9,10.9,0,0,0,7.38-11.06,7.49,7.49,0,0,0-3.47-5.39,7.3,7.3,0,0,0-6.18-1A9.51,9.51,0,0,0,1373.59,510.7Z"/><path class="cls-4" d="M1422.93,499.22l-22.71,44.18-5.89-3L1417,496.2Z"/><path class="cls-4" d="M1426.76,524.09l-5.91,15.33q-2.56,6.65,2.68,8.67t7.8-4.62l5.91-15.34,6.18,2.38-6,15.47a18.35,18.35,0,0,1-2.93,5.24,10,10,0,0,1-4.11,2.73,13.92,13.92,0,0,1-15.89-6.12,10.08,10.08,0,0,1-1.26-4.81,16.29,16.29,0,0,1,1.36-5.84l6-15.47Z"/><path class="cls-4" d="M1451.14,532.86l6.49,1.45-.58,2.58a10.87,10.87,0,0,1,8.38-1.65,9.87,9.87,0,0,1,6.92,4.78q1.77,3.13.44,9.05L1469,566.2l-6.49-1.45,3.5-15.61c.61-2.76.66-4.75.13-6s-1.75-2.08-3.72-2.52q-3.21-.72-5,1.1c-1.2,1.2-2.18,3.54-3,7l-3,13.49-6.48-1.45Z"/><path class="cls-4" d="M1504.28,540.92l6.63.45L1509,570l-6.64-.45.21-3A12.71,12.71,0,0,1,1484,564.8a16,16,0,0,1-3.11-11.17,15.41,15.41,0,0,1,4.56-10.45,12.42,12.42,0,0,1,9.91-3.65,12.24,12.24,0,0,1,8.67,4.71Zm-16.61,13.16a10,10,0,0,0,1.75,6.84,7.22,7.22,0,0,0,5.52,3,7.61,7.61,0,0,0,6.09-2.13,10.86,10.86,0,0,0,.89-13.26,7.52,7.52,0,0,0-5.7-2.95,7.31,7.31,0,0,0-5.86,2.21A9.49,9.49,0,0,0,1487.67,554.08Z"/><path class="cls-4" d="M1555.46,546.23l17.2,16.61-8.25,1.46-16-16-1.22.21,3.23,18.31-6.75,1.19-7.88-44.72,7.9-1.39q8.86-1.58,13.39,1.07a12.42,12.42,0,0,1,6.07,9,12.92,12.92,0,0,1-1.28,8.65A12.3,12.3,0,0,1,1555.46,546.23Zm-9.3-3.64,2.14-.38q9.59-1.69,8.29-9-1.2-6.87-10.53-5.22l-2.41.42Z"/><path class="cls-4" d="M1591.73,526.46l6.28-2.16,9.34,27.08-6.28,2.16-1-2.83a12.71,12.71,0,0,1-17.75,5.62,15.93,15.93,0,0,1-7.21-9.08,15.52,15.52,0,0,1,.14-11.41,12.44,12.44,0,0,1,7.72-7.2,12.13,12.13,0,0,1,9.82,1ZM1581.52,545a10,10,0,0,0,4.27,5.62,7.21,7.21,0,0,0,6.25.61,7.6,7.6,0,0,0,4.79-4.32,10.88,10.88,0,0,0-4.33-12.57,7.49,7.49,0,0,0-6.4-.5,7.33,7.33,0,0,0-4.55,4.31A9.61,9.61,0,0,0,1581.52,545Z"/><path class="cls-4" d="M1605.4,521l5.87-3.11,1.24,2.34a10.84,10.84,0,0,1,5.31-6.7,9.87,9.87,0,0,1,8.35-.87q3.39,1.25,6.22,6.59l8.22,15.52-5.88,3.11-7.48-14.14q-2-3.74-3.78-4.62c-1.19-.61-2.68-.45-4.46.5q-2.91,1.54-3.12,4.11t2.32,7.26l6.46,12.22-5.87,3.1Z"/><path class="cls-4" d="M1652.82,493l5.14,7.13a16.27,16.27,0,0,0-5.51-.71,7.89,7.89,0,0,0-4,1.57,8.18,8.18,0,0,0-3.51,5.75,9.13,9.13,0,0,0,1.83,6.76,9.38,9.38,0,0,0,5.79,4,8.08,8.08,0,0,0,6.51-1.49,8.57,8.57,0,0,0,2.81-3.29,16.71,16.71,0,0,0,1.09-5.57l5.11,7.08a17.32,17.32,0,0,1-5.32,6.4,15.43,15.43,0,0,1-11.53,3,14.38,14.38,0,0,1-9.9-6.1,14.52,14.52,0,0,1-2.65-11.43,15.32,15.32,0,0,1,6.45-10.08A16.5,16.5,0,0,1,1652.82,493Z"/><path class="cls-4" d="M1672.13,473.46l4.78-4.61,19.89,20.62-4.78,4.61-2.09-2.16a12.7,12.7,0,0,1-13.72,12.59,16,16,0,0,1-10.37-5.21,15.45,15.45,0,0,1-4.68-10.39,12.41,12.41,0,0,1,4-9.79,12.21,12.21,0,0,1,9.32-3.27Zm-1.42,21.15a9.94,9.94,0,0,0,6.24,3.29,7.24,7.24,0,0,0,5.93-2.07,7.57,7.57,0,0,0,2.51-5.95,10.87,10.87,0,0,0-9.22-9.56,7.46,7.46,0,0,0-6,2.24,7.29,7.29,0,0,0-2.31,5.82A9.52,9.52,0,0,0,1670.71,494.61Z"/><path class="cls-4" d="M1721.27,457.42c1.08.81,2,1.57,2.78,2.25a23.85,23.85,0,0,1,2,1.93,12.18,12.18,0,0,1,2.79,5.55q1.24,5.79-2.84,11.22a14.15,14.15,0,0,1-8.13,5.69,12.57,12.57,0,0,1-9.68-1.75l4-5.31a7.57,7.57,0,0,0,3.37.95,7.12,7.12,0,0,0,5.74-3.19q4.37-5.82-2.77-11.16l-3.19-2.4a12.35,12.35,0,0,1-2.24,9.68,12.22,12.22,0,0,1-9.14,5.13,15.75,15.75,0,0,1-10.85-3.44,16.55,16.55,0,0,1-6.41-9.19,12.14,12.14,0,0,1,2.26-10.74,11.52,11.52,0,0,1,8.62-4.77l-2.59-1.95,4-5.29Zm-14.68-3.08a9.64,9.64,0,0,0-6.68-2.22,7.41,7.41,0,0,0-5.52,3.1,7.15,7.15,0,0,0-1.34,6.43,10.21,10.21,0,0,0,4,5.46,10.08,10.08,0,0,0,6.31,2.27,7.12,7.12,0,0,0,5.76-3.11,7.25,7.25,0,0,0,1.39-6.45A9.83,9.83,0,0,0,1706.59,454.34Z"/><path class="cls-4" d="M1706.28,427.9l14.5,7.75q6.27,3.36,8.92-1.6c1.76-3.3.56-6.07-3.63-8.31l-14.5-7.75,3.12-5.83,14.63,7.82a18.4,18.4,0,0,1,4.84,3.55,10.09,10.09,0,0,1,2.21,4.42,13.92,13.92,0,0,1-8,15,10.13,10.13,0,0,1-4.93.67,16.46,16.46,0,0,1-5.62-2.08l-14.63-7.82Z"/><path class="cls-4" d="M1725.05,384.86l2.2-6.28,27,9.47-2.2,6.27-2.83-1a12.69,12.69,0,0,1-6.59,17.41,15.94,15.94,0,0,1-11.6,0,15.51,15.51,0,0,1-8.86-7.18,12.41,12.41,0,0,1-.86-10.52,12.16,12.16,0,0,1,6.85-7.11Zm8.25,19.52a9.93,9.93,0,0,0,7,.13,7.19,7.19,0,0,0,4.36-4.52,7.56,7.56,0,0,0-.43-6.44,10.88,10.88,0,0,0-12.54-4.39,7.5,7.5,0,0,0-4.36,4.7,7.29,7.29,0,0,0,.56,6.24A9.51,9.51,0,0,0,1733.3,404.38Z"/><path class="cls-5" d="M1459.31,245.94h-21.55V234.58h42.35l-29.55,51.59h-14.78Z"/><path class="cls-5" d="M1502.07,262.7h19.64V273h-19.64Z"/><path class="cls-5" d="M1558.72,258.94q-8.07-3.36-8.07-11.36a13.17,13.17,0,0,1,1.3-5.92,14,14,0,0,1,3.59-4.55,16,16,0,0,1,5.54-2.94,25.33,25.33,0,0,1,14.3,0,15.85,15.85,0,0,1,5.54,2.94,14,14,0,0,1,3.6,4.55,13.3,13.3,0,0,1,1.3,5.92,15,15,0,0,1-.41,3.66,8.51,8.51,0,0,1-1.41,2.94,11.75,11.75,0,0,1-2.6,2.5,23.74,23.74,0,0,1-4,2.26q10.53,4.1,10.54,13.27a12.92,12.92,0,0,1-1.47,6.09,15,15,0,0,1-4.11,4.86,20.16,20.16,0,0,1-6.23,3.21,25.34,25.34,0,0,1-7.9,1.16,25.81,25.81,0,0,1-7.76-1.12,20.08,20.08,0,0,1-6.26-3.19,15.08,15.08,0,0,1-4.18-4.85,12.87,12.87,0,0,1-1.5-6.16Q1548.53,262.83,1558.72,258.94Zm3.36,11.63a6.41,6.41,0,0,0,.47,2.46,6.49,6.49,0,0,0,1.3,2,6.3,6.3,0,0,0,2,1.37,5.88,5.88,0,0,0,2.43.51,5.66,5.66,0,0,0,2.36-.51,6.6,6.6,0,0,0,2-1.37,6.22,6.22,0,0,0,1.81-4.41,6,6,0,0,0-1.81-4.42,6.17,6.17,0,0,0-8.73,0A6,6,0,0,0,1562.08,270.57Zm.47-22.85a5.6,5.6,0,0,0,1.65,4.07,5.44,5.44,0,0,0,4,1.67,5.26,5.26,0,0,0,2.26-.48,5.81,5.81,0,0,0,1.78-1.26,6.26,6.26,0,0,0,1.2-1.82,5.37,5.37,0,0,0,.44-2.12,5.54,5.54,0,0,0-1.64-4,5.67,5.67,0,0,0-9.72,3.94Z"/><path class="cls-5" d="M1436.05,340.73V295.32h11.81l21.8,27.76V295.32h11.75v45.41h-11.75L1447.86,313v27.77Z"/><path class="cls-5" d="M1489.41,318a23.41,23.41,0,0,1,15-22.13,28.83,28.83,0,0,1,20.27,0,23.87,23.87,0,0,1,8,5.09,23.38,23.38,0,0,1,5.21,7.62,24.69,24.69,0,0,1,0,18.85,23.38,23.38,0,0,1-5.21,7.62,24,24,0,0,1-8,5.09,29,29,0,0,1-20.27,0,23.5,23.5,0,0,1-15-22.14Zm12.35,0a12,12,0,0,0,1,5,12.5,12.5,0,0,0,6.83,6.6,13.43,13.43,0,0,0,9.82,0,12.9,12.9,0,0,0,4.09-2.62,12.5,12.5,0,0,0,2.81-4,12.76,12.76,0,0,0,0-10,12.57,12.57,0,0,0-2.81-4,12.73,12.73,0,0,0-4.09-2.62,13.43,13.43,0,0,0-9.82,0,12.38,12.38,0,0,0-4.06,2.62,12.61,12.61,0,0,0-2.77,4A12,12,0,0,0,1501.76,318Z"/><path class="cls-5" d="M1553.14,295.32l11,27.64,11-27.64H1588l-19.15,45.41h-9.4l-19.09-45.41Z"/><path class="cls-5" d="M1450.41,396.16h17.74v6.76h-32l16.54-20q2.44-3,4.09-5.18a40.06,40.06,0,0,0,2.52-3.68,10.33,10.33,0,0,0,1.76-5.21,7.48,7.48,0,0,0-2.35-5.59,8.05,8.05,0,0,0-5.8-2.25q-7.23,0-8.27,8.55h-7.16q1.73-15.06,15.21-15.06a15.4,15.4,0,0,1,10.93,4.13,13.46,13.46,0,0,1,4.44,10.25,15.55,15.55,0,0,1-2.07,7.62,36.86,36.86,0,0,1-3.07,4.62c-1.34,1.78-3.05,3.88-5.1,6.31Z"/><path class="cls-5" d="M1476.27,378.79q0-11.39,5.31-18.18,4.76-6.14,11.51-6.14t11.52,6.14q5.3,6.79,5.3,18.49t-5.3,18.45q-4.75,6.15-11.49,6.15t-11.54-6.15Q1476.27,390.77,1476.27,378.79Zm7.07,0q0,7.94,2.75,13.18t7,5.15q4.23,0,7-5.15t2.78-12.94q0-7.8-2.78-13t-7-5.12q-4.2,0-7,5.12A26.36,26.36,0,0,0,1483.34,378.82Z"/><path class="cls-5" d="M1528.43,396.16h17.75v6.76h-32l16.54-20q2.44-3,4.09-5.18a40.06,40.06,0,0,0,2.52-3.68,10.33,10.33,0,0,0,1.76-5.21,7.44,7.44,0,0,0-2.35-5.59,8.05,8.05,0,0,0-5.8-2.25q-7.22,0-8.27,8.55h-7.16q1.73-15.06,15.21-15.06a15.39,15.39,0,0,1,10.93,4.13,13.47,13.47,0,0,1,4.45,10.25,15.66,15.66,0,0,1-2.07,7.62,38,38,0,0,1-3.07,4.62q-2,2.67-5.11,6.31Z"/><path class="cls-5" d="M1554.29,378.79q0-11.39,5.31-18.18,4.76-6.14,11.52-6.14t11.51,6.14q5.31,6.79,5.31,18.49t-5.31,18.45q-4.76,6.15-11.48,6.15t-11.55-6.15Q1554.29,390.77,1554.29,378.79Zm7.07,0q0,7.94,2.75,13.18t7,5.15q4.22,0,7-5.15t2.78-12.94q0-7.8-2.78-13t-7-5.12q-4.2,0-7,5.12A26.36,26.36,0,0,0,1561.36,378.82Z"/></svg>