<svg id="Layer_1" data-name="Layer 1" xmlns="http://www.w3.org/2000/svg" viewBox="0 0 1200 300"><defs><style>.cls-1{fill:#006787;}.cls-2{fill:#00a1cf;}.cls-3{fill:none;}.cls-4{fill:#d33f95;}.cls-5{fill:#fff;}.cls-6{opacity:0.8;}</style></defs><title>Header FIRAN mobil</title><path class="cls-1" d="M163.71,172v21.72h-3.28V172Z"/><path class="cls-1" d="M183.34,193.72v-23.2l15.84,16.57V172h3.27v23l-15.84-16.53v15.21Z"/><path class="cls-1" d="M228.06,175.08v18.64h-3.28V175.08h-5V172H233v3.08Z"/><path class="cls-1" d="M262.36,175.08h-8.71v5.22h8.45v3.08h-8.45v7.26h8.71v3.08h-12V172h12Z"/><path class="cls-1" d="M288.43,184.46l6.72,9.26h-4l-6.2-8.89h-.59v8.89h-3.28V172h3.84q4.3,0,6.22,1.62a6,6,0,0,1,2.11,4.75,6.19,6.19,0,0,1-1.32,4A6,6,0,0,1,288.43,184.46ZM284.35,182h1c3.1,0,4.65-1.18,4.65-3.56q0-3.33-4.53-3.33h-1.16Z"/><path class="cls-1" d="M312.82,193.72v-23.2l15.84,16.57V172h3.28v23L316.1,178.51v15.21Z"/><path class="cls-1" d="M364.48,188.44h-9.3l-2.42,5.28h-3.53L360,170.63l10.37,23.09h-3.59Zm-1.34-3.08L359.92,178l-3.37,7.38Z"/><path class="cls-1" d="M402.51,173.17v3.88a9.09,9.09,0,0,0-5.88-2.38,7.44,7.44,0,0,0-5.64,2.41,8.09,8.09,0,0,0-2.31,5.85A7.92,7.92,0,0,0,391,188.7a7.62,7.62,0,0,0,5.65,2.35,6.88,6.88,0,0,0,2.94-.57,7.79,7.79,0,0,0,1.4-.76,16.07,16.07,0,0,0,1.53-1.15v4a11.86,11.86,0,0,1-5.91,1.59,10.87,10.87,0,0,1-8-3.25,10.74,10.74,0,0,1-3.28-7.9,11.14,11.14,0,0,1,2.75-7.4,10.89,10.89,0,0,1,8.73-4A11.11,11.11,0,0,1,402.51,173.17Z"/><path class="cls-1" d="M424.33,172v21.72h-3.28V172Z"/><path class="cls-1" d="M442.87,182.76a10.65,10.65,0,0,1,3.36-7.88,11.09,11.09,0,0,1,8-3.29,11.37,11.37,0,0,1,11.3,11.3,10.71,10.71,0,0,1-3.35,8,11.49,11.49,0,0,1-15.67.36A10.67,10.67,0,0,1,442.87,182.76Zm3.31,0a8,8,0,0,0,13.74,5.88A8.43,8.43,0,0,0,460,177a7.68,7.68,0,0,0-5.71-2.36,8,8,0,0,0-8.06,8.13Z"/><path class="cls-1" d="M484.1,193.72v-23.2L500,187.09V172h3.27v23l-15.84-16.53v15.21Z"/><path class="cls-1" d="M535.76,188.44h-9.3L524,193.72h-3.53l10.75-23.09,10.37,23.09H538Zm-1.33-3.08L531.21,178l-3.38,7.38Z"/><path class="cls-1" d="M562,172v18.64h6.39v3.08h-9.67V172Z"/><path class="cls-2" d="M341.21,109v0Z"/><path class="cls-1" d="M348.39,109l35.25,50.57h23.53L371.87,111a39.45,39.45,0,0,1-23.48-2Z"/><circle class="cls-2" cx="432.28" cy="47.83" r="15.54"/><path class="cls-1" d="M420.94,73v86.52h22.68V73a31.39,31.39,0,0,1-22.68,0Z"/><path class="cls-3" d="M368.69,92l.76-.19Z"/><path class="cls-2" d="M367.91,92.24c.27,0,.52-.13.78-.2Z"/><path class="cls-2" d="M363.32,32.3H323.7V50.93h40a20.74,20.74,0,0,1,20.82,20.76,21,21,0,0,1-15.1,20.16l-.76.19c-.26.07-.51.15-.78.2a20.5,20.5,0,0,1-25.18-20h-19A39.67,39.67,0,1,0,363.32,32.3Z"/><path class="cls-1" d="M323.7,72.19c0,9.12,0,32.13,0,35.6v51.74h19.17V106.21A39.58,39.58,0,0,1,323.7,72.19Z"/><path class="cls-1" d="M258,141.36V97.84c-1.72-.09-12.82-.47-16.35,5.18a25.54,25.54,0,0,0-3,7c.1-29.61,7.36-29.16,19.33-29.09V49.73l-12.26,1-7,7.88,0,51.41h0v49.48h.14v0h25.1v0h38.12V141.36Z"/><path class="cls-1" d="M179.6,159.53V99c-1.71-.09-12.71-.46-16.21,5.14a25.35,25.35,0,0,0-3,7v48.45Z"/><path class="cls-1" d="M163.45,56a27.19,27.19,0,0,0-3,7.3v47.76c0-29.94,5.58-30,19.17-30V50.93C176,50.93,167.34,49.78,163.45,56Z"/><path class="cls-2" d="M179.7,81.1h-.1c-13.59,0-19.17,0-19.17,30a25.35,25.35,0,0,1,3-7c3.5-5.6,14.5-5.23,16.21-5.14l.24,0,42.34.07v-18Z"/><path class="cls-2" d="M180.19,32.4c-14,0-19.77.16-19.77,31v0a27.19,27.19,0,0,1,3-7.3c3.89-6.24,12.56-5.09,16.15-5.09h44.18V32.35C213.47,32.35,185.88,32.4,180.19,32.4Z"/><path class="cls-2" d="M258.47,32.42c-14,0-19.78.16-19.78,31l0,0a27.19,27.19,0,0,1,3-7.3C245.62,49.8,254.29,51,257.87,51h44.18V32.38Z"/><path class="cls-2" d="M258.47,80.21c-14,0-19.77.17-19.77,31l0-.05a27.3,27.3,0,0,1,3-7.3c3.9-6.23,12.56-5.08,16.15-5.08h44.18V80.17Z"/><path class="cls-1" d="M489.47,70.37l-37.6,89.21,24.61,0,35.08-83.64C505.12,56,489.47,70.37,489.47,70.37Z"/><path class="cls-2" d="M517.71,32.34h-11.6l-16.64,38S505.12,56,511.56,75.92c1.13,3.47,32.49,83.64,32.49,83.64h24.37Z"/><polygon class="cls-1" points="257.76 207.06 257.76 211.73 257.76 266.62 265.85 266.62 265.85 226.26 265.85 207.06 257.76 207.06"/><polygon class="cls-1" points="298.56 207.06 298.56 247.21 298.56 266.44 306.7 266.42 306.7 261.75 306.7 207.06 298.56 207.06"/><path class="cls-2" d="M303.67,254.67c-2.18.72-4.85-1.17-6.21-2.32l-12.23-18.94h0l-13.55-20.93c-2-3.06-3.37-5.21-5.8-5.4l0,0h-8.09s0,6.48,0,13.36a11.37,11.37,0,0,1,3-1.58c1.6-.53,3.47.36,4.9,1.32l12.85,20h0c3.47,5.35,12.08,18.59,13.58,20.91,2.14,3.31,3.55,5.6,6.44,5.6,0,0,0,0,0,0h8.09s0-6.65,0-13.54A11.12,11.12,0,0,1,303.67,254.67Z"/><path class="cls-1" d="M172.24,243l16.49,23.63h11.1L183.35,244a18.42,18.42,0,0,1-4,.5A19.14,19.14,0,0,1,172.24,243Z"/><path class="cls-1" d="M161.2,225.78c0,4.24,0,14.94,0,16.56v24.28h9V241.88A18.86,18.86,0,0,1,161.2,225.78Z"/><path class="cls-2" d="M179.21,207.06h-18v9h18a9.7,9.7,0,1,1-9.36,9.69H161.2a18.86,18.86,0,0,0,8.71,16,18.07,18.07,0,0,0,2.51,1.3,17.31,17.31,0,0,0,6.79,1.38,17.75,17.75,0,0,0,3.88-.44,18.59,18.59,0,0,0,14.16-18.25C197.25,215.45,189.16,207.06,179.21,207.06Z"/><path class="cls-2" d="M514.14,240.59V211.07h-8.39v33.49q0,7.27-2.34,10.48a11.09,11.09,0,0,1-5.61,4.15C508.31,256.17,514.14,242.82,514.14,240.59Z"/><path class="cls-1" d="M514.14,240.59c0,2.23-5.83,15.58-16.34,18.6-.37.12-.76.23-1.15.32l-.28.05c-.31.06-.62.11-.94.15l-.51.06q-.68.06-1.38.06c-.52,0-1,0-1.49-.07H492c-.45-.05-.88-.12-1.3-.2a10.3,10.3,0,0,1-7.45-5.34.41.41,0,0,1-.05-.09,17.57,17.57,0,0,1-1.78-8.5V211.07H473v35.8a22.56,22.56,0,0,0,1.34,7.93c.05.11.1.23.14.34.14.36.3.7.46,1.05a19.69,19.69,0,0,0,1.55,2.69l.33.48c.19.26.39.52.6.77.33.42.68.82,1.05,1.21s1,1,1.56,1.47l0,0a21.45,21.45,0,0,0,3.2,2.24l.36.19A15.48,15.48,0,0,0,485,266c.21.1.43.18.64.27.41.16.82.3,1.23.44l.76.22c.44.12.88.23,1.33.33l.55.1c.55.1,1.09.18,1.65.23l.25,0q1,.09,2.1.09a20.33,20.33,0,0,0,11.79-3.51l.37-.27c.34-.25.68-.51,1-.78s.43-.35.64-.54c.45-.4.89-.8,1.32-1.24a20,20,0,0,0,5.47-14.47Z"/><path class="cls-2" d="M343.5,267.55a30.64,30.64,0,0,0,12.22-3.92V253.51a41.35,41.35,0,0,1-3.91,2.95,21.29,21.29,0,0,1-3.58,2,17.75,17.75,0,0,1-7.53,1.44,19.52,19.52,0,0,1-14.47-6,20.78,20.78,0,0,1-3.3-4.39C328.41,260.08,341.22,267.39,343.5,267.55Z"/><path class="cls-1" d="M311.83,238.82a29.77,29.77,0,0,0,3.78,15.1c.09.16.19.32.29.47.26.44.54.87.83,1.29s.38.56.58.83a17.72,17.72,0,0,0,1.32,1.68A31.11,31.11,0,0,0,333.9,267a31.47,31.47,0,0,0,9.65.57c-2.39,0-19.37-9.8-22.6-23.27-.13-.48-.25-1-.35-1.47,0-.12,0-.24-.05-.35-.07-.4-.12-.81-.16-1.22,0-.21-.05-.43-.06-.65-.05-.58-.08-1.17-.08-1.76a21.22,21.22,0,0,1,5.95-14.75c6.4-6.49,13.08-6.15,14.44-6.15s7.72-.14,15.06,6.08v-9.94A27.41,27.41,0,0,0,341.22,210c-8.62,0-15.92,2.87-22.36,10.2A28.68,28.68,0,0,0,311.83,238.82Z"/><path class="cls-1" d="M424.41,249.41l.16.26A21.72,21.72,0,0,1,427.72,224a19.91,19.91,0,0,1,14.8-6.08q9.83,0,16.67,9.11l6-5.73a35.22,35.22,0,0,0-10.62-8.64,29,29,0,0,0-32.92,46.63,27.09,27.09,0,0,0,20,8.43,31.34,31.34,0,0,0,3.39-.2C442.44,267.12,429.81,259.86,424.41,249.41Z"/><path class="cls-2" d="M444.67,237.7v7.89h13.87l0,.67a8.18,8.18,0,0,1-.39,1.65,14.83,14.83,0,0,1-4,6.78c-.11.12-.22.22-.3.3l-.35.3-.4.37c-.17.15-.35.26-.52.4s-.62.49-.9.69-.72.49-1.09.71l-.07,0-.53.3a15.7,15.7,0,0,1-7.67,2h-.35a19,19,0,0,1-3.54-.34,18.61,18.61,0,0,1-7.89-3.58c-.23-.17-.46-.33-.69-.51l-.44-.36c-.31-.26-.63-.51-1-.79-.06-.06-.11-.12-.17-.17l-.18-.16a20,20,0,0,1-2.51-2.82l-.08-.11c-.31-.43-.59-.85-.85-1.27l0-.07-.16-.26c5.4,10.45,18,17.71,20.6,18.09a25.76,25.76,0,0,0,7.2-1.86l.58-.25c.71-.33,1.4-.67,2.08-1.07l.16-.1a24,24,0,0,0,2-1.32l.23-.17.18-.16c.58-.44,1.15-.9,1.7-1.4.2-.18.39-.38.59-.57l.56-.57a26,26,0,0,0,6.6-12.39,1.57,1.57,0,0,0,0-.23c.12-.59.23-1.19.31-1.81.13-1,.23-1.94.29-3a1.28,1.28,0,0,0,0-.19c.06-.89.08-1.81.09-2.75v-2Z"/><path class="cls-1" d="M218.85,224.92l-17.57,41.7h11.5l16.4-39.1C226.17,218.21,218.85,224.92,218.85,224.92Z"/><path class="cls-2" d="M232.05,207.14h-5.42l-7.78,17.78s7.32-6.71,10.33,2.59c.53,1.63,15.19,39.1,15.19,39.1h11.39Z"/><path class="cls-1" d="M376.41,224.94l-17.58,41.71h11.51l16.4-39.1C383.73,218.23,376.41,224.94,376.41,224.94Z"/><path class="cls-2" d="M389.61,207.16h-5.42l-7.78,17.78s7.32-6.71,10.33,2.6c.53,1.62,15.18,39.1,15.18,39.1h11.4Z"/><path class="cls-1" d="M531.49,224.92l-17.58,41.7h11.51l16.4-39.1C538.81,218.21,531.49,224.92,531.49,224.92Z"/><path class="cls-2" d="M544.69,207.14h-5.42l-7.78,17.78s7.32-6.71,10.33,2.59c.53,1.63,15.18,39.1,15.18,39.1h11.4Z"/><path class="cls-4" d="M832.45,132.38a77.91,77.91,0,0,1,9-36.51l-17.29-9-.1-.06A98,98,0,0,0,851,210l0-.06,12.18-15.33A78.11,78.11,0,0,1,832.45,132.38Z"/><path class="cls-4" d="M997.85,87.18l-17.64,9a78.27,78.27,0,0,1-21.38,98l12,15.74a98.05,98.05,0,0,0,27-122.73Z"/><path class="cls-4" d="M910.5,210.55h-.14a77.79,77.79,0,0,1-45.17-14.36L853,211.51a97.76,97.76,0,0,0,115.61-.22L956.2,195.82A77.85,77.85,0,0,1,910.5,210.55Z"/><path class="cls-4" d="M835.44,132.35A75.32,75.32,0,1,0,971.69,88.07a.86.86,0,0,1-.07-.1l0,0L987.9,73.14c-23.15-28.76-59.87-33.29-72.8-34l4.47,0V32H902.13v7.12h4.16c-46.63,1.82-73.51,34-73.51,34l17,15A75,75,0,0,0,835.44,132.35Z"/><path class="cls-4" d="M781.48,173.37l26-5.42-14.12,15,20.69.61-22.21,14.35-1.46-3.46,12.57-7.83-17.29-.49,11.81-12.54L783,176.86Z"/><path class="cls-4" d="M809.45,211.67l-6.2-9a4.68,4.68,0,0,0-1.78,2.71,3.75,3.75,0,0,0,.67,2.91,3.66,3.66,0,0,0,1.75,1.44,9,9,0,0,0,3,.28l.32,3.39a11.26,11.26,0,0,1-2.49-.06,7.52,7.52,0,0,1-2.07-.57,6.5,6.5,0,0,1-1.73-1.12,9,9,0,0,1-1.46-1.68,7.22,7.22,0,0,1-1.3-5.77,8.22,8.22,0,0,1,3.66-5,8.48,8.48,0,0,1,6-1.67,7,7,0,0,1,4.87,3.17,6.87,6.87,0,0,1,1.25,5.61,8.45,8.45,0,0,1-3.77,5Zm.33-4.63a3.38,3.38,0,0,0,.31-4.53,3.57,3.57,0,0,0-.85-.88A3.48,3.48,0,0,0,807,201a4.14,4.14,0,0,0-1.26.25Z"/><path class="cls-4" d="M834.66,210.27l2.43,2.58L817.81,231l-2.43-2.58,1.16-1.1a6.57,6.57,0,0,1-4.72-2,6.71,6.71,0,0,1-1.91-5.36,8.51,8.51,0,0,1,2.84-5.5,8.24,8.24,0,0,1,5.56-2.42,6.58,6.58,0,0,1,5.2,2.15,6.49,6.49,0,0,1,1.69,5Zm-19.44,6.81a5.33,5.33,0,0,0-1.79,3.31,3.83,3.83,0,0,0,1.07,3.17,4.06,4.06,0,0,0,3.15,1.38,5.22,5.22,0,0,0,3.41-1.55,5.17,5.17,0,0,0,1.75-3.31,4,4,0,0,0-1.16-3.22,3.9,3.9,0,0,0-3.09-1.27A5.08,5.08,0,0,0,815.22,217.08Z"/><path class="cls-4" d="M835,225.59l-9.86,11.67-2.7-2.28,9.87-11.67Zm1-7.48a2.29,2.29,0,1,1,.26,3.27,2.3,2.3,0,0,1-.81-1.57A2.26,2.26,0,0,1,836,218.11Z"/><path class="cls-4" d="M847.67,234.73l2.94,2-8.48,12.71-3-2,.89-1.33a6.79,6.79,0,0,1-8.12-5.73,8.55,8.55,0,0,1,1.53-6,8.19,8.19,0,0,1,4.89-3.62,6.59,6.59,0,0,1,5.55.95,6.49,6.49,0,0,1,2.76,4.48Zm-11.19,1.66a5.36,5.36,0,0,0-1,3.63,3.87,3.87,0,0,0,1.76,2.85,4.05,4.05,0,0,0,3.39.64,5.28,5.28,0,0,0,3-2.28,5.21,5.21,0,0,0,1-3.62,4,4,0,0,0-1.85-2.88,3.93,3.93,0,0,0-3.3-.54A5.12,5.12,0,0,0,836.48,236.39Z"/><path class="cls-4" d="M862.8,230.27l-12.11,23.56-3.14-1.61,12.11-23.57Z"/><path class="cls-4" d="M864.85,243.53l-3.16,8.19q-1.37,3.54,1.43,4.62c1.87.72,3.26-.11,4.17-2.47l3.15-8.18,3.3,1.27-3.19,8.25A9.83,9.83,0,0,1,869,258a5.41,5.41,0,0,1-2.2,1.46,7.42,7.42,0,0,1-8.47-3.27,5.38,5.38,0,0,1-.68-2.57,8.8,8.8,0,0,1,.73-3.11l3.18-8.26Z"/><path class="cls-4" d="M877.85,248.21l3.46.78-.3,1.37a5.78,5.78,0,0,1,4.47-.87,5.29,5.29,0,0,1,3.69,2.54q.95,1.68.24,4.83l-2,9.14-3.46-.77,1.86-8.33a5.55,5.55,0,0,0,.07-3.19,2.52,2.52,0,0,0-2-1.34,2.72,2.72,0,0,0-2.69.59,8,8,0,0,0-1.57,3.74L878,263.9l-3.46-.78Z"/><path class="cls-4" d="M906.21,252.52l3.53.23-1,15.25-3.54-.24.11-1.59a6.79,6.79,0,0,1-9.9-.92,8.5,8.5,0,0,1-1.66-6,8.23,8.23,0,0,1,2.43-5.57,6.67,6.67,0,0,1,5.29-1.95,6.51,6.51,0,0,1,4.63,2.52Zm-8.87,7a5.26,5.26,0,0,0,.94,3.65,3.82,3.82,0,0,0,2.94,1.6,4,4,0,0,0,3.25-1.14,5.15,5.15,0,0,0,1.44-3.45,5.21,5.21,0,0,0-1-3.62,4,4,0,0,0-3-1.57,3.9,3.9,0,0,0-3.13,1.17A5.08,5.08,0,0,0,897.34,259.53Z"/><path class="cls-4" d="M933.51,255.35l9.18,8.86-4.41.78-8.53-8.57-.65.12,1.72,9.76-3.6.64L923,243.08l4.22-.74c3.15-.56,5.54-.37,7.14.57a6.63,6.63,0,0,1,3.24,4.81,6.91,6.91,0,0,1-.68,4.62A6.57,6.57,0,0,1,933.51,255.35Zm-5-1.95,1.14-.2q5.12-.9,4.42-4.81-.65-3.66-5.62-2.78l-1.28.22Z"/><path class="cls-4" d="M952.86,244.8l3.35-1.15,5,14.44-3.35,1.16-.52-1.51a6.79,6.79,0,0,1-9.47,3,8.57,8.57,0,0,1-3.85-4.85,8.29,8.29,0,0,1,.08-6.09A6.62,6.62,0,0,1,948.2,246a6.47,6.47,0,0,1,5.24.52Zm-5.44,9.91a5.26,5.26,0,0,0,2.27,3A3.86,3.86,0,0,0,953,258a4.08,4.08,0,0,0,2.55-2.31,5.8,5.8,0,0,0-2.31-6.71,4,4,0,0,0-3.41-.26,3.88,3.88,0,0,0-2.43,2.3A5,5,0,0,0,947.42,254.71Z"/><path class="cls-4" d="M960.15,241.86l3.14-1.65.66,1.24a5.79,5.79,0,0,1,2.83-3.57,5.26,5.26,0,0,1,4.46-.46c1.2.44,2.31,1.61,3.31,3.51l4.39,8.28-3.14,1.66-4-7.54a5.64,5.64,0,0,0-2-2.47,2.54,2.54,0,0,0-2.38.27,2.73,2.73,0,0,0-1.66,2.19,7.87,7.87,0,0,0,1.24,3.87l3.45,6.52-3.14,1.66Z"/><path class="cls-4" d="M985.45,227l2.74,3.8a8.57,8.57,0,0,0-2.93-.37,4.18,4.18,0,0,0-2.13.83,4.37,4.37,0,0,0-1.87,3.07,4.89,4.89,0,0,0,1,3.61,5,5,0,0,0,3.1,2.12,4.3,4.3,0,0,0,3.47-.8,4.6,4.6,0,0,0,1.5-1.75,9,9,0,0,0,.58-3l2.72,3.79a9.22,9.22,0,0,1-2.84,3.41,8.21,8.21,0,0,1-6.15,1.61,8.09,8.09,0,0,1-6.69-9.35,8.18,8.18,0,0,1,3.44-5.38A8.79,8.79,0,0,1,985.45,227Z"/><path class="cls-4" d="M995.76,216.53l2.55-2.47,10.61,11-2.56,2.46-1.11-1.15a6.78,6.78,0,0,1-7.32,6.72,8.51,8.51,0,0,1-5.53-2.78,8.3,8.3,0,0,1-2.5-5.55,6.62,6.62,0,0,1,2.12-5.22,6.52,6.52,0,0,1,5-1.74ZM995,227.81a5.26,5.26,0,0,0,3.33,1.75,3.82,3.82,0,0,0,3.16-1.1,4,4,0,0,0,1.34-3.17,5.82,5.82,0,0,0-4.92-5.11,4,4,0,0,0-3.21,1.2,3.91,3.91,0,0,0-1.23,3.1A5.14,5.14,0,0,0,995,227.81Z"/><path class="cls-4" d="M1022,208c.58.43,1.07.83,1.48,1.2s.76.71,1,1a6.39,6.39,0,0,1,1.48,3,7.15,7.15,0,0,1-1.51,6,7.57,7.57,0,0,1-4.34,3,6.75,6.75,0,0,1-5.17-.93l2.13-2.84a4.2,4.2,0,0,0,1.8.51,3.79,3.79,0,0,0,3.06-1.71c1.56-2.06,1.06-4.05-1.47-6l-1.71-1.28a6.72,6.72,0,0,1-6.07,7.9,8.36,8.36,0,0,1-5.78-1.83,8.83,8.83,0,0,1-3.42-4.9,6.47,6.47,0,0,1,1.2-5.73,6.15,6.15,0,0,1,4.6-2.55l-1.38-1L1010,199Zm-7.83-1.65a5.16,5.16,0,0,0-3.56-1.18,3.94,3.94,0,0,0-3,1.65,3.79,3.79,0,0,0-.71,3.43,5.41,5.41,0,0,0,2.13,2.92,5.35,5.35,0,0,0,3.36,1.21,3.81,3.81,0,0,0,3.07-1.66,3.91,3.91,0,0,0,.75-3.45A5.31,5.31,0,0,0,1014.14,206.32Z"/><path class="cls-4" d="M1014,192.22l7.74,4.13q3.35,1.78,4.76-.85c.94-1.76.3-3.24-1.94-4.43l-7.73-4.14,1.66-3.11,7.81,4.17a9.81,9.81,0,0,1,2.58,1.9,5.39,5.39,0,0,1,1.18,2.35,6.71,6.71,0,0,1-.78,4.75,6.63,6.63,0,0,1-3.51,3.26,5.33,5.33,0,0,1-2.63.36,8.9,8.9,0,0,1-3-1.11l-7.8-4.17Z"/><path class="cls-4" d="M1024,169.25l1.17-3.35,14.42,5-1.17,3.35-1.51-.53a6.77,6.77,0,0,1-3.52,9.29,8.47,8.47,0,0,1-6.19,0,8.22,8.22,0,0,1-4.72-3.83,6.62,6.62,0,0,1-.46-5.61,6.49,6.49,0,0,1,3.65-3.79Zm4.4,10.42a5.31,5.31,0,0,0,3.76.07,3.87,3.87,0,0,0,2.33-2.41,4.07,4.07,0,0,0-.23-3.44,5.81,5.81,0,0,0-6.69-2.34,4,4,0,0,0-2.33,2.51,3.91,3.91,0,0,0,.3,3.33A5,5,0,0,0,1028.39,179.67Z"/><path class="cls-5" d="M882.21,95.14H870.72V89.08h22.59L877.54,116.6h-7.88Z"/><path class="cls-5" d="M905,104.08H915.5v5.51H905Z"/><path class="cls-5" d="M935.25,102.07q-4.31-1.78-4.31-6.06a6.88,6.88,0,0,1,.7-3.15,7.39,7.39,0,0,1,1.91-2.43,8.54,8.54,0,0,1,3-1.57,13.51,13.51,0,0,1,7.63,0,8.49,8.49,0,0,1,3,1.57A7.29,7.29,0,0,1,949,92.86a7,7,0,0,1,.7,3.15,8.33,8.33,0,0,1-.22,2,4.51,4.51,0,0,1-.75,1.56,6.37,6.37,0,0,1-1.39,1.34,12.83,12.83,0,0,1-2.13,1.2q5.61,2.19,5.62,7.08a6.82,6.82,0,0,1-.79,3.25,7.84,7.84,0,0,1-2.19,2.59,10.65,10.65,0,0,1-3.32,1.72,14.63,14.63,0,0,1-8.36,0,10.62,10.62,0,0,1-3.34-1.7,8.09,8.09,0,0,1-2.23-2.59,6.9,6.9,0,0,1-.8-3.29Q929.81,104.15,935.25,102.07Zm1.79,6.21a3.39,3.39,0,0,0,.25,1.31,3.47,3.47,0,0,0,.7,1.08,3.36,3.36,0,0,0,1,.73,3.11,3.11,0,0,0,1.29.27,3,3,0,0,0,1.26-.27,3.58,3.58,0,0,0,1.06-.73,3.33,3.33,0,0,0,1-2.36,3.18,3.18,0,0,0-1-2.35,3.27,3.27,0,0,0-4.65,0A3.2,3.2,0,0,0,937,108.28Zm.25-12.19a3,3,0,0,0,.88,2.17,2.9,2.9,0,0,0,2.15.89,2.85,2.85,0,0,0,1.21-.25,3.23,3.23,0,0,0,1-.68,3.41,3.41,0,0,0,.64-1,3,3,0,0,0-2.8-4.16,3,3,0,0,0-3,3Z"/><path class="cls-5" d="M869.81,145.71V121.48h6.29l11.64,14.81V121.48H894v24.23h-6.26L876.1,130.9v14.81Z"/><path class="cls-5" d="M898.27,133.6a12.72,12.72,0,0,1,1-5A12.43,12.43,0,0,1,902,124.5a12.69,12.69,0,0,1,4.23-2.71,15.4,15.4,0,0,1,10.81,0,12.83,12.83,0,0,1,4.26,2.71,12.49,12.49,0,0,1,2.78,4.07,13.25,13.25,0,0,1,0,10.05,12.49,12.49,0,0,1-2.78,4.07,12.67,12.67,0,0,1-4.26,2.71,15.4,15.4,0,0,1-10.81,0,12.35,12.35,0,0,1-7-6.78A12.67,12.67,0,0,1,898.27,133.6Zm6.59,0a6.33,6.33,0,0,0,.55,2.66,6.48,6.48,0,0,0,1.48,2.12,6.65,6.65,0,0,0,2.16,1.4,7.11,7.11,0,0,0,5.24,0,6.89,6.89,0,0,0,2.19-1.4,6.66,6.66,0,0,0,1.49-7.45,6.61,6.61,0,0,0-1.49-2.12,6.89,6.89,0,0,0-2.19-1.4,7.11,7.11,0,0,0-5.24,0,6.72,6.72,0,0,0-3.64,3.52A6.35,6.35,0,0,0,904.86,133.6Z"/><path class="cls-5" d="M932.27,121.48l5.85,14.75L944,121.48h6.84l-10.21,24.23h-5l-10.18-24.23Z"/><g class="cls-6"><path class="cls-5" d="M877.46,175.29h9.47v3.6H869.86l8.82-10.69c.87-1.06,1.6-2,2.18-2.76a21,21,0,0,0,1.35-2,5.54,5.54,0,0,0,.93-2.78,3.93,3.93,0,0,0-1.25-3,4.25,4.25,0,0,0-3.09-1.21q-3.85,0-4.42,4.56h-3.82q.93-8,8.12-8a8.2,8.2,0,0,1,5.83,2.21,7.16,7.16,0,0,1,2.37,5.46,8.36,8.36,0,0,1-1.1,4.07,19.64,19.64,0,0,1-1.64,2.46q-1.08,1.42-2.72,3.37Z"/><path class="cls-5" d="M891.26,166q0-6.07,2.83-9.69a7.4,7.4,0,0,1,12.29,0q2.83,3.62,2.83,9.86T906.38,176a7.54,7.54,0,0,1-6.13,3.27,7.65,7.65,0,0,1-6.16-3.27Q891.27,172.4,891.26,166Zm3.77,0a15,15,0,0,0,1.47,7c1,1.84,2.22,2.75,3.74,2.75s2.75-.91,3.73-2.75a16.74,16.74,0,0,0,0-13.81c-1-1.82-2.23-2.74-3.73-2.74s-2.74.92-3.73,2.74A14.11,14.11,0,0,0,895,166Z"/><path class="cls-5" d="M919.09,175.29h9.47v3.6H911.48l8.83-10.69c.87-1.06,1.59-2,2.18-2.76a20.61,20.61,0,0,0,1.34-2,5.47,5.47,0,0,0,.94-2.78,4,4,0,0,0-1.25-3,4.29,4.29,0,0,0-3.1-1.21q-3.85,0-4.41,4.56h-3.82q.93-8,8.12-8a8.22,8.22,0,0,1,5.83,2.21,7.16,7.16,0,0,1,2.37,5.46,8.26,8.26,0,0,1-1.11,4.07,20.57,20.57,0,0,1-1.63,2.46q-1.08,1.42-2.73,3.37Z"/><path class="cls-5" d="M932.89,166q0-6.07,2.83-9.69a7.39,7.39,0,0,1,12.28,0q2.84,3.62,2.84,9.86T948,176a7.53,7.53,0,0,1-6.12,3.27,7.63,7.63,0,0,1-6.16-3.27Q932.89,172.4,932.89,166Zm3.77,0a15.14,15.14,0,0,0,1.46,7c1,1.84,2.23,2.75,3.74,2.75s2.75-.91,3.74-2.75a16.85,16.85,0,0,0,0-13.81c-1-1.82-2.23-2.74-3.74-2.74s-2.73.92-3.72,2.74A14,14,0,0,0,936.66,166Z"/></g></svg>