<svg id="Layer_1" data-name="Layer 1" xmlns="http://www.w3.org/2000/svg" viewBox="0 0 408 1172.26"><defs><style>.cls-1{fill:#e9e7e6;}.cls-2{fill:#009fcb;}.cls-3{fill:#6a6a6c;}.cls-4{fill:#fff;}.cls-5{fill:#d33f95;}.cls-6{fill:#ec1847;}.cls-7{opacity:0.3;}.cls-8{fill:#6b6b6b;}.cls-9{fill:#006787;}.cls-10{fill:#00a1cf;}.cls-11{fill:none;}.cls-12{opacity:0.8;}</style></defs><title>home sección</title><path class="cls-1" d="M363.9,1063.26H227.4a4.91,4.91,0,0,1-4.9-4.9V931.76a4.91,4.91,0,0,1,4.9-4.9H363.9a4.91,4.91,0,0,1,4.9,4.9v126.6A5,5,0,0,1,363.9,1063.26Z"/><rect class="cls-2" x="222.4" y="889.76" width="146.4" height="43.9"/><path class="cls-2" d="M248.4,951.16h4.7a6.87,6.87,0,0,1,2.4.5,6.41,6.41,0,0,1,1.9,1.3,6.9,6.9,0,0,1,1.3,2,5.54,5.54,0,0,1,0,4.6,6.25,6.25,0,0,1-1.3,2,8.47,8.47,0,0,1-1.9,1.4,6,6,0,0,1-2.4.5h-4.7Zm3.2,9.6h.7a3.65,3.65,0,0,0,1.5-.3,3,3,0,0,0,1.8-1.8,3.18,3.18,0,0,0,.2-1.4,6.75,6.75,0,0,0-.2-1.4,3,3,0,0,0-1.8-1.8,3.34,3.34,0,0,0-1.5-.3h-.7Z"/><path class="cls-2" d="M260.6,957.36a6.55,6.55,0,0,1,.5-2.5,6,6,0,0,1,1.4-2.1,7.18,7.18,0,0,1,7.5-1.4,6.36,6.36,0,0,1,2.2,1.4,6,6,0,0,1,1.4,2.1,7,7,0,0,1,.5,2.5,6.55,6.55,0,0,1-.5,2.5,6,6,0,0,1-1.4,2.1,6.92,6.92,0,0,1-2.2,1.4,7.54,7.54,0,0,1-5.4,0,6.43,6.43,0,0,1-3.5-3.5A7,7,0,0,1,260.6,957.36Zm3.3,0a2.77,2.77,0,0,0,.3,1.3,3,3,0,0,0,1.8,1.8,3.08,3.08,0,0,0,1.3.3,2.77,2.77,0,0,0,1.3-.3,4.13,4.13,0,0,0,1.1-.7,4.44,4.44,0,0,0,.8-1.1,3.08,3.08,0,0,0,.3-1.3,2.77,2.77,0,0,0-.3-1.3,2.84,2.84,0,0,0-.8-1.1,4.13,4.13,0,0,0-1.1-.7,3.08,3.08,0,0,0-1.3-.3,2.77,2.77,0,0,0-1.3.3,4.13,4.13,0,0,0-1.1.7,2.59,2.59,0,0,0-.7,1.1A5,5,0,0,0,263.9,957.36Z"/><path class="cls-2" d="M275.7,963.46l2.1-12.3H281l2.5,6.5,2.4-6.5h3.2l2.1,12.3H288l-1.1-7.1-2.9,7.1h-1.3l-2.7-7.1-1.1,7.1Z"/><path class="cls-2" d="M296.2,951.16v12.3H293v-12.3Z"/><path class="cls-2" d="M298.8,963.46v-12.3H302l5.9,7.5v-7.5h3.2v12.3h-3.2L302,956v7.5Z"/><path class="cls-2" d="M319.8,956.56h6.3a10.28,10.28,0,0,1-.1,1.8l-.3,1.5a5.56,5.56,0,0,1-.9,1.7,4.07,4.07,0,0,1-1.4,1.2,8.86,8.86,0,0,1-1.7.8,6.45,6.45,0,0,1-2,.3,7.08,7.08,0,0,1-2.6-.5,5.78,5.78,0,0,1-2-1.3,6.25,6.25,0,0,1-1.3-2,7.51,7.51,0,0,1-.5-2.6,7.08,7.08,0,0,1,.5-2.6,4.64,4.64,0,0,1,1.3-2,5.71,5.71,0,0,1,2.1-1.3,7.63,7.63,0,0,1,2.7-.5,7.42,7.42,0,0,1,3.4.8,5.88,5.88,0,0,1,2.3,2.6l-3,1.3a2.33,2.33,0,0,0-1.1-1.4,2.82,2.82,0,0,0-1.5-.4,2.77,2.77,0,0,0-1.3.3,2.54,2.54,0,0,0-1,.8,3.46,3.46,0,0,0-.7,1.2,4.14,4.14,0,0,0-.2,1.6,5.9,5.9,0,0,0,.2,1.4,3.38,3.38,0,0,0,.6,1.2,3.92,3.92,0,0,0,1,.8,3.19,3.19,0,0,0,1.4.3,2.77,2.77,0,0,0,.9-.1,6.89,6.89,0,0,0,.8-.3l.6-.6a1.4,1.4,0,0,0,.3-.9H320Z"/><path class="cls-2" d="M327.6,957.26a6.55,6.55,0,0,1,.5-2.5,6,6,0,0,1,1.4-2.1,7.18,7.18,0,0,1,7.5-1.4,6.36,6.36,0,0,1,2.2,1.4,6,6,0,0,1,1.4,2.1,7,7,0,0,1,.5,2.5,6.55,6.55,0,0,1-.5,2.5,6,6,0,0,1-1.4,2.1,6.92,6.92,0,0,1-2.2,1.4,7.54,7.54,0,0,1-5.4,0,6.43,6.43,0,0,1-3.5-3.5A6.18,6.18,0,0,1,327.6,957.26Zm3.3,0a2.77,2.77,0,0,0,.3,1.3,3,3,0,0,0,1.8,1.8,3.08,3.08,0,0,0,1.3.3,2.77,2.77,0,0,0,1.3-.3,4.13,4.13,0,0,0,1.1-.7,4.44,4.44,0,0,0,.8-1.1,3.08,3.08,0,0,0,.3-1.3,2.77,2.77,0,0,0-.3-1.3,2.84,2.84,0,0,0-.8-1.1,4.13,4.13,0,0,0-1.1-.7,3.08,3.08,0,0,0-1.3-.3,2.77,2.77,0,0,0-1.3.3,4.13,4.13,0,0,0-1.1.7,2.59,2.59,0,0,0-.7,1.1A6.11,6.11,0,0,0,330.9,957.26Z"/><path class="cls-3" d="M231.6,897.66h-2.2a.67.67,0,0,1-.7-.6v-12.4a.67.67,0,0,1,.6-.7h2.2a.67.67,0,0,1,.7.6V897C232.3,897.46,232,897.66,231.6,897.66Z"/><path class="cls-3" d="M241.4,897.66h-2.2a.67.67,0,0,1-.7-.6v-12.4a.67.67,0,0,1,.6-.7h2.2a.67.67,0,0,1,.7.6V897A.56.56,0,0,1,241.4,897.66Z"/><path class="cls-3" d="M251.3,897.66h-2.2a.67.67,0,0,1-.7-.6v-12.4a.67.67,0,0,1,.6-.7h2.2a.67.67,0,0,1,.7.6V897A.67.67,0,0,1,251.3,897.66Z"/><path class="cls-3" d="M261,897.66h-2.2a.67.67,0,0,1-.7-.6v-12.4a.67.67,0,0,1,.6-.7h2.2a.67.67,0,0,1,.7.6V897A.56.56,0,0,1,261,897.66Z"/><path class="cls-3" d="M270.9,897.66h-2.2a.67.67,0,0,1-.7-.6v-12.4a.67.67,0,0,1,.6-.7h2.2a.67.67,0,0,1,.7.6V897A.67.67,0,0,1,270.9,897.66Z"/><path class="cls-3" d="M281.1,897.66h-2.2a.67.67,0,0,1-.7-.6v-12.4a.67.67,0,0,1,.6-.7H281a.67.67,0,0,1,.7.6V897A.56.56,0,0,1,281.1,897.66Z"/><path class="cls-3" d="M290.5,897.66h-2.2a.67.67,0,0,1-.7-.6v-12.4a.67.67,0,0,1,.6-.7h2.2a.67.67,0,0,1,.7.6V897A.67.67,0,0,1,290.5,897.66Z"/><path class="cls-3" d="M300.3,897.66h-2.2a.67.67,0,0,1-.7-.6v-12.4a.67.67,0,0,1,.6-.7h2.2a.67.67,0,0,1,.7.6V897A.56.56,0,0,1,300.3,897.66Z"/><path class="cls-3" d="M310.5,897.66h-2.2a.67.67,0,0,1-.7-.6v-12.4a.67.67,0,0,1,.6-.7h2.2a.67.67,0,0,1,.7.6V897A.56.56,0,0,1,310.5,897.66Z"/><path class="cls-3" d="M320.3,897.66h-2.2a.67.67,0,0,1-.7-.6v-12.4a.67.67,0,0,1,.6-.7h2.2a.67.67,0,0,1,.7.6V897A.67.67,0,0,1,320.3,897.66Z"/><path class="cls-3" d="M330.1,897.66h-2.2a.67.67,0,0,1-.7-.6v-12.4a.67.67,0,0,1,.6-.7H330a.67.67,0,0,1,.7.6V897A.56.56,0,0,1,330.1,897.66Z"/><path class="cls-3" d="M339.9,897.66h-2.2a.67.67,0,0,1-.7-.6v-12.4a.67.67,0,0,1,.6-.7h2.2a.67.67,0,0,1,.7.6V897A.56.56,0,0,1,339.9,897.66Z"/><path class="cls-3" d="M349.7,897.66h-2.2a.67.67,0,0,1-.7-.6v-12.4a.67.67,0,0,1,.6-.7h2.2a.67.67,0,0,1,.7.6V897A.56.56,0,0,1,349.7,897.66Z"/><path class="cls-3" d="M359.5,897.66h-2.2a.67.67,0,0,1-.7-.6v-12.4a.67.67,0,0,1,.6-.7h2.2a.67.67,0,0,1,.7.6V897A.67.67,0,0,1,359.5,897.66Z"/><path class="cls-2" d="M284.4,1013.26c-6.3-2.6-9.4-7-9.4-13.2a15.84,15.84,0,0,1,1.5-6.9,16.43,16.43,0,0,1,4.2-5.3,18.66,18.66,0,0,1,6.4-3.4,29.3,29.3,0,0,1,16.6,0,17.78,17.78,0,0,1,6.4,3.4,15.44,15.44,0,0,1,4.2,5.3,15.23,15.23,0,0,1,1.5,6.9,18.8,18.8,0,0,1-.5,4.3,10.61,10.61,0,0,1-1.6,3.4,16.63,16.63,0,0,1-3,2.9,22.5,22.5,0,0,1-4.7,2.6c8.2,3.2,12.3,8.3,12.3,15.4a15.8,15.8,0,0,1-1.7,7.1,16.29,16.29,0,0,1-4.8,5.7,23.33,23.33,0,0,1-7.2,3.7,29.6,29.6,0,0,1-9.2,1.4,29.24,29.24,0,0,1-9-1.3,23.89,23.89,0,0,1-7.3-3.7,18.52,18.52,0,0,1-4.9-5.6,14.79,14.79,0,0,1-1.8-7.2C272.6,1021.36,276.5,1016.26,284.4,1013.26Zm3.9,13.5a7.17,7.17,0,0,0,.6,2.9,7.63,7.63,0,0,0,1.5,2.3,6.34,6.34,0,0,0,2.3,1.6,6.71,6.71,0,0,0,2.8.6,6,6,0,0,0,2.7-.6,7.93,7.93,0,0,0,3.9-3.9,6.71,6.71,0,0,0,.6-2.8,7.21,7.21,0,0,0-12.3-5.1A6.57,6.57,0,0,0,288.3,1026.76Zm.6-26.6a6.49,6.49,0,0,0,6.6,6.6,5.54,5.54,0,0,0,2.6-.6,8,8,0,0,0,2.1-1.5,7.71,7.71,0,0,0,1.4-2.1,7,7,0,0,0,.5-2.5,6.41,6.41,0,0,0-1.9-4.7,6.76,6.76,0,0,0-9.4,0A7,7,0,0,0,288.9,1000.16Z"/><path class="cls-1" d="M189.9,1062.86H53.3a4.91,4.91,0,0,1-4.9-4.9V931.26a4.91,4.91,0,0,1,4.9-4.9H189.8a4.91,4.91,0,0,1,4.9,4.9v126.6A4.79,4.79,0,0,1,189.9,1062.86Z"/><rect class="cls-2" x="48.4" y="889.76" width="146.4" height="43.9"/><path class="cls-2" d="M91.6,954.46a2.66,2.66,0,0,0-1-.6,3.55,3.55,0,0,0-1-.2,1.69,1.69,0,0,0-1,.3.81.81,0,0,0-.4.8.76.76,0,0,0,.2.5,2.18,2.18,0,0,0,.5.4,4.88,4.88,0,0,0,.7.3,2.35,2.35,0,0,0,.8.2,4.75,4.75,0,0,1,2.3,1.4,3.33,3.33,0,0,1,.7,2.3,4.67,4.67,0,0,1-.3,1.7,3.81,3.81,0,0,1-.9,1.3,3.61,3.61,0,0,1-1.5.8,6.45,6.45,0,0,1-2,.3,7.36,7.36,0,0,1-4.3-1.4l1.4-2.6a5.51,5.51,0,0,0,1.4.9,3.53,3.53,0,0,0,1.4.3,1.59,1.59,0,0,0,1.2-.4,1.09,1.09,0,0,0,.3-1.3c-.1-.1-.2-.3-.3-.4a3.33,3.33,0,0,0-.6-.3,4.65,4.65,0,0,0-.9-.3c-.4-.1-.8-.3-1.2-.4s-.7-.4-1.1-.6a2.29,2.29,0,0,1-.7-1A3.34,3.34,0,0,1,85,955a4.67,4.67,0,0,1,.3-1.7,5.67,5.67,0,0,1,.8-1.3,3.53,3.53,0,0,1,1.3-.8,4.84,4.84,0,0,1,1.8-.3,6.8,6.8,0,0,1,1.9.3,10.66,10.66,0,0,1,1.9.7Z"/><path class="cls-2" d="M102.6,961.46H98l-.7,2.1H93.9l4.7-12.3h3.5l4.7,12.3h-3.4Zm-.8-2.4-1.4-4.1-1.4,4.1Zm1.6-10.9-3.1,2.1-1.2-1.2,2.7-2.5Z"/><path class="cls-2" d="M108.2,951.26h4.7a4,4,0,0,1,2.6.8,2.87,2.87,0,0,1,.9,2.3,3.34,3.34,0,0,1-.3,1.5,2.41,2.41,0,0,1-1,1,4.23,4.23,0,0,1,1.2.4,2.7,2.7,0,0,1,.8.7,3.55,3.55,0,0,1,.4.9,3.4,3.4,0,0,1,.1,1,3.34,3.34,0,0,1-.3,1.5,4.44,4.44,0,0,1-.8,1.1,5.39,5.39,0,0,1-1.3.7,5,5,0,0,1-1.8.2h-5.1v-12.1Zm3.1,4.9h.6q1.5,0,1.5-1.2t-1.5-1.2h-.6Zm0,4.9h.7a3.42,3.42,0,0,0,1.7-.3,1.25,1.25,0,0,0,0-2,3.42,3.42,0,0,0-1.7-.3h-.7Z"/><path class="cls-2" d="M126.7,961.46h-4.6l-.7,2.1H118l4.7-12.3h3.5l4.7,12.3h-3.4Zm-.8-2.4-1.4-4.1-1.4,4.1Z"/><path class="cls-2" d="M132.3,951.26H137a5.93,5.93,0,0,1,2.3.5,6.41,6.41,0,0,1,1.9,1.3,6.9,6.9,0,0,1,1.3,2,5.54,5.54,0,0,1,0,4.6,6.25,6.25,0,0,1-1.3,2,5,5,0,0,1-1.9,1.3,6,6,0,0,1-2.4.5h-4.7v-12.2Zm3.2,9.6h.7a3.65,3.65,0,0,0,1.5-.3,3,3,0,0,0,1.8-1.8,3.18,3.18,0,0,0,.2-1.4,6.75,6.75,0,0,0-.2-1.4,3,3,0,0,0-1.8-1.8,3.34,3.34,0,0,0-1.5-.3h-.7Z"/><path class="cls-2" d="M144.5,957.46a6.55,6.55,0,0,1,.5-2.5,6,6,0,0,1,1.4-2.1,7.18,7.18,0,0,1,7.5-1.4,6.36,6.36,0,0,1,2.2,1.4,6,6,0,0,1,1.4,2.1,7,7,0,0,1,.5,2.5,6.55,6.55,0,0,1-.5,2.5,6,6,0,0,1-1.4,2.1,6.92,6.92,0,0,1-2.2,1.4,7.54,7.54,0,0,1-5.4,0A6.43,6.43,0,0,1,145,960,7,7,0,0,1,144.5,957.46Zm3.3,0a2.77,2.77,0,0,0,.3,1.3,3,3,0,0,0,1.8,1.8,3.08,3.08,0,0,0,1.3.3,2.77,2.77,0,0,0,1.3-.3,4.13,4.13,0,0,0,1.1-.7,4.44,4.44,0,0,0,.8-1.1,3.08,3.08,0,0,0,.3-1.3,2.77,2.77,0,0,0-.3-1.3,2.84,2.84,0,0,0-.8-1.1,4.13,4.13,0,0,0-1.1-.7,3.08,3.08,0,0,0-1.3-.3,2.77,2.77,0,0,0-1.3.3,4.13,4.13,0,0,0-1.1.7,2.59,2.59,0,0,0-.7,1.1A2.5,2.5,0,0,0,147.8,957.46Z"/><path class="cls-3" d="M67.4,897.66H65.2a.68.68,0,0,1-.7-.7v-12.4a.68.68,0,0,1,.7-.7h2.2a.68.68,0,0,1,.7.7V897A.68.68,0,0,1,67.4,897.66Z"/><path class="cls-3" d="M77.3,897.66H75.1a.68.68,0,0,1-.7-.7v-12.4a.68.68,0,0,1,.7-.7h2.2a.68.68,0,0,1,.7.7V897C77.9,897.36,77.7,897.66,77.3,897.66Z"/><path class="cls-3" d="M87.1,897.66H84.9a.68.68,0,0,1-.7-.7v-12.4a.68.68,0,0,1,.7-.7h2.2a.68.68,0,0,1,.7.7V897A.84.84,0,0,1,87.1,897.66Z"/><path class="cls-3" d="M96.9,897.66H94.7a.68.68,0,0,1-.7-.7v-12.4a.68.68,0,0,1,.7-.7h2.2a.68.68,0,0,1,.7.7V897A.84.84,0,0,1,96.9,897.66Z"/><path class="cls-3" d="M107.1,897.66h-2.2a.68.68,0,0,1-.7-.7v-12.4a.68.68,0,0,1,.7-.7h2.2a.68.68,0,0,1,.7.7V897A.68.68,0,0,1,107.1,897.66Z"/><path class="cls-3" d="M116.5,897.66h-2.2a.68.68,0,0,1-.7-.7v-12.4a.68.68,0,0,1,.7-.7h2.2a.68.68,0,0,1,.7.7V897A.84.84,0,0,1,116.5,897.66Z"/><path class="cls-3" d="M126.3,897.66h-2.2a.68.68,0,0,1-.7-.7v-12.4a.68.68,0,0,1,.7-.7h2.2a.68.68,0,0,1,.7.7V897A.68.68,0,0,1,126.3,897.66Z"/><path class="cls-3" d="M136.5,897.66h-2.2a.68.68,0,0,1-.7-.7v-12.4a.68.68,0,0,1,.7-.7h2.2a.68.68,0,0,1,.7.7V897A.68.68,0,0,1,136.5,897.66Z"/><path class="cls-3" d="M146.3,897.66h-2.2a.68.68,0,0,1-.7-.7v-12.4a.68.68,0,0,1,.7-.7h2.2a.68.68,0,0,1,.7.7V897C146.9,897.36,146.7,897.66,146.3,897.66Z"/><path class="cls-3" d="M156.1,897.66h-2.2a.68.68,0,0,1-.7-.7v-12.4a.68.68,0,0,1,.7-.7h2.2a.68.68,0,0,1,.7.7V897A.68.68,0,0,1,156.1,897.66Z"/><path class="cls-3" d="M165.9,897.66h-2.2a.68.68,0,0,1-.7-.7v-12.4a.68.68,0,0,1,.7-.7h2.2a.68.68,0,0,1,.7.7V897A.68.68,0,0,1,165.9,897.66Z"/><path class="cls-3" d="M175.7,897.76h-2.2a.68.68,0,0,1-.7-.7v-12.4a.68.68,0,0,1,.7-.7h2.2a.68.68,0,0,1,.7.7v12.4A.68.68,0,0,1,175.7,897.76Z"/><path class="cls-3" d="M185.5,897.66h-2.2a.68.68,0,0,1-.7-.7v-12.4a.68.68,0,0,1,.7-.7h2.2a.68.68,0,0,1,.7.7V897A.68.68,0,0,1,185.5,897.66Z"/><path class="cls-2" d="M126.9,996.46H101.8v-13.2h49.3l-34.4,60H99.5Z"/><path class="cls-3" d="M56.8,897.66H54.6a.68.68,0,0,1-.7-.7v-12.4a.68.68,0,0,1,.7-.7h2.2a.68.68,0,0,1,.7.7V897A.68.68,0,0,1,56.8,897.66Z"/><path class="cls-4" d="M74.5,921.76v-13.1l8.9,9.4v-8.5h1.9v13l-8.9-9.3v8.6H74.5Z"/><path class="cls-4" d="M87.7,915.56a5.76,5.76,0,0,1,1.9-4.4,6.54,6.54,0,0,1,4.5-1.9,6.13,6.13,0,0,1,4.5,1.9,6.28,6.28,0,0,1,0,9,6.6,6.6,0,0,1-4.6,1.9,6.39,6.39,0,0,1-4.3-1.6A6.63,6.63,0,0,1,87.7,915.56Zm1.9.1A4.22,4.22,0,0,0,91,919a4.32,4.32,0,0,0,3.1,1.3,4.67,4.67,0,0,0,3.3-7.9,4.22,4.22,0,0,0-3.2-1.3,4.08,4.08,0,0,0-3.2,1.3A4.18,4.18,0,0,0,89.6,915.66Z"/><path class="cls-4" d="M102.9,909.56l3.4,8.5,3.4-8.5h2l-5.5,13.2-5.4-13.2Z"/><path class="cls-4" d="M115.2,909.56v12.3h-1.9v-12.3Z"/><path class="cls-4" d="M124.9,911.26H120v2.9h4.8v1.7H120V920h4.9v1.7h-6.8v-12.3h6.8Z"/><path class="cls-4" d="M126.9,921.76l2.6-13.2,4.2,9.5,4.4-9.5,2.3,13.2h-1.9l-1.2-7.4-3.6,8-3.5-8-1.3,7.4Z"/><path class="cls-4" d="M142.9,921.76v-12.3h1.8a10.31,10.31,0,0,1,2,.2,2.28,2.28,0,0,1,1.2.6,3.6,3.6,0,0,1,.8,1.2,3.53,3.53,0,0,1,.3,1.4,2.7,2.7,0,0,1-1,2.2,2.29,2.29,0,0,1,1.5,1.2,3.29,3.29,0,0,1,.6,1.9,3,3,0,0,1-1,2.4,2.85,2.85,0,0,1-1.4.8,6.82,6.82,0,0,1-2.1.2h-2.7Zm1.9-7h.6a2.07,2.07,0,0,0,1.5-.5,1.9,1.9,0,0,0,.5-1.3,1.73,1.73,0,0,0-.5-1.3,2,2,0,0,0-1.4-.4h-.7v3.5Zm0,5.3h1.1a2.76,2.76,0,0,0,1.8-.5,1.76,1.76,0,0,0,.6-1.3,1.61,1.61,0,0,0-.6-1.3,3,3,0,0,0-2.1-.5h-.9v3.6Z"/><path class="cls-4" d="M156.7,916.56l3.8,5.2h-2.3l-3.5-5h-.3v5h-1.8v-12.3h2.2a5.44,5.44,0,0,1,3.5.9,3.42,3.42,0,0,1,1.2,2.7,3.23,3.23,0,0,1-.7,2.2A3.93,3.93,0,0,1,156.7,916.56Zm-2.3-1.4h.6c1.8,0,2.6-.7,2.6-2s-.9-1.9-2.6-1.9h-.7v3.9Z"/><path class="cls-4" d="M169.1,911.26h-4.9v2.9H169v1.7h-4.8V920h4.9v1.7h-6.8v-12.3h6.8Z"/><path class="cls-4" d="M248.6,922.16v-13.1l8.9,9.4V910h1.8v13l-8.9-9.3v8.6h-1.8Z"/><path class="cls-4" d="M261.8,916a5.76,5.76,0,0,1,1.9-4.4,6.54,6.54,0,0,1,4.5-1.9,6.13,6.13,0,0,1,4.5,1.9,6.28,6.28,0,0,1,0,9,6.6,6.6,0,0,1-4.6,1.9,6.39,6.39,0,0,1-4.3-1.6A6.63,6.63,0,0,1,261.8,916Zm1.9.1a4.22,4.22,0,0,0,1.4,3.3,4.32,4.32,0,0,0,3.1,1.3,4.67,4.67,0,0,0,3.3-7.9,4.22,4.22,0,0,0-3.2-1.3,4.08,4.08,0,0,0-3.2,1.3A4.18,4.18,0,0,0,263.7,916.06Z"/><path class="cls-4" d="M277,910l3.4,8.5,3.4-8.5h2l-5.5,13.2L274.9,910Z"/><path class="cls-4" d="M289.3,910v12.3h-1.8V910Z"/><path class="cls-4" d="M299,911.66h-4.9v2.9h4.8v1.7h-4.8v4.1H299v1.7h-6.8v-12.3H299Z"/><path class="cls-4" d="M301,922.16l2.6-13.2,4.2,9.5,4.4-9.5,2.3,13.2h-1.9l-1.2-7.4-3.6,8-3.5-8-1.3,7.4Z"/><path class="cls-4" d="M317,922.16v-12.3h1.8a10.31,10.31,0,0,1,2,.2,2.28,2.28,0,0,1,1.2.6,3.6,3.6,0,0,1,.8,1.2,3.53,3.53,0,0,1,.3,1.4,2.7,2.7,0,0,1-1,2.2,2.29,2.29,0,0,1,1.5,1.2,3.29,3.29,0,0,1,.6,1.9,3,3,0,0,1-1,2.4,2.85,2.85,0,0,1-1.4.8,6.82,6.82,0,0,1-2.1.2H317Zm1.9-7h.6a2.07,2.07,0,0,0,1.5-.5,1.9,1.9,0,0,0,.5-1.3,1.73,1.73,0,0,0-.5-1.3,2,2,0,0,0-1.4-.4h-.7Zm0,5.3H320a2.76,2.76,0,0,0,1.8-.5,1.76,1.76,0,0,0,.6-1.3,1.61,1.61,0,0,0-.6-1.3,3,3,0,0,0-2.1-.5h-.9v3.6Z"/><path class="cls-4" d="M330.8,917l3.8,5.2h-2.3l-3.5-5h-.3v5h-1.9v-12.3h2.2a5.44,5.44,0,0,1,3.5.9,3.42,3.42,0,0,1,1.2,2.7,3.23,3.23,0,0,1-.7,2.2A3.36,3.36,0,0,1,330.8,917Zm-2.3-1.4h.6c1.8,0,2.6-.7,2.6-2s-.9-1.9-2.6-1.9h-.7v3.9Z"/><path class="cls-4" d="M343.2,911.66h-4.9v2.9h4.8v1.7h-4.8v4.1h4.9v1.7h-6.8v-12.3h6.8Z"/><path class="cls-5" d="M40.7,481H36.8c0-2.2-.1-8.1-.4-10.5-.2-1.1-.5-2.6-.9-4.4a44.58,44.58,0,0,1-1.5-8.3,23.54,23.54,0,0,1,1.4-6,14.24,14.24,0,0,0,.9-3.6c0-2.4-1.4-8.5-7.8-8.5a8,8,0,0,0-8.3,8,17.81,17.81,0,0,0,.9,4.5,37.14,37.14,0,0,1,1.1,4.5c.4,2.2.3,2.7-.4,4.2a30.05,30.05,0,0,0-1.6,4.7c-1.3,5-.4,12.7,0,15.5a60.63,60.63,0,0,0-21.3,3.8,10.87,10.87,0,0,1,.1,1.8c6.9-2.5,14.6-4.2,22.2-3.8l1.1.1-.2-1.1c0-.1-1.7-10.1-.2-15.8a30,30,0,0,1,1.5-4.4,7.19,7.19,0,0,0,.5-5.2c-.3-1.7-.8-3.3-1.1-4.6a15.45,15.45,0,0,1-.8-4,7.1,7.1,0,0,1,1.3-3.8,6.14,6.14,0,0,1,5.2-2.5c6,0,6,6.7,6,6.7a15.08,15.08,0,0,1-.8,3,21.8,21.8,0,0,0-1.5,6.6,49.63,49.63,0,0,0,1.5,8.7c.4,1.7.8,3.3.9,4.2.4,2.7.4,11,.4,11.1v.9h5.7a.9.9,0,0,0,.9-.9A1,1,0,0,0,40.7,481Z"/><path class="cls-5" d="M144.2,495.46H75.4v-.9c0-.1,0-2.9.4-8.9.3-5-2.6-10.4-3.9-12.7a5.9,5.9,0,0,1-.4-.8c-.6-1.1.3-2.9,1.7-5.9,1-2.1,2.3-4.8,2.2-5.9-.1-.7-1.1-6.5-6.7-6.5s-6.7,6.2-6.7,6.5c-.2,1.4.7,4.9,1.4,7.8.4,1.7.8,3.3,1,4.4.3,2.1-.6,5.7-1.3,8.6-.3,1.2-.6,2.2-.7,2.9-.4,2.3,0,10.1,0,10.2v.9H54.1l.1-.9c.3-3.7,1.2-13.4,1.2-14.3,0-.4-.4-1.6-.7-2.9a61.91,61.91,0,0,1-1.6-6.5,10,10,0,0,1,.8-5.9,9.49,9.49,0,0,0,.8-4.6,6.74,6.74,0,0,0-6.3-6c-5.3,0-6.5,3.7-6.7,5.3-.5,2.9.5,6,1.2,8.2a8.08,8.08,0,0,1-.3,7.6,14.85,14.85,0,0,0-.9,3.3c-.3,1.9-.1,12.4,0,16.2a.85.85,0,0,1-1.7.1c0-.6-.4-14.1,0-16.6a28,28,0,0,1,1-3.6,14,14,0,0,0,1-3.9,9.72,9.72,0,0,0-.7-2.7c-.8-2.4-1.9-5.7-1.3-9.1a7.78,7.78,0,0,1,3.4-5.4,9.23,9.23,0,0,1,5-1.3,8.54,8.54,0,0,1,8.1,7.6,12.21,12.21,0,0,1-.9,5.4,7.88,7.88,0,0,0-.7,4.9,57.38,57.38,0,0,0,1.6,6.3,15,15,0,0,1,.8,3.4c0,1-.8,10.5-1.1,13.5h4.4c-.1-2.2-.3-7.7.1-9.7a30.13,30.13,0,0,1,.7-3c.7-2.6,1.5-6.1,1.3-7.9a26.92,26.92,0,0,0-1-4.2c-.8-3.3-1.7-6.8-1.4-8.5.5-2.9,2.8-7.9,8.5-7.9,5.4,0,7.9,4.3,8.5,7.9.2,1.7-1.1,4.4-2.3,6.9-.7,1.5-1.9,3.8-1.7,4.4a5.74,5.74,0,0,0,.4.7c1.3,2.4,4.4,8.2,4.1,13.7-.3,4-.4,6.6-.4,7.9h66.7a47.64,47.64,0,0,0,15.8-2.8,36.34,36.34,0,0,0,12.4-7.3,31.64,31.64,0,0,0,9-14.5c4.9-15.8,2-27.7-8.2-33.7a.31.31,0,0,0-.2-.1,6.42,6.42,0,0,1-1-.6c-3.5-2-11.8-6.6-13-11.6-1.3-5.5,3.9-14.6,4.1-15a.87.87,0,0,1,1.5.9c-.1.1-5,9-3.9,13.8,1,4.2,9.1,8.7,12.1,10.4a6.4,6.4,0,0,0,1.1.6c.1,0,.1.1.2.1a21.62,21.62,0,0,1,8.5,8.8c3.6,7,3.8,16,.4,26.8-4.2,13.8-14.6,20.1-22.5,22.9A45.61,45.61,0,0,1,144.2,495.46Z"/><path class="cls-5" d="M137.4,467.36a38.85,38.85,0,0,1-12.4-2.1c-7.4-2.6-17.7-8.7-24.4-23.5v-.1c-.2-.7-5.7-16.4,1.3-29.1,3.7-6.8,10.4-11.4,19.7-13.6a.82.82,0,1,1,.4,1.6c-8.9,2.1-15.1,6.4-18.6,12.8-6.4,11.7-1.5,26.8-1.2,27.7,3.6,7.8,10.5,18,23.3,22.5a34.81,34.81,0,0,0,14,2h.2c17.8,1.2,33.8-22.1,35.6-24.8.8-1.1,3.3-6.1,5.8-10.8,3.2-6.2,5.2-10,5.8-10.8.9-1.2.2-3.5-.3-4.1a1.52,1.52,0,0,0-2,0,18.2,18.2,0,0,0-1.6,2.6,43.09,43.09,0,0,1-3.6,5.7c-.2.2-.4.5-.6.7-1.5,1.9-2.2,2.7-8,6.7-6,4.1-7.6,11.4-7.6,11.5a.86.86,0,1,1-1.7-.3c.1-.3,1.7-8,8.4-12.5,5.6-3.9,6.2-4.5,7.6-6.3a4.35,4.35,0,0,0,.6-.7,38.66,38.66,0,0,0,3.4-5.4,14.17,14.17,0,0,1,1.9-3,3.17,3.17,0,0,1,2.2-.9,2.79,2.79,0,0,1,2.2.9c1,1,2,4.3.5,6.3-.6.8-3.3,6-5.7,10.5-2.6,5-5.1,9.8-5.9,11-1.8,2.7-17.6,25.6-35.8,25.6h-1.3A9.88,9.88,0,0,0,137.4,467.36Z"/><path class="cls-5" d="M131,453.46a1,1,0,0,1-.9-.7.82.82,0,0,1,.7-1c5.6-.9,9.4-3.8,11.3-8.5a18.29,18.29,0,0,0,1.2-7l-.1-.9h9.2c-.2-1.8-1.2-7.1-6.3-18.4-5.3-11.8-14.7-15.2-18-16a51.67,51.67,0,0,1,.5,10.9c-.4,5.4-6.7,13.7-7,14.1l-.9,1.2-.6-1.4a11,11,0,0,0-1.8-2.9l-.1-.1c-.8-.8-2.9-3-5.1-2.7-1.2.1-2.4,1-3.4,2.7-.9,1.5-1.2,2.8-.7,4,.9,2.6,4.6,3.9,4.7,3.9a.85.85,0,0,1-.6,1.6c-.2-.1-4.5-1.5-5.8-4.9a6.24,6.24,0,0,1,.9-5.5c1.3-2.1,2.9-3.3,4.7-3.5,3-.3,5.6,2.3,6.5,3.2l.1.1a7.4,7.4,0,0,1,1.5,2.1c1.7-2.4,5.5-8.2,5.8-12a42.77,42.77,0,0,0-.7-11.5l-.7-1.4,1.6.2a22.42,22.42,0,0,1,7.8,2.8,30.3,30.3,0,0,1,12.9,14.5c6.8,15.2,6.5,19.8,6.5,20l-.1.8H145a19.5,19.5,0,0,1-1.3,6.8c-1.5,3.7-4.8,8.3-12.7,9.6C131.1,453.46,131.1,453.46,131,453.46Z"/><path class="cls-5" d="M32.2,455.26a2.9,2.9,0,0,1-2.9-2.9.9.9,0,0,1,1.8,0,1.11,1.11,0,0,0,1.1,1.1,1,1,0,0,0,1-.7.85.85,0,0,1,1.6.6A2.56,2.56,0,0,1,32.2,455.26Z"/><path class="cls-5" d="M47.7,468.06a2.9,2.9,0,0,1-2.9-2.9.9.9,0,1,1,1.8,0,1.1,1.1,0,0,0,2.2,0,.9.9,0,1,1,1.8,0A3,3,0,0,1,47.7,468.06Z"/><path class="cls-5" d="M58.5,446.06a2.9,2.9,0,0,1-2.9-2.9.9.9,0,0,1,1.8,0,1.1,1.1,0,0,0,2.2,0,.9.9,0,0,1,1.8,0A3,3,0,0,1,58.5,446.06Z"/><path class="cls-5" d="M72.9,467.26a2.9,2.9,0,0,1-2.9-2.9.9.9,0,1,1,1.8,0,1.11,1.11,0,0,0,1.1,1.1,1.14,1.14,0,0,0,.8-.3.85.85,0,1,1,1.1,1.3A2.36,2.36,0,0,1,72.9,467.26Z"/><path class="cls-5" d="M76.1,458.86a1.27,1.27,0,0,1-.6-.1.86.86,0,0,1,.3-1.7H76a1.11,1.11,0,0,0,1.1-1.1.9.9,0,0,1,1.8,0A2.82,2.82,0,0,1,76.1,458.86Z"/><path class="cls-5" d="M84.7,486.66h-8a.9.9,0,1,1,0-1.8h6.4c.2-2.4.5-9.9-.4-13.7a24,24,0,0,0-2.3-5.7,9.16,9.16,0,0,1-1.3-3.7,5.34,5.34,0,0,1,1.2-2.8,9.62,9.62,0,0,0,2-6c0-2.9-1.6-6.3-5.9-6.3-2.8,0-6,1.7-6,6.4a.9.9,0,1,1-1.8,0,8,8,0,0,1,2.5-6.2,7.91,7.91,0,0,1,5.2-1.9c3.8,0,7.7,2.5,7.7,8.1a10.93,10.93,0,0,1-2.3,6.9,4.48,4.48,0,0,0-.9,1.9,8.21,8.21,0,0,0,1.1,2.9,22.69,22.69,0,0,1,2.4,6.1c1.2,4.9.5,14.7.4,15.1Z"/><path class="cls-5" d="M52.7,454.66a1.42,1.42,0,0,1-.6-.2.82.82,0,0,1-.1-1.2h0c.5-.6,1.8-2.5,1.8-3.8a7.45,7.45,0,0,0-1.4-2.6c-1.3-2-2.9-4.4-2.6-7.1.4-4.1,2.9-8.4,8.9-8.4a8.44,8.44,0,0,1,8.5,8.5,11.18,11.18,0,0,1-2.2,5.8,10.88,10.88,0,0,0-1.5,3.1c-.2,1.2,1,3.2,1.8,4.3a.85.85,0,0,1-1.3,1.1c-.3-.3-2.6-3.4-2.1-5.7a9.82,9.82,0,0,1,1.7-3.6c.9-1.6,1.9-3.3,1.9-5a6.66,6.66,0,0,0-6.7-6.7c-1.9,0-6.5.7-7.1,6.8-.2,2.1,1.2,4.2,2.4,6,.9,1.4,1.7,2.5,1.7,3.5,0,2.2-2,4.7-2.2,5A5.07,5.07,0,0,1,52.7,454.66Z"/><path class="cls-5" d="M186,400.46l-.2-.1-39.7-23.5,20.3-11.6,4.9,3.1c.2.1.2.3.1.5s-.3.2-.5.1l-4.5-2.9-18.8,10.8,38.5,22.8,19.2-11.2-12.2-6.9c-.2-.1-.2-.3-.1-.5s.3-.2.5-.1l13.4,7.5Z"/><path class="cls-5" d="M176.2,415.86l-20.1-11.4v-22.1l5.2-2.7a.38.38,0,1,1,.3.7l-4.8,2.5v21.2l19.3,11,19.6-11.4v-9.5a.4.4,0,0,1,.8,0v9.9Z"/><path class="cls-5" d="M176.2,405.86l-19.7-11.5c-.2-.1-.2-.3-.1-.5s.3-.2.5-.1l19.3,11.3,9.3-5.5a.36.36,0,0,1,.4.6Z"/><polyline class="cls-5" points="161.2 385.36 161.2 374.06 178.8 364.06 178.8 381.66 166.7 388.56"/><path class="cls-5" d="M175.9,394.86v-11.8a.4.4,0,1,1,.8,0v10.5l19-11.1c.5-.4,10.8-7.9,21-9.9.2,0,.4.1.4.3s-.1.4-.3.4c-10.2,2-20.6,9.7-20.7,9.7h0Z"/><path class="cls-5" d="M186.8,387.66s-4.9-8.2-5.3-13.4,5.2-6.8,7.2-6.8,6.4,1.6,6.4,6.4-3.8,11.7-3.8,11.7"/><circle class="cls-4" cx="188.2" cy="374.26" r="3.2"/><path class="cls-5" d="M181.8,374.76c-.1,0-.1,0-.2-.1l-3.2-1.9c-.2-.1-.2-.3-.1-.5s.3-.2.5-.1l3.2,1.9c.2.1.2.3.1.5S181.9,374.76,181.8,374.76Z"/><polyline class="cls-5" points="168.3 366.66 168.3 354.26 148.2 354.26 148.2 366.66 164.6 366.66"/><path class="cls-5" d="M184.3,361.86l-2.2-3.6h-6.2v-12h16.7v12h-6.5Zm-7.7-4.4h5.8l1.8,2.8,1.4-2.8h6.3V347H176.6Z"/><path class="cls-5" d="M189.4,350.66h-10a.4.4,0,0,1,0-.8h10a.4.4,0,0,1,0,.8Z"/><path class="cls-5" d="M189.4,354.46h-10a.4.4,0,1,1,0-.8h10a.4.4,0,0,1,0,.8Z"/><polygon class="cls-5" points="210.4 362.86 216 357.26 206 352.86 210.4 362.86"/><path class="cls-5" d="M215.8,363.06a.37.37,0,0,1-.3-.1l-2.6-2.6a.35.35,0,0,1,.5-.5l2.6,2.6a.45.45,0,0,1,0,.5A.35.35,0,0,1,215.8,363.06Z"/><path class="cls-5" d="M232.6,359.46v6.8l-7.6,3.6v12.4h5.6v-6.4a2.6,2.6,0,0,1,4.8,0v6.4h5.2v-12.4l-8-3.6"/><path class="cls-5" d="M328.8,373.56a.37.37,0,0,1-.3-.1,70.34,70.34,0,0,0-27-11.1,113.33,113.33,0,0,0-27.2-1.7,141.28,141.28,0,0,0-29.3,4.7.47.47,0,0,1-.3-.9,137.4,137.4,0,0,1,29.6-4.7,115.37,115.37,0,0,1,27.4,1.7,71.8,71.8,0,0,1,27.4,11.3.49.49,0,0,1,.1.7C329.1,373.46,328.9,373.56,328.8,373.56Z"/><polyline class="cls-5" points="287.2 326.56 287.2 339.26 300 339.26 300 326.56 287.2 326.56"/><path class="cls-5" d="M296.4,329.66a.43.43,0,0,1-.4-.4v-6.4c0-.3-.5-2.5-2.4-2.5a2.2,2.2,0,0,0-2,1.2c-.3.6-.4,1.1-.5,1.2v6.4a.4.4,0,0,1-.8,0v-6.5c.2-1.1,1-3.1,3.2-3.1s3,2,3.2,3.1v6.5C296.7,329.56,296.6,329.66,296.4,329.66Z"/><path class="cls-5" d="M229.6,332.06a.37.37,0,0,1-.3-.1c-.1-.2-.1-.4.1-.5a70.9,70.9,0,0,1,11.6-7.4c6.5-3.4,16.4-7.4,27-7.4h0a.4.4,0,0,1,0,.8h0c-20.1,0-38,14.6-38.1,14.7C229.8,332,229.7,332.06,229.6,332.06Z"/><path class="cls-5" d="M185.8,333.16h-.1a.45.45,0,0,1-.3-.6,78.58,78.58,0,0,1,6.5-14.2c4.2-7.2,11.5-17.2,22.5-24.1a.51.51,0,0,1,.5.9c-10.9,6.8-18.1,16.7-22.2,23.8a73.22,73.22,0,0,0-6.4,13.9A.55.55,0,0,1,185.8,333.16Z"/><path class="cls-5" d="M173,337.86c-.1,0-.3-.1-.3-.2-2-5.1-7.5-11.4-7.5-11.5a.35.35,0,0,1,.5-.5c.2.3,5.7,6.5,7.7,11.7a.37.37,0,0,1-.2.5Z"/><path class="cls-4" d="M165.9,363.66H150.5a.5.5,0,0,1,0-1h15.4a.5.5,0,1,1,0,1Z"/><circle class="cls-5" cx="254.8" cy="304.36" r="2.3"/><circle class="cls-5" cx="263.2" cy="302.36" r="2.3"/><path class="cls-5" d="M256.6,304.76a.47.47,0,0,1-.5-.5v-8.8l9.4-2.7v9.5a.5.5,0,0,1-1,0v-8.1l-7.4,2.1v8A.47.47,0,0,1,256.6,304.76Z"/><path class="cls-5" d="M216.9,327.56a7.83,7.83,0,0,1-6.4-3.4.5.5,0,1,1,.8-.6,6.72,6.72,0,1,0-1.1-3.7,3.4,3.4,0,0,0,.1,1,.51.51,0,0,1-1,.2,4.87,4.87,0,0,1-.1-1.2,7.7,7.7,0,1,1,7.7,7.7Z"/><path class="cls-5" d="M209.7,322.06l-2.3-3.2c-.1-.2-.1-.4.1-.5s.4-.1.5.1l1.7,2.4,2.1-2.4a.35.35,0,0,1,.5.5Z"/><path class="cls-5" d="M219.8,323.26c-.1,0-.2,0-.2-.1l-3.3-2.5v-5.8a.4.4,0,0,1,.8,0v5.4l3.1,2.3a.35.35,0,0,1,.1.5A1.69,1.69,0,0,1,219.8,323.26Z"/><path class="cls-4" d="M166,360.86H150.6a.5.5,0,0,1,0-1H166a.5.5,0,0,1,0,1Z"/><path class="cls-4" d="M166,358.16H150.6a.5.5,0,1,1,0-1H166a.5.5,0,1,1,0,1Z"/><polygon class="cls-5" points="232.6 357.86 229 359.96 229 364.16 232.6 366.26 236.3 364.16 236.3 359.96 232.6 357.86"/><path class="cls-5" d="M255.4,336c-4.4-.4-4.4,2.4-4.4,2.4s0-2.8-4.4-2.4-4.3,4.4-3.6,6c1.3,2.7,8,8.8,8,8.8s6.7-6.1,8-8.8C259.8,340.36,259.8,336.36,255.4,336Z"/><path class="cls-5" d="M231.7,274.56a4.4,4.4,0,1,0,4.4,4.4A4.44,4.44,0,0,0,231.7,274.56Zm0,6.3a1.9,1.9,0,1,1,1.9-1.9A1.84,1.84,0,0,1,231.7,280.86Z"/><path class="cls-5" d="M242.4,278.06a2.7,2.7,0,1,0,2.7,2.7A2.63,2.63,0,0,0,242.4,278.06Zm0,4.1a1.5,1.5,0,1,1,1.5-1.5A1.54,1.54,0,0,1,242.4,282.16Z"/><path class="cls-5" d="M228.6,273.16a7.23,7.23,0,0,0-.7.4Z"/><path class="cls-5" d="M245.7,272.66h-3.2v.1h-1.7v-.1h-2.7l-1.9-6.6s-.1-.7-1.5-.7h-5.6s-.8.1-.8,1.2.1,6.5.1,6.5h0c1.8-1,6.8-2.9,9.4,4.2h6.6a2.08,2.08,0,0,0,.9-1.1c.3-.8,1-2.9,1-2.9S246.8,272.66,245.7,272.66Zm-14.9-1.8c-.8,0-.7-.6-.7-.6v-3.1H235l1,3.6C236.1,270.86,231.6,270.86,230.8,270.86Z"/><path class="cls-5" d="M242.6,269.76a1.25,1.25,0,0,1,.8-1.1c.2-.1,0-.9,0-.9a2,2,0,0,0-2.4,1.8v3h1.7A8.44,8.44,0,0,1,242.6,269.76Z"/><path class="cls-5" d="M242.5,272.76v-.1h-1.7v.1Z"/><path class="cls-5" d="M344.4,346.16a5.91,5.91,0,0,1-.8-.5c-.4-.3-2.3-2-2.3-2a13.91,13.91,0,0,0-2.1-1.3,4.62,4.62,0,0,0-2-.3h-4.6a5.24,5.24,0,0,0-2.4.9,7.48,7.48,0,0,0-3,5.3v2.8s.1.7.7.7h1.7a2.5,2.5,0,0,1,5,0h7.3s.3-2.5,2.5-2.4a2.59,2.59,0,0,1,2.5,2.4h.9s.7-.2.7-.7v-1.9S348.2,346.26,344.4,346.16Zm-9.8-3v2.4h-5s1.3-2.4,3.3-2.4Zm1.6,2.4v-2.5h1.7c1.3,0,3.8,2.4,3.8,2.4h-5.5Z"/><path class="cls-5" d="M344,353.56a2.41,2.41,0,0,0-2.3,1.6h-2.8a1.62,1.62,0,0,0-2.8,0h-2a2.37,2.37,0,0,0-2.3-1.7,2.5,2.5,0,0,0,0,5,2.41,2.41,0,0,0,2.3-1.6h2a1.85,1.85,0,0,0,1.5.8,1.59,1.59,0,0,0,1.4-.8h2.8a2.29,2.29,0,0,0,2.3,1.6,2.45,2.45,0,1,0-.1-4.9Z"/><path class="cls-5" d="M321.3,295.56h-9.2c-1.6,0-1.5,1.2-1.5,1.2v1.7c0,1,1.6,1.2,1.6,1.2h9.2c.9,0,1.1-1.2,1.1-1.2v-2C322.4,295.66,321.3,295.56,321.3,295.56Zm-.3,2.7h-9a.1.1,0,0,1-.1-.1V297a.1.1,0,0,1,.1-.1h9a.1.1,0,0,1,.1.1,5.28,5.28,0,0,1-.1,1.3Z"/><path class="cls-5" d="M313.1,292.36a.68.68,0,0,0,.4-.4l-2.2-7-1.5,1.6,2.8,5.6A.47.47,0,0,0,313.1,292.36Z"/><path class="cls-5" d="M317.9,287.76l-2.7,3.7h-1.1s.4,1.3-.8,1.4-1.5-1.4-1.5-1.4h-.4v2.7h2.4v.7h6.4v-.7h2.4v-6.4Zm-.3,3.7,1.4-2h1.8v2Z"/><polygon class="cls-5" points="305.8 296.96 306.7 297.36 307 296.76 306.6 295.46 305.8 296.96"/><path class="cls-5" d="M306.1,291.66a1,1,0,0,1-1.2.5.82.82,0,0,1-.4-1.1,2.42,2.42,0,0,0-1.4,2.4,2.74,2.74,0,0,0,2.4,3l.6-1.1Z"/><path class="cls-5" d="M305,291.46c.4.2.5,0,.7-.1s5-7.1,5-7.1v-2.4l-.7-.4-2.1,1.2-3.1,8.1S304.6,291.26,305,291.46Z"/><path class="cls-5" d="M401.6,283.86V293a.81.81,0,0,0,.8.7.89.89,0,0,0,.8-.6v-18.7a.89.89,0,0,0-.8-.6,1.05,1.05,0,0,0-.8.5l-1.2,8.5C400.5,282.76,400.1,284,401.6,283.86Z"/><path class="cls-5" d="M399.5,282.56l.6-4.1a8.37,8.37,0,0,0-6.1-2.9,7.9,7.9,0,0,0-5.6,1.9,17.48,17.48,0,0,1,0,2.3,3.62,3.62,0,0,1-1.5,2.4V289a8.81,8.81,0,0,0,6.8,3.4,9,9,0,0,0,7-3.8v-3.7s-.9-.3-1-.9h0a6,6,0,0,1-11.7,1.8c-1.6-4.3,2.6-6.9,3-7.1s4.2-2.2,7.6,1.8C398.5,280.46,399.5,282,399.5,282.56Z"/><circle class="cls-5" cx="393.7" cy="283.86" r="5"/><path class="cls-5" d="M384.3,281.46v11.6s.1.7.7.7a.89.89,0,0,0,.8-.6v-11.7a2.39,2.39,0,0,0,1.5-2v-4.8a.53.53,0,0,0-.5-.4c-.4,0-.5.2-.5.4v2.9h-.7v-2.9s-.2-.4-.5-.4a.46.46,0,0,0-.5.4v2.9h-.7v-2.9s-.2-.4-.4-.4-.6.1-.6.4v5A2.11,2.11,0,0,0,384.3,281.46Z"/><path class="cls-5" d="M390.8,347.36h0l-.5,2.2h-.9l.6-2.5s-1.9-.2-3.1-.2a15.74,15.74,0,0,0-3.4.2l.6,2.5h-.9l-.5-2.2s-3.9,1.5-3.9,5.5v4.7h15.9v-4.7A6.19,6.19,0,0,0,390.8,347.36Zm-.5,7.6c0,.7-.8.8-.8.8h-5.4a.91.91,0,0,1-.9-.8v-3.6a1.1,1.1,0,0,1,.3-.7.78.78,0,0,1,.5-.2h1.1a2.83,2.83,0,0,1,.3-.6.44.44,0,0,1,.4-.3h2a.7.7,0,0,1,.4.2l.3.7h1.1a.77.77,0,0,1,.5.2.78.78,0,0,1,.3.6S390.3,354.36,390.3,355Z"/><circle class="cls-5" cx="386.8" cy="353.16" r="1.8"/><ellipse class="cls-5" cx="386.7" cy="340.76" rx="4.5" ry="4.4"/><path class="cls-5" d="M355.1,318.26l1.2-1.2a8.14,8.14,0,0,1-1.5-4.8c.2-2.5,1.8-7.1,7.4-7.5a7.33,7.33,0,0,1,4.4,1.1l-.9,1,3.7.3-.4-3.8-1.2,1.3a10.67,10.67,0,0,0-5.3-1.5s-6.6.1-8.8,6.4A8.76,8.76,0,0,0,355.1,318.26Z"/><path class="cls-5" d="M370.5,307.46l-1.3,1.1a8.44,8.44,0,0,1,1.2,4.3,7.73,7.73,0,0,1-7.4,7.5,7,7,0,0,1-3.6-.7l1-1.2-3.7-.1.7,3.8,1-1.2a9.33,9.33,0,0,0,4.4,1s6.6-.1,8.8-6.4A10.16,10.16,0,0,0,370.5,307.46Z"/><path class="cls-5" d="M362.5,317.86a5.2,5.2,0,1,1,5.2-5.2A5.16,5.16,0,0,1,362.5,317.86Zm0-10.2a5,5,0,1,0,5,5A5,5,0,0,0,362.5,307.66Z"/><path class="cls-5" d="M357.7,313.36a9,9,0,0,0,1.4-.7c.1-.1.4-.3.2-.4s-.4-.3-.3-.5a2.48,2.48,0,0,1,.1-.9,1.54,1.54,0,0,1,.6-.4c.2-.1.6-.2.6-.5a3.34,3.34,0,0,0-.5-1.2,4.41,4.41,0,0,0-1.6,2.1,5.18,5.18,0,0,0-.5,2.5"/><path class="cls-5" d="M361,309.86s-.1-.2-.2,0a4.65,4.65,0,0,0-.6,1.8c0,.6.1.3.2.3a2.7,2.7,0,0,0,.7-.8A1.23,1.23,0,0,0,361,309.86Z"/><path class="cls-5" d="M359.4,316.26a3.09,3.09,0,0,0,1.3.2c.5-.1.4-.2.3-.3s-.6-.7-.3-.8a1.67,1.67,0,0,0,.9-1.1c-.1-.4-.1-.2-.3-.2a6.66,6.66,0,0,1-1.2-.6c-.1-.1-.4-.2-.5-.1s-.4.3-.5.4a2.12,2.12,0,0,0-.4,1.3c0,.6-.1.4,0,.6C358.6,315.76,359.3,316.26,359.4,316.26Z"/><path class="cls-5" d="M366,316a8.3,8.3,0,0,1-2,.5c-.3,0-.7-.1-.3-.4s.9-.4,1-.7a7.89,7.89,0,0,0,.3-1.3c0-.2.2-.5.2-.6a3.54,3.54,0,0,1-.1-.6c.1-.3.6-.8.6-1a5.85,5.85,0,0,0-.2-1.3,6.47,6.47,0,0,0-.9-.8c-.1-.1-.3-.3-.4-.3a.9.9,0,0,1-.6-.5c-.1-.3-.4-1-.3-1.1a.35.35,0,0,1,.1-.2,5.34,5.34,0,0,1,3.4,2.5l-.2.2c-.1.1-.5.1-.5.7s.2,1,.3,1,.6.5.6.6a3.93,3.93,0,0,1,.2.6,6.52,6.52,0,0,1-.5,1.5,3.66,3.66,0,0,1-.7,1.2"/><path class="cls-5" d="M350,259.86a14.61,14.61,0,0,1-1.2,4.5l-3.4-1.6s.2-.3-.2-.7a14.25,14.25,0,0,1-1.3-2.5c-.3-.8-.8-2.4-.9-2.5a2.46,2.46,0,0,0-1.2-.9,7.53,7.53,0,0,0-3-.6,5.44,5.44,0,0,0-2.3.7c-.2.2-1.4,1.2-1.5,2a.92.92,0,0,0,.4,1.1.84.84,0,0,0,1.2-.2l1.9,1s-.5,1.3-.8,1.9a41,41,0,0,1-3.9,5.1l-.5.6s-.4.7,0,1.1a1,1,0,0,0,1.3.1c.3-.3,3.5-4.1,3.7-4.4l2.8,1.5s-.8,1.8-.9,2-.7,1.1-.7,1.1a.9.9,0,0,0,1.4,1.1,21.36,21.36,0,0,0,1.3-2.2c.1-.3.9-2.1.9-2.1a.66.66,0,0,0-.3-.9,18.64,18.64,0,0,0-2.1-1.4s.9-1.9.9-2l1.6.8.5.7a1.11,1.11,0,0,0,.9.5.75.75,0,0,0,.6-.3l3.3,1.6a32.09,32.09,0,0,1-3,4.3,9.27,9.27,0,0,0,3.9-3.8l.4.2.3-.6-.5-.2C349.8,264.86,351,262.76,350,259.86Zm-10.8-.7-1.9-.9a2,2,0,0,1,2.5-1.2Zm3.1,1.5.4-1,.6,1.5Z"/><path class="cls-5" d="M341.9,255.46a1.48,1.48,0,0,0,1.9-1.2l1,.3.1-.3-.8-.2a1.63,1.63,0,0,0-1.3-1.9,1.89,1.89,0,0,0-2.2,1.2l.3.1S340.4,255.16,341.9,255.46Z"/><path class="cls-5" d="M362,383.06l-1.1-.1a12.25,12.25,0,0,0-.5-1.3,7.61,7.61,0,0,1,.7-.9.52.52,0,0,0,.1-.5l-1.2-1.2a.47.47,0,0,0-.6-.1l-.9.7a7.81,7.81,0,0,0-1.2-.5,7.38,7.38,0,0,0-.2-1.2c0-.2-.3-.3-.3-.3h-1.7c-.3,0-.4.4-.4.4l-.2,1.1a5.19,5.19,0,0,0-1.2.5s-.8-.6-1-.7a.48.48,0,0,0-.4,0l-1.3,1.3a.28.28,0,0,0,0,.4l.7,1c-.2.1-.5,1.2-.5,1.2s-1,.1-1.2.1-.3.3-.3.3v1.8c0,.2.3.3.3.3l1.2.1a8.93,8.93,0,0,0,.5,1.3s-.5.7-.7.9a.35.35,0,0,0-.1.4l1.3,1.3c.2.2.5,0,.5,0l.9-.7a5.13,5.13,0,0,0,1.2.5s.1.9.1,1.1.3.3.3.3h1.8a.45.45,0,0,0,.4-.3l.1-1.2a4.35,4.35,0,0,0,1.3-.5,9.68,9.68,0,0,0,.9.7c.2.2.5,0,.5,0l1.3-1.3a.28.28,0,0,0,0-.4l-.7-.9a5.13,5.13,0,0,0,.5-1.2s.9-.1,1.2-.1a.29.29,0,0,0,.3-.3v-1.7C362.4,383.06,362,383.06,362,383.06Zm-6.2,4.4a3.2,3.2,0,1,1,3.2-3.2A3.1,3.1,0,0,1,355.8,387.46Z"/><path class="cls-5" d="M370.2,377.66l-.8-.1c-.1-.3-.4-1-.4-1s.3-.4.5-.7a.28.28,0,0,0,0-.4l-.9-.9a.35.35,0,0,0-.4-.1l-.7.5a3.08,3.08,0,0,0-.9-.4s-.1-.8-.1-.9-.2-.2-.2-.2H365a.29.29,0,0,0-.3.3l-.1.9a4.13,4.13,0,0,0-.9.4s-.6-.5-.7-.6-.3,0-.3,0l-1,1c-.1.1,0,.3,0,.3l.6.7a6.31,6.31,0,0,0-.4.9s-.8.1-.9.1-.2.2-.2.2v1.4a.37.37,0,0,0,.2.3l.9.1a5.13,5.13,0,0,0,.4,1,6.82,6.82,0,0,0-.5.7c-.1.2,0,.3,0,.3l1,1c.1.1.4,0,.4,0l.7-.5a6.89,6.89,0,0,0,1,.4s.1.7.1.9a.2.2,0,0,0,.2.2h1.4a.37.37,0,0,0,.3-.2l.1-.9a3.36,3.36,0,0,0,1-.4,6.82,6.82,0,0,0,.7.5.48.48,0,0,0,.4,0l1-1c.1-.1,0-.3,0-.3l-.6-.7a6.31,6.31,0,0,0,.4-.9s.7-.1.9-.1a.2.2,0,0,0,.2-.2V378C370.5,377.76,370.2,377.66,370.2,377.66Zm-4.7,3.4a2.5,2.5,0,1,1,2.5-2.5A2.54,2.54,0,0,1,365.5,381.06Z"/><path class="cls-5" d="M264.7,265.86a.57.57,0,0,1-.2-1.1,80.17,80.17,0,0,1,14.6-5.4c8.1-2.2,20.3-4.1,33-1.2a.61.61,0,1,1-.2,1.2c-12.4-2.9-24.5-1-32.4,1.2a82.6,82.6,0,0,0-14.4,5.3Z"/><path class="cls-5" d="M328.9,319h-.1c-.1,0-8.2-1.9-13.6-1.2a.61.61,0,0,1-.2-1.2c5.6-.7,13.7,1.1,14,1.2a.75.75,0,0,1,.5.7C329.4,318.86,329.2,319,328.9,319Z"/><path class="cls-6" d="M353.3,488.76l.5-.7a1.66,1.66,0,0,0,1.2.5c.3,0,.5-.1.5-.3,0-.5-2.1-.1-2.1-1.5a1.27,1.27,0,0,1,1.4-1.2,2.46,2.46,0,0,1,1.5.5l-.5.7a1.5,1.5,0,0,0-1.1-.4c-.3,0-.4.1-.4.3,0,.4,2.1.1,2.1,1.5,0,.7-.5,1.2-1.5,1.2a2.36,2.36,0,0,1-1.6-.6"/><polygon class="cls-6" points="358.4 489.26 358.4 485.66 361.1 485.66 361.1 486.46 359.4 486.46 359.4 486.96 361.1 486.96 361.1 487.86 359.4 487.86 359.4 488.46 361.1 488.46 361.1 489.26 358.4 489.26"/><polygon class="cls-6" points="367.2 489.26 365.8 485.66 366.9 485.66 367.8 488.26 368.7 485.66 369.8 485.66 368.4 489.26 367.2 489.26"/><rect class="cls-6" x="371.6" y="485.66" width="0.9" height="3.6"/><polygon class="cls-6" points="375.8 489.26 374.4 485.66 375.5 485.66 376.4 488.26 377.3 485.66 378.3 485.66 377 489.26 375.8 489.26"/><polygon class="cls-6" points="380.2 489.26 380.2 485.66 382.9 485.66 382.9 486.46 381.1 486.46 381.1 486.96 382.8 486.96 382.8 487.86 381.1 487.86 381.1 488.46 382.9 488.46 383.6 486.26 380.2 489.26"/><path class="cls-6" d="M312.5,437v-2l-.8,2h-.3l-.8-2v2H310v-2.8h.8l.7,1.8.7-1.8h.8V437Z"/><path class="cls-6" d="M314.5,435.86v-1.7h.6v1.7a.7.7,0,1,0,1.4,0v-1.7h.6v1.7a1.3,1.3,0,0,1-2.6,0Z"/><path class="cls-6" d="M320.3,437l-1.3-1.8V437h-.6v-2.8h.6l1.3,1.8v-1.8h.6V437Z"/><path class="cls-6" d="M322.2,437v-2.8h.6V437Z"/><path class="cls-6" d="M324,435.56a1.47,1.47,0,0,1,1.5-1.5,1.27,1.27,0,0,1,1.2.7l-.5.3a.84.84,0,0,0-.7-.4.9.9,0,0,0,0,1.8,1,1,0,0,0,.7-.4l.5.2a1.47,1.47,0,0,1-1.2.7A1.34,1.34,0,0,1,324,435.56Z"/><path class="cls-6" d="M327.8,437v-2.8h.6V437Z"/><path class="cls-6" d="M329.8,437v-2.8h1.3a.9.9,0,0,1,0,1.8h-.7v1Zm1.6-1.9a.43.43,0,0,0-.4-.4h-.6v.8h.6A.43.43,0,0,0,331.4,435.06Z"/><path class="cls-6" d="M334.8,437l-.2-.5h-1.2l-.2.5h-.6l1.1-2.8h.7l1.1,2.8Zm-.7-2.2-.4,1.2h.9Z"/><path class="cls-6" d="M336.5,437v-2.8h.6v2.3h1.2v.5Z"/><path class="cls-6" d="M339.5,437v-2.8h.6V437Z"/><path class="cls-6" d="M341.5,437v-2.8h1.1a1.4,1.4,0,1,1,0,2.8Zm2-1.4a.84.84,0,0,0-.9-.9h-.5v1.8h.5A.9.9,0,0,0,343.5,435.56Z"/><path class="cls-6" d="M347.1,437l-.2-.5h-1.2l-.2.5h-.7l1.1-2.8h.7l1.1,2.8Zm-.8-2.2-.4,1.2h.9Z"/><path class="cls-6" d="M348.8,437v-2.8h1.1a1.4,1.4,0,1,1,0,2.8Zm2-1.4a.84.84,0,0,0-.9-.9h-.5v1.8h.5A.84.84,0,0,0,350.8,435.56Z"/><path class="cls-6" d="M260.1,432.66a30.1,30.1,0,1,0,30.1,30.1,30.13,30.13,0,0,0-30.1-30.1m-9.6,12.6a.68.68,0,0,1,.7-.7h14.1a.68.68,0,0,1,.7.7v4.4a.68.68,0,0,1-.7.7H251.2a.68.68,0,0,1-.7-.7v-4.4Zm20.9,33.4h-5.5a.76.76,0,0,1-.5-.2l-5.6-6.8c-.1-.2-.3-.2-.5-.2h-1.8a.68.68,0,0,0-.7.7v5.9a.68.68,0,0,1-.7.7h-4.9a.68.68,0,0,1-.7-.7v-23.3a.68.68,0,0,1,.7-.7h11.9a7.84,7.84,0,0,1,3.3.7,12.71,12.71,0,0,1,2.7,1.8,8.78,8.78,0,0,1,2.5,6.1,7.46,7.46,0,0,1-.4,2.6,9.73,9.73,0,0,1-1.1,2.3,7.28,7.28,0,0,1-1.7,1.8,4.19,4.19,0,0,1-1.4.9.62.62,0,0,0-.2,1l5.2,6.2a.78.78,0,0,1-.6,1.2"/><path class="cls-6" d="M262.3,459.66h-4.9a.68.68,0,0,0-.7.7v4.7a.68.68,0,0,0,.7.7h4.9a2.52,2.52,0,0,0,2-.9,2.9,2.9,0,0,0,0-4.2,2.33,2.33,0,0,0-2-1"/><path class="cls-6" d="M305.8,438.56h-6.9a1.11,1.11,0,0,1-1.1-1.1v-1.2a1.11,1.11,0,0,1,1.1-1.1h6.9a1.11,1.11,0,0,1,1.1,1.1v1.2a1.11,1.11,0,0,1-1.1,1.1"/><path class="cls-6" d="M311.2,447.86a4.67,4.67,0,0,1-.3,1.7,10.09,10.09,0,0,1-.7,1.5,6.28,6.28,0,0,1-1.1,1.2,4.13,4.13,0,0,1-1.1.7c-.1.1-.2.2-.1.4l4,5.1c.1.2,0,.4-.2.4h-4.1c-.1,0-.1,0-.2-.1l-3.9-5.1c0-.1-.1-.1-.2-.1h-1.4a.22.22,0,0,0-.2.2v4.9a.22.22,0,0,1-.2.2H298a.22.22,0,0,1-.2-.2v-16.1a.22.22,0,0,1,.2-.2h7.9a5,5,0,0,1,3.8,1.6,5.67,5.67,0,0,1,1.2,1.8,6.23,6.23,0,0,1,.3,2.1m-5.9,1.9a1.61,1.61,0,0,0,1.3-.6,1.82,1.82,0,0,0,.6-1.4,2,2,0,0,0-.6-1.4,1.76,1.76,0,0,0-1.3-.6H302a.22.22,0,0,0-.2.2v3.4a.22.22,0,0,0,.2.2h3.3Z"/><path class="cls-6" d="M326.5,442.26l6.8,16.2c.1.1,0,.3-.2.3h-3.4a.35.35,0,0,1-.2-.1l-1.4-3.3c0-.1-.1-.1-.2-.1h-6.8a.35.35,0,0,0-.2.1l-1.4,3.3c0,.1-.1.1-.2.1h-3.4c-.2,0-.3-.2-.2-.3l6.8-16.2c0-.1.1-.1.2-.1h3.6c.1,0,.2,0,.2.1m.1,9.4-1.9-4.5a.21.21,0,0,0-.4,0l-1.9,4.5c-.1.1,0,.3.2.3h3.7a.27.27,0,0,0,.3-.3"/><path class="cls-6" d="M348.3,442.26h3.1a.22.22,0,0,1,.2.2v16.2a.22.22,0,0,1-.2.2h-3.1c-.1,0-.1,0-.2-.1l-7.5-10.2a.21.21,0,0,0-.4.1v10a.22.22,0,0,1-.2.2h-3.1a.22.22,0,0,1-.2-.2v-16.2a.22.22,0,0,1,.2-.2h3c.1,0,.1,0,.2.1l7.6,10.3a.21.21,0,0,0,.4-.1v-10.1c-.1-.1,0-.2.2-.2"/><path class="cls-6" d="M305.3,477.36a5.85,5.85,0,0,0,2.2-.5,6.54,6.54,0,0,0,2-1.5.19.19,0,0,1,.3,0l2,1.9a.19.19,0,0,1,0,.3,10,10,0,0,1-3,2.5,7.68,7.68,0,0,1-3.6.9,6.7,6.7,0,0,1-3.1-.7,8.2,8.2,0,0,1-4.2-4.5,8.81,8.81,0,0,1-.6-3.3,8.66,8.66,0,0,1,.6-3.2,9.48,9.48,0,0,1,1.7-2.7,6.77,6.77,0,0,1,2.6-1.8,8.24,8.24,0,0,1,3.1-.7,7.17,7.17,0,0,1,2.9.6,10.17,10.17,0,0,1,2.6,1.8.19.19,0,0,1,0,.3l-1.8,2.1a.19.19,0,0,1-.3,0,5.45,5.45,0,0,0-1.7-1.1,5.66,5.66,0,0,0-1.8-.3,3.92,3.92,0,0,0-1.8.4,5.27,5.27,0,0,0-1.5,1.1,6.24,6.24,0,0,0-1,1.6,6.46,6.46,0,0,0-.4,1.9,4.06,4.06,0,0,0,.4,1.9,5.37,5.37,0,0,0,1,1.6,4.18,4.18,0,0,0,1.5,1.1,6.8,6.8,0,0,0,1.9.3"/><path class="cls-6" d="M323.9,464.36l6.6,15.9c.1.1,0,.3-.2.3H327a.35.35,0,0,1-.2-.1l-1.4-3.2c0-.1-.1-.1-.2-.1h-6.6a.35.35,0,0,0-.2.1l-1.3,3.2c0,.1-.1.1-.2.1h-3.3c-.2,0-.3-.2-.2-.3l6.6-15.9c0-.1.1-.1.2-.1h3.5c.1,0,.1,0,.2.1m.1,9.2-1.8-4.4a.21.21,0,0,0-.4,0l-1.8,4.4c-.1.1,0,.3.2.3h3.6c.1,0,.2-.2.2-.3"/><path class="cls-6" d="M340.6,471.26h5.7a.22.22,0,0,1,.2.2v5.8a10.41,10.41,0,0,1-3,2.6,7.3,7.3,0,0,1-3.5.9,6.7,6.7,0,0,1-3.1-.7,12,12,0,0,1-2.6-1.8,9.48,9.48,0,0,1-1.7-2.7,8.81,8.81,0,0,1-.6-3.3,8.66,8.66,0,0,1,.6-3.2,9.48,9.48,0,0,1,1.7-2.7,6.77,6.77,0,0,1,2.6-1.8,8.24,8.24,0,0,1,3.1-.7,8,8,0,0,1,3,.6,10.17,10.17,0,0,1,2.6,1.8.19.19,0,0,1,0,.3l-1.8,2.1a.19.19,0,0,1-.3,0,5.45,5.45,0,0,0-1.7-1.1,5.66,5.66,0,0,0-1.8-.3,3.92,3.92,0,0,0-1.8.4,5.27,5.27,0,0,0-1.5,1.1,6.24,6.24,0,0,0-1,1.6,6.46,6.46,0,0,0-.4,1.9,4.06,4.06,0,0,0,.4,1.9,5.37,5.37,0,0,0,1,1.6,4.18,4.18,0,0,0,1.5,1.1,3.92,3.92,0,0,0,1.8.4,5.08,5.08,0,0,0,1.7-.3,4.69,4.69,0,0,0,1.6-1,.35.35,0,0,0,.1-.2v-1.5a.22.22,0,0,0-.2-.2h-2.6a.22.22,0,0,1-.2-.2v-2.5a.35.35,0,0,1,.2-.1"/><path class="cls-6" d="M359.8,464.26h3.1a.22.22,0,0,1,.2.2v10.2a5.93,5.93,0,0,1-.5,2.3,5.58,5.58,0,0,1-1.4,2,9,9,0,0,1-2,1.4,6.5,6.5,0,0,1-5,0,4.83,4.83,0,0,1-2-1.4,7.18,7.18,0,0,1-1.4-2,6.35,6.35,0,0,1-.5-2.3v-10.2a.22.22,0,0,1,.2-.2h3.1a.22.22,0,0,1,.2.2V474a5.07,5.07,0,0,0,.2,1.3,10.91,10.91,0,0,0,.6,1.1,2.76,2.76,0,0,0,.9.7,2.28,2.28,0,0,0,1.1.3,2,2,0,0,0,1.1-.3,2.18,2.18,0,0,0,.9-.7,2.38,2.38,0,0,0,.6-1.1,2.74,2.74,0,0,0,.2-1.3v-9.5c.2-.1.3-.2.4-.2"/><path class="cls-6" d="M376,464.36l6.6,15.9c.1.1,0,.3-.2.3h-3.3a.35.35,0,0,1-.2-.1l-1.4-3.2c0-.1-.1-.1-.2-.1h-6.6a.35.35,0,0,0-.2.1l-1.3,3.2c0,.1-.1.1-.2.1h-3.4c-.2,0-.3-.2-.2-.3l6.6-15.9c0-.1.1-.1.2-.1h3.5c.2,0,.2,0,.3.1m.1,9.2-1.8-4.4a.21.21,0,0,0-.4,0l-1.8,4.4c-.1.1,0,.3.2.3h3.6c.1,0,.2-.2.2-.3"/><path class="cls-2" d="M141.7,1109.16h5.9v25.9h-3.3v-22.9h-2.6v-3Z"/><path class="cls-2" d="M152.9,1109.16h5.9v25.9h-3.3v-22.9h-2.6v-3Z"/><path class="cls-2" d="M167.7,1117.46a2.05,2.05,0,0,1,2,2,2.1,2.1,0,1,1-3.6-1.5A3,3,0,0,1,167.7,1117.46Zm0,13.7a2,2,0,0,1,1.4.6,2.1,2.1,0,0,1-1.5,3.6,1.88,1.88,0,0,1-.8-.2,4.35,4.35,0,0,1-.7-.4,1.61,1.61,0,0,1-.4-.7,2.35,2.35,0,0,1-.2-.8,2,2,0,0,1,.6-1.5A2.45,2.45,0,0,1,167.7,1131.16Z"/><path class="cls-2" d="M184.1,1122.26c0,4.6-.4,8-1.3,10.1a4.87,4.87,0,0,1-9,0c-.9-1.9-1.3-5.4-1.3-10.2s.4-8.3,1.3-10.2a4.62,4.62,0,0,1,4.5-3,4.78,4.78,0,0,1,4.4,2.6C183.6,1113.36,184.1,1117,184.1,1122.26Zm-3.5,0a46.8,46.8,0,0,0-.5-8.1c-.3-1.5-.9-2.2-1.8-2.2s-1.5.7-1.8,2.2a64.25,64.25,0,0,0,0,16c.3,1.5,1,2.2,1.8,2.2s1.5-.7,1.8-2.2A43.25,43.25,0,0,0,180.6,1122.26Z"/><path class="cls-2" d="M198.3,1122.26c0,4.6-.4,8-1.3,10.1a4.88,4.88,0,0,1-9,0c-.9-1.9-1.3-5.4-1.3-10.2s.4-8.3,1.3-10.2a4.62,4.62,0,0,1,4.5-3,4.78,4.78,0,0,1,4.4,2.6C197.8,1113.36,198.3,1117,198.3,1122.26Zm-3.5,0a46.8,46.8,0,0,0-.5-8.1c-.3-1.5-.9-2.2-1.8-2.2s-1.5.7-1.8,2.2a64.25,64.25,0,0,0,0,16c.3,1.5,1,2.2,1.8,2.2s1.5-.7,1.8-2.2A43.25,43.25,0,0,0,194.8,1122.26Z"/><path class="cls-2" d="M218.4,1117.66V1135h-3.2v-2.2a6.87,6.87,0,0,1-1.4,2,2.73,2.73,0,0,1-1.8.5,3.38,3.38,0,0,1-3.2-2.2c-.7-1.5-1-3.8-1-6.9s.3-5.2,1-6.6a3.34,3.34,0,0,1,3.2-2.1,3.57,3.57,0,0,1,3.2,2.2v-2Zm-7.2,8.6a16.81,16.81,0,0,0,.5,4.8,1.76,1.76,0,0,0,1.6,1.4c.7,0,1.2-.5,1.6-1.4a17.22,17.22,0,0,0,.5-4.6,17.53,17.53,0,0,0-.5-4.7c-.3-.9-.8-1.4-1.6-1.4a1.58,1.58,0,0,0-1.6,1.3A12.49,12.49,0,0,0,211.2,1126.26Z"/><path class="cls-2" d="M232.4,1117.56H229v-1c0-2.8.4-4.8,1.3-6s2.3-1.7,4.3-1.7q5.7,0,5.7,6.3c0,2.8-1.4,7-4.3,12.3l-2.1,3.9a.31.31,0,0,1-.1.2c-.1.1-.1.3-.2.5H240v3H228.6c.2-.4.6-1.3,1.2-2.5s1.4-3,2.5-5.1c.9-1.9,1.6-3.5,2.2-4.8s1-2.4,1.3-3.2a13.22,13.22,0,0,0,.9-4.3c0-2.1-.7-3.2-2.2-3.2s-2.1,1.3-2.1,4v1.6Z"/><path class="cls-2" d="M254.5,1122.26c0,4.6-.4,8-1.3,10.1a4.88,4.88,0,0,1-9,0c-.9-1.9-1.3-5.4-1.3-10.2s.4-8.3,1.3-10.2a4.62,4.62,0,0,1,4.5-3,4.78,4.78,0,0,1,4.4,2.6C254,1113.36,254.5,1117,254.5,1122.26Zm-3.5,0a46.8,46.8,0,0,0-.5-8.1c-.3-1.5-.9-2.2-1.8-2.2s-1.5.7-1.8,2.2a64.25,64.25,0,0,0,0,16c.3,1.5,1,2.2,1.8,2.2s1.5-.7,1.8-2.2A43.25,43.25,0,0,0,251,1122.26Z"/><path class="cls-2" d="M259.4,1117.46a2.05,2.05,0,0,1,2,2,2.1,2.1,0,1,1-3.6-1.5A3,3,0,0,1,259.4,1117.46Zm0,13.7a2,2,0,0,1,1.4.6,2.1,2.1,0,0,1-1.5,3.6,1.88,1.88,0,0,1-.8-.2,4.35,4.35,0,0,1-.7-.4,1.61,1.61,0,0,1-.4-.7,2.35,2.35,0,0,1-.2-.8,2,2,0,0,1,.6-1.5A2.45,2.45,0,0,1,259.4,1131.16Z"/><path class="cls-2" d="M275.8,1122.26c0,4.6-.4,8-1.3,10.1a4.88,4.88,0,0,1-9,0c-.9-1.9-1.3-5.4-1.3-10.2s.4-8.3,1.3-10.2a4.62,4.62,0,0,1,4.5-3,4.78,4.78,0,0,1,4.4,2.6C275.3,1113.36,275.8,1117,275.8,1122.26Zm-3.5,0a46.8,46.8,0,0,0-.5-8.1c-.3-1.5-.9-2.2-1.8-2.2s-1.5.7-1.8,2.2a64.25,64.25,0,0,0,0,16c.3,1.5,1,2.2,1.8,2.2s1.5-.7,1.8-2.2A43.25,43.25,0,0,0,272.3,1122.26Z"/><path class="cls-2" d="M290,1122.26c0,4.6-.4,8-1.3,10.1a4.88,4.88,0,0,1-9,0c-.9-1.9-1.3-5.4-1.3-10.2s.4-8.3,1.3-10.2a4.62,4.62,0,0,1,4.5-3,4.78,4.78,0,0,1,4.4,2.6C289.5,1113.36,290,1117,290,1122.26Zm-3.5,0a46.8,46.8,0,0,0-.5-8.1c-.3-1.5-.9-2.2-1.8-2.2s-1.5.7-1.8,2.2a64.25,64.25,0,0,0,0,16c.3,1.5,1,2.2,1.8,2.2s1.5-.7,1.8-2.2A43.25,43.25,0,0,0,286.5,1122.26Z"/><path class="cls-2" d="M300.2,1106.56h3.2v13.1a4.12,4.12,0,0,1,3.6-2.3,3.18,3.18,0,0,1,3,1.7,9.09,9.09,0,0,1,.5,3.6V1135h-3.2v-11.6a5.14,5.14,0,0,0-.4-2.5,1.51,1.51,0,0,0-1.4-.7,2,2,0,0,0-.9.2.9.9,0,0,0-.6.6,3.54,3.54,0,0,0-.3,1.1,8.62,8.62,0,0,0-.1,1.7V1135h-3.2v-28.4Z"/><path class="cls-2" d="M314.1,1117.66h3.2v2.2a5.29,5.29,0,0,1,1.6-1.9,3.28,3.28,0,0,1,2.1-.6v3.4c-.2,0-.4-.1-.6-.1a3,3,0,0,0-2.5.9,4.74,4.74,0,0,0-.7,3v10.5H314v-17.4Z"/><path class="cls-2" d="M330.5,1118.06v3a4,4,0,0,0-2.5-.9,1.88,1.88,0,0,0-.8.2c-.2.1-.5.2-.6.4a2.09,2.09,0,0,0-.4.6,1.88,1.88,0,0,0-.2.8c0,.8.7,1.8,2.2,2.9.6.5,1.1.9,1.5,1.3a7.29,7.29,0,0,1,.9,1.1,5.38,5.38,0,0,1,.7,2.7,5,5,0,0,1-1.4,3.7,4.9,4.9,0,0,1-3.6,1.4,6,6,0,0,1-2.8-.8v-3.1a4.27,4.27,0,0,0,2.6,1,1.92,1.92,0,0,0,2.2-2.2,2.3,2.3,0,0,0-.4-1.4,3.19,3.19,0,0,0-.6-.7,8.74,8.74,0,0,0-1-.8,9.56,9.56,0,0,1-2.7-2.6,4.7,4.7,0,0,1,4-7.4A6.34,6.34,0,0,1,330.5,1118.06Z"/><polygon class="cls-2" points="115.1 1131.96 105.3 1124.56 105.3 1107.76 109.2 1107.76 109.2 1122.66 117.5 1128.76 115.1 1131.96"/><path class="cls-2" d="M108.2,1143.76a22.3,22.3,0,1,1,22.3-22.3A22.32,22.32,0,0,1,108.2,1143.76Zm0-40.6a18.3,18.3,0,1,0,18.3,18.3A18.31,18.31,0,0,0,108.2,1103.16Z"/><path class="cls-5" d="M368.4,743.26H327.6v-40.6h40.9v40.6Zm-38.3-2.5H366v-35.6H330.1Z"/><path class="cls-5" d="M404.5,864H368.4v-57.9h36.1Zm-33.8-2.2h31.7v-53.5H370.7Z"/><path class="cls-5" d="M391.7,614.86l-1.1-.2H292.4v-58.2h98c.7-1-.6-1.9.5-2.5h-101v63.2l101.9.2A18.52,18.52,0,0,1,391.7,614.86Z"/><path class="cls-5" d="M367.2,731.56h-9.7l-7.6-11.4-4.7,8.2-8-10.5h-8.4a1.2,1.2,0,1,1,0-2.4h9.6l6.4,8.5,4.9-8.4,9.1,13.6h8.3a1.22,1.22,0,0,1,1.2,1.2A1.07,1.07,0,0,1,367.2,731.56Z"/><path class="cls-5" d="M386,836.16a7.4,7.4,0,1,1,7.5-7.4A7.47,7.47,0,0,1,386,836.16Zm0-12.6a5.2,5.2,0,1,0,5.3,5.2A5.31,5.31,0,0,0,386,823.56Z"/><path class="cls-5" d="M385.4,854.56a1.11,1.11,0,0,1-1.1-1.1v-18.4a1.1,1.1,0,0,1,2.2,0v18.4A1.11,1.11,0,0,1,385.4,854.56Z"/><path class="cls-5" d="M385.4,823.56a1.11,1.11,0,0,1-1.1-1.1v-6.8a1.1,1.1,0,1,1,2.2,0v6.8A1.11,1.11,0,0,1,385.4,823.56Z"/><path class="cls-5" d="M379.1,606.36a3.1,3.1,0,1,1,3.1,3.1A3.12,3.12,0,0,1,379.1,606.36Zm4.8,0a1.7,1.7,0,1,0-1.7,1.7A1.69,1.69,0,0,0,383.9,606.36Z"/><path class="cls-5" d="M379.1,599.16a3.1,3.1,0,1,1,3.1,3.1A3.12,3.12,0,0,1,379.1,599.16Zm4.8,0a1.7,1.7,0,1,0-1.7,1.7A1.69,1.69,0,0,0,383.9,599.16Z"/><path class="cls-5" d="M379.1,592a3.1,3.1,0,1,1,3.1,3.1A3.12,3.12,0,0,1,379.1,592Zm4.8,0a1.7,1.7,0,1,0-1.7,1.7A1.69,1.69,0,0,0,383.9,592Z"/><path class="cls-5" d="M375.8,605.26h-18l-.1-1.2a27.08,27.08,0,0,0-2.8-9.7c-3.2-6.2-8.3-9.4-15.2-9.4s-12.1,3.2-15.2,9.4a27.9,27.9,0,0,0-2.7,9.6l-.1,1.2h-18V604c0-.7-.4-16.4,10-27.3,6.2-6.4,15-9.7,26-9.7s19.7,3.3,26,9.7c10.5,10.8,10.1,26.6,10,27.3Zm-2.4-1.3Zm-13.2-1.2h13.2c-.1-3.8-1.2-15.9-9.3-24.3-5.7-5.9-13.9-8.9-24.2-8.9s-18.4,3-24.2,9c-8.1,8.4-9.2,20.4-9.3,24.2h13.2a27.15,27.15,0,0,1,2.9-9.4c3.6-7.1,9.6-10.8,17.5-10.8s13.9,3.7,17.5,10.8A39.08,39.08,0,0,1,360.2,602.76Z"/><path class="cls-5" d="M339.8,605.26a1.27,1.27,0,0,1-.6-.1,1.28,1.28,0,0,1-.5-1.7l20.4-38.1a1.25,1.25,0,0,1,2.2,1.2l-20.4,38.1A1.15,1.15,0,0,1,339.8,605.26Z"/><polyline class="cls-5" points="389 613.36 389 553.96 391.7 553.96 391.7 616.26 389 616.26"/><polygon class="cls-5" points="387.5 806.06 385.5 806.06 385.5 731.26 363.4 731.26 363.4 729.26 387.5 729.26 387.5 806.06"/><polygon class="cls-5" points="403.5 731.26 386.5 731.26 386.5 729.26 401.5 729.26 401.5 587.16 390.4 587.16 390.4 585.16 403.5 585.16 403.5 731.26"/><path class="cls-2" d="M98.1,765.16h3l2.3,10.6c.3,1.3.5,2.6.8,4s.4,2.7.6,4.2c0-.2,0-.3.1-.4v-.2l.5-3,.4-2.8.4-1.9,2-10.4h3l2.4,25.9h-3.3l-.7-8.9a4.87,4.87,0,0,0-.1-1.2v-.8l-.2-3.5-.1-3.2v-.4l-.1.5a11.55,11.55,0,0,0-.2,1.6c-.1.5-.1.8-.2,1.2l-.4,2.4-.2.9-2.2,11.3h-2.3l-2-9.8c-.3-1.3-.5-2.6-.7-3.9s-.4-2.7-.6-4.2l-1,17.8H96Z"/><path class="cls-2" d="M123,785.16h3c-.2,4.1-1.9,6.1-5,6.1a6,6,0,0,1-2.4-.5,4.31,4.31,0,0,1-1.7-1.6,8.25,8.25,0,0,1-1-2.8,22.51,22.51,0,0,1-.3-4c0-3.1.4-5.3,1.3-6.8a4.3,4.3,0,0,1,4-2.2c3.5,0,5.2,3.1,5.2,9.2v.4h-7.3c0,3.7.7,5.6,2.2,5.6C122.3,788.56,123,787.46,123,785.16Zm-.2-4.5a10.71,10.71,0,0,0-.6-3.6,1.61,1.61,0,0,0-1.4-1,1.38,1.38,0,0,0-1.4,1,10.71,10.71,0,0,0-.6,3.6Z"/><path class="cls-2" d="M138.8,762.56v28.5h-3.2v-2.2a6.87,6.87,0,0,1-1.4,2,2.73,2.73,0,0,1-1.8.5,3.38,3.38,0,0,1-3.2-2.2c-.7-1.5-1-3.8-1-6.9a22.09,22.09,0,0,1,.3-3.9,8.65,8.65,0,0,1,.8-2.7,5.34,5.34,0,0,1,1.3-1.6,3,3,0,0,1,1.9-.5,2.86,2.86,0,0,1,1.7.5,4.62,4.62,0,0,1,.7.7,5.25,5.25,0,0,1,.7,1.1v-13.1h3.2Zm-7.2,19.7a16.81,16.81,0,0,0,.5,4.8,1.76,1.76,0,0,0,1.6,1.4c.7,0,1.2-.5,1.6-1.4a17.22,17.22,0,0,0,.5-4.6,17.53,17.53,0,0,0-.5-4.7c-.3-.9-.8-1.4-1.6-1.4a1.58,1.58,0,0,0-1.6,1.3A12.49,12.49,0,0,0,131.6,782.26Z"/><path class="cls-2" d="M144,766.36a2.1,2.1,0,1,1-1.5,3.6,2.11,2.11,0,0,1-.6-1.6,2,2,0,0,1,.6-1.5A2.46,2.46,0,0,1,144,766.36Zm-1.5,7.3h3.2V791h-3.2Z"/><path class="cls-2" d="M159.2,773.66V791H156v-2.2a6.87,6.87,0,0,1-1.4,2,2.73,2.73,0,0,1-1.8.5,3.38,3.38,0,0,1-3.2-2.2c-.7-1.5-1-3.8-1-6.9s.3-5.2,1-6.6a3.34,3.34,0,0,1,3.2-2.1,3.57,3.57,0,0,1,3.2,2.2v-2Zm-7.3,8.6a16.81,16.81,0,0,0,.5,4.8,1.76,1.76,0,0,0,1.6,1.4c.7,0,1.2-.5,1.6-1.4a17.22,17.22,0,0,0,.5-4.6,17.53,17.53,0,0,0-.5-4.7c-.3-.9-.8-1.4-1.6-1.4a1.58,1.58,0,0,0-1.6,1.3A15.2,15.2,0,0,0,151.9,782.26Z"/><path class="cls-2" d="M162.8,762.56H166v28.5h-3.2Z"/><path class="cls-2" d="M169.6,773.66h3.2v11.6a4.35,4.35,0,0,0,.5,2.3,1.58,1.58,0,0,0,1.5.7,1.75,1.75,0,0,0,1.5-.6,4.09,4.09,0,0,0,.4-2.2v-11.8h3.2v10.4a17.15,17.15,0,0,1-.5,4.9c-.7,1.6-2.3,2.4-4.7,2.4a5.09,5.09,0,0,1-4-1.4c-.8-.9-1.2-2.5-1.2-4.7v-11.6Z"/><path class="cls-2" d="M183.6,773.66h3.2v2a4.12,4.12,0,0,1,3.6-2.3,3.18,3.18,0,0,1,3,1.7,9.09,9.09,0,0,1,.5,3.6V791h-3.2v-11.6a5.14,5.14,0,0,0-.4-2.5,1.51,1.51,0,0,0-1.4-.7,2,2,0,0,0-.9.2.9.9,0,0,0-.6.6,3.54,3.54,0,0,0-.3,1.1,8.62,8.62,0,0,0-.1,1.7V791h-3.4Z"/><path class="cls-2" d="M207.4,773.66V791h-3.2v-2.2a6.87,6.87,0,0,1-1.4,2,2.73,2.73,0,0,1-1.8.5,3.38,3.38,0,0,1-3.2-2.2c-.7-1.5-1-3.8-1-6.9s.3-5.2,1-6.6a3.34,3.34,0,0,1,3.2-2.1,3.57,3.57,0,0,1,3.2,2.2v-2Zm-7.3,8.6a16.81,16.81,0,0,0,.5,4.8,1.76,1.76,0,0,0,1.6,1.4c.7,0,1.2-.5,1.6-1.4a17.22,17.22,0,0,0,.5-4.6,17.53,17.53,0,0,0-.5-4.7c-.3-.9-.8-1.4-1.6-1.4a1.58,1.58,0,0,0-1.6,1.3A15.2,15.2,0,0,0,200.1,782.26Z"/><path class="cls-2" d="M219.5,765.16h3l2.3,10.6c.3,1.3.5,2.6.8,4s.4,2.7.6,4.2c0-.2,0-.3.1-.4v-.2l.5-3,.4-2.8.4-1.9,2-10.4h3l2.4,25.9h-3.3l-.6-8.8a4.87,4.87,0,0,0-.1-1.2v-.8l-.2-3.5-.1-3.2v-.4l-.1.5a11.55,11.55,0,0,0-.2,1.6c-.1.5-.1.8-.2,1.2l-.4,2.4-.2.9-2.2,11.3h-2.3l-2-9.8c-.3-1.3-.5-2.6-.7-3.9s-.4-2.7-.6-4.2l-1,17.8h-3.3Z"/><path class="cls-2" d="M247.9,782.46c0,5.9-1.8,8.8-5.4,8.8s-5.4-3-5.4-8.9,1.8-9,5.4-9a5.68,5.68,0,0,1,2.4.5,4,4,0,0,1,1.7,1.7,9.13,9.13,0,0,1,1,2.8A24.56,24.56,0,0,1,247.9,782.46Zm-3.3,0a16.81,16.81,0,0,0-.5-4.8c-.3-.9-.8-1.4-1.6-1.4a1.58,1.58,0,0,0-1.6,1.3,22.34,22.34,0,0,0,0,9.4,1.66,1.66,0,0,0,1.6,1.3,1.58,1.58,0,0,0,1.6-1.3A11.87,11.87,0,0,0,244.6,782.46Z"/><path class="cls-2" d="M250.9,773.66h3.2v2a4.12,4.12,0,0,1,3.6-2.3,3.18,3.18,0,0,1,3,1.7,9.09,9.09,0,0,1,.5,3.6V791H258v-11.6a5.14,5.14,0,0,0-.4-2.5,1.51,1.51,0,0,0-1.4-.7,2,2,0,0,0-.9.2.9.9,0,0,0-.6.6,3.54,3.54,0,0,0-.3,1.1,8.62,8.62,0,0,0-.1,1.7V791h-3.2v-17.3Z"/><path class="cls-2" d="M264.8,773.66H268v11.6a4.35,4.35,0,0,0,.5,2.3,1.58,1.58,0,0,0,1.5.7,1.75,1.75,0,0,0,1.5-.6,4.09,4.09,0,0,0,.4-2.2v-11.8h3.2v10.4a17.15,17.15,0,0,1-.5,4.9c-.7,1.6-2.3,2.4-4.7,2.4a5.09,5.09,0,0,1-4-1.4c-.8-.9-1.2-2.5-1.2-4.7v-11.6Z"/><path class="cls-2" d="M278.8,773.66H282v2.1a4,4,0,0,1,3.5-2.4,3.3,3.3,0,0,1,3.3,2.4,3.94,3.94,0,0,1,3.6-2.4,3.47,3.47,0,0,1,3.8,3.8V791H293v-11.4a5.11,5.11,0,0,0-.4-2.6c-.2-.5-.7-.7-1.4-.7a1.65,1.65,0,0,0-1.6.7,5.35,5.35,0,0,0-.4,2.6V791h-3.3v-11.4a8.08,8.08,0,0,0-.1-1.6,6.21,6.21,0,0,0-.3-1,1.7,1.7,0,0,0-.6-.6,2,2,0,0,0-.9-.2,1.82,1.82,0,0,0-1.6.8,5.39,5.39,0,0,0-.5,2.6V791h-3.2v-17.3Z"/><path class="cls-2" d="M306.4,785.16h3c-.2,4.1-1.9,6.1-5,6.1a6,6,0,0,1-2.4-.5,4.31,4.31,0,0,1-1.7-1.6,8.25,8.25,0,0,1-1-2.8,22.51,22.51,0,0,1-.3-4c0-3.1.4-5.3,1.3-6.8a4.3,4.3,0,0,1,4-2.2c3.5,0,5.2,3.1,5.2,9.2v.4h-7.3c0,3.7.7,5.6,2.2,5.6S306.4,787.46,306.4,785.16Zm-.1-4.5a10.71,10.71,0,0,0-.6-3.6,1.61,1.61,0,0,0-1.4-1,1.38,1.38,0,0,0-1.4,1,10.71,10.71,0,0,0-.6,3.6Z"/><path class="cls-2" d="M312.4,773.66h3.2v2a4.12,4.12,0,0,1,3.6-2.3,3.18,3.18,0,0,1,3,1.7,9.09,9.09,0,0,1,.5,3.6V791h-3.2v-11.6a5.14,5.14,0,0,0-.4-2.5,1.51,1.51,0,0,0-1.4-.7,2,2,0,0,0-.9.2.9.9,0,0,0-.6.6,3.54,3.54,0,0,0-.3,1.1,8.62,8.62,0,0,0-.1,1.7V791h-3.2v-17.3Z"/><path class="cls-2" d="M326.6,768.86h3.2v4.9h1.7v2.5h-1.7v14.8h-3.2v-14.8h-1.8v-2.5h1.8Z"/><path class="cls-2" d="M343.8,773.66V791h-3.2v-2.2a6.87,6.87,0,0,1-1.4,2,2.73,2.73,0,0,1-1.8.5,3.38,3.38,0,0,1-3.2-2.2c-.7-1.5-1-3.8-1-6.9s.3-5.2,1-6.6a3.34,3.34,0,0,1,3.2-2.1,3.57,3.57,0,0,1,3.2,2.2v-2Zm-7.2,8.6a16.81,16.81,0,0,0,.5,4.8,1.76,1.76,0,0,0,1.6,1.4c.7,0,1.2-.5,1.6-1.4a17.22,17.22,0,0,0,.5-4.6,17.53,17.53,0,0,0-.5-4.7c-.3-.9-.8-1.4-1.6-1.4a1.58,1.58,0,0,0-1.6,1.3A12.49,12.49,0,0,0,336.6,782.26Z"/><path class="cls-2" d="M347.5,762.56h3.2v28.5h-3.2Z"/><path class="cls-2" d="M106.6,803.76v28.5h-3.2v-2.2a6.87,6.87,0,0,1-1.4,2,2.73,2.73,0,0,1-1.8.5,3.38,3.38,0,0,1-3.2-2.2c-.7-1.5-1-3.8-1-6.9a22.09,22.09,0,0,1,.3-3.9,8.65,8.65,0,0,1,.8-2.7,5.34,5.34,0,0,1,1.3-1.6,3,3,0,0,1,1.9-.5,2.86,2.86,0,0,1,1.7.5,4.62,4.62,0,0,1,.7.7,5.25,5.25,0,0,1,.7,1.1V804h3.2Zm-7.2,19.7a16.81,16.81,0,0,0,.5,4.8,1.76,1.76,0,0,0,1.6,1.4c.7,0,1.2-.5,1.6-1.4a17.22,17.22,0,0,0,.5-4.6,17.53,17.53,0,0,0-.5-4.7c-.3-.9-.8-1.4-1.6-1.4a1.58,1.58,0,0,0-1.6,1.3C99.5,819.66,99.4,821.16,99.4,823.46Z"/><path class="cls-2" d="M116.9,826.36h3c-.2,4.1-1.9,6.1-5,6.1a6,6,0,0,1-2.4-.5,4.31,4.31,0,0,1-1.7-1.6,8.25,8.25,0,0,1-1-2.8,22.51,22.51,0,0,1-.3-4c0-3.1.4-5.3,1.3-6.8a4.3,4.3,0,0,1,4-2.2c3.5,0,5.2,3.1,5.2,9.2v.4h-7.3c0,3.7.7,5.6,2.2,5.6S116.9,828.66,116.9,826.36Zm-.1-4.5a10.71,10.71,0,0,0-.6-3.6,1.61,1.61,0,0,0-1.4-1,1.38,1.38,0,0,0-1.4,1,10.71,10.71,0,0,0-.6,3.6Z"/><path class="cls-2" d="M130.2,806.36h4.6a5.74,5.74,0,0,1,4.2,1.4,7.33,7.33,0,0,1,1.8,5.4,9.73,9.73,0,0,1-.9,4.5,4.09,4.09,0,0,1-2.7,2.1l4.8,12.6h-3.5l-4.7-12.7v12.6h-3.5v-25.9Zm3.5,11.4a3.87,3.87,0,0,0,2.9-.9c.6-.6.8-1.7.8-3.2a12.48,12.48,0,0,0-.2-2.1,3,3,0,0,0-.6-1.4,2.54,2.54,0,0,0-1-.8,3.19,3.19,0,0,0-1.4-.3h-.6v8.7Z"/><path class="cls-2" d="M154,814.86v17.4h-3.2v-2.2a6.87,6.87,0,0,1-1.4,2,2.73,2.73,0,0,1-1.8.5,3.38,3.38,0,0,1-3.2-2.2c-.7-1.5-1-3.8-1-6.9s.3-5.2,1-6.6a3.34,3.34,0,0,1,3.2-2.1,3.57,3.57,0,0,1,3.2,2.2v-2H154Zm-7.3,8.6a16.81,16.81,0,0,0,.5,4.8,1.76,1.76,0,0,0,1.6,1.4c.7,0,1.2-.5,1.6-1.4a17.22,17.22,0,0,0,.5-4.6,17.53,17.53,0,0,0-.5-4.7c-.3-.9-.8-1.4-1.6-1.4a1.58,1.58,0,0,0-1.6,1.3A14.73,14.73,0,0,0,146.7,823.46Z"/><path class="cls-2" d="M157.6,814.86h3.2v2a4.12,4.12,0,0,1,3.6-2.3,3.18,3.18,0,0,1,3,1.7,9.09,9.09,0,0,1,.5,3.6v12.4h-3.2v-11.6a5.14,5.14,0,0,0-.4-2.5,1.51,1.51,0,0,0-1.4-.7,2,2,0,0,0-.9.2.9.9,0,0,0-.6.6,3.54,3.54,0,0,0-.3,1.1,8.62,8.62,0,0,0-.1,1.7v11.2h-3.4Z"/><path class="cls-2" d="M178.6,815.26v3.3a2.09,2.09,0,0,0-1.6-.8c-1.8,0-2.6,1.9-2.6,5.7,0,4.1.9,6.1,2.6,6.1a2.47,2.47,0,0,0,1.6-.7v3a5.94,5.94,0,0,1-2.6.7c-3.4,0-5.2-2.9-5.2-8.8,0-3.1.4-5.4,1.3-6.9a4.3,4.3,0,0,1,4-2.2A3.88,3.88,0,0,1,178.6,815.26Z"/><path class="cls-2" d="M191.2,814.86v17.4H188v-2.2a6.87,6.87,0,0,1-1.4,2,2.73,2.73,0,0,1-1.8.5,3.38,3.38,0,0,1-3.2-2.2c-.7-1.5-1-3.8-1-6.9s.3-5.2,1-6.6a3.34,3.34,0,0,1,3.2-2.1A3.57,3.57,0,0,1,188,817v-2h3.2Zm-7.2,8.6a16.81,16.81,0,0,0,.5,4.8,1.76,1.76,0,0,0,1.6,1.4c.7,0,1.2-.5,1.6-1.4a17.22,17.22,0,0,0,.5-4.6,17.53,17.53,0,0,0-.5-4.7c-.3-.9-.8-1.4-1.6-1.4a1.58,1.58,0,0,0-1.6,1.3C184.1,819.66,184,821.16,184,823.46Z"/><path class="cls-2" d="M201.6,814.86h3.2v17.9a12.05,12.05,0,0,1-.6,4.5c-.8,1.5-2.4,2.3-4.7,2.3a4.92,4.92,0,0,1-3.7-1.3,4.84,4.84,0,0,1-1.3-3.6v-.5h3.1c0,1.8.7,2.8,2.1,2.8.7,0,1.3-.2,1.5-.7a5.32,5.32,0,0,0,.4-2.7v-3.3c-.7,1.6-1.7,2.4-3.1,2.4a3.34,3.34,0,0,1-3.2-2.1c-.7-1.4-1-3.6-1-6.6,0-3.2.3-5.5,1-7a3.33,3.33,0,0,1,3.2-2.2,2.86,2.86,0,0,1,1.7.5,7.47,7.47,0,0,1,1.4,1.8v-2.2Zm0,8.8c0-4.1-.7-6.2-2.1-6.2-.7,0-1.2.5-1.5,1.4a15.37,15.37,0,0,0-.5,4.5,17.85,17.85,0,0,0,.5,4.8,1.68,1.68,0,0,0,1.7,1.4c.7,0,1.2-.4,1.5-1.3A15.28,15.28,0,0,0,201.6,823.66Z"/><path class="cls-2" d="M208.4,814.86h3.2v11.6a4.35,4.35,0,0,0,.5,2.3,1.58,1.58,0,0,0,1.5.7,1.75,1.75,0,0,0,1.5-.6,4.09,4.09,0,0,0,.4-2.2v-11.8h3.2v10.4a17.15,17.15,0,0,1-.5,4.9c-.7,1.6-2.3,2.4-4.7,2.4a5.09,5.09,0,0,1-4-1.4c-.8-.9-1.2-2.5-1.2-4.7v-11.6Z"/><path class="cls-2" d="M232.2,814.86v17.4H229v-2.2a6.87,6.87,0,0,1-1.4,2,2.73,2.73,0,0,1-1.8.5,3.38,3.38,0,0,1-3.2-2.2c-.7-1.5-1-3.8-1-6.9s.3-5.2,1-6.6a3.34,3.34,0,0,1,3.2-2.1A3.57,3.57,0,0,1,229,817v-2h3.2Zm-7.2,8.6a16.81,16.81,0,0,0,.5,4.8,1.76,1.76,0,0,0,1.6,1.4c.7,0,1.2-.5,1.6-1.4a17.22,17.22,0,0,0,.5-4.6,17.53,17.53,0,0,0-.5-4.7c-.3-.9-.8-1.4-1.6-1.4a1.58,1.58,0,0,0-1.6,1.3A14.73,14.73,0,0,0,225,823.46Z"/><path class="cls-2" d="M47.1,790.56a9.2,9.2,0,1,0,9.2,9.2A9.18,9.18,0,0,0,47.1,790.56Zm20.5,6.9a20.62,20.62,0,0,0-18.2-18.2v-4.7H44.8v4.7a20.62,20.62,0,0,0-18.2,18.2H21.9v4.6h4.7a20.62,20.62,0,0,0,18.2,18.2V825h4.6v-4.7a20.62,20.62,0,0,0,18.2-18.2h4.7v-4.6Zm-20.5,18.3a16,16,0,1,1,16-16A16,16,0,0,1,47.1,815.76Z"/><g class="cls-7"><polygon class="cls-8" points="8.1 1171.26 58.2 1170.76 108.4 1170.46 208.6 1170.26 308.8 1170.46 359 1170.76 409.1 1171.26 359 1171.76 308.8 1172.06 208.6 1172.26 108.4 1172.06 58.2 1171.76 8.1 1171.26"/></g><path class="cls-9" d="M30.3,169.16v12.6H28.4v-12.6Z"/><path class="cls-9" d="M41.7,181.76v-13.4l9.2,9.6v-8.7h1.9v13.3L43.6,173v8.8Z"/><path class="cls-9" d="M67.6,171v10.8H65.7V171H62.8v-1.8h7.7V171Z"/><path class="cls-9" d="M87.4,171h-5v3h4.9v1.8H82.4V180h5v1.8H80.5v-12.6h6.9Z"/><path class="cls-9" d="M102.5,176.46l3.9,5.4h-2.3l-3.6-5.1h-.3v5.1H98.3v-12.6h2.2a5.57,5.57,0,0,1,3.6.9,3.49,3.49,0,0,1,1.2,2.8,3.57,3.57,0,0,1-.8,2.3A3.4,3.4,0,0,1,102.5,176.46Zm-2.3-1.5h.6q2.7,0,2.7-2.1c0-1.3-.9-1.9-2.6-1.9h-.7Z"/><path class="cls-9" d="M116.7,181.76v-13.4l9.2,9.6v-8.7h1.9v13.3l-9.2-9.6v8.8Z"/><path class="cls-9" d="M146.6,178.76h-5.4l-1.4,3.1h-2l6.2-13.4,6,13.4h-2.1Zm-.8-1.8-1.9-4.3-2,4.3Z"/><path class="cls-9" d="M168.6,169.86v2.2a5.33,5.33,0,0,0-3.4-1.4,4.53,4.53,0,0,0-3.3,1.4,4.67,4.67,0,0,0-1.3,3.4,4.45,4.45,0,0,0,1.3,3.3,4.53,4.53,0,0,0,3.3,1.4,4.31,4.31,0,0,0,1.7-.3c.3-.1.5-.3.8-.4a2.76,2.76,0,0,0,.9-.7v2.3a6.92,6.92,0,0,1-3.4.9,6.49,6.49,0,0,1-6.5-6.5,6.39,6.39,0,0,1,1.6-4.3,6.47,6.47,0,0,1,5.1-2.3A8.43,8.43,0,0,1,168.6,169.86Z"/><path class="cls-9" d="M181.2,169.16v12.6h-1.9v-12.6Z"/><path class="cls-9" d="M191.9,175.46a6.19,6.19,0,0,1,1.9-4.6,6.26,6.26,0,0,1,4.7-1.9,6.51,6.51,0,0,1,4.6,11.1,6.41,6.41,0,0,1-4.7,1.9,6.75,6.75,0,0,1-4.4-1.7A6,6,0,0,1,191.9,175.46Zm1.9,0a4.6,4.6,0,0,0,1.4,3.4,4.38,4.38,0,0,0,3.2,1.3,4.53,4.53,0,0,0,3.3-1.4,4.6,4.6,0,0,0,1.4-3.4,4.67,4.67,0,0,0-1.3-3.4,4.59,4.59,0,0,0-6.6,0A5.37,5.37,0,0,0,193.8,175.46Z"/><path class="cls-9" d="M215.8,181.76v-13.4L225,178v-8.7h1.9v13.3l-9.2-9.6v8.8Z"/><path class="cls-9" d="M245.7,178.76h-5.4l-1.4,3.1h-2l6.2-13.4,6,13.4H247Zm-.8-1.8-1.9-4.3-2,4.3Z"/><path class="cls-9" d="M260.9,169.16V180h3.7v1.8H259v-12.6Z"/><path class="cls-9" d="M137.2,132.76l20.4,29.3h13.6L150.8,134a20.71,20.71,0,0,1-5,.5A22.74,22.74,0,0,1,137.2,132.76Z"/><circle class="cls-10" cx="185.8" cy="97.36" r="9"/><path class="cls-9" d="M179.2,112v50.1h13.1V112a17.62,17.62,0,0,1-6.6,1.2A19.74,19.74,0,0,1,179.2,112Z"/><path class="cls-11" d="M149,123c.1,0,.3-.1.4-.1A.6.6,0,0,0,149,123Z"/><path class="cls-10" d="M148.5,123.06c.2,0,.3-.1.4-.1A.76.76,0,0,0,148.5,123.06Z"/><path class="cls-10" d="M145.9,88.36H123v10.8h23.2a12,12,0,0,1,12,12,12.27,12.27,0,0,1-8.7,11.7c-.1,0-.3.1-.4.1s-.3.1-.4.1a11.94,11.94,0,0,1-14.6-11.6h-11a22.93,22.93,0,0,0,11.1,19.7,19.12,19.12,0,0,0,3.2,1.6,22.74,22.74,0,0,0,8.6,1.7,27.34,27.34,0,0,0,5-.5,23.08,23.08,0,0,0-5.1-45.6Z"/><path class="cls-9" d="M122.9,111.46V162H134v-30.9A22.73,22.73,0,0,1,122.9,111.46Z"/><path class="cls-9" d="M84.9,151.46v-25.2c-1-.1-7.4-.3-9.5,3a11.49,11.49,0,0,0-1.7,4.1c.1-17.1,4.3-16.9,11.2-16.8V98.46l-7.1.6-4.1,4.6v29.8h0v28.6h36.7v-10.5H84.9Z"/><path class="cls-9" d="M39.5,162V127c-1-.1-7.4-.3-9.4,3a14.19,14.19,0,0,0-1.7,4v28Z"/><path class="cls-9" d="M30.2,102.06a13.75,13.75,0,0,0-1.7,4.2v27.6c0-17.3,3.2-17.4,11.1-17.4V99C37.5,99.16,32.4,98.46,30.2,102.06Z"/><path class="cls-10" d="M39.6,116.56h0c-7.9,0-11.2,0-11.2,17.4a14.19,14.19,0,0,1,1.7-4c2-3.2,8.4-3,9.4-3H64.1v-10.4Z"/><path class="cls-10" d="M39.9,88.36c-8.1,0-11.4.1-11.4,17.9h0a19.44,19.44,0,0,1,1.7-4.2c2.3-3.6,7.3-2.9,9.3-2.9H65.1V88.36Z"/><path class="cls-10" d="M85.2,88.46c-8.1,0-11.4.1-11.4,17.9h0a19.44,19.44,0,0,1,1.7-4.2c2.3-3.6,7.3-2.9,9.3-2.9h25.6V88.36C104.5,88.36,88.5,88.46,85.2,88.46Z"/><path class="cls-10" d="M85.2,116.06c-8.1,0-11.4.1-11.4,17.9h0a19.44,19.44,0,0,1,1.7-4.2c2.3-3.6,7.3-2.9,9.3-2.9h25.6v-10.8Z"/><path class="cls-9" d="M218.9,110.36,197.1,162h14.2l20.3-48.4C228,102.06,218.9,110.36,218.9,110.36Z"/><path class="cls-10" d="M235.3,88.36h-6.7l-9.6,22s9.1-8.3,12.8,3.2c.7,2,18.8,48.4,18.8,48.4h14Z"/><polygon class="cls-9" points="84.8 189.46 84.8 192.16 84.8 223.96 89.5 223.96 89.5 200.66 89.5 189.46 84.8 189.46"/><polygon class="cls-9" points="108.4 189.46 108.4 212.76 108.4 223.86 113.1 223.86 113.1 221.16 113.1 189.46 108.4 189.46"/><path class="cls-10" d="M111.4,217.06c-1.3.4-2.8-.7-3.6-1.3l-7.1-11h0c-2-3.1-7-10.8-7.8-12.1-1.1-1.8-2-3-3.4-3.1H84.8v7.7a5.08,5.08,0,0,1,1.8-.9,3.33,3.33,0,0,1,2.8.8l7.4,11.5h0c2,3.1,7,10.8,7.9,12.1,1.2,1.9,2.1,3.2,3.7,3.2h4.7v-7.8A5.56,5.56,0,0,1,111.4,217.06Z"/><path class="cls-9" d="M35.3,210.26,44.8,224h6.4l-9.5-13.1a9.08,9.08,0,0,1-2.3.3A9.46,9.46,0,0,1,35.3,210.26Z"/><path class="cls-9" d="M28.9,200.36V224h5.2v-14.3A11,11,0,0,1,28.9,200.36Z"/><path class="cls-10" d="M39.3,189.46H28.9v5.2H39.3a5.6,5.6,0,1,1-5.4,5.6h-5a11,11,0,0,0,5,9.3c.5.3.9.5,1.5.8a10.06,10.06,0,0,0,3.9.8,9.08,9.08,0,0,0,2.3-.3,10.87,10.87,0,0,0-2.3-21.4Z"/><path class="cls-10" d="M233.2,208.86v-17.1h-4.9v19.4c0,2.8-.5,4.8-1.4,6.1a6.22,6.22,0,0,1-3.2,2.4C229.8,218,233.2,210.16,233.2,208.86Z"/><path class="cls-9" d="M233.2,208.86c0,1.3-3.4,9-9.5,10.8a6.37,6.37,0,0,1-.7.2h-.2a4.33,4.33,0,0,0-.5.1h-2.1c-.3,0-.5-.1-.8-.1a6,6,0,0,1-4.3-3.1h0a10.19,10.19,0,0,1-1-4.9v-20h-4.9v20.7a13.44,13.44,0,0,0,.8,4.6c0,.1.1.1.1.2l.3.6a8.94,8.94,0,0,0,.9,1.6c.1.1.1.2.2.3s.2.3.3.4.4.5.6.7a6.47,6.47,0,0,0,.9.8h0a12.74,12.74,0,0,0,1.9,1.3c.1,0,.1.1.2.1.3.1.5.3.8.4.1.1.2.1.4.2s.5.2.7.3.3.1.4.1c.3.1.5.1.8.2a.37.37,0,0,1,.3.1,3.08,3.08,0,0,0,1,.1h.1c.4,0,.8.1,1.2.1a11.85,11.85,0,0,0,6.8-2c.1,0,.1-.1.2-.2s.4-.3.6-.4a1.38,1.38,0,0,1,.4-.3c.3-.2.5-.5.8-.7a11.71,11.71,0,0,0,3.2-8.4v-3.8Z"/><path class="cls-10" d="M134.4,224.56a17,17,0,0,0,7.1-2.3v-5.9a17,17,0,0,1-2.3,1.7,10.6,10.6,0,0,1-2.1,1.1,9.63,9.63,0,0,1-4.4.8,11.48,11.48,0,0,1-8.4-3.5,11,11,0,0,1-1.9-2.5C125.7,220.16,133.1,224.46,134.4,224.56Z"/><path class="cls-9" d="M116.1,207.86a16.56,16.56,0,0,0,2.2,8.7c.1.1.1.2.2.3a4.23,4.23,0,0,0,.5.7c.1.2.2.3.3.5a7,7,0,0,0,.8,1,18.43,18.43,0,0,0,8.8,5.1,16.48,16.48,0,0,0,5.6.3c-1.4,0-11.2-5.7-13.1-13.5-.1-.3-.1-.6-.2-.9v-.2c0-.2-.1-.5-.1-.7v-1.4a12,12,0,0,1,3.4-8.5,11,11,0,0,1,8.4-3.6c.8,0,4.5-.1,8.7,3.5v-5.8a15.73,15.73,0,0,0-8.4-2.4,16.19,16.19,0,0,0-12.9,5.9A16.9,16.9,0,0,0,116.1,207.86Z"/><path class="cls-9" d="M181.2,214.06l.1.1a11.7,11.7,0,0,1-1.6-6.2,12,12,0,0,1,12.1-12.2c3.8,0,7,1.8,9.7,5.3l3.5-3.3a20.69,20.69,0,0,0-6.1-5,16.61,16.61,0,0,0-7-1.5,16.73,16.73,0,0,0-16.8,16.8,16.31,16.31,0,0,0,4.8,11.8,15.57,15.57,0,0,0,11.6,4.9,13.4,13.4,0,0,0,2-.1C191.7,224.26,184.4,220.06,181.2,214.06Z"/><path class="cls-10" d="M193,207.26v4.6h8v.4a4.4,4.4,0,0,1-.2,1,8.63,8.63,0,0,1-2.3,3.9l-.2.2-.2.2c-.1.1-.2.1-.2.2s-.2.2-.3.2a2.18,2.18,0,0,0-.5.4,2.09,2.09,0,0,1-.6.4h0c-.1.1-.2.1-.3.2a8.72,8.72,0,0,1-4.4,1.2h-.2a12.31,12.31,0,0,1-2-.2,10.66,10.66,0,0,1-4.6-2.1c-.1-.1-.3-.2-.4-.3s-.2-.1-.3-.2-.4-.3-.5-.5l-.1-.1-.1-.1c-.5-.5-1-1-1.5-1.6V215c-.2-.2-.3-.5-.5-.7h0l-.1-.1c3.1,6.1,10.4,10.3,11.9,10.5a14.44,14.44,0,0,0,4.2-1.1c.1,0,.2-.1.3-.1l1.2-.6a.1.1,0,0,0,.1-.1,8.34,8.34,0,0,0,1.2-.8l.1-.1.1-.1c.3-.3.7-.5,1-.8l.3-.3.3-.3a15.09,15.09,0,0,0,3.8-7.2v-.1c.1-.3.1-.7.2-1,.1-.6.1-1.1.2-1.7v-3.1Z"/><path class="cls-9" d="M62.3,199.86,52.1,224h6.7l9.5-22.6C66.5,196,62.3,199.86,62.3,199.86Z"/><path class="cls-10" d="M69.9,189.56H66.8l-4.5,10.3s4.2-3.9,6,1.5c.3.9,8.8,22.6,8.8,22.6h6.5Z"/><path class="cls-9" d="M153.5,199.86,143.3,224H150l9.5-22.6C157.7,196,153.5,199.86,153.5,199.86Z"/><path class="cls-10" d="M161.1,189.56H158l-4.5,10.3s4.2-3.9,6,1.5c.3.9,8.8,22.6,8.8,22.6h6.6Z"/><path class="cls-9" d="M243.2,199.86,233,224h6.7l9.5-22.6C247.5,196,243.2,199.86,243.2,199.86Z"/><path class="cls-10" d="M250.9,189.56h-3.1l-4.5,10.3s4.2-3.9,6,1.5c.3.9,8.8,22.6,8.8,22.6h6.6Z"/><path class="cls-5" d="M307.9,53.76a33.3,33.3,0,0,1,4-16l-7.6-3.9h0a43.06,43.06,0,0,0,11.8,54h0l5.3-6.7A34.73,34.73,0,0,1,307.9,53.76Z"/><path class="cls-5" d="M380.3,34l-7.7,3.9a33.7,33.7,0,0,1,3.9,15.9,34.47,34.47,0,0,1-13.2,27.1l5.3,6.9a42.83,42.83,0,0,0,16.7-33.9A44.09,44.09,0,0,0,380.3,34Z"/><path class="cls-5" d="M342.1,88h0a33.83,33.83,0,0,1-19.8-6.3l-5.4,6.7a42.44,42.44,0,0,0,25.2,8.2,42.9,42.9,0,0,0,25.4-8.3l-5.4-6.8A33.69,33.69,0,0,1,342.1,88Z"/><path class="cls-5" d="M309.2,53.76a33,33,0,1,0,59.7-19.4h0l7.1-6.5c-10.2-12.6-26.2-14.6-31.9-14.9h2V9.86h-7.6V13h1.8a47,47,0,0,0-32.2,14.9l7.4,6.6A33,33,0,0,0,309.2,53.76Z"/><path class="cls-5" d="M285.6,71.76l11.4-2.4L290.8,76l9.1.3-9.7,6.3-.6-1.5,5.5-3.4-7.6-.2,5.2-5.5-6.3,1.4Z"/><path class="cls-5" d="M297.8,88.46l-2.7-4a2,2,0,0,0-.8,1.2,1.59,1.59,0,0,0,.3,1.3,1.56,1.56,0,0,0,.8.6,4.51,4.51,0,0,0,1.3.1l.1,1.5h-1.1a1.61,1.61,0,0,1-.9-.3,3.51,3.51,0,0,1-.8-.5,4.35,4.35,0,0,1-.6-.7,3,3,0,0,1-.6-2.5,3.45,3.45,0,0,1,1.6-2.2,3.69,3.69,0,0,1,2.6-.7,2.79,2.79,0,0,1,2.1,1.4,2.84,2.84,0,0,1,.5,2.5,3.8,3.8,0,0,1-1.7,2.2Zm.2-2a1.42,1.42,0,0,0,.1-2,.78.78,0,0,0-.4-.4.76.76,0,0,0-.5-.2.9.9,0,0,0-.5-.1.75.75,0,0,0-.5.1Z"/><path class="cls-5" d="M308.9,87.86,310,89l-8.4,8-1.1-1.1.5-.5a2.72,2.72,0,0,1-2.1-.9,2.86,2.86,0,0,1-.8-2.3,4,4,0,0,1,1.2-2.4,3.81,3.81,0,0,1,2.4-1.1,3.17,3.17,0,0,1,2.3.9,2.8,2.8,0,0,1,.7,2.2Zm-8.5,3a2.25,2.25,0,0,0-.8,1.4,1.55,1.55,0,0,0,.5,1.4,2,2,0,0,0,1.4.6,2.08,2.08,0,0,0,1.5-.7,2.54,2.54,0,0,0,.8-1.4,1.87,1.87,0,0,0-.5-1.4,1.82,1.82,0,0,0-1.4-.6A2.63,2.63,0,0,0,300.4,90.86Z"/><path class="cls-5" d="M309,94.56l-4.3,5.1-1.2-1,4.3-5.1Zm.5-3.3a.91.91,0,0,1,.7-.3,1.45,1.45,0,0,1,.7.2,1.61,1.61,0,0,1,.4.7,1.45,1.45,0,0,1-.2.7c-.1.2-.4.3-.7.4a1.45,1.45,0,0,1-.7-.2,1.61,1.61,0,0,1-.4-.7A.83.83,0,0,1,309.5,91.26Z"/><path class="cls-5" d="M314.6,98.56l1.3.9-3.7,5.6-1.3-.9.4-.6a3.14,3.14,0,0,1-2.2-.4,3.08,3.08,0,0,1-1.4-2.1,3.57,3.57,0,0,1,.7-2.6,4,4,0,0,1,2.1-1.6,2.92,2.92,0,0,1,2.4.4,2.76,2.76,0,0,1,1.2,2Zm-4.9.8a2,2,0,0,0-.4,1.6,1.48,1.48,0,0,0,.8,1.2,2.06,2.06,0,0,0,1.5.3,2.12,2.12,0,0,0,1.3-1,2.28,2.28,0,0,0,.4-1.6,2,2,0,0,0-.8-1.3,1.4,1.4,0,0,0-1.4-.2A1.87,1.87,0,0,0,309.7,99.36Z"/><path class="cls-5" d="M321.2,96.66,315.9,107l-1.4-.7L319.8,96Z"/><path class="cls-5" d="M322.1,102.46l-1.4,3.6c-.4,1-.2,1.7.6,2s1.4,0,1.8-1.1l1.4-3.6,1.4.6-1.4,3.6a3.46,3.46,0,0,1-.7,1.2,1.7,1.7,0,0,1-1,.6,3,3,0,0,1-2.1-.1,3,3,0,0,1-1.6-1.3,2.61,2.61,0,0,1-.3-1.1,5,5,0,0,1,.3-1.4l1.4-3.6Z"/><path class="cls-5" d="M327.8,104.46l1.5.3-.1.6a2.82,2.82,0,0,1,2-.4,2.16,2.16,0,0,1,1.6,1.1,2.89,2.89,0,0,1,.1,2.1l-.9,4-1.5-.3.8-3.6c.1-.6.2-1.1,0-1.4s-.4-.5-.9-.6a1.25,1.25,0,0,0-1.2.3,3.43,3.43,0,0,0-.7,1.6l-.7,3.2-1.5-.3Z"/><path class="cls-5" d="M340.2,106.36l1.5.1-.4,6.7-1.5-.1v-.7a3.09,3.09,0,0,1-2.1.8,2.75,2.75,0,0,1-2.2-1.2,3.34,3.34,0,0,1-.7-2.6,3.39,3.39,0,0,1,1.1-2.4,3.17,3.17,0,0,1,2.3-.9,2.72,2.72,0,0,1,2,1.1Zm-3.9,3.1a2.73,2.73,0,0,0,.4,1.6,1.71,1.71,0,0,0,1.3.7,1.74,1.74,0,0,0,1.4-.5,2,2,0,0,0,.6-1.5,2.73,2.73,0,0,0-.4-1.6,1.71,1.71,0,0,0-1.3-.7,1.87,1.87,0,0,0-1.4.5A3.39,3.39,0,0,0,336.3,109.46Z"/><path class="cls-5" d="M352.2,107.66l4,3.9-1.9.3-3.7-3.7-.3.1.8,4.3-1.6.3-1.9-10.6,1.8-.3c1.4-.2,2.4-.2,3.1.3a2.79,2.79,0,0,1,1.4,2.1,3.4,3.4,0,0,1-.3,2A3.53,3.53,0,0,1,352.2,107.66Zm-2.2-.9.5-.1c1.5-.3,2.1-1,1.9-2.1s-1-1.5-2.5-1.2l-.6.1Z"/><path class="cls-5" d="M360.6,103l1.5-.5,2.2,6.3-1.5.5-.2-.7a2.76,2.76,0,0,1-1.7,1.5,3.1,3.1,0,0,1-2.5-.2,3.59,3.59,0,0,1-1.7-2.1,4.16,4.16,0,0,1,0-2.7,2.78,2.78,0,0,1,1.8-1.7,2.7,2.7,0,0,1,2.3.2Zm-2.4,4.4a2.21,2.21,0,0,0,1,1.3,1.6,1.6,0,0,0,1.5.1,1.82,1.82,0,0,0,1.1-1,2.52,2.52,0,0,0-1-2.9,1.6,1.6,0,0,0-1.5-.1,1.82,1.82,0,0,0-1.1,1A4.29,4.29,0,0,0,358.2,107.36Z"/><path class="cls-5" d="M363.8,101.66l1.4-.7.3.5a2.76,2.76,0,0,1,1.2-1.6,2.37,2.37,0,0,1,2-.2,3.54,3.54,0,0,1,1.5,1.5l1.9,3.6-1.4.7-1.7-3.3a2.64,2.64,0,0,0-.9-1.1,1.21,1.21,0,0,0-1,.1,1,1,0,0,0-.7,1,5.06,5.06,0,0,0,.5,1.7l1.5,2.9-1.4.7Z"/><path class="cls-5" d="M374.9,95.16l1.2,1.7a8.32,8.32,0,0,0-1.3-.2,1.22,1.22,0,0,0-.9.4,1.83,1.83,0,0,0-.8,1.3,2.28,2.28,0,0,0,.4,1.6,2.16,2.16,0,0,0,1.4.9,2.06,2.06,0,0,0,1.5-.3,2.7,2.7,0,0,0,.7-.8,8.57,8.57,0,0,0,.3-1.3l1.2,1.7a4.43,4.43,0,0,1-1.2,1.5,3.7,3.7,0,0,1-2.7.7,3.15,3.15,0,0,1-2.3-1.4,3.25,3.25,0,0,1-.6-2.7,3.84,3.84,0,0,1,1.5-2.4A2.39,2.39,0,0,1,374.9,95.16Z"/><path class="cls-5" d="M379.4,90.66l1.1-1.1,4.6,4.8-1.1,1.1-.5-.5a2.58,2.58,0,0,1-.9,2.1,3.34,3.34,0,0,1-2.3.9,4,4,0,0,1-2.4-1.2,3.36,3.36,0,0,1-1.1-2.4,3.17,3.17,0,0,1,.9-2.3,3.29,3.29,0,0,1,2.2-.8Zm-.3,4.9a2.24,2.24,0,0,0,1.5.8,1.87,1.87,0,0,0,1.4-.5,2,2,0,0,0,.6-1.4,2.57,2.57,0,0,0-.7-1.5,2.24,2.24,0,0,0-1.5-.8,1.87,1.87,0,0,0-1.4.5,1.47,1.47,0,0,0-.5,1.4A1.72,1.72,0,0,0,379.1,95.56Z"/><path class="cls-5" d="M390.9,86.86a3.81,3.81,0,0,1,.6.5l.5.5a3.29,3.29,0,0,1,.7,1.3,2.86,2.86,0,0,1-.7,2.6,3,3,0,0,1-1.9,1.3,3.18,3.18,0,0,1-2.3-.4l.9-1.2a1.34,1.34,0,0,0,.8.2,1.71,1.71,0,0,0,1.3-.7c.7-.9.5-1.8-.6-2.6l-.7-.6a2.93,2.93,0,0,1-2.6,3.5,3.42,3.42,0,0,1-2.5-.8,3.78,3.78,0,0,1-1.5-2.1,2.84,2.84,0,0,1,.5-2.5,2.72,2.72,0,0,1,2-1.1l-.6-.5.9-1.2Zm-3.4-.7a1.94,1.94,0,0,0-1.6-.5,1.71,1.71,0,0,0-1.3.7,1.43,1.43,0,0,0-.3,1.5,2.22,2.22,0,0,0,.9,1.3,2.26,2.26,0,0,0,1.5.5A1.71,1.71,0,0,0,388,89a1.43,1.43,0,0,0,.3-1.5A2,2,0,0,0,387.5,86.16Z"/><path class="cls-5" d="M387.4,80l3.4,1.8c1,.5,1.7.4,2.1-.4s.1-1.4-.8-1.9l-3.4-1.8.7-1.4,3.4,1.8a5.22,5.22,0,0,1,1.1.8,2.73,2.73,0,0,1,.2,3.1,2.88,2.88,0,0,1-1.5,1.4,2.54,2.54,0,0,1-1.2.2,3.07,3.07,0,0,1-1.3-.5l-3.4-1.8Z"/><path class="cls-5" d="M391.8,70l.5-1.5,6.3,2.2-.5,1.5-.7-.2a2.87,2.87,0,0,1,.2,2.2,2.78,2.78,0,0,1-1.7,1.8,4.15,4.15,0,0,1-2.7,0,3.92,3.92,0,0,1-2.1-1.7,3.1,3.1,0,0,1-.2-2.5,3.29,3.29,0,0,1,1.6-1.7Zm1.9,4.5a2.19,2.19,0,0,0,1.6,0,1.91,1.91,0,0,0,.9-2.6,2.52,2.52,0,0,0-2.9-1,1.82,1.82,0,0,0-1,1.1,2,2,0,0,0,.1,1.5A2.21,2.21,0,0,0,393.7,74.46Z"/><path class="cls-4" d="M329.7,37.46h-5v-2.7h9.9l-6.9,12h-3.5Z"/><path class="cls-4" d="M339.7,41.36h4.6v2.4h-4.6Z"/><path class="cls-4" d="M352.9,40.46a2.67,2.67,0,0,1-1.9-2.7,3.19,3.19,0,0,1,.3-1.4,4.44,4.44,0,0,1,.8-1.1,5.39,5.39,0,0,1,1.3-.7,4.68,4.68,0,0,1,1.7-.2,8.81,8.81,0,0,1,1.7.2,5.39,5.39,0,0,1,1.3.7,2.84,2.84,0,0,1,.8,1.1,3.19,3.19,0,0,1,.3,1.4,2.77,2.77,0,0,1-.1.9,4.88,4.88,0,0,1-.3.7l-.6.6a4.05,4.05,0,0,1-.9.5,3.34,3.34,0,0,1,2.5,3.1,3.19,3.19,0,0,1-.3,1.4,2.59,2.59,0,0,1-1,1.1,5.3,5.3,0,0,1-1.5.8,5.66,5.66,0,0,1-1.8.3,5.23,5.23,0,0,1-1.8-.3,6.89,6.89,0,0,1-1.5-.7,5.24,5.24,0,0,1-1-1.1,3.26,3.26,0,0,1-.4-1.4C350.5,42.16,351.3,41.16,352.9,40.46Zm.8,2.8a1.27,1.27,0,0,0,.1.6c.1.2.2.3.3.5a2.19,2.19,0,0,0,.5.3,1.85,1.85,0,0,0,1.2,0c.2-.1.3-.2.5-.3a2.19,2.19,0,0,0,.3-.5,1.27,1.27,0,0,0,.1-.6,1.41,1.41,0,0,0-2.4-1A1,1,0,0,0,353.7,43.26Zm.1-5.4a1.28,1.28,0,0,0,.4,1,1.22,1.22,0,0,0,.9.4.75.75,0,0,0,.5-.1,1.38,1.38,0,0,0,.4-.3c.1-.1.2-.3.3-.4a.9.9,0,0,0,.1-.5,1,1,0,0,0-.4-.9,1.22,1.22,0,0,0-.9-.4,1,1,0,0,0-.9.4A.91.91,0,0,0,353.8,37.86Z"/><path class="cls-4" d="M324.3,59.66V49h2.8l5.1,6.5V49h2.7v10.6h-2.7l-5.1-6.5v6.5h-2.8Z"/><path class="cls-4" d="M336.7,54.26a5.38,5.38,0,0,1,.4-2.2,5.52,5.52,0,0,1,3-3,6.05,6.05,0,0,1,2.4-.4,6.37,6.37,0,0,1,2.4.4,7.61,7.61,0,0,1,1.9,1.2,5.67,5.67,0,0,1,1.2,1.8,6.25,6.25,0,0,1,0,4.4,5.67,5.67,0,0,1-1.2,1.8,5.16,5.16,0,0,1-1.9,1.2,7.4,7.4,0,0,1-4.8,0,5.52,5.52,0,0,1-3-3A7.19,7.19,0,0,1,336.7,54.26Zm2.9,0a5,5,0,0,0,.2,1.2,3.49,3.49,0,0,0,.6.9,2.36,2.36,0,0,0,.9.6,4.25,4.25,0,0,0,1.1.2,3.59,3.59,0,0,0,1.1-.2,2.07,2.07,0,0,0,1-.6,5.5,5.5,0,0,0,.7-.9,2.34,2.34,0,0,0,.2-1.2,5,5,0,0,0-.2-1.2,2.18,2.18,0,0,0-.7-.9,2.07,2.07,0,0,0-1-.6,4.25,4.25,0,0,0-1.1-.2,3.59,3.59,0,0,0-1.1.2,1.46,1.46,0,0,0-.9.6,2.36,2.36,0,0,0-.6.9A5,5,0,0,0,339.6,54.26Z"/><path class="cls-4" d="M351.6,49l2.6,6.5,2.6-6.5h3l-4.5,10.6h-2.2L348.6,49Z"/><g class="cls-12"><path class="cls-4" d="M327.6,72.56h4.1v1.6h-7.5l3.9-4.7c.4-.5.7-.9,1-1.2a4.42,4.42,0,0,0,1-2.1,1.9,1.9,0,0,0-.5-1.3,1.74,1.74,0,0,0-1.4-.5c-1.1,0-1.8.7-1.9,2h-1.7c.3-2.3,1.5-3.5,3.6-3.5a3.54,3.54,0,0,1,2.6,1,3,3,0,0,1,1,2.4,4.07,4.07,0,0,1-.5,1.8c-.2.3-.4.7-.7,1.1s-.7.9-1.2,1.5Z"/><path class="cls-4" d="M333.7,68.46a6.56,6.56,0,0,1,1.2-4.2,3.08,3.08,0,0,1,2.7-1.4,3.46,3.46,0,0,1,2.7,1.4,7.07,7.07,0,0,1,1.2,4.3,6.87,6.87,0,0,1-1.2,4.3,3.08,3.08,0,0,1-2.7,1.4,3.62,3.62,0,0,1-2.7-1.4A7,7,0,0,1,333.7,68.46Zm1.6,0a7.14,7.14,0,0,0,.6,3.1,1.88,1.88,0,0,0,1.6,1.2,1.77,1.77,0,0,0,1.6-1.2,7.8,7.8,0,0,0,0-6,1.88,1.88,0,0,0-1.6-1.2,1.77,1.77,0,0,0-1.6,1.2A6.53,6.53,0,0,0,335.3,68.46Z"/><path class="cls-4" d="M345.8,72.56h4.1v1.6h-7.5l3.9-4.7c.4-.5.7-.9,1-1.2a4.42,4.42,0,0,0,1-2.1,1.9,1.9,0,0,0-.5-1.3,1.74,1.74,0,0,0-1.4-.5c-1.1,0-1.8.7-1.9,2h-1.7c.3-2.3,1.5-3.5,3.6-3.5a3.54,3.54,0,0,1,2.6,1,3,3,0,0,1,1,2.4,4.07,4.07,0,0,1-.5,1.8c-.2.3-.4.7-.7,1.1s-.7.9-1.2,1.5Z"/><path class="cls-4" d="M351.9,68.46a6.56,6.56,0,0,1,1.2-4.2,3.08,3.08,0,0,1,2.7-1.4,3.46,3.46,0,0,1,2.7,1.4,7.07,7.07,0,0,1,1.2,4.3,6.87,6.87,0,0,1-1.2,4.3,3.08,3.08,0,0,1-2.7,1.4,3.62,3.62,0,0,1-2.7-1.4A7,7,0,0,1,351.9,68.46Zm1.6,0a7.14,7.14,0,0,0,.6,3.1,1.88,1.88,0,0,0,1.6,1.2,1.77,1.77,0,0,0,1.6-1.2,7.8,7.8,0,0,0,0-6,1.88,1.88,0,0,0-1.6-1.2,1.77,1.77,0,0,0-1.6,1.2A8.28,8.28,0,0,0,353.5,68.46Z"/></g><path class="cls-9" d="M28.3,645.36h9.2a10.3,10.3,0,0,1,4.6,1,12.33,12.33,0,0,1,3.7,2.6,12,12,0,0,1,2.5,3.8,11.79,11.79,0,0,1,.9,4.6,11.3,11.3,0,0,1-.9,4.5,11.82,11.82,0,0,1-10.8,7.4H28.3Zm6.2,18.7h1.4a8.81,8.81,0,0,0,2.9-.5,5.18,5.18,0,0,0,2.1-1.4,5.71,5.71,0,0,0,1.3-2.1,7.63,7.63,0,0,0,.5-2.7,8.08,8.08,0,0,0-.5-2.7,7.43,7.43,0,0,0-1.3-2.1,6,6,0,0,0-2.1-1.4,8.36,8.36,0,0,0-2.9-.5H34.5Z"/><path class="cls-9" d="M52.1,657.36a12.08,12.08,0,0,1,1-5,14.08,14.08,0,0,1,2.7-4,13.58,13.58,0,0,1,9.5-3.7,13.17,13.17,0,0,1,5.3,1,11.66,11.66,0,0,1,4.2,2.7,10.9,10.9,0,0,1,2.7,4,11.76,11.76,0,0,1,1,5,12.08,12.08,0,0,1-1,5,14.08,14.08,0,0,1-2.7,4,13.58,13.58,0,0,1-9.5,3.7,13.17,13.17,0,0,1-5.3-1,11.66,11.66,0,0,1-4.2-2.7,10.9,10.9,0,0,1-2.7-4A13.93,13.93,0,0,1,52.1,657.36Zm6.5,0a7.08,7.08,0,0,0,.5,2.6,6.23,6.23,0,0,0,1.5,2.1,6,6,0,0,0,2.1,1.4,7,7,0,0,0,7.4-1.4,8,8,0,0,0,1.5-2.1,5.75,5.75,0,0,0,.5-2.6,7.51,7.51,0,0,0-.5-2.6,8,8,0,0,0-1.5-2.1,5.55,5.55,0,0,0-2.2-1.4,7,7,0,0,0-5.2,0,6,6,0,0,0-2.1,1.4,8,8,0,0,0-1.5,2.1A7.08,7.08,0,0,0,58.6,657.36Z"/><path class="cls-9" d="M82.6,669.36v-23.9h6.2l11.5,14.6v-14.6h6.2v23.9h-6.2l-11.5-14.6v14.6Z"/><path class="cls-9" d="M111.5,645.36h9.2a10.3,10.3,0,0,1,4.6,1A12.33,12.33,0,0,1,129,649a12,12,0,0,1,2.5,3.8,11.79,11.79,0,0,1,.9,4.6,11.3,11.3,0,0,1-.9,4.5,12.12,12.12,0,0,1-6.2,6.4,10.3,10.3,0,0,1-4.6,1h-9.2Zm6.2,18.7h1.4a8.81,8.81,0,0,0,2.9-.5,5.18,5.18,0,0,0,2.1-1.4,5.71,5.71,0,0,0,1.3-2.1,7.63,7.63,0,0,0,.5-2.7,8.08,8.08,0,0,0-.5-2.7,7.43,7.43,0,0,0-1.3-2.1,6,6,0,0,0-2.1-1.4,8.36,8.36,0,0,0-2.9-.5h-1.4Z"/><path class="cls-9" d="M150,650.66h-7.4v4h7V660h-7v4.1H150v5.3H136.4v-23.9H150Z"/><path class="cls-9" d="M157.1,663.26h5.4l-5.8,10.5H153Z"/><path class="cls-9" d="M194.9,653.36a6.4,6.4,0,0,0-5.3-2.6,7.51,7.51,0,0,0-2.6.5,4.83,4.83,0,0,0-2,1.4,5.71,5.71,0,0,0-1.3,2.1,7.51,7.51,0,0,0-.5,2.6,7.08,7.08,0,0,0,.5,2.6,6,6,0,0,0,1.4,2.1,6.61,6.61,0,0,0,2,1.4,7,7,0,0,0,2.5.5,7.21,7.21,0,0,0,5.4-2.5v7.4l-.6.2a15.4,15.4,0,0,1-2.7.7,9.74,9.74,0,0,1-2.4.2,12.29,12.29,0,0,1-4.7-.9,13.13,13.13,0,0,1-4-2.6,12.62,12.62,0,0,1,0-18.2,13.13,13.13,0,0,1,4-2.6,12.8,12.8,0,0,1,4.8-.9,12.65,12.65,0,0,1,2.8.3,19,19,0,0,1,2.9.9v7.4Z"/><path class="cls-9" d="M205,645.36v13a14.77,14.77,0,0,0,.1,2.1,6.53,6.53,0,0,0,.5,2,3,3,0,0,0,1.3,1.4,4.27,4.27,0,0,0,6.1-1.4,6.53,6.53,0,0,0,.5-2,14.77,14.77,0,0,0,.1-2.1v-13h6.2v13.9c0,3.7-.9,6.4-2.6,8.2s-4.3,2.6-7.9,2.6-6.2-.9-7.9-2.6-2.6-4.4-2.6-8.2v-13.9Z"/><path class="cls-9" d="M238.5,665.16h-8.9l-1.4,4.2h-6.6l9.1-23.9h6.8l9.1,23.9H240Zm-1.6-4.7-2.8-8-2.8,8Z"/><path class="cls-9" d="M249.3,669.36v-23.9h6.2l11.5,14.6v-14.6h6.2v23.9H267l-11.4-14.7v14.6h-6.3Z"/><path class="cls-9" d="M278.2,645.36h9.2a10.3,10.3,0,0,1,4.6,1,12.33,12.33,0,0,1,3.7,2.6,12,12,0,0,1,2.5,3.8,11.79,11.79,0,0,1,.9,4.6,11.3,11.3,0,0,1-.9,4.5,11.82,11.82,0,0,1-10.8,7.4h-9.2Zm6.3,18.7h1.4a8.81,8.81,0,0,0,2.9-.5,5.18,5.18,0,0,0,2.1-1.4,5.71,5.71,0,0,0,1.3-2.1,7.63,7.63,0,0,0,.5-2.7,8.08,8.08,0,0,0-.5-2.7,7.43,7.43,0,0,0-1.3-2.1,6,6,0,0,0-2.1-1.4,8.36,8.36,0,0,0-2.9-.5h-1.4Z"/><path class="cls-9" d="M302.1,657.36a12.08,12.08,0,0,1,1-5,14.08,14.08,0,0,1,2.7-4,13.58,13.58,0,0,1,9.5-3.7,13.17,13.17,0,0,1,5.3,1,11.66,11.66,0,0,1,4.2,2.7,10.9,10.9,0,0,1,2.7,4,13.5,13.5,0,0,1,1,5,12.08,12.08,0,0,1-1,5,12.8,12.8,0,0,1-2.7,4,13.58,13.58,0,0,1-9.5,3.7,13.17,13.17,0,0,1-5.3-1,11.66,11.66,0,0,1-4.2-2.7,10.9,10.9,0,0,1-2.7-4A12.08,12.08,0,0,1,302.1,657.36Zm6.5,0a7.08,7.08,0,0,0,.5,2.6,6.23,6.23,0,0,0,1.5,2.1,6,6,0,0,0,2.1,1.4,7,7,0,0,0,7.4-1.4,8,8,0,0,0,1.5-2.1,5.75,5.75,0,0,0,.5-2.6,7.51,7.51,0,0,0-.5-2.6,8,8,0,0,0-1.5-2.1,5.55,5.55,0,0,0-2.2-1.4,7,7,0,0,0-5.2,0,6,6,0,0,0-2.1,1.4,8,8,0,0,0-1.5,2.1A7.08,7.08,0,0,0,308.6,657.36Z"/><path class="cls-9" d="M34.1,695.86l-8.7-12.4h7.4l4.4,6.5,4.4-6.5H49l-8.8,12.4v11.5H34v-11.5Z"/><path class="cls-9" d="M68.2,692.66h9v-9.2h6.2v23.9H77.2v-9.9h-9v9.9H62v-23.9h6.2Z"/><path class="cls-9" d="M87.4,695.46a12.08,12.08,0,0,1,1-5,14.08,14.08,0,0,1,2.7-4,13.58,13.58,0,0,1,9.5-3.7,13.17,13.17,0,0,1,5.3,1,11.66,11.66,0,0,1,4.2,2.7,10.9,10.9,0,0,1,2.7,4,11.76,11.76,0,0,1,1,5,12.08,12.08,0,0,1-1,5,14.08,14.08,0,0,1-2.7,4,13.58,13.58,0,0,1-9.5,3.7,13.17,13.17,0,0,1-5.3-1,11.66,11.66,0,0,1-4.2-2.7,10.9,10.9,0,0,1-2.7-4A12.41,12.41,0,0,1,87.4,695.46Zm6.5,0a7.08,7.08,0,0,0,.5,2.6,6.23,6.23,0,0,0,1.5,2.1,7,7,0,0,0,2.1,1.4,7,7,0,0,0,7.4-1.4,6.23,6.23,0,0,0,1.5-2.1,5.75,5.75,0,0,0,.5-2.6,7.08,7.08,0,0,0-.5-2.6,8,8,0,0,0-1.5-2.1,5.55,5.55,0,0,0-2.2-1.4,8,8,0,0,0-2.6-.5,7.51,7.51,0,0,0-2.6.5,6,6,0,0,0-2.1,1.4,8,8,0,0,0-1.5,2.1A5.26,5.26,0,0,0,93.9,695.46Z"/><path class="cls-9" d="M137.7,707.36H130l-5.9-9.2v9.2h-6.2v-23.9h9.7a9.51,9.51,0,0,1,3.5.6,7.16,7.16,0,0,1,2.5,1.6,11.35,11.35,0,0,1,1.5,2.3,8.81,8.81,0,0,1,.5,2.9,6.78,6.78,0,0,1-1.3,4.4,6.94,6.94,0,0,1-3.9,2.3ZM124,694.16h1.2a4.45,4.45,0,0,0,2.8-.8,2.72,2.72,0,0,0,1-2.2,2.46,2.46,0,0,0-1-2.2,4.65,4.65,0,0,0-2.8-.8H124Z"/><path class="cls-9" d="M155,703.26h-8.9l-1.4,4.2h-6.6l9.1-23.9H154l9.1,23.9h-6.6Zm-1.7-4.8-2.8-8-2.8,8Z"/><path class="cls-9" d="M185.6,707.36h-7.7l-5.9-9.2v9.2h-6.2v-23.9h9.7a9.51,9.51,0,0,1,3.5.6,7.16,7.16,0,0,1,2.5,1.6A11.35,11.35,0,0,1,183,688a8.81,8.81,0,0,1,.5,2.9,6.78,6.78,0,0,1-1.3,4.4,6.94,6.94,0,0,1-3.9,2.3ZM172,694.16h1.2a4.45,4.45,0,0,0,2.8-.8,2.92,2.92,0,0,0,0-4.4,4.65,4.65,0,0,0-2.8-.8H172Z"/><path class="cls-9" d="M194.5,683.46v23.9h-6.2v-23.9Z"/><path class="cls-9" d="M198.4,695.46a12.08,12.08,0,0,1,1-5,14.08,14.08,0,0,1,2.7-4,13.58,13.58,0,0,1,9.5-3.7,13.17,13.17,0,0,1,5.3,1,11.66,11.66,0,0,1,4.2,2.7,10.9,10.9,0,0,1,2.7,4,11.76,11.76,0,0,1,1,5,12.08,12.08,0,0,1-1,5,14.08,14.08,0,0,1-2.7,4,13.58,13.58,0,0,1-9.5,3.7,13.17,13.17,0,0,1-5.3-1,11.66,11.66,0,0,1-4.2-2.7,10.9,10.9,0,0,1-2.7-4A12.41,12.41,0,0,1,198.4,695.46Zm6.5,0a7.08,7.08,0,0,0,.5,2.6,6.23,6.23,0,0,0,1.5,2.1,7,7,0,0,0,2.1,1.4,7,7,0,0,0,7.4-1.4,6.23,6.23,0,0,0,1.5-2.1,5.75,5.75,0,0,0,.5-2.6,7.08,7.08,0,0,0-.5-2.6,8,8,0,0,0-1.5-2.1,5.55,5.55,0,0,0-2.2-1.4,8,8,0,0,0-2.6-.5,7.51,7.51,0,0,0-2.6.5,6,6,0,0,0-2.1,1.4,8,8,0,0,0-1.5,2.1A6.69,6.69,0,0,0,204.9,695.46Z"/><path class="cls-9" d="M242,689.56a8.8,8.8,0,0,0-2-1.2,4.77,4.77,0,0,0-2-.4,3.17,3.17,0,0,0-2,.6,1.9,1.9,0,0,0-.8,1.5,1.16,1.16,0,0,0,.4,1,3.59,3.59,0,0,0,1,.7,5.78,5.78,0,0,0,1.4.5,8.8,8.8,0,0,1,1.5.5,10.78,10.78,0,0,1,4.5,2.7,6.82,6.82,0,0,1,1.4,4.4,8.81,8.81,0,0,1-.6,3.3,7.61,7.61,0,0,1-1.8,2.6,9.25,9.25,0,0,1-2.9,1.7,12.26,12.26,0,0,1-3.9.6,14.48,14.48,0,0,1-8.4-2.7l2.7-5a11,11,0,0,0,2.8,1.8,6.6,6.6,0,0,0,2.7.6,3.17,3.17,0,0,0,2.3-.7,2.13,2.13,0,0,0,.7-1.6,2,2,0,0,0-.2-.9,1.34,1.34,0,0,0-.6-.7,6.66,6.66,0,0,0-1.2-.6c-.5-.2-1.1-.4-1.7-.6-.8-.3-1.6-.5-2.4-.8a7.19,7.19,0,0,1-2.1-1.2,5.75,5.75,0,0,1-1.5-1.9,6.53,6.53,0,0,1-.6-2.9,7.94,7.94,0,0,1,.6-3.2,6.19,6.19,0,0,1,1.7-2.5,7.6,7.6,0,0,1,2.6-1.6,9.34,9.34,0,0,1,3.4-.6,16.94,16.94,0,0,1,7.4,1.9Z"/><path class="cls-9" d="M74.6,638.06l-7.7,4.4-3.7-1.8,6.3-5Z"/><path class="cls-9" d="M242.6,638.06l-7.7,4.4-3.7-1.8,6.3-5Z"/></svg>