<svg id="Layer_1" data-name="Layer 1" xmlns="http://www.w3.org/2000/svg" viewBox="0 0 1913 2630"><defs><style>.cls-1{fill:#d44095;}.cls-2{fill:#fff;}.cls-3{fill:#086888;}.cls-4{fill:#06a1cf;}.cls-5{fill:none;}.cls-6{fill:#ea2049;}.cls-7{fill:#049fcb;}.cls-8{fill:#e9e7e6;}.cls-9{fill:#6b6b6d;}</style></defs><title>Home FIRAN </title><path class="cls-1" d="M229.34,1671.44H211.48c-.06-10.15-.34-36.92-1.85-47.45-.69-4.82-2.3-11.82-4.17-19.91-3-12.87-6.68-28.88-6.68-37.63,0-7.88,3.54-18.64,6.39-27.3,2.3-7,4.11-12.48,4.11-16.12,0-10.71-6.34-38.49-35.31-38.49-27.33,0-37.52,22.4-37.52,36.53,0,5.71,1.82,12.23,4.12,20.48,1.64,5.9,3.5,12.58,5,20.23,2,10,1.15,12.08-1.72,18.84a141.65,141.65,0,0,0-7.3,21.13c-6.08,22.82-1.82,57.69.07,70.42-22.72-.61-55.31,2.6-96.68,17.1a26.4,26.4,0,0,1,.31,8.32c31.28-11.26,66.34-19.19,100.8-17.38l4.94.26-.86-4.87c-.08-.45-7.93-45.76-1-71.83a136.63,136.63,0,0,1,6.93-20.08c3.34-7.85,4.6-11.51,2.21-23.46-1.59-7.93-3.49-14.76-5.17-20.79-2.14-7.67-3.83-13.73-3.83-18.37a32.7,32.7,0,0,1,5.85-17.42c5.31-7.46,13.32-11.24,23.8-11.24,27.13,0,27.45,30.31,27.45,30.62,0,2.37-1.89,8.11-3.72,13.66-3,9.19-6.79,20.62-6.79,29.76,0,9.65,3.66,25.46,6.88,39.4,1.76,7.59,3.41,14.76,4.06,19.25,1.75,12.29,1.77,49.9,1.77,50.28v3.93h25.72a3.94,3.94,0,0,0,0-7.87Z"/><path class="cls-1" d="M699.27,1737.42c-.93,0-1.5,0-1.66,0H387v-3.93c0-.52,0-13.15,1.82-40.2,1.52-22.75-11.86-47.3-17.57-57.79-.84-1.55-1.53-2.81-2-3.73-2.51-5,1.19-13.08,7.94-26.88,4.73-9.64,10.6-21.64,9.84-27-.43-3-4.93-29.3-30.6-29.3-25.42,0-30.41,28.19-30.61,29.39-1,6.18,3.08,22.31,6.38,35.26,2,7.75,3.84,15.06,4.52,19.81,1.38,9.64-2.72,25.84-6,38.86-1.37,5.39-2.55,10-3.07,13.18-1.72,10.35,0,46,.05,46.36l.21,4.13H290.39l.39-4.29c1.51-16.62,5.43-60.68,5.43-65,0-1.92-1.63-7.45-3.36-13.3a283.36,283.36,0,0,1-7.47-29.57c-2.09-11.49.73-19.16,3.47-26.58,2.33-6.33,4.53-12.32,3.74-21-1.62-17.8-17.74-27.28-28.76-27.28-24,0-29.41,16.74-30.61,23.94-2.22,13.34,2.3,27.26,5.6,37.42,2,6,3.53,10.84,3.53,14.58,0,5.75-2.35,12.73-4.84,20.13-1.74,5.19-3.55,10.56-4.29,15-1.44,8.63-.45,56.11.05,73.68a3.93,3.93,0,0,1-7.86.22c-.08-2.61-1.81-64,.05-75.19a111.27,111.27,0,0,1,4.6-16.23c2.17-6.47,4.42-13.15,4.42-17.62,0-2.5-1.52-7.19-3.14-12.15-3.55-10.93-8.42-25.9-5.88-41.14,1.8-10.78,7.21-19.24,15.65-24.48s17.87-6,22.72-6c14,0,34.55,12,36.6,34.44.94,10.42-1.79,17.84-4.2,24.4-2.59,7-4.82,13.08-3.11,22.46a275.88,275.88,0,0,0,7.28,28.75c2.21,7.5,3.67,12.46,3.67,15.52,0,4.75-3.81,47.49-5.07,61.42h20.63c-.42-9.94-1.28-34.86.23-43.91.58-3.46,1.79-8.26,3.2-13.82,3-11.7,7-27.71,5.87-35.81-.62-4.34-2.44-11.45-4.36-19-3.85-15.09-7.83-30.69-6.52-38.5,2.22-13.36,12.81-36,38.37-36,24.53,0,36,19.43,38.39,36.06,1.1,7.73-4.83,19.83-10.56,31.54-3.38,6.9-8.47,17.31-7.93,20,.43.86,1.06,2,1.82,3.4,6,11.08,20.18,37,18.51,62.07-1.22,18.32-1.62,30.1-1.74,35.75H697.72c.44,0,34.06.71,71.53-12.79,21.86-7.88,40.74-19,56.13-33,19.18-17.48,33-39.62,41-65.8,22.07-71.71,8.89-126-37.1-152.76l-1.1-.65c-1-.62-2.61-1.5-4.61-2.62-16.08-9-53.73-30-58.92-52.52-5.73-24.8,17.57-66.41,18.56-68.17a3.93,3.93,0,1,1,6.85,3.87c-.23.4-22.79,40.7-17.75,62.53,4.41,19.1,41.23,39.68,55.09,47.42,2.07,1.15,3.7,2.07,4.83,2.74l1,.6a97.59,97.59,0,0,1,38.72,40.1c16.44,31.57,17.09,72.54,1.94,121.77-19.23,62.51-66.23,91-102.28,104A226.78,226.78,0,0,1,699.27,1737.42Z"/><path class="cls-1" d="M668.69,1609.86a174.57,174.57,0,0,1-56.22-9.74c-33.65-11.64-80.18-39.56-110.76-106.47l-.13-.32c-1.07-3-25.72-74.56,5.76-132.12,17-31.06,47.15-51.86,89.63-61.82a3.93,3.93,0,1,1,1.8,7.65c-40.2,9.43-68.63,28.92-84.51,57.91-29.13,53.2-6.59,121.87-5.32,125.61,16.23,35.42,47.73,81.8,105.76,102,34.87,12.15,63.22,9,63.5,9l.35,0,.36,0c80.67,5.27,153.62-100.55,161.68-112.63,3.47-5.21,15.12-27.6,26.39-49.25,14.58-28,23.63-45.3,26.38-49,4.06-5.41,1-16-1.45-18.46-2.09-2.1-6.87-2.1-9,0-1.14,1.14-4.33,6.88-7.14,11.94-4.78,8.61-10.74,19.34-16.22,25.92-.94,1.13-1.78,2.16-2.57,3.12-7,8.54-9.87,12.08-36.35,30.28-27.34,18.8-34.62,51.71-34.69,52a3.93,3.93,0,0,1-7.69-1.63c.31-1.47,7.93-36.27,37.93-56.89,25.55-17.57,28-20.62,34.71-28.78.8-1,1.66-2,2.62-3.18,5-6,10.76-16.37,15.39-24.7,4.29-7.73,6.61-11.85,8.45-13.68a14.93,14.93,0,0,1,20.08,0c4.66,4.65,9.13,19.47,2.18,28.74-2.56,3.41-14.85,27-25.69,47.87-11.89,22.84-23.12,44.42-26.83,50-8.1,12.16-80,116.31-162.43,116.32-2,0-4-.06-6-.18C677.59,1609.55,674.06,1609.86,668.69,1609.86Z"/><path class="cls-1" d="M639.62,1546.78A3.93,3.93,0,0,1,639,1539c25.54-4.26,42.81-17.24,51.34-38.6a77.8,77.8,0,0,0,5.29-31.62l-.35-4.26h41.89c-.93-8.3-5.59-32.21-28.5-83.41-24.06-53.78-66.51-68.94-81.89-72.77A226.25,226.25,0,0,1,629,1358c-1.88,24.48-30.44,62.21-31.65,63.81l-4.21,5.51-2.57-6.44c0-.08-3.42-8.41-8.21-13.2l-.6-.6c-3.64-3.68-13.32-13.45-23.16-12.37-5.59.62-10.81,4.75-15.51,12.27-4.18,6.7-5.31,12.86-3.36,18.32,4.22,11.77,21.08,17.57,21.25,17.62a3.93,3.93,0,0,1-2.5,7.46c-.84-.28-20.62-7-26.14-22.39-2.83-7.85-1.45-16.32,4.08-25.18,6-9.66,13.21-15,21.31-15.92,13.62-1.51,25.24,10.23,29.62,14.65l.57.58a43.87,43.87,0,0,1,7,9.67c7.79-11.07,25-37.22,26.27-54.39,1.73-22.54-1.74-49.07-3.24-52.43l-3.27-6.55,7.27.91c.65.08,16,2,35.25,12.72,17.71,9.81,42.26,29.2,58.64,65.83,30.93,69.13,29.45,90.06,29.38,90.91l-.33,3.58h-41.3a86.59,86.59,0,0,1-5.83,30.64c-6.59,16.68-21.9,37.81-57.48,43.74A3.63,3.63,0,0,1,639.62,1546.78Z"/><path class="cls-1" d="M190.93,1555a13,13,0,0,1-13-13,3.94,3.94,0,0,1,7.87,0,5.14,5.14,0,0,0,9.88,2,3.94,3.94,0,1,1,7.25,3.07A13,13,0,0,1,190.93,1555Z"/><path class="cls-1" d="M261.11,1613.05a13,13,0,0,1-13-13,3.93,3.93,0,1,1,7.86,0,5.15,5.15,0,0,0,10.29,0,3.94,3.94,0,1,1,7.87,0A13,13,0,0,1,261.11,1613.05Z"/><path class="cls-1" d="M310.13,1513.2a13,13,0,0,1-13-13,3.93,3.93,0,1,1,7.86,0,5.15,5.15,0,0,0,10.29,0,3.94,3.94,0,0,1,7.87,0A13,13,0,0,1,310.13,1513.2Z"/><path class="cls-1" d="M375.48,1609.41a13,13,0,0,1-13-13,3.94,3.94,0,1,1,7.87,0,5.14,5.14,0,0,0,8.6,3.8,3.93,3.93,0,1,1,5.29,5.82A13,13,0,0,1,375.48,1609.41Z"/><path class="cls-1" d="M390,1571.29a13.23,13.23,0,0,1-2.59-.26,3.93,3.93,0,0,1,1.56-7.71,5.12,5.12,0,0,0,6.18-5,3.93,3.93,0,0,1,7.86,0A13,13,0,0,1,390,1571.29Z"/><path class="cls-1" d="M429,1697.46H392.73a3.93,3.93,0,1,1,0-7.86h29c.7-11.09,2.38-44.88-2-62.29-2.76-11-7-19.24-10.43-25.84s-6-11.61-6-16.86c0-4.67,2.51-8.45,5.41-12.82,4.06-6.12,9.11-13.74,9.11-27.12s-7-28.75-26.93-28.75c-12.55,0-27.21,7.57-27.21,28.89a3.93,3.93,0,1,1-7.86,0c0-14.9,6.23-23.53,11.45-28.15a35.51,35.51,0,0,1,23.62-8.6c17.32,0,34.8,11.32,34.8,36.61,0,15.75-6,24.83-10.43,31.46-2.29,3.46-4.1,6.19-4.1,8.48,0,3.33,2.27,7.7,5.14,13.24,3.61,7,8.1,15.63,11.09,27.56,5.53,22.15,2.07,66.55,1.92,68.43Z"/><path class="cls-1" d="M283.8,1552.23a3.93,3.93,0,0,1-3-6.45h0c2.27-2.74,8.17-11.21,8.17-17.45,0-2.42-3.15-7.16-6.19-11.75-5.87-8.85-13.18-19.88-11.95-32.21,1.84-18.39,13.37-38,40.22-38,26.51,0,38.43,22.47,38.43,38.43,0,9.54-5.2,18.57-9.78,26.54-3,5.2-5.83,10.12-6.64,14.17-1.05,5.29,4.43,14.75,8.14,19.47a3.93,3.93,0,0,1-6.18,4.86c-1.21-1.53-11.78-15.32-9.67-25.88,1.06-5.31,4.2-10.76,7.53-16.54,4.29-7.47,8.73-15.19,8.73-22.62,0-12.69-9.48-30.56-30.56-30.56-8.81,0-29.6,3-32.39,31-1,9.54,5.23,18.86,10.68,27.09,4.19,6.31,7.49,11.29,7.49,16.09,0,10.2-9,21.26-10,22.48A3.89,3.89,0,0,1,283.8,1552.23Z"/><path class="cls-1" d="M889.24,1306.08l-.85-.51L708,1198.8,800.34,1146l22.16,14.1a1.68,1.68,0,1,1-1.81,2.84l-20.45-13-85.55,48.89,174.56,103.32,87.37-50.67-55.52-31.23a1.69,1.69,0,1,1,1.65-2.94l60.66,34.12Z"/><path class="cls-1" d="M844.78,1376l-91.13-51.8V1223.85l23.57-12.24a1.68,1.68,0,0,1,1.55,3L757,1225.9v96.3l87.74,49.87,89.09-51.67v-43.13a1.69,1.69,0,0,1,3.37,0v45.07Z"/><path class="cls-1" d="M844.77,1330.58l-89.42-52.16a1.68,1.68,0,1,1,1.69-2.91l87.72,51.17,42.13-24.9a1.69,1.69,0,0,1,1.71,2.91Z"/><polyline class="cls-1" points="776.69 1237.51 776.69 1186.12 856.57 1140.73 856.57 1220.61 801.52 1252.2"/><path class="cls-1" d="M843.08,1280.73v-53.34a1.69,1.69,0,1,1,3.37,0v47.47l86.11-50.21c2.23-1.65,49.11-35.85,95.25-44.72a1.68,1.68,0,1,1,.63,3.31c-46.28,8.9-93.47,43.82-94,44.17l-.15.11Z"/><path class="cls-1" d="M892.55,1247.91s-22.37-37.28-24.18-60.88,23.6-30.86,32.68-30.86,29,7.26,29,29-17.3,52.92-17.3,52.92"/><circle class="cls-2" cx="899.23" cy="1187.03" r="14.52"/><path class="cls-1" d="M870.06,1189.36a1.61,1.61,0,0,1-.87-.24l-14.48-8.69a1.68,1.68,0,0,1,1.73-2.89l14.49,8.69a1.7,1.7,0,0,1,.57,2.32A1.68,1.68,0,0,1,870.06,1189.36Z"/><polyline class="cls-1" points="808.79 1152.54 808.79 1096.26 717.69 1096.26 717.69 1152.54 791.78 1152.54"/><path class="cls-1" d="M881.24,1130.56l-10.18-16.28h-28v-54.2h76v54.2H889.38Zm-34.79-19.65h26.48l8,12.77,6.39-12.77h28.4v-47.46H846.45Z"/><path class="cls-1" d="M904.45,1079.79H859.07a1.69,1.69,0,1,1,0-3.37h45.38a1.69,1.69,0,1,1,0,3.37Z"/><path class="cls-1" d="M904.45,1097.27H859.07a1.69,1.69,0,1,1,0-3.37h45.38a1.69,1.69,0,1,1,0,3.37Z"/><polygon class="cls-1" points="999.99 1135.29 1025.4 1109.87 980.02 1089.9 999.99 1135.29"/><path class="cls-1" d="M1024.49,1136.07a1.68,1.68,0,0,1-1.19-.5l-11.78-11.82a1.69,1.69,0,1,1,2.39-2.38l11.78,11.82a1.7,1.7,0,0,1-1.2,2.88Z"/><path class="cls-1" d="M1100.74,1119.86v30.86l-34.49,16.34v56.28h25.41v-29s3.64-7.26,10.9-7.26,10.89,7.26,10.89,7.26v29h23.6v-56.28l-36.31-16.34"/><path class="cls-1" d="M1537.16,1183.82a2.2,2.2,0,0,1-1.29-.41c-34.35-24.17-75.62-41.15-122.68-50.48-37.72-7.48-79.21-10.09-123.32-7.75-75.16,4-132.53,21.16-133.11,21.34a2.25,2.25,0,0,1-1.3-4.31c.58-.17,58.47-17.51,134.17-21.52,44.49-2.35,86.35.28,124.43,7.83,47.68,9.45,89.53,26.69,124.39,51.22a2.24,2.24,0,0,1-1.29,4.08Z"/><polyline class="cls-1" points="1348.32 970.31 1348.32 1028.4 1406.41 1028.4 1406.41 970.31 1348.32 970.31"/><path class="cls-1" d="M1390.07,984.7a1.68,1.68,0,0,1-1.68-1.69V954.1c-.21-1.22-2.13-11.15-11-11.15-3.86,0-6.88,1.85-9,5.5a18.78,18.78,0,0,0-2.05,5.65V983a1.69,1.69,0,1,1-3.37,0l0-29.28c.7-4.9,4.6-14.15,14.37-14.15s13.68,9.25,14.38,14.15l0,.24v29A1.69,1.69,0,0,1,1390.07,984.7Z"/><path class="cls-1" d="M1087.13,995.37a1.69,1.69,0,0,1-1.08-3c.21-.16,20.87-17.1,52.63-33.78,29.33-15.41,74.42-33.77,122.7-33.77h0a1.69,1.69,0,0,1,0,3.37h0c-91.12,0-172.37,66.12-173.18,66.79A1.75,1.75,0,0,1,1087.13,995.37Z"/><path class="cls-1" d="M888,1000.56a2.21,2.21,0,0,1-.66-.1,2.26,2.26,0,0,1-1.49-2.81c.09-.28,8.94-28.79,29.48-64.23,19-32.73,52.1-78.29,102.2-109.48a2.24,2.24,0,1,1,2.37,3.81c-49.31,30.71-82,75.64-100.68,107.92-20.29,35-29,63-29.07,63.3A2.23,2.23,0,0,1,888,1000.56Z"/><path class="cls-1" d="M830.24,1021.7a1.7,1.7,0,0,1-1.57-1.09c-8.87-23.05-33.93-51.85-34.19-52.14a1.69,1.69,0,1,1,2.54-2.22c1.05,1.2,25.72,29.55,34.8,53.15a1.69,1.69,0,0,1-1,2.18A1.62,1.62,0,0,1,830.24,1021.7Z"/><path class="cls-2" d="M797.94,1138.9H728a2.25,2.25,0,1,1,0-4.49h69.9a2.25,2.25,0,0,1,0,4.49Z"/><circle class="cls-1" cx="1201.35" cy="869.78" r="10.44"/><circle class="cls-1" cx="1239.67" cy="860.71" r="10.44"/><path class="cls-1" d="M1209.67,871.58a2.25,2.25,0,0,1-2.25-2.25V829.51L1250,817.33v42.92a2.25,2.25,0,0,1-4.5,0v-37l-33.63,9.61v36.43A2.24,2.24,0,0,1,1209.67,871.58Z"/><path class="cls-1" d="M1029.26,974.91a34.9,34.9,0,0,1-29-15.39A2.25,2.25,0,0,1,1004,957a30.44,30.44,0,1,0-5.19-17,29.79,29.79,0,0,0,.35,4.63,2.25,2.25,0,1,1-4.45.68,36.3,36.3,0,0,1-.4-5.31,34.93,34.93,0,1,1,34.93,34.92Z"/><path class="cls-1" d="M996.46,950l-10.33-14.46a1.68,1.68,0,1,1,2.74-2l7.83,11,9.49-11.08a1.7,1.7,0,0,1,2.38-.18,1.68,1.68,0,0,1,.18,2.38Z"/><path class="cls-1" d="M1042.66,955.5a1.69,1.69,0,0,1-1-.33l-15.2-11.4V917.51a1.69,1.69,0,1,1,3.37,0v24.57l13.85,10.39a1.68,1.68,0,0,1-1,3Z"/><path class="cls-2" d="M798.19,1126.4h-69.9a2.25,2.25,0,0,1,0-4.5h69.9a2.25,2.25,0,0,1,0,4.5Z"/><path class="cls-2" d="M798.19,1113.93h-69.9a2.25,2.25,0,0,1,0-4.49h69.9a2.25,2.25,0,1,1,0,4.49Z"/><polygon class="cls-1" points="1100.74 1112.6 1084.27 1122.11 1084.27 1141.13 1100.74 1150.64 1117.22 1141.13 1117.22 1122.11 1100.74 1112.6"/><path class="cls-1" d="M1204.17,1013.26c-20-1.81-20,10.9-20,10.9s0-12.71-20-10.9-19.71,20-16.33,27.23c5.74,12.21,36.3,39.94,36.3,39.94s30.57-27.73,36.31-39.94C1223.89,1033.31,1224.14,1015.08,1204.17,1013.26Z"/><path class="cls-1" d="M1096.55,734.52a19.85,19.85,0,1,0,19.85,19.85A19.85,19.85,0,0,0,1096.55,734.52Zm0,28.69a8.85,8.85,0,1,1,8.84-8.84A8.84,8.84,0,0,1,1096.55,763.21Z"/><path class="cls-1" d="M1145.3,750.17a12,12,0,1,0,12,12A12,12,0,0,0,1145.3,750.17Zm0,18.65a6.62,6.62,0,1,1,6.61-6.61A6.61,6.61,0,0,1,1145.3,768.82Z"/><path class="cls-1" d="M1082.37,728a30.73,30.73,0,0,0-3,1.83Z"/><path class="cls-1" d="M1160.12,725.83h-14.37v.5h-7.5v-.5h-12.2L1117.27,696s-.35-3.17-6.68-3.17H1085.3s-3.51.36-3.51,5.62.58,29.61.58,29.61h0c8.16-4.4,30.78-12.94,42.45,19.22h29.86a8.1,8.1,0,0,0,4-4.8c1.23-3.63,4.56-13.12,4.56-13.12S1164.86,725.83,1160.12,725.83Zm-67.53-8.32c-3.59,0-3.16-2.5-3.16-2.5V701h22.29l4.68,16.52Z"/><path class="cls-1" d="M1145.86,712.74c.1-3.37,2.71-4.46,3.47-5s0-4,0-4c-10.43-.33-11.08,8.37-11.08,8.37v13.74h7.5C1145.75,723.76,1145.76,715.67,1145.86,712.74Z"/><path class="cls-1" d="M1145.75,726.33v-.5h-7.5v.5Z"/><path class="cls-1" d="M1608.37,1059.58a18,18,0,0,1-3.74-2.44c-1.82-1.55-10.29-8.91-10.29-8.91s-5.25-4.3-9.47-5.91a23.54,23.54,0,0,0-9-1.24H1555a22.66,22.66,0,0,0-11,4.09,33.46,33.46,0,0,0-13.66,24.15v12.84s.47,3.32,3.17,3.32,7.79,0,7.79,0,.26-10.85,11.27-11.06,11.12,11,11.12,11h33.1s1.45-11.2,11.2-11,11.09,8.86,11.19,11l4.2.07s3.11-.73,3.11-3.16v-8.5S1625.32,1060,1608.37,1059.58Zm-44.78-13.8v11.11H1541s5.74-11.07,15-11.07c5.61,0,7.2,0,7.59,0v0S1563.84,1045.77,1563.59,1045.78Zm7.42,11.11v-11.18s1.62.17,7.76.17,17.33,11,17.33,11Z"/><path class="cls-1" d="M1606.44,1093.27a11.15,11.15,0,0,0-10.5,7.42l-12.91-.06a8,8,0,0,0-6.4-3.64,7.71,7.71,0,0,0-6.3,3.71h-9.09a11.14,11.14,0,1,0,0,7.38l9.1.05a8.31,8.31,0,0,0,6.6,3.6,7.28,7.28,0,0,0,6.22-3.65h12.81a11.14,11.14,0,1,0,10.52-14.81Z"/><path class="cls-1" d="M1563.59,1045.78c.25,0,0,0,0,0Z"/><path class="cls-1" d="M1503.46,829.7h-41.94c-7,.12-6.88,5.34-6.88,5.34v7.86c0,4.71,7.06,5.39,7.06,5.39h41.59c4.07,0,5.16-5.56,5.16-5.56v-9C1508.45,830.45,1503.46,829.7,1503.46,829.7ZM1502,842.17h-41a.26.26,0,0,1-.35-.28c0-.37,0-5.65,0-5.65s-.06-.32.26-.32h41.08s.29,0,.29.36v5.57A.27.27,0,0,1,1502,842.17Z"/><path class="cls-1" d="M1466.23,815.31a2.16,2.16,0,0,0,1.59-1.86c0-.22-10.16-31.77-10.16-31.77l-6.72,7.11,12.67,25.53S1464.82,815.79,1466.23,815.31Z"/><path class="cls-1" d="M1487.72,794.35l-12.44,17h-5.19s2,5.75-3.55,6.37-7-6.46-7-6.46h-1.83v12.3h10.69v3.13h29.28v-3.1h10.85V794.35Zm-1.25,16.9,6.26-9.21,8,0,0,9.13Z"/><polygon class="cls-1" points="1432.94 835.97 1436.99 838.12 1438.52 835.34 1436.65 829.13 1432.94 835.97"/><path class="cls-1" d="M1434.2,812.31s-1.26,3.25-5.26,2.07a3.87,3.87,0,0,1-1.87-5s-6.13,2-6.13,11,5.14,12.39,11,13.61l2.68-5.12Z"/><path class="cls-1" d="M1429.32,811.26a2.24,2.24,0,0,0,3.09-.63c.59-.71,22.72-32.33,22.72-32.33l.12-10.67-3.32-1.78-9.37,5.33-14,37S1427.66,810.47,1429.32,811.26Z"/><path class="cls-1" d="M1868,776.83v41.42s.51,3.31,3.41,3.26a3.48,3.48,0,0,0,3.41-2.75V733.83s-1.12-2.8-3.46-2.8a4.2,4.2,0,0,0-3.47,2.09l-5.29,38.72S1861.17,777.29,1868,776.83Z"/><path class="cls-1" d="M1858.07,770.58l2.52-18.65S1850,738.6,1833,738.77s-25.39,8.41-25.39,8.41.38,9.18.15,10.23a16,16,0,0,1-6.88,11.08v30.84s10.7,15.65,31,15.58,31.64-17.17,31.64-17.17V780.89s-3.92-1.26-4.62-4h-.2s-.15,25.49-27.12,26.82c0,0-18.51,1-25.76-18.75s11.67-31.44,13.48-32.29,19.23-10,34.65,8.35C1853.94,761.06,1858.12,768.21,1858.07,770.58Z"/><circle class="cls-1" cx="1831.73" cy="776.83" r="22.58"/><path class="cls-1" d="M1789.5,765.82v52.63s.54,3.09,3.09,3.09,3.73-2.66,3.73-2.66v-53s6.87-2.72,6.87-9.11v-22a2.61,2.61,0,0,0-2.29-1.81c-1.7,0-2.45,1-2.45,2v13h-3.28V734.71s-.78-1.66-2.17-1.66-2.47,1-2.47,1.74V748h-3.27V735s-.83-2-2-2-2.76.52-2.76,1.68v22.59S1783.28,764,1789.5,765.82Z"/><path class="cls-1" d="M1818.92,1065.06l0,0-2.42,10h-4.07l2.81-11.29s-8.66-.72-14.06-.78-13.22-.06-15.52.8l2.74,11.36h-4l-2.37-10s-17.68,6.74-17.68,24.94v21.27h72.32V1090S1837,1073.18,1818.92,1065.06Zm-2.39,34.54c0,3.05-3.49,3.63-3.49,3.63H1788.4a3.89,3.89,0,0,1-4.08-3.67V1083a4.78,4.78,0,0,1,1.16-3,3.72,3.72,0,0,1,2.29-.93h5s.67-1.49,1.25-2.72a2.48,2.48,0,0,1,1.79-1.38H1805a2,2,0,0,1,1.66,1l1.44,3.05,4.85,0a4.61,4.61,0,0,1,2.34.88,4.46,4.46,0,0,1,1.26,2.84Z"/><circle class="cls-1" cx="1800.52" cy="1091.17" r="8.04"/><ellipse class="cls-1" cx="1800.3" cy="1034.97" rx="20.4" ry="20.13"/><path class="cls-1" d="M1656.52,933.06l5.55-5.47s-7.65-10.29-7-21.83,8.33-32.1,33.49-34.19c0,0,9-1.42,19.9,5l-4.17,4.33,16.63,1.46L1719.24,865l-5.47,5.74a47.13,47.13,0,0,0-24-6.75s-30.06.3-39.73,28.92C1650.07,892.86,1641.7,914,1656.52,933.06Z"/><path class="cls-1" d="M1726.48,884l-5.84,4.92a34.92,34.92,0,0,1,5.27,19.43c-.33,11.55-8.34,32.11-33.49,34.19a34.12,34.12,0,0,1-16.26-3.16l4.32-5.31-16.75-.29,3.13,17.31,4.37-5.55s7.73,4.7,20,4.64c0,0,30.06-.31,39.73-28.93C1731,921.22,1738.37,902.42,1726.48,884Z"/><path class="cls-1" d="M1690.4,930.88A23.64,23.64,0,1,1,1714,907.24,23.65,23.65,0,0,1,1690.4,930.88Zm0-46.16a22.52,22.52,0,1,0,22.48,22.52A22.53,22.53,0,0,0,1690.4,884.72Z"/><path class="cls-1" d="M1668.42,910.4s5.59-2.4,6.26-3.23c.54-.66,1.81-1.14,1-1.77s-1.61-1.24-1.52-2.15-.06-3.74.26-4.09a8.69,8.69,0,0,1,2.53-1.61c1-.41,2.65-1,2.62-2.44a10.33,10.33,0,0,0-2.37-5.34s-5.63,3.41-7.34,9.68-1.49,9.78-1.39,10.95"/><path class="cls-1" d="M1683.7,894.93s-.34-.7-.73-.09-2.7,5.58-2.81,8.14.5,1.51.84,1.37a20.78,20.78,0,0,0,3.24-3.43C1684.38,900.47,1685.22,896.7,1683.7,894.93Z"/><path class="cls-1" d="M1676.08,923.93s3.74,1.15,5.79.7,1.82-.86,1.37-1.34-2.72-3-1.5-3.71,4.28-3.36,4-5.12-.25-.86-1.44-1.12a32.15,32.15,0,0,1-5.53-2.52c-.35-.29-1.76-.83-2-.29a7.52,7.52,0,0,1-2.11,1.73c-.36.16-1.73,3.07-1.73,5.75s-.42,1.79-.22,2.59S1675.92,923.86,1676.08,923.93Z"/><path class="cls-1" d="M1706.22,922.58s-7.72,2.61-9,2.46-3.15-.58-1.32-1.76,4.25-1.83,4.65-3.08,1.36-5,1.58-5.86a18.43,18.43,0,0,0,.84-2.71c0-.66-.58-1.4-.29-2.57s2.68-3.63,2.68-4.62-.55-5.17-1.07-6.08-3.63-3.08-4-3.52a6.82,6.82,0,0,0-1.76-1.51c-.47-.22-2.27-1-2.74-2.16a25.49,25.49,0,0,1-1.51-5,2,2,0,0,1,.41-.77s10.72,2.4,15.34,11.39a2.52,2.52,0,0,1-1.12.89,2.59,2.59,0,0,0-2.12,3,9.69,9.69,0,0,0,1.35,4.64c.28.24,2.64,2.19,2.89,2.92a25.13,25.13,0,0,1,1,2.91c0,.37-1.49,5.67-2.33,6.9s-3.39,4.45-3.53,4.55"/><path class="cls-1" d="M1633.79,667.8s-1.17,13.21-5.25,20.43l-15.39-7.38s.74-1.39-.79-3.33a50.23,50.23,0,0,1-5.86-11.18c-1.14-3.47-3.51-10.76-4.11-11.56a12.56,12.56,0,0,0-5.59-4.16c-3-1-7.92-3.13-13.77-2.75s-9.45,2.59-10.38,3.35-6.18,5.46-7,9.28,1.82,5,1.82,5a3.77,3.77,0,0,0,5.47-1.06l8.77,4.37a85.14,85.14,0,0,1-3.85,8.83c-1.88,3.39-12.48,17.75-17.75,23.19l-2.09,2.5s-2,3.4.15,5.17,4.29,1.73,5.75.42,16-18.54,16.77-20.11l12.84,6.9s-3.5,8-4.28,9.29-3,5.07-3,5.07-1.51,3,1,4.86a4.5,4.5,0,0,0,5.38,0c.36-.37,5.32-8.41,6-9.77s4.07-9.5,4.07-9.5a3.35,3.35,0,0,0-1.2-4.29c-2.5-1.93-8.56-6.21-9.35-6.58,0,0,4.08-8.77,4.08-9l7.48,3.67,2,3.3a4.32,4.32,0,0,0,3.86,2.16,3.14,3.14,0,0,0,2.5-1.42l15,7.29s-7.56,13.25-13.42,19.72c0,0,12.12-5.88,17.76-17.43l2,.93,1.3-2.54-2.06-1S1638.2,680.75,1633.79,667.8Zm-49.44-3.29-8.62-4.23a9.54,9.54,0,0,1,11.57-5.61Zm14.34,7,1.69-4.68,2.67,6.67Z"/><path class="cls-1" d="M1597,648c7.65,1.53,8.59-5.65,8.59-5.65l4.71,1.27.4-1.41-3.53-1s1.33-6.71-6.12-8.7-10,5.66-10,5.66l1.28.35S1589.85,646.55,1597,648Z"/><path class="cls-1" d="M1688,1227l-5-.65a36.66,36.66,0,0,0-2.27-5.67s1.89-2.55,3-3.86a1.79,1.79,0,0,0,.25-2.3s-4.17-4.22-5.38-5.4a2,2,0,0,0-2.51-.34l-4.13,3.23c-1.23-1-5.58-2.32-5.58-2.32s-.5-4.45-.71-5.53a1.65,1.65,0,0,0-1.42-1.21s-6.2,0-7.75,0a1.8,1.8,0,0,0-1.76,1.61l-.69,5.19a21.14,21.14,0,0,0-5.53,2.29s-3.71-2.88-4.4-3.4-1.79.1-1.79.1-5.2,5.17-5.89,5.88a1.56,1.56,0,0,0-.12,1.74l3.38,4.42c-.82.52-2.3,5.59-2.3,5.59s-4.61.57-5.47.63-1.21,1.21-1.21,1.21,0,7.22,0,8.24,1.19,1.5,1.19,1.5l5.55.65c.11,1,2.32,5.72,2.32,5.72s-2.36,3-3.17,4.05a1.77,1.77,0,0,0-.25,2s5.11,5.22,5.92,6,2.15-.08,2.15-.08l4.07-3.22c.88.75,5.64,2.38,5.64,2.38s.44,3.86.58,5.18a1.63,1.63,0,0,0,1.38,1.46l8,0a1.72,1.72,0,0,0,1.63-1.25l.65-5.47c1.9-.21,5.67-2.34,5.67-2.34s3.09,2.53,4,3.21a2.1,2.1,0,0,0,2.09.07s5.07-5,5.84-5.85,0-2,0-2l-3.28-4.23c.8-.78,2.36-5.62,2.36-5.62s4.24-.48,5.41-.64a1.45,1.45,0,0,0,1.19-1.42s.08-6.35.08-7.87S1688,1227,1688,1227Zm-27.83,20.17a14.64,14.64,0,1,1,14.67-14.64A14.65,14.65,0,0,1,1660.12,1247.2Z"/><path class="cls-1" d="M1725.19,1202.65l-3.85-.49a27.67,27.67,0,0,0-1.74-4.36s1.45-2,2.27-3a1.36,1.36,0,0,0,.19-1.76s-3.2-3.24-4.13-4.15a1.54,1.54,0,0,0-1.92-.26l-3.17,2.48a22.44,22.44,0,0,0-4.29-1.78s-.38-3.41-.54-4.24a1.27,1.27,0,0,0-1.09-.93s-4.75,0-6,0a1.38,1.38,0,0,0-1.35,1.23l-.53,4a16.64,16.64,0,0,0-4.24,1.76l-3.38-2.61c-.53-.4-1.38.08-1.38.08s-4,4-4.51,4.52a1.2,1.2,0,0,0-.1,1.33l2.6,3.39c-.63.4-1.77,4.29-1.77,4.29s-3.54.44-4.19.48-.93.93-.93.93,0,5.55,0,6.33.92,1.15.92,1.15l4.26.5a32.75,32.75,0,0,0,1.77,4.39s-1.81,2.3-2.43,3.11a1.35,1.35,0,0,0-.19,1.52s3.92,4,4.55,4.58,1.65-.07,1.65-.07l3.12-2.46a27.18,27.18,0,0,0,4.32,1.82s.34,3,.45,4a1.26,1.26,0,0,0,1.06,1.13h6.15a1.33,1.33,0,0,0,1.25-1l.49-4.2a17.38,17.38,0,0,0,4.36-1.79s2.37,1.94,3.11,2.47a1.6,1.6,0,0,0,1.6.05s3.89-3.86,4.48-4.49,0-1.5,0-1.5l-2.52-3.26c.61-.59,1.81-4.3,1.81-4.3s3.25-.37,4.15-.5a1.11,1.11,0,0,0,.91-1.09s.07-4.87.07-6S1725.19,1202.65,1725.19,1202.65Zm-21.36,15.49a11.24,11.24,0,1,1,11.26-11.24A11.25,11.25,0,0,1,1703.83,1218.14Z"/><path class="cls-1" d="M1246.21,694.93a2.81,2.81,0,0,1-1.32-5.29c.26-.14,26.72-14.1,66.35-24.7,36.61-9.79,92.33-18.66,149.94-5.34a2.81,2.81,0,1,1-1.26,5.48c-56.43-13.05-111.13-4.35-147.08,5.25-39,10.42-65.06,24.13-65.31,24.27A2.87,2.87,0,0,1,1246.21,694.93Z"/><path class="cls-1" d="M1537.67,936.23a2.7,2.7,0,0,1-.63-.07c-.37-.08-37.45-8.4-61.73-5.28a2.81,2.81,0,1,1-.72-5.57c25.28-3.26,62.14,5,63.7,5.37a2.81,2.81,0,0,1-.62,5.55Z"/><path class="cls-3" d="M188.33,366.76V409.7h-6.48V366.76Z"/><path class="cls-3" d="M227.13,409.7V363.84l31.32,32.76V366.76h6.48v45.55l-31.32-32.68V409.7Z"/><path class="cls-3" d="M315.54,372.85V409.7h-6.48V372.85h-9.87v-6.09h26.2v6.09Z"/><path class="cls-3" d="M383.35,372.85H366.13v10.32h16.72v6.09H366.13v14.35h17.22v6.09h-23.7V366.76h23.7Z"/><path class="cls-3" d="M434.88,391.4l13.3,18.3h-7.93L428,392.12h-1.17V409.7h-6.48V366.76h7.59q8.51,0,12.29,3.2a11.74,11.74,0,0,1,4.17,9.4,12.21,12.21,0,0,1-2.61,7.84A11.62,11.62,0,0,1,434.88,391.4Zm-8.06-4.92h2.06q9.19,0,9.2-7,0-6.58-8.95-6.59h-2.31Z"/><path class="cls-3" d="M483.11,409.7V363.84l31.31,32.76V366.76h6.48v45.55l-31.31-32.68V409.7Z"/><path class="cls-3" d="M585.23,399.27H566.85l-4.79,10.43h-7l21.25-45.64,20.5,45.64h-7.09Zm-2.64-6.09-6.37-14.6-6.67,14.6Z"/><path class="cls-3" d="M660.41,369.07v7.67q-5.62-4.69-11.63-4.7a14.8,14.8,0,0,0-11.15,4.76,16,16,0,0,0-4.56,11.57,15.66,15.66,0,0,0,4.56,11.4,15,15,0,0,0,11.18,4.64,13.72,13.72,0,0,0,5.81-1.11,16.94,16.94,0,0,0,2.77-1.5,33.74,33.74,0,0,0,3-2.28v7.81a23.39,23.39,0,0,1-11.68,3.15A21.54,21.54,0,0,1,633,404.05a21.3,21.3,0,0,1-6.48-15.63A22,22,0,0,1,632,373.79a21.59,21.59,0,0,1,17.27-7.87A21.91,21.91,0,0,1,660.41,369.07Z"/><path class="cls-3" d="M703.54,366.76V409.7h-6.48V366.76Z"/><path class="cls-3" d="M740.2,388a21,21,0,0,1,6.64-15.57A21.89,21.89,0,0,1,762.75,366a22.45,22.45,0,0,1,22.33,22.33A21.12,21.12,0,0,1,778.47,404a22.7,22.7,0,0,1-31,.72Q740.21,398.35,740.2,388Zm6.53.09a15.54,15.54,0,0,0,4.79,11.71,15.85,15.85,0,0,0,22.38-.09,16.66,16.66,0,0,0,.06-23A15.16,15.16,0,0,0,762.67,372a15.32,15.32,0,0,0-11.32,4.67A15.5,15.5,0,0,0,746.73,388.12Z"/><path class="cls-3" d="M821.71,409.7V363.84L853,396.6V366.76h6.48v45.55l-31.32-32.68V409.7Z"/><path class="cls-3" d="M923.84,399.27H905.45l-4.78,10.43h-7l21.25-45.64,20.49,45.64h-7.09Zm-2.65-6.09-6.36-14.6-6.68,14.6Z"/><path class="cls-3" d="M975.76,366.76v36.85h12.63v6.09H969.28V366.76Z"/><path class="cls-4" d="M539.24,242.15v-.52C539.24,242.54,539.24,242.78,539.24,242.15Z"/><path class="cls-3" d="M553.42,242.17l69.68,100h46.53l-69.78-96.05a78.17,78.17,0,0,1-46.43-3.94Z"/><circle class="cls-4" cx="719.27" cy="121.3" r="30.71"/><path class="cls-3" d="M696.85,171.13v171h44.84v-171a62.08,62.08,0,0,1-44.84,0Z"/><path class="cls-5" d="M593.55,208.7c.5-.14,1-.24,1.5-.39C594.56,208.45,594.05,208.58,593.55,208.7Z"/><path class="cls-4" d="M592,209.09c.52-.1,1-.26,1.53-.39C593,208.84,592.53,209,592,209.09Z"/><path class="cls-4" d="M582.94,90.59H504.62v36.84h79.13a41,41,0,0,1,41.15,41,41.46,41.46,0,0,1-29.85,39.85c-.49.15-1,.25-1.5.39s-1,.29-1.53.39a40.57,40.57,0,0,1-49.78-39.63H504.62a78.51,78.51,0,0,0,37.89,67.23A78.17,78.17,0,0,0,582.94,248a78.54,78.54,0,0,0,78.5-78.5C661.44,126.17,626.22,90.59,582.94,90.59Z"/><path class="cls-3" d="M504.62,169.46c0,18,0,63.51,0,70.37V342.1h37.89V236.69C519.79,222.69,504.62,198.45,504.62,169.46Z"/><path class="cls-3" d="M374.8,306.18v-86c-3.4-.18-25.35-.92-32.33,10.24a50.5,50.5,0,0,0-5.88,13.86c.19-58.53,14.53-57.64,38.21-57.52V125l-24.25,2-13.89,15.57-.08,101.64h0V342.1h.28v0h49.62v0h75.35V306.18Z"/><path class="cls-3" d="M219.74,342.12V222.41c-3.37-.18-25.13-.91-32,10.16a50,50,0,0,0-5.85,13.77v95.78Z"/><path class="cls-3" d="M187.82,137.48a54,54,0,0,0-6,14.43v94.43c0-59.21,11-59.27,37.89-59.27V127.43C212.65,127.43,195.52,125.15,187.82,137.48Z"/><path class="cls-4" d="M220,187.07h-.21c-26.87,0-37.89.06-37.89,59.27a50,50,0,0,1,5.85-13.77c6.91-11.07,28.67-10.34,32-10.16l.49,0,83.7.15V187C284.07,187,230.91,187.07,220,187.07Z"/><path class="cls-4" d="M220.92,90.79c-27.73,0-39.1.32-39.1,61.22l0-.1a54,54,0,0,1,6-14.43c7.7-12.33,24.83-10,31.92-10h87.34V90.7C286.7,90.7,232.16,90.79,220.92,90.79Z"/><path class="cls-4" d="M375.66,90.83c-27.72,0-39.09.33-39.09,61.23l0-.11a53.71,53.71,0,0,1,6-14.43c7.69-12.32,24.83-10.05,31.91-10.05h87.34V90.74C441.45,90.74,386.9,90.83,375.66,90.83Z"/><path class="cls-4" d="M375.67,185.31c-27.72,0-39.09.32-39.09,61.23l0-.11a54,54,0,0,1,6-14.43c7.7-12.32,24.83-10.05,31.92-10.05h87.34V185.22C441.46,185.22,386.91,185.31,375.67,185.31Z"/><path class="cls-3" d="M832.32,165.84,758,342.21l48.66,0L876,176.82C863.26,137.48,832.32,165.84,832.32,165.84Z"/><path class="cls-4" d="M888.15,90.67H865.22l-32.9,75.17s30.94-28.36,43.68,11c2.22,6.87,64.21,165.35,64.21,165.35h48.18Z"/><polygon class="cls-3" points="374.26 436.08 374.26 445.31 374.26 553.82 390.25 553.82 390.25 474.02 390.25 436.08 374.26 436.08"/><polygon class="cls-3" points="454.92 436.08 454.92 515.45 454.92 553.47 471.01 553.41 471.01 544.18 471.01 436.08 454.92 436.08"/><path class="cls-4" d="M465,530.18c-4.29,1.43-9.57-2.29-12.28-4.57l-24.17-37.44h0c-6.86-10.59-23.83-36.77-26.79-41.36-3.91-6.05-6.66-10.3-11.46-10.68l0-.05h-16s0,12.79,0,26.41a22.11,22.11,0,0,1,6-3.13c3.17-1.05,6.87.7,9.68,2.61l25.41,39.43h0c6.86,10.57,23.87,36.76,26.84,41.35,4.23,6.53,7,11.07,12.74,11.07,0,0,.07,0,.07,0h16s0-13.15,0-26.77A22.17,22.17,0,0,1,465,530.18Z"/><path class="cls-3" d="M205.19,507.1l32.61,46.72h21.94L227.17,509a35.58,35.58,0,0,1-7.84,1A37.85,37.85,0,0,1,205.19,507.1Z"/><path class="cls-3" d="M183.38,473.08c0,8.38,0,29.54,0,32.73v48h17.73V504.91A37.28,37.28,0,0,1,183.38,473.08Z"/><path class="cls-4" d="M219,436.08H183.38v17.79H219c10.19,0,18.49,8.6,18.49,19.16s-8.3,19.16-18.49,19.16-18.49-8.6-18.49-19.16h-17.1a37.27,37.27,0,0,0,17.22,31.65,34.44,34.44,0,0,0,26.05,4.43c16-3.65,28-18.44,28-36.08C254.64,452.65,238.64,436.08,219,436.08Z"/><path class="cls-4" d="M881.09,502.35V444H864.5v66.21q0,14.38-4.62,20.72a22,22,0,0,1-11.09,8.19C869.57,533.15,881.09,506.76,881.09,502.35Z"/><path class="cls-3" d="M881.09,502.35c0,4.41-11.52,30.8-32.3,36.77-.74.24-1.5.46-2.28.63l-.54.11c-.62.11-1.24.21-1.87.28-.33.05-.67.09-1,.12-.89.08-1.8.13-2.72.13s-2,0-3-.14l-.18,0a25.76,25.76,0,0,1-2.58-.4,20.32,20.32,0,0,1-14.73-10.55l-.1-.17c-4.16-7.81-3.51-16.81-3.51-16.81V444H799.72v70.77a44.4,44.4,0,0,0,2.66,15.68c.08.22.18.45.27.67.28.7.59,1.39.9,2.07a38.64,38.64,0,0,0,3.07,5.33c.21.31.43.63.66.94.38.51.76,1,1.17,1.53.67.82,1.35,1.62,2.09,2.39,1,1,2,2,3.07,2.9l.09.08a40,40,0,0,0,6.33,4.42l.7.39c.92.5,1.86,1,2.81,1.36.43.19.85.36,1.27.52.8.32,1.61.62,2.43.88.51.16,1,.3,1.5.44.87.24,1.74.46,2.63.64l1.1.21c1.07.19,2.15.35,3.25.46l.49.05c1.36.12,2.74.18,4.16.18A40.19,40.19,0,0,0,863.68,549c.25-.17.48-.36.72-.53.68-.49,1.34-1,2-1.53q.65-.52,1.29-1.08c.88-.78,1.75-1.57,2.59-2.44q10.82-11.24,10.82-28.61Z"/><path class="cls-4" d="M543.75,555.64a60.5,60.5,0,0,0,24.16-7.74v-20a84.42,84.42,0,0,1-7.72,5.84,43.34,43.34,0,0,1-7.08,3.84,35.11,35.11,0,0,1-14.88,2.85,38.57,38.57,0,0,1-28.62-11.89,41.16,41.16,0,0,1-6.52-8.66C513.93,540.88,539.24,555.34,543.75,555.64Z"/><path class="cls-3" d="M481.16,498.85q0,16.9,7.45,29.87l.58.92c.52.87,1.07,1.71,1.64,2.55.38.55.75,1.1,1.16,1.64a36,36,0,0,0,2.61,3.33,61.45,61.45,0,0,0,30.19,17.35,62.54,62.54,0,0,0,19.07,1.12c-4.73,0-38.29-19.36-44.69-46-.26-.94-.49-1.91-.68-2.91,0-.23-.07-.47-.11-.7-.12-.78-.22-1.58-.31-2.39,0-.43-.09-.85-.13-1.29-.08-1.15-.14-2.31-.14-3.49a41.84,41.84,0,0,1,11.76-29.14c12.64-12.84,25.85-12.18,28.55-12.18s15.25-.27,29.76,12V449.92a54.14,54.14,0,0,0-28.62-8.05c-17,0-31.48,5.67-44.21,20.15A56.7,56.7,0,0,0,481.16,498.85Z"/><path class="cls-3" d="M703.7,519.79c.1.17.22.34.32.51a40,40,0,0,1-5.59-21.16q0-17.81,11.82-29.61,11.82-12,29.26-12,19.43,0,33,18l11.82-11.32q-10.34-11.82-21-17.09a55.74,55.74,0,0,0-24.06-5.27q-24,0-40.72,16.73t-16.73,40.58a55.21,55.21,0,0,0,16.45,40.15Q714.66,556,737.73,556a60.87,60.87,0,0,0,6.69-.4C739.34,554.81,714.37,540.46,703.7,519.79Z"/><path class="cls-4" d="M743.75,496.65v15.59h27.44v0l-.08,1.32a18.23,18.23,0,0,1-.77,3.26,29.24,29.24,0,0,1-8,13.4c-.22.24-.43.44-.6.6l-.69.6c-.27.24-.52.49-.8.73s-.68.52-1,.78c-.62.51-1.21,1-1.77,1.37-.73.52-1.43,1-2.16,1.41l-.14.09-1,.6a31.13,31.13,0,0,1-15.17,4h-.27l-.42,0a36.19,36.19,0,0,1-7-.68,36.71,36.71,0,0,1-15.6-7.07c-.45-.33-.91-.66-1.37-1l-.85-.72c-.63-.51-1.26-1-1.88-1.55l-.34-.34-.36-.31a38.53,38.53,0,0,1-5-5.58l-.16-.22c-.61-.84-1.17-1.67-1.67-2.5l-.09-.15c-.1-.17-.22-.34-.32-.51,10.67,20.67,35.64,35,40.72,35.76a50.81,50.81,0,0,0,14.24-3.67c.38-.17.77-.33,1.15-.51,1.39-.64,2.77-1.32,4.1-2.1l.33-.2a46.74,46.74,0,0,0,4-2.62c.15-.11.31-.21.45-.32l.38-.32q1.71-1.3,3.35-2.77c.4-.36.78-.76,1.17-1.13s.73-.75,1.1-1.13a51.27,51.27,0,0,0,13.06-24.48c0-.15,0-.31.08-.46.23-1.16.44-2.35.59-3.58.26-1.89.47-3.84.59-5.86,0-.12,0-.25,0-.37.11-1.76.16-3.57.17-5.43,0-.31,0-.6,0-.88v-3.07Z"/><path class="cls-3" d="M297.35,471.37,262.6,553.82l22.74,0,32.42-77.3C311.8,458.11,297.35,471.37,297.35,471.37Z"/><path class="cls-4" d="M323.44,436.23H312.72l-15.37,35.14s14.45-13.26,20.41,5.13c1,3.21,30,77.3,30,77.3H370.3Z"/><path class="cls-3" d="M608.82,471.42l-34.75,82.45,22.75,0,32.42-77.3C623.28,458.16,608.82,471.42,608.82,471.42Z"/><path class="cls-4" d="M634.92,436.28H624.2l-15.38,35.14s14.46-13.26,20.42,5.13c1,3.21,30,77.3,30,77.3h22.52Z"/><path class="cls-3" d="M915.39,471.37l-34.75,82.45,22.75,0,32.42-77.3C929.85,458.11,915.39,471.37,915.39,471.37Z"/><path class="cls-4" d="M941.49,436.23H930.77l-15.38,35.14s14.46-13.26,20.42,5.13c1,3.21,30,77.3,30,77.3h22.51Z"/><path class="cls-1" d="M1418.25,229.76a117.25,117.25,0,0,1,13.58-54.91l-26-13.56-.16-.08a147.5,147.5,0,0,0,40.48,185.27l.08-.1,18.33-23.05A117.49,117.49,0,0,1,1418.25,229.76Z"/><path class="cls-1" d="M1667.05,161.77l-26.54,13.52a117.77,117.77,0,0,1-32.16,147.43l18.05,23.67a147.5,147.5,0,0,0,40.65-184.62Z"/><path class="cls-1" d="M1535.65,347.36h-.2a117.13,117.13,0,0,1-68-21.6l-18.41,23a147.09,147.09,0,0,0,173.91-.33l-18.6-23.28A117.17,117.17,0,0,1,1535.65,347.36Z"/><path class="cls-1" d="M1422.75,229.72a113.3,113.3,0,1,0,205-66.6l-.11-.15-.06-.08,24.55-22.23c-34.83-43.26-90.06-50.07-109.5-51.11l6.72,0V78.78h-26.23V89.49l6.26,0c-70.14,2.74-110.57,51.15-110.57,51.15l25.57,22.57A112.71,112.71,0,0,0,1422.75,229.72Z"/><path class="cls-1" d="M1341.58,291.43l39.08-8.16-21.24,22.53,31.13.93-33.41,21.58-2.2-5.2,18.9-11.79-26-.74,17.76-18.86-21.81,4.95Z"/><path class="cls-1" d="M1383.66,349l-9.33-13.57a6.9,6.9,0,0,0-2.67,4.07,5.63,5.63,0,0,0,1,4.38,5.44,5.44,0,0,0,2.64,2.16,13.18,13.18,0,0,0,4.52.42l.48,5.11a17.59,17.59,0,0,1-3.74-.09,11.75,11.75,0,0,1-3.12-.87,10.11,10.11,0,0,1-2.6-1.67,14.83,14.83,0,0,1-2.19-2.53,10.8,10.8,0,0,1-2-8.68,12.4,12.4,0,0,1,5.51-7.57,12.69,12.69,0,0,1,9-2.51,11.5,11.5,0,0,1,9.2,13.21q-1,4.23-5.67,7.45Zm.49-6.95q2.88-3.33.47-6.82a5.24,5.24,0,0,0-1.28-1.33,5.3,5.3,0,0,0-1.57-.8,5.54,5.54,0,0,0-1.78-.22,6.17,6.17,0,0,0-1.88.38Z"/><path class="cls-1" d="M1421.57,346.93l3.66,3.88-29,27.35-3.66-3.89,1.75-1.65a9.91,9.91,0,0,1-7.1-3.06,10.11,10.11,0,0,1-2.87-8.07,12.83,12.83,0,0,1,4.26-8.27,12.43,12.43,0,0,1,8.38-3.64,9.94,9.94,0,0,1,10.37,10.75Zm-29.23,10.24a8,8,0,0,0-2.7,5,5.8,5.8,0,0,0,1.61,4.77A6.09,6.09,0,0,0,1396,369a8.76,8.76,0,0,0,7.76-7.32,6,6,0,0,0-1.74-4.84,5.88,5.88,0,0,0-4.66-1.91A7.67,7.67,0,0,0,1392.34,357.17Z"/><path class="cls-1" d="M1422.09,370l-14.84,17.56-4-3.43L1418,366.54Zm1.5-11.24a3.45,3.45,0,0,1,6.06,2,3.26,3.26,0,0,1-.79,2.51,3.36,3.36,0,0,1-2.36,1.22,3.26,3.26,0,0,1-2.51-.8,3.46,3.46,0,0,1-.4-4.9Z"/><path class="cls-1" d="M1441.14,383.72l4.44,3-12.77,19.12-4.43-3,1.33-2a10.18,10.18,0,0,1-12.21-8.61,12.79,12.79,0,0,1,2.3-9,12.41,12.41,0,0,1,7.36-5.45,10,10,0,0,1,8.35,1.43,9.78,9.78,0,0,1,4.15,6.75Zm-16.82,2.5a8,8,0,0,0-1.52,5.46,5.83,5.83,0,0,0,2.64,4.29,6.12,6.12,0,0,0,5.09,1,8.74,8.74,0,0,0,5.93-8.88,6,6,0,0,0-2.79-4.32,5.85,5.85,0,0,0-5-.82A7.66,7.66,0,0,0,1424.32,386.22Z"/><path class="cls-1" d="M1463.91,377l-18.23,35.45L1441,410l18.23-35.45Z"/><path class="cls-1" d="M1467,397l-4.75,12.31q-2.06,5.33,2.15,7t6.26-3.7l4.75-12.31,4.95,1.9-4.78,12.42a15,15,0,0,1-2.36,4.21,8,8,0,0,1-3.3,2.19,11.17,11.17,0,0,1-12.75-4.91,8.12,8.12,0,0,1-1-3.86,13.22,13.22,0,0,1,1.09-4.69l4.79-12.42Z"/><path class="cls-1" d="M1486.55,404l5.21,1.17-.47,2.07a8.7,8.7,0,0,1,6.73-1.32,7.91,7.91,0,0,1,5.55,3.83c1,1.68,1.06,4.1.36,7.26l-3.08,13.75-5.21-1.17,2.81-12.52c.49-2.21.53-3.81.1-4.79s-1.4-1.67-3-2a4.09,4.09,0,0,0-4,.89q-1.44,1.44-2.38,5.63l-2.42,10.83-5.2-1.17Z"/><path class="cls-1" d="M1529.2,410.48l5.32.35L1533,433.77l-5.32-.36.16-2.4a10.2,10.2,0,0,1-14.88-1.37,12.8,12.8,0,0,1-2.5-9,12.42,12.42,0,0,1,3.65-8.39,10,10,0,0,1,8-2.92,9.77,9.77,0,0,1,7,3.78ZM1515.86,421a8,8,0,0,0,1.41,5.49,5.79,5.79,0,0,0,4.43,2.4,6.1,6.1,0,0,0,4.89-1.71,8.72,8.72,0,0,0,.71-10.64,6,6,0,0,0-4.57-2.36A5.88,5.88,0,0,0,1518,416,7.7,7.7,0,0,0,1515.86,421Z"/><path class="cls-1" d="M1570.27,414.73l13.8,13.34-6.62,1.16-12.84-12.88-1,.18,2.59,14.68-5.41,1-6.33-35.88,6.34-1.12q7.13-1.26,10.75.86a10,10,0,0,1,4.87,7.24,10.31,10.31,0,0,1-1,6.94A9.89,9.89,0,0,1,1570.27,414.73Zm-7.47-2.92,1.72-.3q7.7-1.36,6.66-7.24-1-5.5-8.46-4.19l-1.93.34Z"/><path class="cls-1" d="M1599.37,398.87l5-1.74,7.5,21.73-5,1.74-.79-2.27a10.19,10.19,0,0,1-14.24,4.51,12.82,12.82,0,0,1-5.79-7.29,12.43,12.43,0,0,1,.12-9.15,9.92,9.92,0,0,1,6.19-5.78,9.73,9.73,0,0,1,7.88.77Zm-8.19,14.91a8,8,0,0,0,3.43,4.51,5.79,5.79,0,0,0,5,.49,6.12,6.12,0,0,0,3.85-3.47,8.73,8.73,0,0,0-3.48-10.09,6,6,0,0,0-5.13-.4,5.88,5.88,0,0,0-3.65,3.46A7.66,7.66,0,0,0,1591.18,413.78Z"/><path class="cls-1" d="M1610.34,394.45l4.72-2.49,1,1.87a8.71,8.71,0,0,1,4.26-5.37,8,8,0,0,1,6.71-.7q2.71,1,5,5.29l6.59,12.46-4.72,2.49-6-11.35q-1.59-3-3-3.7c-1-.5-2.15-.36-3.58.39a4.11,4.11,0,0,0-2.5,3.3q-.16,2,1.85,5.83l5.19,9.8-4.71,2.5Z"/><path class="cls-1" d="M1648.4,372l4.12,5.73a13.08,13.08,0,0,0-4.42-.57,6.24,6.24,0,0,0-3.19,1.26,6.53,6.53,0,0,0-2.82,4.61,7.4,7.4,0,0,0,1.47,5.43,7.53,7.53,0,0,0,4.65,3.19,6.47,6.47,0,0,0,5.22-1.19,6.8,6.8,0,0,0,2.25-2.65,13.07,13.07,0,0,0,.88-4.47l4.1,5.69a14,14,0,0,1-4.27,5.14,12.35,12.35,0,0,1-9.25,2.41,12.15,12.15,0,0,1-10.07-14.06,12.29,12.29,0,0,1,5.17-8.09A13.42,13.42,0,0,1,1648.4,372Z"/><path class="cls-1" d="M1663.9,356.34l3.84-3.71,16,16.55-3.84,3.7-1.67-1.73a10.2,10.2,0,0,1-11,10.1,12.84,12.84,0,0,1-8.32-4.17,12.45,12.45,0,0,1-3.76-8.35,10,10,0,0,1,3.18-7.85,9.78,9.78,0,0,1,7.48-2.62Zm-1.15,17a8,8,0,0,0,5,2.64,5.81,5.81,0,0,0,4.75-1.66,6.11,6.11,0,0,0,2-4.77,8.73,8.73,0,0,0-7.4-7.68,6,6,0,0,0-4.83,1.8,5.85,5.85,0,0,0-1.85,4.67A7.67,7.67,0,0,0,1662.75,373.31Z"/><path class="cls-1" d="M1703.33,343.46c.87.66,1.61,1.26,2.23,1.81a19.33,19.33,0,0,1,1.57,1.55,9.63,9.63,0,0,1,2.23,4.45,10.75,10.75,0,0,1-2.27,9,11.41,11.41,0,0,1-6.53,4.56,10.12,10.12,0,0,1-7.77-1.4l3.2-4.27a6.15,6.15,0,0,0,2.71.77,5.75,5.75,0,0,0,4.61-2.57q3.5-4.65-2.22-8.95l-2.57-1.93a9.94,9.94,0,0,1-1.79,7.78,9.82,9.82,0,0,1-7.34,4.11,12.58,12.58,0,0,1-8.7-2.76,13.26,13.26,0,0,1-5.15-7.37,9.77,9.77,0,0,1,1.81-8.62,9.28,9.28,0,0,1,6.92-3.84l-2.07-1.55,3.18-4.25ZM1691.55,341a7.74,7.74,0,0,0-5.36-1.78,5.94,5.94,0,0,0-4.43,2.49,5.71,5.71,0,0,0-1.07,5.16,9.22,9.22,0,0,0,8.26,6.2,5.73,5.73,0,0,0,4.62-2.49,5.84,5.84,0,0,0,1.12-5.18A8,8,0,0,0,1691.55,341Z"/><path class="cls-1" d="M1691.3,319.77l11.63,6.22q5,2.7,7.17-1.28t-2.92-6.67l-11.63-6.22,2.5-4.68,11.74,6.27a14.53,14.53,0,0,1,3.88,2.86,8,8,0,0,1,1.78,3.54,11.16,11.16,0,0,1-6.45,12.05,8.12,8.12,0,0,1-4,.54,13.17,13.17,0,0,1-4.52-1.67l-11.73-6.28Z"/><path class="cls-1" d="M1706.36,285.23l1.77-5,21.69,7.6-1.76,5-2.27-.79a10.2,10.2,0,0,1-5.29,14,12.82,12.82,0,0,1-9.31,0,12.45,12.45,0,0,1-7.11-5.76,10,10,0,0,1-.69-8.45,9.77,9.77,0,0,1,5.49-5.7ZM1713,300.9a8.1,8.1,0,0,0,5.67.11,5.82,5.82,0,0,0,3.49-3.63,6.08,6.08,0,0,0-.34-5.17,8.74,8.74,0,0,0-10.07-3.53,6,6,0,0,0-3.5,3.78,5.89,5.89,0,0,0,.45,5A7.69,7.69,0,0,0,1713,300.9Z"/><path class="cls-2" d="M1493.11,173.75h-17.3v-9.12h34L1486.08,206h-11.86Z"/><path class="cls-2" d="M1527.42,187.2h15.76v8.29h-15.76Z"/><path class="cls-2" d="M1572.89,184.18c-4.32-1.8-6.48-4.83-6.48-9.12a10.55,10.55,0,0,1,1-4.75,11.42,11.42,0,0,1,2.88-3.65,13,13,0,0,1,4.45-2.36,20.47,20.47,0,0,1,11.47,0,12.94,12.94,0,0,1,4.45,2.36,11.32,11.32,0,0,1,2.89,3.65,10.69,10.69,0,0,1,1,4.75,11.9,11.9,0,0,1-.33,2.94,6.69,6.69,0,0,1-1.13,2.36,9.52,9.52,0,0,1-2.08,2,19.42,19.42,0,0,1-3.21,1.81q8.44,3.28,8.45,10.65a10.33,10.33,0,0,1-1.18,4.89,11.86,11.86,0,0,1-3.29,3.89,16.09,16.09,0,0,1-5,2.58,21.82,21.82,0,0,1-12.57,0,15.89,15.89,0,0,1-5-2.55,12.19,12.19,0,0,1-3.35-3.9,10.34,10.34,0,0,1-1.2-4.94Q1564.71,187.3,1572.89,184.18Zm2.69,9.33a5.06,5.06,0,0,0,.38,2,5.24,5.24,0,0,0,1,1.62,5,5,0,0,0,1.57,1.1,4.7,4.7,0,0,0,2,.41,4.56,4.56,0,0,0,1.89-.41,5.26,5.26,0,0,0,1.59-1.1,4.87,4.87,0,0,0,1.46-3.54A4.86,4.86,0,0,0,1584,190a4.95,4.95,0,0,0-7,0A4.83,4.83,0,0,0,1575.58,193.51Zm.38-18.34a4.51,4.51,0,0,0,1.32,3.27,4.36,4.36,0,0,0,3.24,1.35,4.17,4.17,0,0,0,1.81-.39,4.69,4.69,0,0,0,1.43-1,5.14,5.14,0,0,0,1-1.46,4.22,4.22,0,0,0,.36-1.7,4.4,4.4,0,0,0-1.32-3.21,4.36,4.36,0,0,0-3.24-1.35,4.4,4.4,0,0,0-3.24,1.32A4.33,4.33,0,0,0,1576,175.17Z"/><path class="cls-2" d="M1474.44,249.82V213.37h9.48l17.49,22.29V213.37h9.43v36.45h-9.43l-17.49-22.28v22.28Z"/><path class="cls-2" d="M1517.26,231.59a18.81,18.81,0,0,1,12-17.76,23.22,23.22,0,0,1,16.26,0,19.24,19.24,0,0,1,6.4,4.09,18.65,18.65,0,0,1,4.19,6.11,19.95,19.95,0,0,1,0,15.13,18.55,18.55,0,0,1-4.19,6.11,19.09,19.09,0,0,1-6.4,4.09,23.22,23.22,0,0,1-16.26,0,18.85,18.85,0,0,1-12-17.77Zm9.91,0a9.7,9.7,0,0,0,.83,4,10,10,0,0,0,5.48,5.29,10.56,10.56,0,0,0,11.17-2.1,10,10,0,0,0,2.24-3.19,10.13,10.13,0,0,0,0-8,10.11,10.11,0,0,0-2.24-3.19,10.64,10.64,0,0,0-11.17-2.1,10,10,0,0,0-5.48,5.29A9.72,9.72,0,0,0,1527.17,231.59Z"/><path class="cls-2" d="M1568.4,213.37l8.8,22.19,8.84-22.19h10.3L1581,249.82h-7.54l-15.32-36.45Z"/><path class="cls-2" d="M1486,294.31h14.24v5.42h-25.68l13.27-16.08c1.31-1.6,2.4-3,3.29-4.16a34.13,34.13,0,0,0,2-2.94,8.32,8.32,0,0,0,1.41-4.19,5.94,5.94,0,0,0-1.89-4.48,6.42,6.42,0,0,0-4.65-1.81q-5.81,0-6.64,6.86h-5.75q1.39-12.09,12.21-12.09a12.34,12.34,0,0,1,8.77,3.32,10.76,10.76,0,0,1,3.57,8.22,12.47,12.47,0,0,1-1.66,6.12,30,30,0,0,1-2.46,3.71c-1.09,1.42-2.45,3.11-4.1,5.06Z"/><path class="cls-2" d="M1506.72,280.36q0-9.14,4.26-14.59,3.81-4.92,9.24-4.93t9.24,4.93q4.26,5.44,4.26,14.84t-4.26,14.81q-3.82,4.93-9.22,4.93t-9.26-4.93Q1506.72,290,1506.72,280.36Zm5.67,0a22.66,22.66,0,0,0,2.2,10.58q2.21,4.14,5.63,4.14t5.62-4.14a25.32,25.32,0,0,0,0-20.78q-2.23-4.11-5.62-4.11t-5.6,4.11A21.09,21.09,0,0,0,1512.39,280.38Z"/><path class="cls-2" d="M1548.58,294.31h14.24v5.42h-25.69l13.28-16.08c1.3-1.6,2.4-3,3.28-4.16a32,32,0,0,0,2-2.94,8.32,8.32,0,0,0,1.41-4.19,6,6,0,0,0-1.88-4.48,6.46,6.46,0,0,0-4.66-1.81q-5.79,0-6.64,6.86h-5.74q1.38-12.09,12.21-12.09a12.36,12.36,0,0,1,8.77,3.32,10.76,10.76,0,0,1,3.56,8.22,12.47,12.47,0,0,1-1.66,6.12,30,30,0,0,1-2.46,3.71q-1.62,2.13-4.1,5.06Z"/><path class="cls-2" d="M1569.33,280.36q0-9.14,4.26-14.59c2.55-3.28,5.62-4.93,9.24-4.93s6.7,1.65,9.24,4.93q4.26,5.44,4.26,14.84t-4.26,14.81c-2.54,3.29-5.62,4.93-9.21,4.93s-6.69-1.64-9.27-4.93Q1569.33,290,1569.33,280.36Zm5.67,0a22.66,22.66,0,0,0,2.21,10.58q2.2,4.14,5.62,4.14c2.26,0,4.14-1.38,5.62-4.14a25.32,25.32,0,0,0,0-20.78c-1.48-2.74-3.36-4.11-5.62-4.11s-4.11,1.37-5.6,4.11A21.2,21.2,0,0,0,1575,280.38Z"/><path class="cls-6" d="M1651.6,1658.9l2.22-3.28a7.34,7.34,0,0,0,5.23,2.15c1.42,0,2.29-.48,2.29-1.29,0-2.15-9.2-.37-9.2-6.64,0-2.74,2.29-5.18,6.47-5.18a10,10,0,0,1,6.62,2.27l-2.3,3.15a7.54,7.54,0,0,0-4.76-1.71c-1.22,0-1.76.42-1.76,1.12,0,2,9.21.49,9.21,6.55,0,3.27-2.42,5.45-6.79,5.45a10.07,10.07,0,0,1-7.23-2.59"/><polygon class="cls-6" points="1674.65 1661.19 1674.65 1644.9 1686.6 1644.9 1686.6 1648.57 1678.86 1648.57 1678.86 1651.11 1686.43 1651.11 1686.43 1654.77 1678.86 1654.77 1678.86 1657.53 1686.6 1657.53 1686.6 1661.19 1674.65 1661.19"/><polygon class="cls-6" points="1713.85 1661.19 1707.72 1644.9 1712.48 1644.9 1716.52 1656.65 1720.52 1644.9 1725.28 1644.9 1719.15 1661.19 1713.85 1661.19"/><rect class="cls-6" x="1733.56" y="1644.9" width="4.2" height="16.29"/><polygon class="cls-6" points="1752.17 1661.19 1746.04 1644.9 1750.8 1644.9 1754.83 1656.65 1758.84 1644.9 1763.6 1644.9 1757.47 1661.19 1752.17 1661.19"/><polygon class="cls-6" points="1771.88 1661.19 1771.88 1644.9 1783.82 1644.9 1783.82 1648.57 1776.08 1648.57 1776.08 1651.11 1783.65 1651.11 1783.65 1654.77 1776.08 1654.77 1776.08 1657.53 1783.82 1657.53 1783.76 1661.95 1771.88 1661.19"/><path class="cls-6" d="M1469.37,1427.47v-9l-3.54,9h-1.16l-3.54-9v9h-2.67v-12.54h3.74l3,7.84,3-7.84h3.76v12.54Z"/><path class="cls-6" d="M1478.08,1422.45v-7.52h2.71v7.44a2.94,2.94,0,1,0,5.88,0v-7.44h2.73v7.52c0,3.1-1.84,5.25-5.66,5.25S1478.08,1425.55,1478.08,1422.45Z"/><path class="cls-6" d="M1504.09,1427.47l-6-8.18v8.18h-2.67v-12.54h2.75l5.81,7.88v-7.88h2.67v12.54Z"/><path class="cls-6" d="M1512.71,1427.47v-12.54h2.67v12.54Z"/><path class="cls-6" d="M1520.81,1421.21a6.37,6.37,0,0,1,6.7-6.49,5.71,5.71,0,0,1,5.23,3.06l-2.3,1.13a3.38,3.38,0,0,0-2.93-1.82,4.12,4.12,0,0,0,0,8.24,3.37,3.37,0,0,0,2.93-1.83l2.3,1.11a5.77,5.77,0,0,1-5.23,3.09A6.39,6.39,0,0,1,1520.81,1421.21Z"/><path class="cls-6" d="M1537.87,1427.47v-12.54h2.67v12.54Z"/><path class="cls-6" d="M1546.58,1427.47v-12.54h5.87a4,4,0,1,1,0,8.06h-3.2v4.48Zm7.36-8.5a1.7,1.7,0,0,0-1.87-1.69h-2.82v3.36h2.82A1.7,1.7,0,0,0,1553.94,1419Z"/><path class="cls-6" d="M1569.15,1427.47l-.79-2.13H1563l-.79,2.13h-3l4.83-12.54h3.35l4.83,12.54Zm-3.48-9.87-2,5.39h3.91Z"/><path class="cls-6" d="M1576.79,1427.47v-12.54h2.69v10.19h5.3v2.35Z"/><path class="cls-6" d="M1590.13,1427.47v-12.54h2.67v12.54Z"/><path class="cls-6" d="M1598.84,1427.47v-12.54h4.94c3.93,0,6.66,2.5,6.66,6.26s-2.73,6.28-6.64,6.28Zm8.87-6.28a3.66,3.66,0,0,0-3.91-3.91h-2.29v7.84h2.27A3.76,3.76,0,0,0,1607.71,1421.19Z"/><path class="cls-6" d="M1623.93,1427.47l-.79-2.13h-5.38l-.79,2.13h-3l4.83-12.54h3.35l4.83,12.54Zm-3.48-9.87-2,5.39h3.91Z"/><path class="cls-6" d="M1631.68,1427.47v-12.54h4.94c3.93,0,6.66,2.5,6.66,6.26s-2.73,6.28-6.64,6.28Zm8.87-6.28a3.66,3.66,0,0,0-3.91-3.91h-2.29v7.84h2.27A3.76,3.76,0,0,0,1640.55,1421.19Z"/><path class="cls-6" d="M1235.27,1408.3A134.76,134.76,0,1,0,1370,1543.06a134.76,134.76,0,0,0-134.75-134.76m-43,56.4a3.31,3.31,0,0,1,3.3-3.31h63a3.31,3.31,0,0,1,3.31,3.31v19.87a3.31,3.31,0,0,1-3.31,3.3h-63a3.3,3.3,0,0,1-3.3-3.3Zm93.41,149h-24.61a3,3,0,0,1-2.29-1.08l-25.1-30.4a3,3,0,0,0-2.29-1.07h-8.08a3,3,0,0,0-3,3v26.55a3,3,0,0,1-3,3h-21.89a3,3,0,0,1-3-3v-104a3,3,0,0,1,3-3h53a35.81,35.81,0,0,1,14.55,3A37.05,37.05,0,0,1,1275,1515a39.28,39.28,0,0,1,10.89,27.36,39.51,39.51,0,0,1-6.59,22.06,36.94,36.94,0,0,1-7.51,8.23,40.13,40.13,0,0,1-6.19,4.16,3,3,0,0,0-.86,4.53l23.23,27.5a3,3,0,0,1-2.27,4.88"/><path class="cls-6" d="M1245,1529H1223.3a3,3,0,0,0-3,3v21a3,3,0,0,0,3,3H1245a12.33,12.33,0,0,0,9.15-3.94,13.25,13.25,0,0,0,3.85-9.61,13,13,0,0,0-3.85-9.43A12.35,12.35,0,0,0,1245,1529"/><path class="cls-6" d="M1439.42,1434.7h-30.9a5.06,5.06,0,0,1-5.06-5.06v-5.47a5.07,5.07,0,0,1,5.06-5.07h30.9a5.07,5.07,0,0,1,5.07,5.07v5.47a5.06,5.06,0,0,1-5.07,5.06"/><path class="cls-6" d="M1463.71,1475.94a25.71,25.71,0,0,1-4.27,14.3,24,24,0,0,1-4.87,5.34,26.09,26.09,0,0,1-4.94,3.17,1.09,1.09,0,0,0-.38,1.65l17.86,22.76a1.09,1.09,0,0,1-.85,1.76H1448a1.1,1.1,0,0,1-.87-.43l-17.52-23a1.09,1.09,0,0,0-.87-.42h-6.44a1.08,1.08,0,0,0-1.09,1.08v21.94a1.09,1.09,0,0,1-1.09,1.09h-15.86a1.09,1.09,0,0,1-1.09-1.09V1452a1.09,1.09,0,0,1,1.09-1.09h35.22a23.27,23.27,0,0,1,9.44,2,24.32,24.32,0,0,1,7.71,5.34,25.48,25.48,0,0,1,7.06,17.74m-26.46,8.78a8,8,0,0,0,5.93-2.55,8.59,8.59,0,0,0,2.49-6.23,8.44,8.44,0,0,0-2.49-6.11,8,8,0,0,0-5.93-2.55h-14.93a1.09,1.09,0,0,0-1.09,1.09v15.26a1.09,1.09,0,0,0,1.09,1.09Z"/><path class="cls-6" d="M1531.88,1451.18l30.23,72.41a1,1,0,0,1-.89,1.33h-15.11a1,1,0,0,1-.88-.59l-6.22-14.76a1,1,0,0,0-.88-.59h-30.28a.94.94,0,0,0-.88.6l-6.12,14.74a1,1,0,0,1-.88.6h-15.22a1,1,0,0,1-.88-1.33l30.22-72.41a1,1,0,0,1,.89-.59h16a1,1,0,0,1,.88.59m.36,42-8.31-19.93a1,1,0,0,0-1.78,0l-8.3,19.93a1,1,0,0,0,.88,1.33h16.62a1,1,0,0,0,.89-1.33"/><path class="cls-6" d="M1629.12,1450.9h14a1,1,0,0,1,1,1v72.4a1,1,0,0,1-1,1h-13.75a1,1,0,0,1-.77-.39L1595,1479.05a1,1,0,0,0-1.73.57v44.64a1,1,0,0,1-1,1h-14a1,1,0,0,1-1-1v-72.4a1,1,0,0,1,1-1h13.44a.94.94,0,0,1,.77.4l33.94,46.09a1,1,0,0,0,1.73-.57v-45a1,1,0,0,1,1-1"/><path class="cls-6" d="M1437.28,1608a22.18,22.18,0,0,0,9.66-2.26,30.84,30.84,0,0,0,8.91-6.91.94.94,0,0,1,1.33,0l8.76,8.31a.94.94,0,0,1,.08,1.28,41.7,41.7,0,0,1-13.28,11.13,34.43,34.43,0,0,1-16,4,32.33,32.33,0,0,1-13.87-3,35.92,35.92,0,0,1-11.25-8.17,37.8,37.8,0,0,1-7.5-12,38.8,38.8,0,0,1-2.73-14.54,37.39,37.39,0,0,1,2.83-14.49,39.3,39.3,0,0,1,7.66-11.92,35.58,35.58,0,0,1,11.4-8.11,33.4,33.4,0,0,1,14-3,33.85,33.85,0,0,1,13.1,2.57,37.23,37.23,0,0,1,11.55,7.91,1,1,0,0,1,.08,1.28l-7.87,9.57a.94.94,0,0,1-1.35.1,21.56,21.56,0,0,0-15.51-6.12,18.72,18.72,0,0,0-8,1.74,20.88,20.88,0,0,0-6.52,4.73,22,22,0,0,0-4.37,7,23.6,23.6,0,0,0-1.59,8.68,23.15,23.15,0,0,0,1.59,8.63,22.64,22.64,0,0,0,4.37,7,20.41,20.41,0,0,0,6.52,4.78,18.58,18.58,0,0,0,8,1.75"/><path class="cls-6" d="M1520.17,1549.88l29.63,71a1,1,0,0,1-.87,1.31h-14.82a.92.92,0,0,1-.86-.58l-6.1-14.46a.92.92,0,0,0-.86-.58h-29.68a1,1,0,0,0-.87.58l-6,14.46a1,1,0,0,1-.87.58H1474a.94.94,0,0,1-.87-1.31l29.63-71a.94.94,0,0,1,.87-.58h15.7a1,1,0,0,1,.87.58m.34,41.18-8.14-19.53a.94.94,0,0,0-1.74,0l-8.14,19.53a.93.93,0,0,0,.86,1.3h16.29a.94.94,0,0,0,.87-1.3"/><path class="cls-6" d="M1595.1,1581h25.65a1,1,0,0,1,1,.94v25.45a1,1,0,0,1-.21.59,43.77,43.77,0,0,1-13.46,11.56,33.29,33.29,0,0,1-29.7,1,36.33,36.33,0,0,1-11.4-8.17,38.94,38.94,0,0,1-7.66-12,38.77,38.77,0,0,1,0-29,39.3,39.3,0,0,1,7.66-11.92,35.69,35.69,0,0,1,11.4-8.11,33.46,33.46,0,0,1,14-3,34.05,34.05,0,0,1,13.2,2.57,36.23,36.23,0,0,1,11.46,7.91.94.94,0,0,1,.07,1.27l-7.87,9.58a.94.94,0,0,1-1.35.1,24,24,0,0,0-7.39-4.74,23.35,23.35,0,0,0-8-1.38,18.94,18.94,0,0,0-8.07,1.74,21,21,0,0,0-6.52,4.73,22,22,0,0,0-4.37,7,23.6,23.6,0,0,0-1.59,8.68,23.15,23.15,0,0,0,1.59,8.63,22.64,22.64,0,0,0,4.37,7,20.41,20.41,0,0,0,6.52,4.78,18.8,18.8,0,0,0,8.07,1.75,21.52,21.52,0,0,0,7.55-1.39,25.33,25.33,0,0,0,7.21-4.29.92.92,0,0,0,.35-.73v-6.52a1,1,0,0,0-1-.94H1595.1a1,1,0,0,1-.94-.95v-11.27a.94.94,0,0,1,.94-.94"/><path class="cls-6" d="M1680.69,1549.3h13.73a1,1,0,0,1,.94,1v45.6a25.25,25.25,0,0,1-2.26,10.48,28.42,28.42,0,0,1-6.18,8.84,30,30,0,0,1-9.11,6.06,28.61,28.61,0,0,1-22.29,0,29.38,29.38,0,0,1-9.11-6.06,28.92,28.92,0,0,1-6.12-8.84,25.25,25.25,0,0,1-2.26-10.48v-45.6a1,1,0,0,1,.94-1h13.73a1,1,0,0,1,.94,1v42.52a16.44,16.44,0,0,0,1,5.81,16.88,16.88,0,0,0,2.76,4.83,13,13,0,0,0,4.15,3.33,11.07,11.07,0,0,0,10.18,0,13.93,13.93,0,0,0,4.15-3.33,16.35,16.35,0,0,0,3.83-10.64v-42.52a1,1,0,0,1,1-1"/><path class="cls-6" d="M1753,1549.88l29.63,71a1,1,0,0,1-.87,1.31H1767a.94.94,0,0,1-.87-.58l-6.09-14.46a1,1,0,0,0-.87-.58h-29.68a1,1,0,0,0-.87.58l-6,14.46a.94.94,0,0,1-.87.58h-14.91a1,1,0,0,1-.87-1.31l29.63-71a1,1,0,0,1,.87-.58h15.7a1,1,0,0,1,.87.58m.34,41.18-8.14-19.53a.94.94,0,0,0-1.74,0l-8.14,19.53a.94.94,0,0,0,.87,1.3h16.28a.94.94,0,0,0,.87-1.3"/><path class="cls-7" d="M197.51,2177.21h8l6.14,28.45q1.13,5.33,2.05,10.67t1.7,11.22c.06-.51.1-.91.13-1.19a4.9,4.9,0,0,1,.09-.61l1.31-8,1.18-7.59,1-5,5.47-27.95h8.12l6.42,69.71h-9l-1.58-23.66c-.06-1.2-.11-2.24-.16-3.11s-.07-1.6-.07-2.17l-.4-9.34-.23-8.58c0-.06,0-.19,0-.39s0-.46-.07-.79l-.22,1.4c-.24,1.66-.46,3.1-.66,4.34s-.37,2.27-.52,3.11l-1.17,6.37-.45,2.39-5.87,30.43h-6.32L207,2220.65q-1.14-5.21-2-10.55t-1.61-11.22l-2.7,48h-8.85Z"/><path class="cls-7" d="M264.52,2231.17h8q-.94,16.47-13.54,16.48a13.82,13.82,0,0,1-6.44-1.4,11.26,11.26,0,0,1-4.44-4.34,22.26,22.26,0,0,1-2.6-7.45,59.55,59.55,0,0,1-.84-10.74q0-12.37,3.46-18.34t10.68-6q14,0,14,24.75v1.08H253.14q0,15,6,15Q264.52,2240.24,264.52,2231.17Zm-.46-12.15c-.36-4.91-.91-8.13-1.67-9.66a3.93,3.93,0,0,0-3.79-2.58,3.88,3.88,0,0,0-3.79,2.58q-1.12,2.29-1.67,9.66Z"/><path class="cls-7" d="M307.23,2170.21v76.71h-8.62v-6a14.92,14.92,0,0,1-3.71,5.28,7.72,7.72,0,0,1-4.92,1.45q-5.78,0-8.49-5.94T278.78,2223a72.13,72.13,0,0,1,.68-10.61,26.41,26.41,0,0,1,2.06-7.36,9.91,9.91,0,0,1,3.54-4.27,9.37,9.37,0,0,1,5.15-1.38,7.75,7.75,0,0,1,4.69,1.36,9.35,9.35,0,0,1,1.85,1.8,18.32,18.32,0,0,1,1.86,2.89v-35.26Zm-19.51,53.14q0,9.22,1.22,12.87c.85,2.44,2.32,3.66,4.43,3.66q2.88,0,4.2-3.79,1.31-4.07,1.31-12.51T297.57,2211q-1.32-3.8-4.2-3.79-3.08,0-4.38,3.61Q287.73,2214.19,287.72,2223.35Z"/><path class="cls-7" d="M321.09,2180.33a5.84,5.84,0,0,1,5.78,5.82,5.85,5.85,0,1,1-11.69-.05,5.57,5.57,0,0,1,1.71-4.06A6,6,0,0,1,321.09,2180.33ZM317,2200.19h8.67v46.73H317Z"/><path class="cls-7" d="M362.09,2200.19v46.73h-8.62v-6a14.92,14.92,0,0,1-3.71,5.28,7.65,7.65,0,0,1-4.87,1.45q-5.83,0-8.54-6t-2.71-18.7q0-12.13,2.71-17.85t8.54-5.72q5.33,0,8.58,6v-5.28Zm-19.51,23.16q0,9.22,1.22,12.87c.85,2.44,2.32,3.66,4.43,3.66q2.88,0,4.2-3.79,1.31-4.07,1.31-12.51T352.43,2211q-1.32-3.8-4.2-3.79-3.08,0-4.38,3.61Q342.58,2214.19,342.58,2223.35Z"/><path class="cls-7" d="M371.89,2170.21h8.62v76.71h-8.62Z"/><path class="cls-7" d="M390.31,2200.19h8.62v31.25q.09,4.33,1.29,6.18a4.39,4.39,0,0,0,4,1.85q2.92,0,4.11-1.62t1.17-6v-31.7h8.62v27.95q0,9.8-1.44,13.1-3,6.41-12.55,6.41-7.5,0-10.66-3.8t-3.16-12.77Z"/><path class="cls-7" d="M427.88,2200.19h8.62v5.37q3.71-6.14,9.57-6.14,5.69,0,8.13,4.47,1.35,2.54,1.35,9.8v33.23h-8.62l-.05-31.24q0-4.74-1.12-6.73a4.12,4.12,0,0,0-3.89-2,5.51,5.51,0,0,0-2.5.52,4,4,0,0,0-1.65,1.67,9.47,9.47,0,0,0-.93,3,30.51,30.51,0,0,0-.29,4.56v30.2h-8.62Z"/><path class="cls-7" d="M492,2200.19v46.73h-8.62v-6a15,15,0,0,1-3.7,5.28,7.7,7.7,0,0,1-4.88,1.45q-5.82,0-8.54-6t-2.7-18.7q0-12.13,2.7-17.85t8.54-5.72q5.32,0,8.58,6v-5.28Zm-19.5,23.16q0,9.22,1.21,12.87c.85,2.44,2.32,3.66,4.43,3.66q2.89,0,4.2-3.79,1.31-4.07,1.31-12.51T482.33,2211q-1.31-3.8-4.2-3.79-3.08,0-4.38,3.61Q472.49,2214.19,472.49,2223.35Z"/><path class="cls-7" d="M168.09,2288.17h8l6.14,28.45q1.13,5.33,2.06,10.68t1.69,11.22c.06-.51.1-.91.13-1.2a3.44,3.44,0,0,1,.1-.61l1.3-8,1.18-7.58,1-5,5.46-27.95h8.13l6.41,69.72h-9l-1.58-23.66q-.09-1.8-.15-3.12c-.05-.87-.07-1.59-.07-2.16l-.41-9.35-.22-8.58c0-.06,0-.19,0-.38s0-.46-.06-.79l-.23,1.4c-.24,1.65-.46,3.1-.65,4.33s-.37,2.28-.52,3.12l-1.18,6.36-.45,2.4-5.87,30.43H183l-5.51-26.28q-1.12-5.19-2-10.54t-1.6-11.22l-2.71,48h-8.85Z"/><path class="cls-7" d="M244.63,2334.91q0,23.7-14.68,23.7t-14.67-24.06q0-24.16,14.63-24.16a14.12,14.12,0,0,1,6.57,1.44,11.67,11.67,0,0,1,4.58,4.47,23.71,23.71,0,0,1,2.69,7.64A59.8,59.8,0,0,1,244.63,2334.91Zm-8.94-.23q0-9.21-1.22-12.82c-.82-2.44-2.26-3.66-4.34-3.66s-3.5,1.21-4.38,3.61-1.22,6.61-1.22,12.6.41,10.17,1.22,12.55,2.33,3.62,4.38,3.62,3.48-1.19,4.29-3.57S235.69,2340.67,235.69,2334.68Z"/><path class="cls-7" d="M252.66,2311.16h8.63v5.37q3.7-6.14,9.57-6.14,5.68,0,8.13,4.47c.9,1.69,1.35,4.95,1.35,9.8v33.23h-8.62l-.05-31.25c0-3.16-.37-5.4-1.13-6.72a4.07,4.07,0,0,0-3.88-2,5.45,5.45,0,0,0-2.51.52,4,4,0,0,0-1.64,1.67,9.23,9.23,0,0,0-.93,3,29.4,29.4,0,0,0-.29,4.56v30.21h-8.63Z"/><path class="cls-7" d="M290.09,2311.16h8.63v31.24q.09,4.33,1.29,6.19a4.38,4.38,0,0,0,4,1.85c2,0,3.33-.54,4.11-1.63s1.17-3.13,1.17-6v-31.69h8.63v28q0,9.79-1.45,13.09-3,6.4-12.55,6.41-7.5,0-10.65-3.79T290.09,2342Z"/><path class="cls-7" d="M327.66,2311.16h8.63v5.78q3.56-6.55,9.48-6.55,6.45,0,8.76,6.55,3.42-6.55,9.75-6.55c3.28,0,5.79.86,7.52,2.6s2.59,4.28,2.59,7.65v37.25h-8.67v-30.75q0-5.28-1-7.09c-.63-1.23-1.87-1.85-3.7-1.85-2.08,0-3.49.63-4.25,1.9s-1.08,3.58-1.08,7v30.75h-8.94v-30.75a29.4,29.4,0,0,0-.25-4.2,7.85,7.85,0,0,0-.83-2.75,3.69,3.69,0,0,0-1.54-1.52,5.29,5.29,0,0,0-2.35-.47,4.61,4.61,0,0,0-4.24,2q-1.26,2-1.26,6.91v30.75h-8.63Z"/><path class="cls-7" d="M402.21,2342.13h8q-.94,16.48-13.54,16.48a13.82,13.82,0,0,1-6.44-1.4,11.23,11.23,0,0,1-4.44-4.33,22.34,22.34,0,0,1-2.6-7.45,59.75,59.75,0,0,1-.83-10.75q0-12.37,3.45-18.33t10.68-6q14,0,14,24.74v1.09H390.83q0,15,6,15Q402.2,2351.21,402.21,2342.13Zm-.45-12.14c-.37-4.91-.92-8.13-1.68-9.67a3.93,3.93,0,0,0-3.79-2.57,3.89,3.89,0,0,0-3.79,2.57q-1.12,2.31-1.67,9.67Z"/><path class="cls-7" d="M418.24,2311.16h8.62v5.37q3.7-6.14,9.57-6.14,5.69,0,8.13,4.47c.9,1.69,1.35,4.95,1.35,9.8v33.23h-8.62l-.05-31.25q0-4.74-1.12-6.72a4.1,4.1,0,0,0-3.89-2,5.38,5.38,0,0,0-2.5.52,3.91,3.91,0,0,0-1.65,1.67,9.48,9.48,0,0,0-.93,3,30.7,30.7,0,0,0-.29,4.56v30.21h-8.62Z"/><path class="cls-7" d="M456.71,2298.06h8.62v13.1H470V2318h-4.7v39.87h-8.62V2318H452v-6.86h4.75Z"/><path class="cls-7" d="M503,2311.16v46.73h-8.63v-6a15.07,15.07,0,0,1-3.7,5.29,7.74,7.74,0,0,1-4.88,1.44q-5.82,0-8.53-6T474.54,2334q0-12.15,2.71-17.86t8.53-5.71q5.33,0,8.58,6.05v-5.28Zm-19.51,23.16q0,9.21,1.22,12.87c.84,2.44,2.32,3.66,4.42,3.66q2.89,0,4.2-3.8,1.32-4.07,1.31-12.5T493.32,2322q-1.31-3.79-4.2-3.79c-2,0-3.5,1.21-4.38,3.61Q483.48,2325.15,483.48,2334.32Z"/><path class="cls-7" d="M512.78,2281.18h8.63v76.71h-8.63Z"/><path class="cls-7" d="M186.92,2392.14v76.71H178.3v-6a15,15,0,0,1-3.7,5.28,7.77,7.77,0,0,1-4.93,1.45q-5.78,0-8.48-5.94T158.48,2445a72.26,72.26,0,0,1,.67-10.61,26.41,26.41,0,0,1,2.06-7.36,10,10,0,0,1,3.54-4.27,9.39,9.39,0,0,1,5.15-1.38,7.79,7.79,0,0,1,4.7,1.36,9.42,9.42,0,0,1,1.85,1.81,17.43,17.43,0,0,1,1.85,2.89v-35.27Zm-19.5,53.15q0,9.21,1.22,12.86t4.42,3.66q2.9,0,4.2-3.79,1.31-4.07,1.31-12.51T177.26,2433q-1.31-3.8-4.2-3.79-3.08,0-4.38,3.61C167.84,2435,167.42,2439.17,167.42,2445.29Z"/><path class="cls-7" d="M214.78,2453.1h8q-.94,16.47-13.55,16.48a13.78,13.78,0,0,1-6.43-1.4,11.21,11.21,0,0,1-4.45-4.34,22.48,22.48,0,0,1-2.6-7.45,60.56,60.56,0,0,1-.83-10.74q0-12.37,3.45-18.33a11.51,11.51,0,0,1,10.68-6q14,0,14,24.75v1.08H203.4q0,15,6,15Q214.77,2462.17,214.78,2453.1Zm-.45-12.15q-.54-7.36-1.67-9.66a3.94,3.94,0,0,0-3.79-2.58,3.9,3.9,0,0,0-3.8,2.58q-1.12,2.3-1.67,9.66Z"/><path class="cls-7" d="M250.45,2399.14h12.37q7.68,0,11.43,3.66,4.74,4.74,4.74,14.49,0,7.5-2.51,12a10.77,10.77,0,0,1-7.16,5.63l12.83,33.9h-9.53l-12.78-34.13v34.13h-9.39Zm9.39,30.88c3.64,0,6.22-.84,7.72-2.52s2.26-4.53,2.26-8.54a28.37,28.37,0,0,0-.47-5.55,10.11,10.11,0,0,0-1.49-3.75,6,6,0,0,0-2.62-2.12,9.81,9.81,0,0,0-3.82-.68h-1.58Z"/><path class="cls-7" d="M314.57,2422.12v46.73h-8.63v-6a14.92,14.92,0,0,1-3.7,5.28,7.66,7.66,0,0,1-4.88,1.45q-5.82,0-8.53-6t-2.71-18.7q0-12.14,2.71-17.85t8.53-5.72q5.34,0,8.58,6.06v-5.29Zm-19.51,23.17q0,9.21,1.22,12.86t4.43,3.66q2.88,0,4.19-3.79,1.32-4.07,1.31-12.51T304.9,2433q-1.31-3.8-4.19-3.79-3.07,0-4.38,3.61C295.48,2435,295.06,2439.17,295.06,2445.29Z"/><path class="cls-7" d="M324.37,2422.12H333v5.38q3.7-6.15,9.57-6.15,5.69,0,8.13,4.48c.9,1.68,1.35,5,1.35,9.79v33.23h-8.62l-.05-31.24q0-4.74-1.12-6.73a4.11,4.11,0,0,0-3.89-2,5.38,5.38,0,0,0-2.5.52,3.89,3.89,0,0,0-1.65,1.66,9.47,9.47,0,0,0-.93,3,30.51,30.51,0,0,0-.29,4.56v30.2h-8.62Z"/><path class="cls-7" d="M380.9,2423v8.8a5.46,5.46,0,0,0-4.34-2.21q-7.14,0-7.13,15.44,0,16.39,7.09,16.39a7.67,7.67,0,0,0,4.38-1.76v8.08a14.86,14.86,0,0,1-7,1.81q-13.9,0-13.9-23.66,0-12.6,3.43-18.58c2.28-4,5.84-6,10.65-6A14.78,14.78,0,0,1,380.9,2423Z"/><path class="cls-7" d="M414.9,2422.12v46.73h-8.63v-6a14.92,14.92,0,0,1-3.7,5.28,7.68,7.68,0,0,1-4.88,1.45q-5.82,0-8.53-6t-2.71-18.7q0-12.14,2.71-17.85t8.53-5.72q5.32,0,8.58,6.06v-5.29Zm-19.51,23.17q0,9.21,1.22,12.86c.84,2.44,2.32,3.66,4.42,3.66q2.89,0,4.2-3.79,1.32-4.07,1.31-12.51T405.23,2433q-1.31-3.8-4.2-3.79-3.06,0-4.38,3.61C395.81,2435,395.39,2439.17,395.39,2445.29Z"/><path class="cls-7" d="M442.8,2422.12h8.67v48.22q0,8.67-1.72,12-3.15,6.13-12.69,6.14-6.27,0-9.84-3.57t-3.61-9.71l0-1.44H432q0,7.44,5.55,7.45c2,0,3.39-.64,4.11-1.9s1.13-3.6,1.13-7.18v-9q-2.76,6.4-8.44,6.41-5.88,0-8.65-5.69t-2.78-17.79q0-12.82,2.67-18.92,2.61-5.82,8.71-5.83a7.49,7.49,0,0,1,4.7,1.4,16.7,16.7,0,0,1,3.79,5Zm.13,23.8q0-16.76-5.77-16.75c-1.84,0-3.18,1.25-4,3.77s-1.27,6.54-1.27,12.07q0,8.8,1.31,13,1.35,3.84,4.52,3.84,3,0,4.11-3.43Q442.94,2455.17,442.93,2445.92Z"/><path class="cls-7" d="M461.22,2422.12h8.63v31.25c.06,2.89.48,5,1.28,6.18a4.39,4.39,0,0,0,4,1.85q2.92,0,4.11-1.62t1.17-6v-31.7H489v28q0,9.79-1.44,13.1-3,6.4-12.55,6.41-7.5,0-10.66-3.8T461.22,2453Z"/><path class="cls-7" d="M525.47,2422.12v46.73h-8.62v-6a15,15,0,0,1-3.7,5.28,7.68,7.68,0,0,1-4.88,1.45q-5.82,0-8.53-6t-2.71-18.7q0-12.14,2.71-17.85t8.53-5.72q5.33,0,8.58,6.06v-5.29ZM506,2445.29q0,9.21,1.22,12.86t4.42,3.66q2.89,0,4.2-3.79,1.31-4.07,1.31-12.51T515.81,2433q-1.3-3.8-4.2-3.79-3.08,0-4.38,3.61C506.39,2435,506,2439.17,506,2445.29Z"/><path class="cls-3" d="M163.18,2025.26h25a29.51,29.51,0,0,1,12.46,2.67,34.07,34.07,0,0,1,10.17,7.12,33.17,33.17,0,0,1,6.86,10.34,31.89,31.89,0,0,1,0,24.66,33,33,0,0,1-6.81,10.39,33.6,33.6,0,0,1-10.17,7.16,29.76,29.76,0,0,1-12.55,2.67h-25Zm16.9,50.7H184a21,21,0,0,0,7.84-1.38,16.87,16.87,0,0,0,5.82-3.79,16.26,16.26,0,0,0,3.62-5.74,20.57,20.57,0,0,0,1.25-7.28,20.07,20.07,0,0,0-1.29-7.25,16.51,16.51,0,0,0-3.67-5.77,16.75,16.75,0,0,0-5.82-3.8,20.66,20.66,0,0,0-7.75-1.38h-3.88Z"/><path class="cls-3" d="M228,2057.77a33.52,33.52,0,0,1,21.43-31.69,41.31,41.31,0,0,1,29,0,34.11,34.11,0,0,1,11.43,7.29,33.2,33.2,0,0,1,7.45,10.9,35.32,35.32,0,0,1,0,27,33.34,33.34,0,0,1-7.45,10.91,34.25,34.25,0,0,1-11.43,7.28,41.31,41.31,0,0,1-29,0A33.65,33.65,0,0,1,228,2057.77Zm17.68,0a17.41,17.41,0,0,0,1.46,7.15,17.92,17.92,0,0,0,9.79,9.44,19.08,19.08,0,0,0,14.05,0,18.41,18.41,0,0,0,5.87-3.75,17.83,17.83,0,0,0,4-5.69,18.26,18.26,0,0,0,0-14.31,17.83,17.83,0,0,0-4-5.69,18.41,18.41,0,0,0-5.87-3.75,19.08,19.08,0,0,0-14.05,0,17.92,17.92,0,0,0-9.79,9.44A17.43,17.43,0,0,0,245.69,2057.77Zm33.8-49.06-16.56,11.38-6.55-6.13,14.05-13.45Z"/><path class="cls-3" d="M310.7,2090.27v-65h16.9L358.81,2065v-39.75h16.81v65H358.81l-31.21-39.75v39.75Z"/><path class="cls-3" d="M389.25,2025.26h25a29.55,29.55,0,0,1,12.46,2.67,34.07,34.07,0,0,1,10.17,7.12,33.17,33.17,0,0,1,6.86,10.34,31.89,31.89,0,0,1,0,24.66,33,33,0,0,1-6.81,10.39,33.65,33.65,0,0,1-10.18,7.16,29.71,29.71,0,0,1-12.54,2.67h-25Zm16.89,50.7H410a21,21,0,0,0,7.85-1.38,16.87,16.87,0,0,0,5.82-3.79,16.26,16.26,0,0,0,3.62-5.74,20.57,20.57,0,0,0,1.25-7.28,20.07,20.07,0,0,0-1.29-7.25,16.31,16.31,0,0,0-9.49-9.57,20.71,20.71,0,0,0-7.76-1.38h-3.88Z"/><path class="cls-3" d="M494,2039.57H473.91v10.87h19v14.31h-19V2076H494v14.31H457v-65h37Z"/><path class="cls-3" d="M517.28,2068.46v-16.82l1.9.31a11.91,11.91,0,0,0,1.64.13,14.66,14.66,0,0,0,4.39-.65,11.75,11.75,0,0,0,3.58-1.77,8.11,8.11,0,0,0,2.37-2.72,7.14,7.14,0,0,0,.87-3.49,6.44,6.44,0,0,0-1.73-4.48,6,6,0,0,0-4.65-1.9,5.41,5.41,0,0,0-4.27,1.81,6.89,6.89,0,0,0-1.6,4.74H502.62a18.31,18.31,0,0,1,1.77-8.06,19.64,19.64,0,0,1,4.92-6.38,22.74,22.74,0,0,1,7.41-4.22,27.56,27.56,0,0,1,9.27-1.51,24.67,24.67,0,0,1,9.27,1.68,22.62,22.62,0,0,1,7.2,4.53,20,20,0,0,1,4.65,6.55,18.66,18.66,0,0,1,1.64,7.67q0,12.95-15.6,18.37v6.21ZM515.56,2082a10.18,10.18,0,0,1,.77-3.92,10,10,0,0,1,2.16-3.23,10.15,10.15,0,0,1,14.31,0,10,10,0,0,1,2.16,3.23,10.39,10.39,0,0,1,0,7.85,10,10,0,0,1-5.39,5.39,10.39,10.39,0,0,1-7.85,0,10,10,0,0,1-5.39-5.39A10.23,10.23,0,0,1,515.56,2082Z"/><path class="cls-3" d="M808,2048q-5.87-7.15-14.48-7.16a17.74,17.74,0,0,0-7,1.38,16.8,16.8,0,0,0-9.22,9.4,18.35,18.35,0,0,0-1.34,7.07,18.63,18.63,0,0,0,1.34,7.16,17.18,17.18,0,0,0,9.26,9.48,17.21,17.21,0,0,0,6.9,1.38q8.1,0,14.57-6.9v20l-1.72.61a49.8,49.8,0,0,1-7.24,2,34.42,34.42,0,0,1-6.64.65,33.92,33.92,0,0,1-23.76-9.7,35.57,35.57,0,0,1-7.54-11,35,35,0,0,1,0-27.59,34,34,0,0,1,7.5-10.78,34.51,34.51,0,0,1,23.92-9.61,35.38,35.38,0,0,1,7.63.82,46.62,46.62,0,0,1,7.89,2.54Z"/><path class="cls-3" d="M835.58,2026.26v35.35c0,1.9.08,3.84.22,5.82a15.85,15.85,0,0,0,1.29,5.39,9,9,0,0,0,3.41,3.92,12,12,0,0,0,6.55,1.51,11.74,11.74,0,0,0,6.51-1.51,9.35,9.35,0,0,0,3.41-3.92,15.42,15.42,0,0,0,1.33-5.39q.23-3,.22-5.82v-35.35h16.81v37.68q0,15.18-6.94,22.16t-21.34,7q-14.4,0-21.38-7t-7-22.16v-37.68Z"/><path class="cls-3" d="M926.63,2080H902.49l-3.88,11.29h-18l24.75-65h18.45l24.74,65h-18Zm-4.48-12.85-7.59-21.64L907,2067.13Zm8.54-57.42-16.56,11.38-6.55-6.13,14-13.45Z"/><path class="cls-3" d="M956,2091.27v-65h16.9l31.22,39.75v-39.75H1021v65h-16.81l-31.22-39.75v39.75Z"/><path class="cls-3" d="M1034.58,2026.26h25a29.51,29.51,0,0,1,12.46,2.67,34.24,34.24,0,0,1,10.18,7.12,33.14,33.14,0,0,1,6.85,10.34,31.38,31.38,0,0,1,2.5,12.38,31.78,31.78,0,0,1-2.45,12.28,32.82,32.82,0,0,1-6.82,10.39,33.48,33.48,0,0,1-10.17,7.16,29.72,29.72,0,0,1-12.55,2.67h-25Zm16.9,50.7h3.88a21,21,0,0,0,7.85-1.38,17.06,17.06,0,0,0,5.82-3.79,16.4,16.4,0,0,0,3.62-5.74,20.57,20.57,0,0,0,1.25-7.28,19.86,19.86,0,0,0-1.3-7.25,16.26,16.26,0,0,0-9.48-9.57,20.75,20.75,0,0,0-7.76-1.38h-3.88Z"/><path class="cls-3" d="M1099.42,2058.77a34,34,0,0,1,2.67-13.5,33.42,33.42,0,0,1,7.42-10.9,33.77,33.77,0,0,1,11.33-7.29,41.34,41.34,0,0,1,29,0,34.17,34.17,0,0,1,11.42,7.29,33.22,33.22,0,0,1,7.46,10.9,35.44,35.44,0,0,1,0,27,33.37,33.37,0,0,1-7.46,10.91,34.3,34.3,0,0,1-11.42,7.28,41.34,41.34,0,0,1-29,0,33.61,33.61,0,0,1-21.42-31.68Zm17.67,0a17.26,17.26,0,0,0,1.47,7.15,18,18,0,0,0,4,5.69,17.76,17.76,0,0,0,5.82,3.75,19.08,19.08,0,0,0,14.05,0,18.36,18.36,0,0,0,5.86-3.75,17.68,17.68,0,0,0,4-5.69,18.15,18.15,0,0,0,0-14.31,17.68,17.68,0,0,0-4-5.69,18.36,18.36,0,0,0-5.86-3.75,19.08,19.08,0,0,0-14.05,0,17.76,17.76,0,0,0-5.82,3.75,18,18,0,0,0-4,5.69A17.27,17.27,0,0,0,1117.09,2058.77Z"/><path class="cls-3" d="M1193.23,2069.46v-16.82l1.89.31a12,12,0,0,0,1.64.13,14.73,14.73,0,0,0,4.4-.65,11.86,11.86,0,0,0,3.58-1.77,8.33,8.33,0,0,0,2.37-2.72,7.25,7.25,0,0,0,.86-3.49,6.48,6.48,0,0,0-1.72-4.48,6,6,0,0,0-4.66-1.9,5.43,5.43,0,0,0-4.27,1.81,6.93,6.93,0,0,0-1.59,4.74h-17.16a18.31,18.31,0,0,1,1.77-8.06,19.48,19.48,0,0,1,4.91-6.38,22.79,22.79,0,0,1,7.42-4.22,27.46,27.46,0,0,1,9.26-1.51,24.64,24.64,0,0,1,9.27,1.68,22.62,22.62,0,0,1,7.2,4.53,20,20,0,0,1,4.66,6.55,18.82,18.82,0,0,1,1.64,7.67q0,12.95-15.61,18.37v6.21ZM1191.5,2083a10,10,0,0,1,.78-3.92,9.77,9.77,0,0,1,2.15-3.23,10.12,10.12,0,0,1,16.47,11.08,10.2,10.2,0,0,1-2.15,3.23,10,10,0,0,1-3.24,2.16,10.36,10.36,0,0,1-7.84,0,10,10,0,0,1-3.24-2.16,9.88,9.88,0,0,1-2.15-3.23A10.06,10.06,0,0,1,1191.5,2083Z"/><path class="cls-3" d="M1403.57,2051.35H1428v-25.09h16.9v65H1428v-26.81h-24.4v26.81h-16.9v-65h16.9Z"/><path class="cls-3" d="M1455.56,2058.77a34,34,0,0,1,2.68-13.5,33.35,33.35,0,0,1,18.75-18.19,41.31,41.31,0,0,1,29,0,34.11,34.11,0,0,1,11.43,7.29,33.38,33.38,0,0,1,7.46,10.9,35.44,35.44,0,0,1,0,27,33.53,33.53,0,0,1-7.46,10.91,34.25,34.25,0,0,1-11.43,7.28,41.31,41.31,0,0,1-29,0,33.65,33.65,0,0,1-21.43-31.68Zm17.68,0a17.26,17.26,0,0,0,1.47,7.15,17.86,17.86,0,0,0,9.78,9.44,19.11,19.11,0,0,0,14.06,0,18.47,18.47,0,0,0,5.86-3.75,17.83,17.83,0,0,0,4-5.69,18.26,18.26,0,0,0,0-14.31,17.83,17.83,0,0,0-4-5.69,18.47,18.47,0,0,0-5.86-3.75,19.11,19.11,0,0,0-14.06,0,17.86,17.86,0,0,0-9.78,9.44A17.27,17.27,0,0,0,1473.24,2058.77Z"/><path class="cls-3" d="M1592.31,2091.27h-21l-16.12-25v25h-16.9v-65h26.3a25.65,25.65,0,0,1,9.48,1.6,17.86,17.86,0,0,1,10.65,10.73,22.24,22.24,0,0,1,1.34,7.76q0,7.41-3.58,12t-10.56,6.25Zm-37.16-35.95h3.19q5,0,7.67-2.07a7.94,7.94,0,0,0,0-11.9q-2.67-2.07-7.67-2.07h-3.19Z"/><path class="cls-3" d="M1639.21,2080h-24.14l-3.88,11.29h-18l24.75-65h18.45l24.75,65h-18Zm-4.48-12.85-7.59-21.64-7.58,21.64Z"/><path class="cls-3" d="M1722.59,2091.27h-21l-16.12-25v25h-16.9v-65h26.3a25.65,25.65,0,0,1,9.48,1.6,17.86,17.86,0,0,1,10.65,10.73,22.24,22.24,0,0,1,1.33,7.76q0,7.41-3.57,12t-10.57,6.25Zm-37.16-35.95h3.19q5,0,7.67-2.07a8,8,0,0,0,0-11.9q-2.67-2.07-7.67-2.07h-3.19Z"/><path class="cls-3" d="M1746.56,2026.26v65h-16.9v-65Z"/><path class="cls-3" d="M1757.25,2058.77a34,34,0,0,1,2.67-13.5,33.42,33.42,0,0,1,7.42-10.9,33.77,33.77,0,0,1,11.33-7.29,41.34,41.34,0,0,1,29,0,34.17,34.17,0,0,1,11.42,7.29,33.22,33.22,0,0,1,7.46,10.9,35.44,35.44,0,0,1,0,27,33.37,33.37,0,0,1-7.46,10.91,34.3,34.3,0,0,1-11.42,7.28,41.34,41.34,0,0,1-29,0,33.61,33.61,0,0,1-21.42-31.68Zm17.67,0a17.26,17.26,0,0,0,1.47,7.15,18,18,0,0,0,4,5.69,17.76,17.76,0,0,0,5.82,3.75,19.08,19.08,0,0,0,14,0,18.36,18.36,0,0,0,5.86-3.75,17.68,17.68,0,0,0,4-5.69,18.15,18.15,0,0,0,0-14.31,17.68,17.68,0,0,0-4-5.69,18.36,18.36,0,0,0-5.86-3.75,19.08,19.08,0,0,0-14,0,17.76,17.76,0,0,0-5.82,3.75,18,18,0,0,0-4,5.69A17.27,17.27,0,0,0,1774.92,2058.77Z"/><path class="cls-7" d="M1407.76,2412h16.84v73.86h-9.52v-65.39h-7.32Z"/><path class="cls-7" d="M1439.91,2412h16.83v73.86h-9.51v-65.39h-7.32Z"/><path class="cls-7" d="M1482,2435.63a5.5,5.5,0,0,1,4.07,1.77,5.61,5.61,0,0,1,1.72,4.12,5.92,5.92,0,0,1-10.09,4.21,5.84,5.84,0,0,1-1.73-4.21,5.55,5.55,0,0,1,1.73-4.16A5.93,5.93,0,0,1,1482,2435.63Zm0,39.13a5.5,5.5,0,0,1,4.07,1.77,5.9,5.9,0,0,1,0,8.33,6,6,0,0,1-4.16,1.67,5.92,5.92,0,0,1-2.32-.45,6.1,6.1,0,0,1-1.89-1.25,5.45,5.45,0,0,1-1.27-1.86,5.79,5.79,0,0,1-.46-2.32,5.65,5.65,0,0,1,1.73-4.16A5.93,5.93,0,0,1,1482,2474.76Z"/><path class="cls-7" d="M1529,2449.51q0,19.89-3.83,28.7-3.78,8.51-12.87,8.51t-12.91-8.56q-3.78-8.32-3.78-29.23t3.78-29.22q3.77-8.61,12.86-8.61,8.43,0,12.44,7.55Q1529,2426.65,1529,2449.51Zm-10.15,0q0-16.74-1.43-23.16t-5.21-6.36q-3.78,0-5.27,6.32t-1.43,22.72q0,16.41,1.43,22.77t5.27,6.31c2.48,0,4.21-2.09,5.16-6.26Q1518.84,2465.87,1518.83,2449.51Z"/><path class="cls-7" d="M1569.54,2449.51q0,19.89-3.83,28.7-3.78,8.51-12.86,8.51t-12.92-8.56q-3.78-8.32-3.78-29.23t3.78-29.22q3.78-8.61,12.87-8.61,8.42,0,12.43,7.55Q1569.54,2426.65,1569.54,2449.51Zm-10.14,0q0-16.74-1.44-23.16t-5.21-6.36q-3.78,0-5.26,6.32t-1.44,22.72q0,16.41,1.44,22.77t5.26,6.31q3.74,0,5.17-6.26Q1559.39,2465.87,1559.4,2449.51Z"/><path class="cls-7" d="M1626.85,2436.35v49.51h-9.14v-6.36a16,16,0,0,1-3.92,5.6,8.17,8.17,0,0,1-5.17,1.53q-6.16,0-9-6.32t-2.87-19.8q0-12.87,2.87-18.92t9-6.05q5.64,0,9.09,6.41v-5.6Zm-20.67,24.54q0,9.77,1.29,13.63c.89,2.59,2.46,3.88,4.69,3.88q3.06,0,4.45-4,1.38-4.3,1.39-13.25t-1.39-13.3q-1.39-4-4.45-4c-2.17,0-3.71,1.28-4.64,3.83Q1606.19,2451.18,1606.18,2460.89Z"/><path class="cls-7" d="M1666.79,2436H1657l-.1-2.92q0-12.1,3.64-17t12.34-5q16.32,0,16.31,18.08,0,12.2-12.2,35.16l-5.88,11-.29.58c-.16.32-.38.78-.67,1.39h18.28v8.51H1656q.81-1.82,3.39-7.22t7-14.59q3.78-8,6.32-13.63t3.82-9.19a37.34,37.34,0,0,0,2.59-12.39q0-9.18-6.36-9.18-6.13,0-6.13,11.38l0,4.21Z"/><path class="cls-7" d="M1729.88,2449.51q0,19.89-3.82,28.7-3.78,8.51-12.87,8.51t-12.92-8.56q-3.78-8.32-3.78-29.23t3.78-29.22q3.78-8.61,12.87-8.61a13.2,13.2,0,0,1,12.44,7.55Q1729.89,2426.65,1729.88,2449.51Zm-10.14,0q0-16.74-1.43-23.16t-5.22-6.36q-3.78,0-5.26,6.32T1706.4,2449q0,16.41,1.43,22.77t5.26,6.31q3.73,0,5.17-6.26Q1719.75,2465.87,1719.74,2449.51Z"/><path class="cls-7" d="M1743.75,2435.63a5.49,5.49,0,0,1,4.07,1.77,5.61,5.61,0,0,1,1.72,4.12,5.72,5.72,0,0,1-1.72,4.21,5.65,5.65,0,0,1-4.16,1.72,5.72,5.72,0,0,1-4.21-1.72,5.83,5.83,0,0,1-1.72-4.21,5.54,5.54,0,0,1,1.72-4.16A5.93,5.93,0,0,1,1743.75,2435.63Zm0,39.13a5.49,5.49,0,0,1,4.07,1.77,5.9,5.9,0,0,1,0,8.33,6.08,6.08,0,0,1-6.48,1.22,6.1,6.1,0,0,1-1.89-1.25,5.59,5.59,0,0,1-1.27-1.86,6,6,0,0,1-.45-2.32,5.64,5.64,0,0,1,1.72-4.16A5.93,5.93,0,0,1,1743.75,2474.76Z"/><path class="cls-7" d="M1790.73,2449.51q0,19.89-3.83,28.7-3.78,8.51-12.87,8.51t-12.91-8.56q-3.78-8.32-3.78-29.23t3.78-29.22q3.78-8.61,12.87-8.61a13.18,13.18,0,0,1,12.43,7.55Q1790.73,2426.65,1790.73,2449.51Zm-10.14,0q0-16.74-1.44-23.16t-5.21-6.36c-2.52,0-4.28,2.11-5.26,6.32s-1.44,11.78-1.44,22.72.48,18.53,1.44,22.77,2.74,6.31,5.26,6.31,4.21-2.09,5.16-6.26Q1780.59,2465.87,1780.59,2449.51Z"/><path class="cls-7" d="M1831.29,2449.51q0,19.89-3.82,28.7-3.78,8.51-12.87,8.51t-12.92-8.56q-3.78-8.32-3.78-29.23t3.78-29.22q3.78-8.61,12.87-8.61a13.2,13.2,0,0,1,12.44,7.55Q1831.29,2426.65,1831.29,2449.51Zm-10.14,0q0-16.74-1.43-23.16t-5.22-6.36q-3.78,0-5.26,6.32t-1.43,22.72q0,16.41,1.43,22.77t5.26,6.31q3.74,0,5.17-6.26Q1821.16,2465.87,1821.15,2449.51Z"/><polygon class="cls-7" points="1637.79 2303.83 1595.2 2271.89 1595.2 2199.09 1612.36 2199.09 1612.36 2263.32 1648.08 2290.11 1637.79 2303.83"/><path class="cls-7" d="M1608.07,2355.1a96.68,96.68,0,1,1,96.67-96.67A96.78,96.78,0,0,1,1608.07,2355.1Zm0-176.19a79.52,79.52,0,1,0,79.52,79.52A79.61,79.61,0,0,0,1608.07,2178.91Z"/><rect class="cls-8" x="1015.42" y="2243.19" width="262.42" height="244.69" rx="4.93" ry="4.93"/><rect class="cls-7" x="1015.39" y="2176.87" width="262.42" height="78.72"/><path class="cls-7" d="M1062,2287h8.45a10.06,10.06,0,0,1,4.22.9,11.57,11.57,0,0,1,3.44,2.4,11.23,11.23,0,0,1,2.31,3.5,10.52,10.52,0,0,1,.85,4.18,10.8,10.8,0,0,1-.83,4.16,11.07,11.07,0,0,1-2.3,3.51,11.33,11.33,0,0,1-3.44,2.42,10.09,10.09,0,0,1-4.24.91H1062Zm5.72,17.14H1069a7.11,7.11,0,0,0,2.65-.47,5.74,5.74,0,0,0,2-1.28,5.56,5.56,0,0,0,1.22-1.94,7,7,0,0,0,.42-2.46,6.79,6.79,0,0,0-.43-2.45,5.9,5.9,0,0,0-1.24-2,5.74,5.74,0,0,0-2-1.28,7,7,0,0,0-2.62-.46h-1.32Z"/><path class="cls-7" d="M1083.92,2298a11.32,11.32,0,0,1,7.24-10.71,14,14,0,0,1,9.81,0,11.62,11.62,0,0,1,6.39,15.27,11.22,11.22,0,0,1-2.52,3.69,11.59,11.59,0,0,1-3.86,2.46,13.06,13.06,0,0,1-4.9.89,13.2,13.2,0,0,1-4.91-.88,11.28,11.28,0,0,1-6.34-6.15A11.37,11.37,0,0,1,1083.92,2298Zm6,0a5.85,5.85,0,0,0,.49,2.42,6.16,6.16,0,0,0,5.69,3.64,6.37,6.37,0,0,0,2.38-.45,6.27,6.27,0,0,0,2-1.27,6,6,0,0,0,1.35-1.92,6,6,0,0,0-1.36-6.76,6.05,6.05,0,0,0-2-1.27,6.49,6.49,0,0,0-4.75,0,6.18,6.18,0,0,0-2,1.27,6.09,6.09,0,0,0-1.34,1.92A5.88,5.88,0,0,0,1089.9,2298Z"/><path class="cls-7" d="M1110.89,2309l3.72-22h5.66l4.4,11.71L1129,2287h5.66l3.74,22h-5.69l-1.9-12.65-5.18,12.65h-2.28l-4.93-12.65-1.89,12.66Z"/><path class="cls-7" d="M1147.76,2287v22h-5.71v-22Z"/><path class="cls-7" d="M1152.37,2309v-22h5.72l10.55,13.43V2287h5.68v22h-5.69l-10.55-13.43V2309Z"/><path class="cls-7" d="M1190,2296.66h11.34a30.52,30.52,0,0,1-.15,3.17,11.5,11.5,0,0,1-.58,2.66,10.62,10.62,0,0,1-1.66,3,9.62,9.62,0,0,1-2.46,2.22,11.72,11.72,0,0,1-3.11,1.35,13,13,0,0,1-3.56.47,12.52,12.52,0,0,1-4.67-.84,10.65,10.65,0,0,1-3.63-2.38,10.85,10.85,0,0,1-2.37-3.67,12.9,12.9,0,0,1-.84-4.74,12.72,12.72,0,0,1,.83-4.7,10.27,10.27,0,0,1,2.36-3.66,10.84,10.84,0,0,1,3.69-2.37,13.11,13.11,0,0,1,4.8-.84,11.94,11.94,0,0,1,6,1.48,10.29,10.29,0,0,1,4.11,4.61l-5.42,2.24a5.51,5.51,0,0,0-2-2.59,5,5,0,0,0-2.75-.79,5.42,5.42,0,0,0-2.34.49,5,5,0,0,0-1.79,1.37,6.55,6.55,0,0,0-1.16,2.14,8.48,8.48,0,0,0-.43,2.8,9,9,0,0,0,.37,2.59,5.85,5.85,0,0,0,1.09,2.07,5,5,0,0,0,1.81,1.36,6.11,6.11,0,0,0,2.51.48,7.34,7.34,0,0,0,1.63-.19,4.27,4.27,0,0,0,1.41-.62,3.39,3.39,0,0,0,1-1.09,4.48,4.48,0,0,0,.55-1.63H1190Z"/><path class="cls-7" d="M1204,2298a11.57,11.57,0,0,1,.9-4.57,11.41,11.41,0,0,1,2.51-3.68,11.54,11.54,0,0,1,3.83-2.47,14,14,0,0,1,9.81,0,11.62,11.62,0,0,1,6.39,15.27,11.37,11.37,0,0,1-2.52,3.69,11.72,11.72,0,0,1-3.87,2.47,13.93,13.93,0,0,1-9.8,0A11.34,11.34,0,0,1,1204,2298Zm6,0a5.8,5.8,0,0,0,.49,2.41,6.25,6.25,0,0,0,1.34,1.93,6.18,6.18,0,0,0,2,1.27,6.34,6.34,0,0,0,2.38.45,6.39,6.39,0,0,0,4.35-1.72,6,6,0,0,0,1.36-1.93,6,6,0,0,0-1.36-6.76,6.22,6.22,0,0,0-2-1.27,6.49,6.49,0,0,0-4.75,0,6.07,6.07,0,0,0-2,1.27,6.25,6.25,0,0,0-1.34,1.93A5.82,5.82,0,0,0,1210,2298Z"/><rect class="cls-9" x="1026.81" y="2166.59" width="6.29" height="24.54" rx="0.65" ry="0.65"/><rect class="cls-9" x="1044.37" y="2166.58" width="6.29" height="24.54" rx="0.65" ry="0.65"/><rect class="cls-9" x="1062.05" y="2166.58" width="6.29" height="24.54" rx="0.65" ry="0.65"/><rect class="cls-9" x="1079.56" y="2166.58" width="6.29" height="24.54" rx="0.65" ry="0.65"/><rect class="cls-9" x="1097.16" y="2166.57" width="6.29" height="24.54" rx="0.65" ry="0.65"/><rect class="cls-9" x="1115.53" y="2166.57" width="6.29" height="24.54" rx="0.65" ry="0.65"/><rect class="cls-9" x="1132.29" y="2166.56" width="6.29" height="24.54" rx="0.65" ry="0.65"/><rect class="cls-9" x="1149.97" y="2166.56" width="6.29" height="24.54" rx="0.65" ry="0.65"/><rect class="cls-9" x="1168.25" y="2166.56" width="6.29" height="24.54" rx="0.65" ry="0.65"/><rect class="cls-9" x="1185.75" y="2166.55" width="6.29" height="24.54" rx="0.65" ry="0.65"/><rect class="cls-9" x="1203.4" y="2166.55" width="6.29" height="24.54" rx="0.65" ry="0.65"/><rect class="cls-9" x="1220.95" y="2166.54" width="6.29" height="24.54" rx="0.65" ry="0.65"/><rect class="cls-9" x="1238.51" y="2166.54" width="6.29" height="24.54" rx="0.65" ry="0.65"/><rect class="cls-9" x="1256.03" y="2166.57" width="6.29" height="24.54" rx="0.65" ry="0.65"/><path class="cls-7" d="M1126.61,2398.2q-16.84-7-16.84-23.68a27.48,27.48,0,0,1,2.71-12.34,29,29,0,0,1,7.48-9.49,33.68,33.68,0,0,1,11.56-6.14,53,53,0,0,1,29.81,0,33.49,33.49,0,0,1,11.56,6.13,28.93,28.93,0,0,1,7.49,9.49,27.59,27.59,0,0,1,2.72,12.34,31,31,0,0,1-.86,7.63,17.43,17.43,0,0,1-2.92,6.13,24.59,24.59,0,0,1-5.42,5.21,49.08,49.08,0,0,1-8.35,4.71q22,8.55,22,27.67a26.9,26.9,0,0,1-3.07,12.7,31,31,0,0,1-8.55,10.13,42.06,42.06,0,0,1-13,6.71,57,57,0,0,1-32.67.08,41.84,41.84,0,0,1-13.06-6.63,31.52,31.52,0,0,1-8.7-10.13,26.75,26.75,0,0,1-3.14-12.84Q1105.36,2406.34,1126.61,2398.2Zm7,24.25a13.52,13.52,0,0,0,3.71,9.34,13.29,13.29,0,0,0,4.07,2.86,12.16,12.16,0,0,0,5.07,1.06,11.66,11.66,0,0,0,4.92-1.07,13.85,13.85,0,0,0,4.13-2.85,12.78,12.78,0,0,0,3.78-9.2,12.51,12.51,0,0,0-3.78-9.2,12.83,12.83,0,0,0-18.19,0A12.49,12.49,0,0,0,1133.6,2422.45Zm1-47.65a11.66,11.66,0,0,0,3.43,8.49,11.3,11.3,0,0,0,8.41,3.49,10.9,10.9,0,0,0,4.71-1,12,12,0,0,0,3.71-2.64,12.64,12.64,0,0,0,2.5-3.78,11.15,11.15,0,0,0,.92-4.42,11.51,11.51,0,0,0-3.42-8.34,11.31,11.31,0,0,0-8.42-3.5,11.43,11.43,0,0,0-8.42,3.43A11.27,11.27,0,0,0,1134.59,2374.8Z"/><rect class="cls-8" x="724.52" y="2242.51" width="262.42" height="244.69" rx="4.93" ry="4.93"/><rect class="cls-7" x="724.52" y="2176.84" width="262.42" height="78.72"/><path class="cls-7" d="M801.88,2292.84a7.08,7.08,0,0,0-1.86-1.12,4.84,4.84,0,0,0-1.81-.37,3,3,0,0,0-1.81.53,1.64,1.64,0,0,0-.7,1.37,1.37,1.37,0,0,0,.35,1,3.29,3.29,0,0,0,.92.66,9,9,0,0,0,1.28.48c.48.13,1,.28,1.42.43a8.87,8.87,0,0,1,4.09,2.5,6.11,6.11,0,0,1,1.3,4.06,7.87,7.87,0,0,1-.57,3.06,6.33,6.33,0,0,1-1.66,2.35,7.69,7.69,0,0,1-2.68,1.52,11.16,11.16,0,0,1-3.6.54,13.29,13.29,0,0,1-7.73-2.48l2.45-4.61a9.92,9.92,0,0,0,2.54,1.69,6.07,6.07,0,0,0,2.48.56,3,3,0,0,0,2.08-.64,2,2,0,0,0,.69-1.46,1.76,1.76,0,0,0-.76-1.53,4.25,4.25,0,0,0-1.07-.57c-.43-.18-1-.37-1.58-.58s-1.47-.49-2.18-.78a6.61,6.61,0,0,1-1.89-1.12,5.28,5.28,0,0,1-1.34-1.76,6.25,6.25,0,0,1-.51-2.7,7.8,7.8,0,0,1,.54-3,6.59,6.59,0,0,1,1.51-2.27,6.79,6.79,0,0,1,2.39-1.47,9.09,9.09,0,0,1,3.17-.53,14,14,0,0,1,3.41.45,15.76,15.76,0,0,1,3.41,1.33Z"/><path class="cls-7" d="M821.71,2305.37h-8.17l-1.31,3.82h-6.09l8.37-22h6.23l8.37,22H823Zm-1.52-4.34-2.57-7.32-2.56,7.32Zm2.89-19.41-5.6,3.84-2.22-2.06,4.76-4.55Z"/><path class="cls-7" d="M831.65,2287.21h8.51a6.55,6.55,0,0,1,4.6,1.46,5.44,5.44,0,0,1,1.58,4.2,5.63,5.63,0,0,1-.6,2.75,5.13,5.13,0,0,1-1.82,1.86,6.78,6.78,0,0,1,2.08.71,4.4,4.4,0,0,1,1.4,1.18,4.35,4.35,0,0,1,.77,1.57,7.1,7.1,0,0,1,.24,1.87,6.6,6.6,0,0,1-.54,2.74,5.53,5.53,0,0,1-1.52,2,6.67,6.67,0,0,1-2.37,1.23,11.41,11.41,0,0,1-3.15.4h-9.18Zm5.71,8.63h1c1.79,0,2.68-.71,2.68-2.13s-.89-2.12-2.68-2.12h-1Zm0,8.92h1.25a6.36,6.36,0,0,0,3.09-.55,2.16,2.16,0,0,0,0-3.56,6.36,6.36,0,0,0-3.09-.55h-1.25Z"/><path class="cls-7" d="M865,2305.37H856.8l-1.31,3.82H849.4l8.36-22H864l8.37,22h-6.09Zm-1.51-4.34-2.57-7.32-2.56,7.32Z"/><path class="cls-7" d="M874.88,2287.21h8.45a10,10,0,0,1,4.21.91,11.44,11.44,0,0,1,3.44,2.4,11.31,11.31,0,0,1,2.32,3.5,10.83,10.83,0,0,1,0,8.34,11.07,11.07,0,0,1-2.3,3.51,11.33,11.33,0,0,1-3.44,2.42,10.08,10.08,0,0,1-4.24.9h-8.45Zm5.71,17.14h1.31a7.08,7.08,0,0,0,2.65-.46,5.65,5.65,0,0,0,2-1.28,5.56,5.56,0,0,0,1.22-1.94,7.14,7.14,0,0,0,0-4.91,5.46,5.46,0,0,0-3.21-3.24,7,7,0,0,0-2.62-.47h-1.31Z"/><path class="cls-7" d="M896.8,2298.2a11.52,11.52,0,0,1,.9-4.56,11.27,11.27,0,0,1,6.34-6.15,14,14,0,0,1,9.81,0,11.65,11.65,0,0,1,3.86,2.46,11.22,11.22,0,0,1,2.52,3.69,11.91,11.91,0,0,1,0,9.13,11.28,11.28,0,0,1-2.52,3.68,11.67,11.67,0,0,1-3.86,2.47,14,14,0,0,1-9.81,0,11.35,11.35,0,0,1-7.24-10.72Zm6,0a5.85,5.85,0,0,0,.5,2.42,6.08,6.08,0,0,0,1.34,1.93,6.22,6.22,0,0,0,4.34,1.72,6.26,6.26,0,0,0,4.36-1.72,6.11,6.11,0,0,0,1.35-1.93,6.11,6.11,0,0,0,0-4.84,6.07,6.07,0,0,0-1.35-1.92,6.22,6.22,0,0,0-2-1.27,6.49,6.49,0,0,0-4.75,0,6.06,6.06,0,0,0-3.31,3.19A5.89,5.89,0,0,0,902.77,2298.2Z"/><rect class="cls-9" x="753.52" y="2166.53" width="6.29" height="24.54" rx="0.65" ry="0.65"/><rect class="cls-9" x="771.19" y="2166.53" width="6.29" height="24.54" rx="0.65" ry="0.65"/><rect class="cls-9" x="788.7" y="2166.53" width="6.29" height="24.54" rx="0.65" ry="0.65"/><rect class="cls-9" x="806.3" y="2166.53" width="6.29" height="24.54" rx="0.65" ry="0.65"/><rect class="cls-9" x="824.67" y="2166.53" width="6.29" height="24.54" rx="0.65" ry="0.65"/><rect class="cls-9" x="841.43" y="2166.53" width="6.29" height="24.54" rx="0.65" ry="0.65"/><rect class="cls-9" x="859.11" y="2166.53" width="6.29" height="24.54" rx="0.65" ry="0.65"/><rect class="cls-9" x="877.4" y="2166.53" width="6.29" height="24.54" rx="0.65" ry="0.65"/><rect class="cls-9" x="894.89" y="2166.53" width="6.29" height="24.54" rx="0.65" ry="0.65"/><rect class="cls-9" x="912.54" y="2166.53" width="6.29" height="24.54" rx="0.65" ry="0.65"/><rect class="cls-9" x="930.09" y="2166.53" width="6.29" height="24.54" rx="0.65" ry="0.65"/><rect class="cls-9" x="947.65" y="2166.6" width="6.29" height="24.54" rx="0.65" ry="0.65"/><rect class="cls-9" x="965.17" y="2166.46" width="6.29" height="24.54" rx="0.65" ry="0.65"/><path class="cls-7" d="M865.22,2368.09H820.28v-23.68h88.31L847,2452H816.14Z"/><rect class="cls-9" x="734.5" y="2166.53" width="6.29" height="24.54" rx="0.65" ry="0.65"/><path class="cls-2" d="M771.27,2234.3v-23.47l16,16.77v-15.28h3.32v23.32l-16-16.73v15.39Z"/><path class="cls-2" d="M795,2223.21a10.76,10.76,0,0,1,3.4-8,11.2,11.2,0,0,1,8.14-3.33A11.49,11.49,0,0,1,818,2223.34a10.8,10.8,0,0,1-3.39,8,11.6,11.6,0,0,1-15.85.37A10.78,10.78,0,0,1,795,2223.21Zm3.34,0a8,8,0,0,0,2.45,6,8.1,8.1,0,0,0,11.46-.05,8.52,8.52,0,0,0,0-11.78,8.2,8.2,0,0,0-11.57,0A7.9,7.9,0,0,0,798.32,2223.25Z"/><path class="cls-2" d="M822.26,2212.32l6.08,15.23,6.16-15.23h3.63L828.27,2236l-9.64-23.63Z"/><path class="cls-2" d="M844.18,2212.32v22h-3.31v-22Z"/><path class="cls-2" d="M861.59,2215.44h-8.81v5.28h8.55v3.12h-8.55v7.34h8.81v3.12H849.46v-22h12.13Z"/><path class="cls-2" d="M865.18,2234.3l4.62-23.63,7.55,17.08,7.81-17.08,4.16,23.63h-3.4L883.8,2221l-6.51,14.28L871,2221l-2.36,13.28Z"/><path class="cls-2" d="M894,2234.3v-22h3.3a14.26,14.26,0,0,1,3.52.35,5.16,5.16,0,0,1,2.23,1.15,6,6,0,0,1,1.47,2.09,6.33,6.33,0,0,1,.56,2.56,5.2,5.2,0,0,1-1.81,4,5.32,5.32,0,0,1,2.76,2.09,5.94,5.94,0,0,1,1,3.45,5.81,5.81,0,0,1-1.82,4.35,6,6,0,0,1-2.46,1.53,14.55,14.55,0,0,1-3.74.41Zm3.32-12.54h1a3.82,3.82,0,0,0,2.71-.82,3.18,3.18,0,0,0,.86-2.41,3,3,0,0,0-.88-2.36,3.7,3.7,0,0,0-2.56-.8h-1.17Zm0,9.42h2.05a5.07,5.07,0,0,0,3.3-.88,3.05,3.05,0,0,0,1.11-2.42,3.1,3.1,0,0,0-1.07-2.39c-.69-.64-1.93-.95-3.71-.95h-1.68Z"/><path class="cls-2" d="M918.65,2224.93l6.81,9.37H921.4l-6.28-9h-.59v9h-3.32v-22h3.88q4.36,0,6.3,1.64a6,6,0,0,1,2.13,4.81,6.27,6.27,0,0,1-1.34,4A6,6,0,0,1,918.65,2224.93Zm-4.12-2.51h1.05c3.14,0,4.71-1.21,4.71-3.61,0-2.24-1.53-3.37-4.58-3.37h-1.18Z"/><path class="cls-2" d="M940.89,2215.44h-8.82v5.28h8.56v3.12h-8.56v7.34h8.82v3.12H928.76v-22h12.13Z"/><path class="cls-2" d="M1062.35,2235v-23.47l16,16.77v-15.27h3.31v23.31l-16-16.72V2235Z"/><path class="cls-2" d="M1086.06,2223.94a10.77,10.77,0,0,1,3.41-8,11.18,11.18,0,0,1,8.14-3.33,11.51,11.51,0,0,1,11.43,11.43,10.8,10.8,0,0,1-3.39,8,11.62,11.62,0,0,1-15.86.38A10.84,10.84,0,0,1,1086.06,2223.94Zm3.35,0a7.92,7.92,0,0,0,2.45,6,7.82,7.82,0,0,0,5.62,2.35,7.91,7.91,0,0,0,5.83-2.39,8.53,8.53,0,0,0,0-11.79,7.75,7.75,0,0,0-5.78-2.39,7.86,7.86,0,0,0-5.79,2.39A8,8,0,0,0,1089.41,2224Z"/><path class="cls-2" d="M1113.35,2213.06l6.08,15.23,6.16-15.23h3.63l-9.86,23.62-9.64-23.62Z"/><path class="cls-2" d="M1135.27,2213.06v22H1132v-22Z"/><path class="cls-2" d="M1152.68,2216.17h-8.81v5.28h8.55v3.12h-8.55v7.35h8.81V2235h-12.13v-22h12.13Z"/><path class="cls-2" d="M1156.26,2235l4.63-23.62,7.54,17.08,7.82-17.08,4.15,23.62H1177l-2.12-13.26-6.5,14.27-6.32-14.29-2.37,13.28Z"/><path class="cls-2" d="M1185.06,2235v-22h3.3a14.44,14.44,0,0,1,3.52.34,5.33,5.33,0,0,1,2.23,1.15,6,6,0,0,1,1.47,2.09,6.36,6.36,0,0,1,.55,2.57,5.16,5.16,0,0,1-1.81,4,5.28,5.28,0,0,1,2.76,2.1,6.19,6.19,0,0,1-.79,7.8,5.93,5.93,0,0,1-2.46,1.52,14.2,14.2,0,0,1-3.75.41Zm3.31-12.54h1a3.83,3.83,0,0,0,2.71-.81,3.17,3.17,0,0,0,.87-2.42,3,3,0,0,0-.89-2.35,3.66,3.66,0,0,0-2.56-.81h-1.17Zm0,9.43h2.05a5.11,5.11,0,0,0,3.31-.89,3,3,0,0,0,1.11-2.42,3.13,3.13,0,0,0-1.07-2.39,5.57,5.57,0,0,0-3.72-.95h-1.68Z"/><path class="cls-2" d="M1209.74,2225.67l6.8,9.36h-4.06l-6.27-9h-.6v9h-3.32v-22h3.89q4.35,0,6.29,1.63a6,6,0,0,1,2.14,4.81,6.27,6.27,0,0,1-1.34,4A6,6,0,0,1,1209.74,2225.67Zm-4.13-2.52h1.05q4.71,0,4.71-3.6c0-2.25-1.52-3.38-4.58-3.38h-1.18Z"/><path class="cls-2" d="M1232,2216.17h-8.81v5.28h8.55v3.12h-8.55v7.35H1232V2235h-12.13v-22H1232Z"/></svg>