<svg id="Layer_1" data-name="Layer 1" xmlns="http://www.w3.org/2000/svg" viewBox="0 0 1915.69 1251.96"><defs><style>.cls-1{fill:#086888;}.cls-2{font-size:86.22px;font-family:Futura-Bold, Futura;font-weight:700;}.cls-2,.cls-6{fill:#fff;}.cls-3{letter-spacing:0em;}.cls-4{letter-spacing:-0.03em;}.cls-5{letter-spacing:-0.01em;}.cls-7,.cls-8{fill:none;stroke:#fff;stroke-miterlimit:10;}.cls-7{stroke-width:9px;}.cls-8{stroke-width:6px;}</style></defs><title>ahora si</title><rect class="cls-1" x="0.17" width="1913" height="1252"/><text class="cls-2" transform="translate(69.7 147.25)">PO<tspan class="cls-3" x="138.21" y="0">R</tspan><tspan class="cls-4" x="199.43" y="0">T</tspan><tspan x="242.45" y="0">AL EXPOSI</tspan><tspan class="cls-5" x="729.68" y="0">T</tspan><tspan x="775.12" y="0">OR</tspan></text><path class="cls-6" d="M1206.62,169.42h-13.49v8.09h13.1v4.77h-13.1v11.25h13.49v4.77h-18.57V164.65h18.57Z"/><path class="cls-6" d="M1212.35,177.07h4.93v2a8,8,0,0,1,5.8-2.55,7.32,7.32,0,0,1,5.77,2.33c1.19,1.33,1.79,3.48,1.79,6.48v13h-4.93V186.44c0-2.09-.29-3.53-.87-4.33a3.49,3.49,0,0,0-3.09-1.22,3.77,3.77,0,0,0-3.47,1.61q-1,1.59-1,5.56V198.3h-4.93Z"/><path class="cls-6" d="M1269.94,188.84h-15.21a6.48,6.48,0,0,0,1.7,4.17,5.21,5.21,0,0,0,3.86,1.52,5,5,0,0,0,3-.87,12.45,12.45,0,0,0,2.68-3.23l4.14,2.31a16.32,16.32,0,0,1-2,2.8,10.48,10.48,0,0,1-2.29,1.92,9.11,9.11,0,0,1-2.63,1.1,12.52,12.52,0,0,1-3.08.35,10,10,0,0,1-7.63-3,11.44,11.44,0,0,1-2.87-8.15,11.74,11.74,0,0,1,2.79-8.15,10.61,10.61,0,0,1,14.86-.09c1.8,2,2.71,4.71,2.71,8.22Zm-5-4a4.69,4.69,0,0,0-5-3.92,5.1,5.1,0,0,0-1.68.27,4.85,4.85,0,0,0-1.43.78,5.24,5.24,0,0,0-1.1,1.24,5.84,5.84,0,0,0-.69,1.63Z"/><path class="cls-6" d="M1287.64,180.69l-4.05,2.16c-.64-1.31-1.43-2-2.38-2a1.61,1.61,0,0,0-1.15.44,1.5,1.5,0,0,0-.48,1.15c0,.81.94,1.62,2.83,2.42a17.2,17.2,0,0,1,5.26,3.09,5.32,5.32,0,0,1,1.35,3.82,6.68,6.68,0,0,1-2.27,5.14,7.71,7.71,0,0,1-5.32,2q-5.34,0-7.56-5.21l4.18-1.94a9,9,0,0,0,1.33,1.94,3.06,3.06,0,0,0,2.14.83c1.66,0,2.48-.75,2.48-2.27,0-.87-.64-1.68-1.91-2.44l-1.49-.72-1.5-.72a9,9,0,0,1-3-2.09,5.17,5.17,0,0,1-1.11-3.42,6,6,0,0,1,1.9-4.58,6.62,6.62,0,0,1,4.7-1.81Q1285.66,176.48,1287.64,180.69Z"/><path class="cls-6" d="M1298.48,181.65V198.3h-4.91V181.65h-2.09v-4.58h2.09v-7.78h4.91v7.78h3.81v4.58Z"/><path class="cls-6" d="M1321.67,177.07h4.93V198.3h-4.93v-2.22a9.43,9.43,0,0,1-13.8-.35,11.86,11.86,0,0,1-2.85-8.11,11.51,11.51,0,0,1,2.85-8,9.22,9.22,0,0,1,7.15-3.18,9,9,0,0,1,6.65,3.05ZM1310,187.62a7.39,7.39,0,0,0,1.64,5,5.35,5.35,0,0,0,4.23,1.94,5.63,5.63,0,0,0,4.4-1.87,8.07,8.07,0,0,0,0-9.86,5.56,5.56,0,0,0-4.36-1.89,5.41,5.41,0,0,0-4.23,1.92A7.05,7.05,0,0,0,1310,187.62Z"/><path class="cls-6" d="M1358.9,180.69l-4.05,2.16c-.64-1.31-1.43-2-2.38-2a1.61,1.61,0,0,0-1.15.44,1.5,1.5,0,0,0-.48,1.15c0,.81.94,1.62,2.83,2.42a17.2,17.2,0,0,1,5.26,3.09,5.32,5.32,0,0,1,1.35,3.82A6.68,6.68,0,0,1,1358,197a7.71,7.71,0,0,1-5.32,2q-5.34,0-7.56-5.21l4.18-1.94a9,9,0,0,0,1.33,1.94,3.06,3.06,0,0,0,2.14.83c1.65,0,2.48-.75,2.48-2.27,0-.87-.64-1.68-1.92-2.44l-1.48-.72-1.5-.72a9,9,0,0,1-3-2.09,5.17,5.17,0,0,1-1.11-3.42,6,6,0,0,1,1.9-4.58,6.62,6.62,0,0,1,4.7-1.81Q1356.92,176.48,1358.9,180.69Z"/><path class="cls-6" d="M1384,188.84H1368.8a6.48,6.48,0,0,0,1.7,4.17,5.21,5.21,0,0,0,3.86,1.52,5,5,0,0,0,3-.87,12.45,12.45,0,0,0,2.68-3.23l4.14,2.31a15.8,15.8,0,0,1-2,2.8,10.68,10.68,0,0,1-2.28,1.92,9.29,9.29,0,0,1-2.64,1.1,12.52,12.52,0,0,1-3.08.35,10,10,0,0,1-7.63-3,11.48,11.48,0,0,1-2.87-8.15,11.74,11.74,0,0,1,2.79-8.15,10.61,10.61,0,0,1,14.86-.09q2.72,3,2.71,8.22Zm-5-4a4.69,4.69,0,0,0-5-3.92,5.19,5.19,0,0,0-1.68.27,4.68,4.68,0,0,0-1.42.78,5.27,5.27,0,0,0-1.11,1.24,5.84,5.84,0,0,0-.69,1.63Z"/><path class="cls-6" d="M1405.9,178v6.51a12,12,0,0,0-3-2.81,5.86,5.86,0,0,0-3.07-.78,6,6,0,0,0-4.6,1.94,6.79,6.79,0,0,0-1.83,4.86,7,7,0,0,0,1.76,4.9,6,6,0,0,0,4.56,1.92,6.22,6.22,0,0,0,3.12-.76,12.66,12.66,0,0,0,3.07-2.88v6.47a12.77,12.77,0,0,1-6,1.55,11.43,11.43,0,0,1-8.24-3.18,10.63,10.63,0,0,1-3.31-8,10.76,10.76,0,0,1,3.35-8,11.37,11.37,0,0,1,8.24-3.27A12.25,12.25,0,0,1,1405.9,178Z"/><path class="cls-6" d="M1427.18,178v6.51a12,12,0,0,0-3-2.81,5.9,5.9,0,0,0-3.08-.78,6,6,0,0,0-4.59,1.94,6.76,6.76,0,0,0-1.84,4.86,6.94,6.94,0,0,0,1.77,4.9,6,6,0,0,0,4.56,1.92,6.2,6.2,0,0,0,3.11-.76,12.49,12.49,0,0,0,3.08-2.88v6.47a12.81,12.81,0,0,1-6,1.55,11.44,11.44,0,0,1-8.24-3.18,11.24,11.24,0,0,1,0-16,11.35,11.35,0,0,1,8.24-3.27A12.25,12.25,0,0,1,1427.18,178Z"/><path class="cls-6" d="M1431.19,168.24a3.21,3.21,0,0,1,3.18-3.16,3.08,3.08,0,0,1,2.27.94,3,3,0,0,1,.93,2.24,3.09,3.09,0,0,1-.93,2.27,3,3,0,0,1-2.25.94,3.06,3.06,0,0,1-2.26-.94A3.09,3.09,0,0,1,1431.19,168.24Zm5.64,8.83V198.3h-4.9V177.07Z"/><path class="cls-6" d="M1442,187.53a10.56,10.56,0,0,1,3.29-7.82,11.61,11.61,0,0,1,16.09,0,11.37,11.37,0,0,1,0,16,11.27,11.27,0,0,1-8.13,3.2,10.79,10.79,0,0,1-8-3.27A11,11,0,0,1,1442,187.53Zm5,.09a7.15,7.15,0,0,0,1.7,5,6.62,6.62,0,0,0,9.2,0,8,8,0,0,0,0-9.9,6,6,0,0,0-4.6-1.87,5.93,5.93,0,0,0-4.56,1.87A6.83,6.83,0,0,0,1447.06,187.62Zm13.66-21-7.93,7.19-2.68-1.66,6-7.93Z"/><path class="cls-6" d="M1469.88,177.07h4.93v2a8,8,0,0,1,5.8-2.55,7.32,7.32,0,0,1,5.77,2.33c1.19,1.33,1.79,3.48,1.79,6.48v13h-4.93V186.44c0-2.09-.29-3.53-.87-4.33a3.5,3.5,0,0,0-3.09-1.22,3.77,3.77,0,0,0-3.47,1.61q-1,1.59-1,5.56V198.3h-4.93Z"/><path class="cls-6" d="M1513,209.86h-4.9V177.07h4.9v2.31a9.09,9.09,0,0,1,6.58-2.9,9.18,9.18,0,0,1,7.22,3.23,11.63,11.63,0,0,1,2.88,8.09,11.43,11.43,0,0,1-2.86,7.95,9.31,9.31,0,0,1-13.82.18Zm11.66-22a7.34,7.34,0,0,0-1.65-5,5.34,5.34,0,0,0-4.23-1.94,5.6,5.6,0,0,0-4.38,1.87,7.1,7.1,0,0,0-1.68,4.93,7.23,7.23,0,0,0,1.68,4.92,5.48,5.48,0,0,0,4.36,1.9,5.29,5.29,0,0,0,4.2-1.92A6.92,6.92,0,0,0,1524.7,187.82Z"/><path class="cls-6" d="M1533.9,187.53a10.56,10.56,0,0,1,3.29-7.82,11.61,11.61,0,0,1,16.09,0,11.37,11.37,0,0,1,0,16,11.27,11.27,0,0,1-8.13,3.2,10.79,10.79,0,0,1-8-3.27A11,11,0,0,1,1533.9,187.53Zm5,.09a7.15,7.15,0,0,0,1.7,5,6.62,6.62,0,0,0,9.2,0,8,8,0,0,0,0-9.9,6,6,0,0,0-4.6-1.87,5.93,5.93,0,0,0-4.56,1.87A6.83,6.83,0,0,0,1538.92,187.62Z"/><path class="cls-6" d="M1577.39,161.48h4.93V198.3h-4.93v-2.22a9.14,9.14,0,0,1-6.56,2.83,9.35,9.35,0,0,1-7.24-3.18,11.86,11.86,0,0,1-2.85-8.11,11.44,11.44,0,0,1,2.85-7.93,9.17,9.17,0,0,1,13.8-.16Zm-11.64,26.14a7.39,7.39,0,0,0,1.64,5,5.34,5.34,0,0,0,4.22,1.94,5.63,5.63,0,0,0,4.41-1.87,8.07,8.07,0,0,0,0-9.86,5.56,5.56,0,0,0-4.36-1.89,5.41,5.41,0,0,0-4.23,1.92A7.05,7.05,0,0,0,1565.75,187.62Z"/><path class="cls-6" d="M1588.51,177.07h4.9V179a9.22,9.22,0,0,1,2.4-1.94,5.43,5.43,0,0,1,2.53-.55,7.86,7.86,0,0,1,4.05,1.27l-2.24,4.49a4.69,4.69,0,0,0-2.73-1q-4,0-4,6.06v11h-4.9Z"/><path class="cls-6" d="M1620.55,177.07h4.93V198.3h-4.93v-2.22a9.43,9.43,0,0,1-13.8-.35,11.86,11.86,0,0,1-2.85-8.11,11.51,11.51,0,0,1,2.85-8,9.22,9.22,0,0,1,7.15-3.18,9,9,0,0,1,6.65,3.05Zm-11.64,10.55a7.39,7.39,0,0,0,1.64,5,5.37,5.37,0,0,0,4.23,1.94,5.63,5.63,0,0,0,4.4-1.87,8.07,8.07,0,0,0,0-9.86,5.56,5.56,0,0,0-4.36-1.89,5.41,5.41,0,0,0-4.23,1.92A7.05,7.05,0,0,0,1608.91,187.62Zm13.8-21-7.93,7.19-2.69-1.66,6-7.93Z"/><path class="cls-6" d="M1644,180.69l-4.06,2.16c-.64-1.31-1.43-2-2.37-2a1.63,1.63,0,0,0-1.16.44,1.5,1.5,0,0,0-.48,1.15c0,.81,1,1.62,2.84,2.42A17,17,0,0,1,1644,188a5.32,5.32,0,0,1,1.35,3.82,6.68,6.68,0,0,1-2.27,5.14,7.69,7.69,0,0,1-5.32,2q-5.34,0-7.56-5.21l4.19-1.94a8.65,8.65,0,0,0,1.33,1.94,3,3,0,0,0,2.13.83c1.66,0,2.49-.75,2.49-2.27,0-.87-.64-1.68-1.92-2.44l-1.48-.72-1.51-.72a9.21,9.21,0,0,1-3-2.09,5.17,5.17,0,0,1-1.11-3.42,6,6,0,0,1,1.9-4.58,6.63,6.63,0,0,1,4.71-1.81Q1642,176.48,1644,180.69Z"/><path class="cls-6" d="M1679.21,177.07h4.93V198.3h-4.93v-2.22a9.43,9.43,0,0,1-13.8-.35,11.86,11.86,0,0,1-2.85-8.11,11.51,11.51,0,0,1,2.85-8,9.22,9.22,0,0,1,7.15-3.18,9,9,0,0,1,6.65,3.05Zm-11.64,10.55a7.39,7.39,0,0,0,1.64,5,5.37,5.37,0,0,0,4.23,1.94,5.63,5.63,0,0,0,4.4-1.87,8.07,8.07,0,0,0,0-9.86,5.56,5.56,0,0,0-4.36-1.89,5.41,5.41,0,0,0-4.23,1.92A7.05,7.05,0,0,0,1667.57,187.62Z"/><path class="cls-6" d="M1706.85,178v6.51a12,12,0,0,0-3-2.81,5.86,5.86,0,0,0-3.07-.78,6,6,0,0,0-4.6,1.94,6.79,6.79,0,0,0-1.83,4.86,6.94,6.94,0,0,0,1.77,4.9,5.94,5.94,0,0,0,4.55,1.92,6.22,6.22,0,0,0,3.12-.76,12.48,12.48,0,0,0,3.07-2.88v6.47a12.77,12.77,0,0,1-6,1.55,11.44,11.44,0,0,1-8.24-3.18,10.63,10.63,0,0,1-3.31-8,10.8,10.8,0,0,1,3.35-8,11.37,11.37,0,0,1,8.24-3.27A12.22,12.22,0,0,1,1706.85,178Z"/><path class="cls-6" d="M1728.13,178v6.51a12,12,0,0,0-3-2.81,5.89,5.89,0,0,0-3.07-.78,6,6,0,0,0-4.6,1.94,6.79,6.79,0,0,0-1.83,4.86,6.93,6.93,0,0,0,1.76,4.9,6,6,0,0,0,4.56,1.92,6.2,6.2,0,0,0,3.11-.76,12.49,12.49,0,0,0,3.08-2.88v6.47a12.77,12.77,0,0,1-6,1.55,11.41,11.41,0,0,1-8.24-3.18,10.63,10.63,0,0,1-3.32-8,10.77,10.77,0,0,1,3.36-8,11.35,11.35,0,0,1,8.24-3.27A12.25,12.25,0,0,1,1728.13,178Z"/><path class="cls-6" d="M1752.22,188.84H1737a6.48,6.48,0,0,0,1.7,4.17,5.21,5.21,0,0,0,3.86,1.52,5,5,0,0,0,3-.87,12.45,12.45,0,0,0,2.68-3.23l4.14,2.31a15.8,15.8,0,0,1-2,2.8,10.68,10.68,0,0,1-2.28,1.92,9.29,9.29,0,0,1-2.64,1.1,12.52,12.52,0,0,1-3.08.35,10,10,0,0,1-7.63-3,11.48,11.48,0,0,1-2.87-8.15,11.74,11.74,0,0,1,2.79-8.15,10.61,10.61,0,0,1,14.86-.09q2.71,3,2.71,8.22Zm-5-4a4.69,4.69,0,0,0-5-3.92,5.19,5.19,0,0,0-1.68.27,4.68,4.68,0,0,0-1.42.78,5.27,5.27,0,0,0-1.11,1.24,5.84,5.84,0,0,0-.69,1.63Z"/><path class="cls-6" d="M1773.23,161.48h4.93V198.3h-4.93v-2.22a9.14,9.14,0,0,1-6.56,2.83,9.35,9.35,0,0,1-7.24-3.18,11.86,11.86,0,0,1-2.85-8.11,11.44,11.44,0,0,1,2.85-7.93,9.17,9.17,0,0,1,13.8-.16Zm-11.64,26.14a7.38,7.38,0,0,0,1.63,5,5.37,5.37,0,0,0,4.23,1.94,5.63,5.63,0,0,0,4.41-1.87,8.11,8.11,0,0,0,0-9.86,5.57,5.57,0,0,0-4.36-1.89,5.41,5.41,0,0,0-4.23,1.92A7.05,7.05,0,0,0,1761.59,187.62Z"/><path class="cls-6" d="M1803.68,188.84h-15.21a6.43,6.43,0,0,0,1.7,4.17,5.21,5.21,0,0,0,3.86,1.52,5,5,0,0,0,3-.87,12.65,12.65,0,0,0,2.68-3.23l4.14,2.31a16.32,16.32,0,0,1-2,2.8,10.48,10.48,0,0,1-2.29,1.92,9.05,9.05,0,0,1-2.64,1.1,12.38,12.38,0,0,1-3.07.35,10,10,0,0,1-7.63-3,11.45,11.45,0,0,1-2.88-8.15,11.74,11.74,0,0,1,2.79-8.15,10.63,10.63,0,0,1,14.87-.09q2.7,3,2.7,8.22Zm-5-4a4.7,4.7,0,0,0-5-3.92,5.1,5.1,0,0,0-1.68.27,4.85,4.85,0,0,0-1.43.78,5.24,5.24,0,0,0-1.1,1.24,5.86,5.86,0,0,0-.7,1.63Z"/><path class="cls-6" d="M1809,177.07H1814V179a9.22,9.22,0,0,1,2.4-1.94,5.4,5.4,0,0,1,2.53-.55,7.86,7.86,0,0,1,4,1.27l-2.25,4.49a4.66,4.66,0,0,0-2.72-1q-4,0-4,6.06v11H1809Z"/><path class="cls-6" d="M1855.17,177.07h4.93V198.3h-4.93v-2.22a9.43,9.43,0,0,1-13.8-.35,11.86,11.86,0,0,1-2.85-8.11,11.51,11.51,0,0,1,2.85-8,9.22,9.22,0,0,1,7.15-3.18,9,9,0,0,1,6.65,3.05Zm-11.64,10.55a7.38,7.38,0,0,0,1.63,5,5.37,5.37,0,0,0,4.23,1.94,5.63,5.63,0,0,0,4.41-1.87,8.07,8.07,0,0,0,0-9.86,5.57,5.57,0,0,0-4.36-1.89,5.41,5.41,0,0,0-4.23,1.92A7.05,7.05,0,0,0,1843.53,187.62Z"/><path class="cls-6" d="M1210.7,221.81a3.06,3.06,0,0,1,.93-2.22,3.17,3.17,0,0,1,4.51,0,3,3,0,0,1,.94,2.25,3.06,3.06,0,0,1-.94,2.26,3,3,0,0,1-2.24.94,3.19,3.19,0,0,1-3.2-3.23Zm5.64,8.83v21.23h-4.9V230.64Z"/><path class="cls-6" d="M1222.55,230.64h4.93v2a8,8,0,0,1,5.8-2.55,7.33,7.33,0,0,1,5.78,2.34q1.79,2,1.78,6.47v13h-4.92V240c0-2.1-.29-3.54-.88-4.34a3.48,3.48,0,0,0-3.09-1.22,3.81,3.81,0,0,0-3.47,1.61q-1,1.59-1,5.56v10.24h-4.93Z"/><path class="cls-6" d="M1252.11,235.22v16.65h-4.92V235.22h-1.75v-4.58h1.75v-8.19q0-4,1.39-5.67a6.84,6.84,0,0,1,5.58-2.31,9.54,9.54,0,0,1,3.29.76v5l-.5-.27a6.23,6.23,0,0,0-2.61-.8,1.78,1.78,0,0,0-1.77.93,9,9,0,0,0-.46,3.54v7h5.34v4.58Z"/><path class="cls-6" d="M1259.83,241.11a10.57,10.57,0,0,1,3.29-7.83,11.61,11.61,0,0,1,16.09,0,11.37,11.37,0,0,1,0,16,11.24,11.24,0,0,1-8.13,3.21,10.78,10.78,0,0,1-8-3.27A11,11,0,0,1,1259.83,241.11Zm5,.08a7.18,7.18,0,0,0,1.7,5,6.62,6.62,0,0,0,9.2,0,8,8,0,0,0,0-9.9,6.53,6.53,0,0,0-9.15,0A6.81,6.81,0,0,0,1264.84,241.19Z"/><path class="cls-6" d="M1287.67,230.64h4.9v1.9a9.22,9.22,0,0,1,2.4-1.94,5.52,5.52,0,0,1,2.53-.55,8,8,0,0,1,4,1.27l-2.24,4.49a4.67,4.67,0,0,0-2.73-1q-4,0-4,6.06v11h-4.9Z"/><path class="cls-6" d="M1305,230.64h4.9v2a10.74,10.74,0,0,1,2.42-2,6,6,0,0,1,2.68-.55,6.51,6.51,0,0,1,5.69,3.14,7.38,7.38,0,0,1,6.26-3.14q7.17,0,7.17,8.7v13.12h-4.92V240.08a9,9,0,0,0-.75-4.31,2.67,2.67,0,0,0-2.5-1.29,3.21,3.21,0,0,0-3,1.53,9.89,9.89,0,0,0-.92,4.9v11h-4.93V240.15q0-5.67-3.27-5.67a3.28,3.28,0,0,0-3,1.55,9.66,9.66,0,0,0-1,4.88v11H1305Z"/><path class="cls-6" d="M1356,230.64h4.93v21.23H1356v-2.22a9.4,9.4,0,0,1-13.79-.35,11.8,11.8,0,0,1-2.86-8.11,11.43,11.43,0,0,1,2.86-7.95,9.2,9.2,0,0,1,7.15-3.19,9,9,0,0,1,6.64,3.06Zm-11.64,10.55a7.39,7.39,0,0,0,1.64,5,5.34,5.34,0,0,0,4.23,1.94,5.63,5.63,0,0,0,4.4-1.87,8.06,8.06,0,0,0,0-9.85,5.53,5.53,0,0,0-4.36-1.9,5.44,5.44,0,0,0-4.23,1.92A7.05,7.05,0,0,0,1344.36,241.19Z"/><path class="cls-6" d="M1383.64,231.56v6.52a11.91,11.91,0,0,0-3-2.82,5.92,5.92,0,0,0-3.08-.78,6.08,6.08,0,0,0-4.6,1.94,6.79,6.79,0,0,0-1.83,4.86,7,7,0,0,0,1.77,4.91,6,6,0,0,0,4.55,1.91,6.22,6.22,0,0,0,3.12-.76,12.1,12.1,0,0,0,3.07-2.88v6.48a12.89,12.89,0,0,1-6,1.55,11.45,11.45,0,0,1-8.24-3.19,10.6,10.6,0,0,1-3.31-8,10.77,10.77,0,0,1,3.36-8,11.34,11.34,0,0,1,8.24-3.27A12.32,12.32,0,0,1,1383.64,231.56Z"/><path class="cls-6" d="M1387.66,221.81a3.06,3.06,0,0,1,.93-2.22,3.19,3.19,0,0,1,4.52,0,3,3,0,0,1,.93,2.25,3.09,3.09,0,0,1-.93,2.26,3,3,0,0,1-2.25.94,3.19,3.19,0,0,1-3.2-3.23Zm5.64,8.83v21.23h-4.9V230.64Z"/><path class="cls-6" d="M1398.51,241.11a10.57,10.57,0,0,1,3.29-7.83,11.61,11.61,0,0,1,16.09,0,11.37,11.37,0,0,1,0,16,11.24,11.24,0,0,1-8.13,3.21,10.79,10.79,0,0,1-8-3.27A11,11,0,0,1,1398.51,241.11Zm5,.08a7.14,7.14,0,0,0,1.7,5,6.61,6.61,0,0,0,9.19,0,7.95,7.95,0,0,0,0-9.9,6.53,6.53,0,0,0-9.15,0A6.84,6.84,0,0,0,1403.53,241.19Zm13.66-21-7.93,7.19-2.68-1.65,6-7.94Z"/><path class="cls-6" d="M1426.35,230.64h4.92v2a8.05,8.05,0,0,1,5.8-2.55,7.32,7.32,0,0,1,5.78,2.34q1.79,2,1.79,6.47v13h-4.93V240c0-2.1-.29-3.54-.87-4.34a3.51,3.51,0,0,0-3.1-1.22,3.79,3.79,0,0,0-3.46,1.61q-1,1.59-1,5.56v10.24h-4.92Z"/><path class="cls-6" d="M1453.86,245.58l4.36,1.7L1452,259.72l-3.32-1.37Z"/><path class="cls-6" d="M1478.38,230.64h4.91v1.9a9.37,9.37,0,0,1,2.39-1.94,5.58,5.58,0,0,1,2.53-.55,8,8,0,0,1,4.06,1.27l-2.25,4.49a4.67,4.67,0,0,0-2.72-1c-2.68,0-4,2-4,6.06v11h-4.91Z"/><path class="cls-6" d="M1514.11,242.41h-15.22a6.46,6.46,0,0,0,1.7,4.17,5.18,5.18,0,0,0,3.86,1.52,5,5,0,0,0,3-.87,12.17,12.17,0,0,0,2.68-3.22l4.15,2.31a16.72,16.72,0,0,1-2,2.8A11.34,11.34,0,0,1,1510,251a9.33,9.33,0,0,1-2.64,1.1,12.94,12.94,0,0,1-3.07.35,10,10,0,0,1-7.63-3.06,11.43,11.43,0,0,1-2.88-8.15,11.75,11.75,0,0,1,2.79-8.15,10.63,10.63,0,0,1,14.87-.09q2.7,3,2.7,8.22Zm-5-4a4.69,4.69,0,0,0-4.94-3.92,5.1,5.1,0,0,0-1.68.27,4.76,4.76,0,0,0-1.43.79,4.81,4.81,0,0,0-1.1,1.23,5.58,5.58,0,0,0-.7,1.63Z"/><path class="cls-6" d="M1535.12,263.43V249.5a9.27,9.27,0,0,1-13.8-.18,11.47,11.47,0,0,1-2.85-7.95,11.83,11.83,0,0,1,2.85-8.09,9.28,9.28,0,0,1,7.22-3.23,9.07,9.07,0,0,1,6.58,2.9v-2.31h4.93v32.79Zm-11.64-22.28a7.39,7.39,0,0,0,1.66,5,5.26,5.26,0,0,0,4.21,2,5.6,5.6,0,0,0,4.38-1.87,7.14,7.14,0,0,0,1.7-4.93,7.23,7.23,0,0,0-1.68-4.92,5.53,5.53,0,0,0-4.36-1.9,5.41,5.41,0,0,0-4.23,1.92A7,7,0,0,0,1523.48,241.15Z"/><path class="cls-6" d="M1551.65,230.64v12.19c0,3.52,1.38,5.27,4.16,5.27s4.16-1.75,4.16-5.27V230.64h4.91v12.3a13.68,13.68,0,0,1-.63,4.4,7.47,7.47,0,0,1-2.12,3,10.3,10.3,0,0,1-12.62,0,7.48,7.48,0,0,1-2.16-3,12.31,12.31,0,0,1-.61-4.4v-12.3Z"/><path class="cls-6" d="M1570.33,221.81a3,3,0,0,1,.94-2.22,3.07,3.07,0,0,1,2.24-.94,3.12,3.12,0,0,1,2.27.94,3,3,0,0,1,.94,2.25,3.1,3.1,0,0,1-.94,2.26,3,3,0,0,1-2.25.94,3.21,3.21,0,0,1-3.2-3.23Zm5.64,8.83v21.23h-4.9V230.64Z"/><path class="cls-6" d="M1594.52,234.26l-4,2.16c-.64-1.31-1.43-2-2.38-2a1.65,1.65,0,0,0-1.15.44,1.5,1.5,0,0,0-.48,1.15c0,.81.94,1.62,2.83,2.42a17.07,17.07,0,0,1,5.26,3.09,5.32,5.32,0,0,1,1.35,3.82,6.68,6.68,0,0,1-2.27,5.14,7.72,7.72,0,0,1-5.32,2q-5.34,0-7.56-5.21l4.18-1.94a9.58,9.58,0,0,0,1.33,1.94,3,3,0,0,0,2.14.82c1.66,0,2.48-.75,2.48-2.26,0-.88-.64-1.69-1.91-2.44-.5-.25-1-.49-1.49-.72L1586,242a9.25,9.25,0,0,1-3-2.1,5.13,5.13,0,0,1-1.11-3.42,6.06,6.06,0,0,1,1.9-4.58,6.66,6.66,0,0,1,4.7-1.81C1591.18,230.05,1593.2,231.46,1594.52,234.26Z"/><path class="cls-6" d="M1599.56,221.81a3,3,0,0,1,.94-2.22,3.07,3.07,0,0,1,2.24-.94,3.12,3.12,0,0,1,2.27.94,3,3,0,0,1,.94,2.25,3.1,3.1,0,0,1-.94,2.26,3,3,0,0,1-2.25.94,3.21,3.21,0,0,1-3.2-3.23Zm5.65,8.83v21.23h-4.91V230.64Z"/><path class="cls-6" d="M1616.48,235.22v16.65h-4.91V235.22h-2.09v-4.58h2.09v-7.78h4.91v7.78h3.81v4.58Z"/><path class="cls-6" d="M1622.93,241.11a10.57,10.57,0,0,1,3.29-7.83,11.61,11.61,0,0,1,16.09,0,11.37,11.37,0,0,1,0,16,11.25,11.25,0,0,1-8.14,3.21,10.81,10.81,0,0,1-8-3.27A11,11,0,0,1,1622.93,241.11Zm5,.08a7.18,7.18,0,0,0,1.7,5,6.62,6.62,0,0,0,9.2,0,8,8,0,0,0,0-9.9,6.53,6.53,0,0,0-9.15,0A6.81,6.81,0,0,0,1627.94,241.19Z"/><path class="cls-6" d="M1663.1,234.26l-4,2.16c-.64-1.31-1.43-2-2.38-2a1.65,1.65,0,0,0-1.15.44,1.5,1.5,0,0,0-.48,1.15c0,.81.94,1.62,2.83,2.42a17,17,0,0,1,5.25,3.09,5.28,5.28,0,0,1,1.36,3.82,6.68,6.68,0,0,1-2.27,5.14,7.72,7.72,0,0,1-5.32,2q-5.34,0-7.56-5.21l4.18-1.94a9.58,9.58,0,0,0,1.33,1.94,3,3,0,0,0,2.14.82c1.65,0,2.48-.75,2.48-2.26,0-.88-.64-1.69-1.92-2.44-.49-.25-1-.49-1.48-.72l-1.5-.72a9.14,9.14,0,0,1-3-2.1,5.13,5.13,0,0,1-1.11-3.42,6.09,6.09,0,0,1,1.89-4.58,6.71,6.71,0,0,1,4.71-1.81C1659.76,230.05,1661.78,231.46,1663.1,234.26Z"/><path class="cls-6" d="M1689.35,247.93l-9.55-17.29h5.69l6.5,12.21,6.06-12.21h5.53l-16.91,32.79h-5.61Z"/><path class="cls-6" d="M1723.33,230.64l5.5,11.93,5.47-11.93h5.51l-11,22.7-10.94-22.7Z"/><path class="cls-6" d="M1758,230.64h4.93v21.23H1758v-2.22a9.4,9.4,0,0,1-13.79-.35,11.8,11.8,0,0,1-2.86-8.11,11.43,11.43,0,0,1,2.86-7.95,9.2,9.2,0,0,1,7.15-3.19,9,9,0,0,1,6.64,3.06Zm-11.64,10.55a7.39,7.39,0,0,0,1.64,5,5.34,5.34,0,0,0,4.23,1.94,5.63,5.63,0,0,0,4.4-1.87,8.06,8.06,0,0,0,0-9.85,5.53,5.53,0,0,0-4.36-1.9,5.44,5.44,0,0,0-4.23,1.92A7.05,7.05,0,0,0,1746.37,241.19Z"/><path class="cls-6" d="M1774,215.06v36.81h-4.91V215.06Z"/><path class="cls-6" d="M1779.25,241.11a10.53,10.53,0,0,1,3.29-7.83,11.6,11.6,0,0,1,16.08,0,11.37,11.37,0,0,1,0,16,11.24,11.24,0,0,1-8.13,3.21,10.79,10.79,0,0,1-8-3.27A11,11,0,0,1,1779.25,241.11Zm5,.08a7.18,7.18,0,0,0,1.7,5,6.62,6.62,0,0,0,9.2,0,8,8,0,0,0,0-9.9,6.54,6.54,0,0,0-9.16,0A6.84,6.84,0,0,0,1784.26,241.19Z"/><path class="cls-6" d="M1807.08,230.64H1812v1.9a9.37,9.37,0,0,1,2.39-1.94,5.58,5.58,0,0,1,2.53-.55,8,8,0,0,1,4.06,1.27l-2.25,4.49a4.67,4.67,0,0,0-2.72-1c-2.68,0-4,2-4,6.06v11h-4.91Z"/><path class="cls-6" d="M1842.81,242.41h-15.22a6.46,6.46,0,0,0,1.71,4.17,5.15,5.15,0,0,0,3.85,1.52,5,5,0,0,0,3-.87,12.17,12.17,0,0,0,2.68-3.22l4.15,2.31a16.72,16.72,0,0,1-2,2.8,11.34,11.34,0,0,1-2.29,1.92,9.33,9.33,0,0,1-2.64,1.1,12.94,12.94,0,0,1-3.07.35,10,10,0,0,1-7.63-3.06,11.43,11.43,0,0,1-2.88-8.15,11.75,11.75,0,0,1,2.79-8.15,10.63,10.63,0,0,1,14.87-.09q2.7,3,2.7,8.22Zm-5-4a4.69,4.69,0,0,0-4.94-3.92,5.1,5.1,0,0,0-1.68.27,4.76,4.76,0,0,0-1.43.79,4.81,4.81,0,0,0-1.1,1.23,5.58,5.58,0,0,0-.7,1.63Z"/><path class="cls-6" d="M1860.51,234.26l-4,2.16c-.64-1.31-1.44-2-2.38-2a1.68,1.68,0,0,0-1.16.44,1.53,1.53,0,0,0-.47,1.15c0,.81.94,1.62,2.83,2.42a17,17,0,0,1,5.25,3.09,5.32,5.32,0,0,1,1.35,3.82,6.67,6.67,0,0,1-2.26,5.14,7.72,7.72,0,0,1-5.32,2q-5.34,0-7.57-5.21l4.19-1.94a9.18,9.18,0,0,0,1.33,1.94,3,3,0,0,0,2.14.82c1.65,0,2.48-.75,2.48-2.26,0-.88-.64-1.69-1.92-2.44-.49-.25-1-.49-1.48-.72L1852,242a9.14,9.14,0,0,1-3-2.1,5.13,5.13,0,0,1-1.11-3.42,6.09,6.09,0,0,1,1.89-4.58,6.71,6.71,0,0,1,4.71-1.81C1857.17,230.05,1859.19,231.46,1860.51,234.26Z"/><path class="cls-6" d="M1437.2,317h-4.9V284.21h4.9v2.32a9.07,9.07,0,0,1,6.59-2.9,9.17,9.17,0,0,1,7.21,3.22,11.65,11.65,0,0,1,2.88,8.09,11.47,11.47,0,0,1-2.86,8,9.3,9.3,0,0,1-13.82.17Zm11.67-22a7.37,7.37,0,0,0-1.66-5,5.37,5.37,0,0,0-4.23-1.94,5.61,5.61,0,0,0-4.38,1.88,7.09,7.09,0,0,0-1.68,4.92,7.26,7.26,0,0,0,1.68,4.93,5.52,5.52,0,0,0,4.36,1.9,5.33,5.33,0,0,0,4.21-1.92A7,7,0,0,0,1448.87,295Z"/><path class="cls-6" d="M1474.72,284.21h4.93v21.24h-4.93v-2.23a9.41,9.41,0,0,1-13.8-.35,11.82,11.82,0,0,1-2.85-8.1,11.48,11.48,0,0,1,2.85-8,9.21,9.21,0,0,1,7.15-3.18,9,9,0,0,1,6.65,3.05Zm-11.64,10.56a7.4,7.4,0,0,0,1.63,5,5.37,5.37,0,0,0,4.23,1.94,5.64,5.64,0,0,0,4.41-1.88,8.1,8.1,0,0,0,0-9.85,5.55,5.55,0,0,0-4.36-1.9,5.41,5.41,0,0,0-4.23,1.92A7.06,7.06,0,0,0,1463.08,294.77Z"/><path class="cls-6" d="M1485.84,284.21h4.9v1.9a9.44,9.44,0,0,1,2.4-1.94,5.52,5.52,0,0,1,2.53-.54,7.94,7.94,0,0,1,4,1.26l-2.24,4.49a4.67,4.67,0,0,0-2.73-1q-4,0-4,6.06v11h-4.9Z"/><path class="cls-6" d="M1517.88,284.21h4.93v21.24h-4.93v-2.23a9.41,9.41,0,0,1-13.8-.35,11.82,11.82,0,0,1-2.85-8.1,11.48,11.48,0,0,1,2.85-8,9.22,9.22,0,0,1,7.15-3.18,9,9,0,0,1,6.65,3.05Zm-11.64,10.56a7.41,7.41,0,0,0,1.64,5,5.34,5.34,0,0,0,4.22,1.94,5.64,5.64,0,0,0,4.41-1.88,8.06,8.06,0,0,0,0-9.85,5.53,5.53,0,0,0-4.36-1.9,5.41,5.41,0,0,0-4.23,1.92A7.06,7.06,0,0,0,1506.24,294.77Z"/><path class="cls-6" d="M1555.11,287.83l-4,2.16c-.64-1.31-1.43-2-2.38-2a1.62,1.62,0,0,0-1.15.45,1.48,1.48,0,0,0-.48,1.14c0,.81.94,1.62,2.83,2.42a16.77,16.77,0,0,1,5.25,3.1,5.24,5.24,0,0,1,1.36,3.81,6.72,6.72,0,0,1-2.27,5.15,7.76,7.76,0,0,1-5.32,2q-5.34,0-7.56-5.21l4.18-1.94a9.58,9.58,0,0,0,1.33,1.94,3.06,3.06,0,0,0,2.14.83c1.65,0,2.48-.76,2.48-2.27,0-.87-.64-1.69-1.92-2.44-.49-.25-1-.49-1.48-.72l-1.5-.72a9.29,9.29,0,0,1-3-2.09,5.18,5.18,0,0,1-1.11-3.43,6,6,0,0,1,1.89-4.57,6.66,6.66,0,0,1,4.71-1.81Q1553.13,283.63,1555.11,287.83Z"/><path class="cls-6" d="M1580.22,296H1565a6.45,6.45,0,0,0,1.7,4.16,5.18,5.18,0,0,0,3.86,1.53,5,5,0,0,0,3-.88,12.37,12.37,0,0,0,2.68-3.22l4.14,2.31a16.17,16.17,0,0,1-2,2.8,10.48,10.48,0,0,1-2.29,1.92,9.11,9.11,0,0,1-2.63,1.1,13,13,0,0,1-3.08.35,10,10,0,0,1-7.63-3.05,11.49,11.49,0,0,1-2.87-8.16,11.77,11.77,0,0,1,2.79-8.15,10.64,10.64,0,0,1,14.86-.09q2.71,3,2.71,8.22Zm-5-4a4.7,4.7,0,0,0-5-3.93,5.19,5.19,0,0,0-1.68.27,5.12,5.12,0,0,0-1.43.79,5.21,5.21,0,0,0-1.1,1.23,5.78,5.78,0,0,0-.69,1.64Z"/><path class="cls-6" d="M1585.59,284.21h4.9v1.9a9.44,9.44,0,0,1,2.4-1.94,5.52,5.52,0,0,1,2.53-.54,7.94,7.94,0,0,1,4,1.26l-2.24,4.49a4.67,4.67,0,0,0-2.73-1q-4,0-4,6.06v11h-4.9Z"/><path class="cls-6" d="M1621,284.21V296.4c0,3.52,1.38,5.28,4.16,5.28s4.16-1.76,4.16-5.28V284.21h4.91v12.3a13.68,13.68,0,0,1-.63,4.4,7.47,7.47,0,0,1-2.12,3,10.3,10.3,0,0,1-12.62,0,7.48,7.48,0,0,1-2.16-3,12.05,12.05,0,0,1-.61-4.4v-12.3Z"/><path class="cls-6" d="M1640.39,284.21h4.93v2a8,8,0,0,1,5.79-2.55,7.31,7.31,0,0,1,5.78,2.33q1.78,2,1.79,6.47v13h-4.93V293.59c0-2.09-.29-3.54-.87-4.34a3.54,3.54,0,0,0-3.1-1.22,3.79,3.79,0,0,0-3.46,1.61c-.67,1.06-1,2.92-1,5.56v10.25h-4.93Z"/><path class="cls-6" d="M1698,296h-15.21a6.4,6.4,0,0,0,1.7,4.16,5.15,5.15,0,0,0,3.85,1.53,5,5,0,0,0,3-.88,12.36,12.36,0,0,0,2.69-3.22l4.14,2.31a16.72,16.72,0,0,1-2,2.8,10.72,10.72,0,0,1-2.29,1.92,9.05,9.05,0,0,1-2.64,1.1,12.94,12.94,0,0,1-3.07.35,10,10,0,0,1-7.63-3.05,11.45,11.45,0,0,1-2.88-8.16,11.77,11.77,0,0,1,2.79-8.15,10.65,10.65,0,0,1,14.87-.09q2.7,3,2.7,8.22Zm-5-4a4.71,4.71,0,0,0-5-3.93,4.85,4.85,0,0,0-3.11,1.06,4.81,4.81,0,0,0-1.1,1.23,5.53,5.53,0,0,0-.7,1.64Z"/><path class="cls-6" d="M1709.08,294l-7.63-9.75h5.84l4.73,6.2,4.82-6.2h6L1715,294l9.09,11.49h-5.85l-6.23-7.94-6.39,7.94h-6Z"/><path class="cls-6" d="M1732.31,317h-4.9V284.21h4.9v2.32a9.07,9.07,0,0,1,6.59-2.9,9.17,9.17,0,0,1,7.21,3.22,11.65,11.65,0,0,1,2.88,8.09,11.47,11.47,0,0,1-2.86,8,9.3,9.3,0,0,1-13.82.17ZM1744,295a7.37,7.37,0,0,0-1.66-5,5.37,5.37,0,0,0-4.23-1.94,5.61,5.61,0,0,0-4.38,1.88,7.09,7.09,0,0,0-1.68,4.92,7.26,7.26,0,0,0,1.68,4.93,5.52,5.52,0,0,0,4.36,1.9,5.33,5.33,0,0,0,4.21-1.92A7,7,0,0,0,1744,295Z"/><path class="cls-6" d="M1753.17,294.68a10.54,10.54,0,0,1,3.3-7.83,11.62,11.62,0,0,1,16.08,0,10.83,10.83,0,0,1,3.27,8,10.72,10.72,0,0,1-3.29,8,11.24,11.24,0,0,1-8.13,3.21,10.79,10.79,0,0,1-8-3.27A11,11,0,0,1,1753.17,294.68Zm5,.09a7.11,7.11,0,0,0,1.7,5,6.59,6.59,0,0,0,9.2,0,8,8,0,0,0,0-9.89,6,6,0,0,0-4.6-1.88,5.93,5.93,0,0,0-4.56,1.88A6.83,6.83,0,0,0,1758.19,294.77Z"/><path class="cls-6" d="M1793.35,287.83l-4.06,2.16c-.63-1.31-1.43-2-2.37-2a1.64,1.64,0,0,0-1.16.45,1.48,1.48,0,0,0-.48,1.14c0,.81,1,1.62,2.84,2.42a16.77,16.77,0,0,1,5.25,3.1,5.28,5.28,0,0,1,1.35,3.81,6.71,6.71,0,0,1-2.26,5.15,7.77,7.77,0,0,1-5.32,2q-5.34,0-7.57-5.21l4.19-1.94a9.18,9.18,0,0,0,1.33,1.94,3,3,0,0,0,2.13.83c1.66,0,2.49-.76,2.49-2.27,0-.87-.64-1.69-1.92-2.44-.49-.25-1-.49-1.48-.72l-1.51-.72a9.34,9.34,0,0,1-3-2.09,5.13,5.13,0,0,1-1.12-3.43,6.06,6.06,0,0,1,1.9-4.57,6.63,6.63,0,0,1,4.71-1.81Q1791.37,283.63,1793.35,287.83Z"/><path class="cls-6" d="M1798.38,275.39a3.2,3.2,0,0,1,5.45-2.23,3,3,0,0,1,.94,2.25,3.1,3.1,0,0,1-.94,2.27,3,3,0,0,1-2.24.93,3.11,3.11,0,0,1-2.27-.93A3.15,3.15,0,0,1,1798.38,275.39Zm5.65,8.82v21.24h-4.9V284.21Z"/><path class="cls-6" d="M1815.3,288.79v16.66h-4.9V288.79h-2.1v-4.58h2.1v-7.78h4.9v7.78h3.82v4.58Z"/><path class="cls-6" d="M1821.75,294.68a10.57,10.57,0,0,1,3.29-7.83,11.63,11.63,0,0,1,16.09,0,11.37,11.37,0,0,1,0,16,11.24,11.24,0,0,1-8.13,3.21,10.79,10.79,0,0,1-8-3.27A11,11,0,0,1,1821.75,294.68Zm5,.09a7.11,7.11,0,0,0,1.7,5,6.59,6.59,0,0,0,9.2,0,8,8,0,0,0,0-9.89,6,6,0,0,0-4.6-1.88,5.93,5.93,0,0,0-4.56,1.88A6.83,6.83,0,0,0,1826.77,294.77Z"/><path class="cls-6" d="M1849.59,284.21h4.9v1.9a9.61,9.61,0,0,1,2.4-1.94,5.55,5.55,0,0,1,2.53-.54,8,8,0,0,1,4.06,1.26l-2.25,4.49a4.67,4.67,0,0,0-2.72-1q-4,0-4,6.06v11h-4.9Z"/><line class="cls-7" x1="1024.17" y1="141" x2="1865.17" y2="141"/><path class="cls-6" d="M1679.38,935.36l-20-9.68V690.5l.12.53-261.68-63.2-206.5,49.74,7.6,3.44V904l39.83,18.75,74.39-27.06V858.39l47.41-15.52,103.13,46,.12-.26,154.38,64.79,37.65-21.31,20.35,9.84c3.52,1.7,7.78,4.49,8.1,8.11.4,4.39-4.62,9.25-6.93,11-9.2,4-173.29,75.92-208.39,91.75-34.16,15.41-71.83-5.34-72.23-5.57-2.09-1.15-209-115.56-232.27-128.24-5.74-3.13-8.8-6.59-9.09-10.26-.41-5.12,4.57-10.42,7-12.46l32.17-11.19-2.41-6.95-32.78,11.4-.55.2-.48.36c-.45.35-11.1,8.64-10.29,19.19.49,6.32,4.84,11.76,12.91,16.16,23.23,12.68,230.14,127.08,232.21,128.22,1.2.68,22.17,12.27,47.9,12.27a74.83,74.83,0,0,0,30.93-6.42c35.9-16.19,207-91.14,208.71-91.89l.68-.39c1.14-.82,11.09-8.32,10.25-17.85C1691.1,943.78,1687,939,1679.38,935.36ZM1463.91,881l-99.48-44.43V754.24l38.47-11.6V664.17l209.23,55.06,1.31,224.26L1464,880.78ZM1206.27,684.34l30.38,13.76-1.37,214.84-29-13.65Zm99.5,206.16-63.14,23L1244,698.67,1395.54,664v73.16l-89.77,27.07Zm7.36-39.85V769.71l43.94-13.25v79.81ZM1652,925.84l-31.23,17.68-1.31-220.41-.36-4.2L1652,702.4Z"/><path class="cls-6" d="M1411.41,525.68a15.23,15.23,0,1,1,15.23,15.13A15.2,15.2,0,0,1,1411.41,525.68Zm8.23,0a7,7,0,1,0,7-6.91A7,7,0,0,0,1419.64,525.68Z"/><path class="cls-6" d="M1437.64,457.2a15.23,15.23,0,1,1,15.23,15.14A15.2,15.2,0,0,1,1437.64,457.2Zm8.23,0a7,7,0,1,0,7-6.91A7,7,0,0,0,1445.87,457.2Z"/><rect class="cls-6" x="1410.51" y="483.83" width="54.64" height="11.22" transform="translate(419.23 1616.1) rotate(-66.68)"/><polygon class="cls-6" points="1913.17 518.26 1913.17 506.7 1464.9 451.87 1463.54 463 1913.17 518.26"/><path class="cls-6" d="M1427.71,582.4c12.2,0,16.55-8.49,16.55-16.44a16.78,16.78,0,0,0-5-11.91,11.31,11.31,0,0,0-8-3.56,2.1,2.1,0,0,1-2.14-1.6v-10a3,3,0,0,0-6,0v10.77l.07.31a8.24,8.24,0,0,0,8.19,6.53,5.75,5.75,0,0,1,3.65,1.86,10.88,10.88,0,0,1,3.18,7.63c0,3.91-1.37,10.46-10.56,10.46a12.55,12.55,0,0,1-9.67-4.15,13.28,13.28,0,0,1-2.88-10.73,3,3,0,0,0-5.93-.8,19.2,19.2,0,0,0,4.3,15.47A18.49,18.49,0,0,0,1427.71,582.4Z"/><polygon class="cls-6" points="1657.94 692.7 1427.71 579.26 1197.5 680.25 1195.57 675.85 1427.83 573.96 1428.83 574.45 1660.07 688.39 1657.94 692.7"/><path class="cls-6" d="M517.75,360.64A23.51,23.51,0,1,1,541.26,384,23.45,23.45,0,0,1,517.75,360.64Zm4.92,0a18.59,18.59,0,1,0,18.59-18.42A18.52,18.52,0,0,0,522.67,360.64Z"/><path class="cls-6" d="M541.26,384.86a24.22,24.22,0,1,1,24.38-24.22A24.33,24.33,0,0,1,541.26,384.86Zm0-46.67a22.46,22.46,0,1,0,22.62,22.45A22.56,22.56,0,0,0,541.26,338.19Zm0,41.76a19.31,19.31,0,1,1,19.47-19.31A19.42,19.42,0,0,1,541.26,380Zm0-36.84A17.54,17.54,0,1,0,559,360.64,17.64,17.64,0,0,0,541.26,343.11Z"/><path class="cls-6" d="M392.69,265.36a23.51,23.51,0,1,1,23.5,23.33A23.45,23.45,0,0,1,392.69,265.36Zm4.92,0a18.59,18.59,0,1,0,18.58-18.42A18.52,18.52,0,0,0,397.61,265.36Z"/><path class="cls-6" d="M416.19,289.58a24.22,24.22,0,1,1,24.39-24.22A24.34,24.34,0,0,1,416.19,289.58Zm0-46.67a22.45,22.45,0,1,0,22.62,22.45A22.56,22.56,0,0,0,416.19,242.91Zm0,41.75a19.31,19.31,0,1,1,19.48-19.3A19.41,19.41,0,0,1,416.19,284.66Zm0-36.84a17.54,17.54,0,1,0,17.71,17.54A17.64,17.64,0,0,0,416.19,247.82Z"/><rect class="cls-6" x="470.67" y="255.12" width="16.39" height="115.46" transform="translate(-55.22 517.66) rotate(-54.14)"/><rect class="cls-6" x="-0.11" y="275.76" width="396.14" height="16.39" transform="translate(-25.78 19.84) rotate(-5.39)"/><path class="cls-6" d="M538.6,467a30.57,30.57,0,0,0,24.31-11.56c6.11-7.62,8.74-17.88,7.38-28.9a5,5,0,0,0-5.53-4.59,5.29,5.29,0,0,0-4.22,6c1,7.91-.81,15.16-5,20.42a21.23,21.23,0,0,1-16.91,7.9c-16.1,0-18.5-12.51-18.5-20a21.75,21.75,0,0,1,5.57-14.57c2.14-2.28,4.63-3.64,6.49-3.56h.35c8.79,0,12.7-7.86,13.55-12.08l.11-.56V385.32a4.93,4.93,0,1,0-9.83,0v18.94a4,4,0,0,1-4,3.23c-4.65-.06-9.48,2.24-13.58,6.62a32.67,32.67,0,0,0-8.54,22.22C510.26,451.16,517.71,467,538.6,467Z"/><circle class="cls-6" cx="541.17" cy="835" r="309"/><polyline class="cls-8" points="709.17 579 540.46 456.72 373.17 579"/><path class="cls-1" d="M330.16,775.38H314.71v8.36H329.3v11H314.71v8.62h15.45v11H301.72v-50h28.44Z"/><path class="cls-1" d="M353.83,787.72l-15.58-23.34H354.3l6.76,12.93,8.35-12.93h16L369,787.72l18.63,26.65H371.74l-10-16.31L350,814.37H334.27Z"/><path class="cls-1" d="M405.82,814.37h-13v-50h20.69q8.42,0,12.89,4.37t4.48,12.34q0,7.95-4.48,12.33t-12.89,4.37h-7.69Zm0-27h4.31q7.15,0,7.16-6.23t-7.16-6.24h-4.31Z"/><path class="cls-1" d="M435.52,789.37A25.75,25.75,0,0,1,452,765a31.66,31.66,0,0,1,22.31,0,26.3,26.3,0,0,1,8.78,5.6,25.53,25.53,0,0,1,5.74,8.39,27.16,27.16,0,0,1,0,20.75,25.53,25.53,0,0,1-5.74,8.39,26.3,26.3,0,0,1-8.78,5.6,31.81,31.81,0,0,1-22.31,0,25.88,25.88,0,0,1-16.48-24.37Zm13.59,0a13.38,13.38,0,0,0,1.13,5.51,13.81,13.81,0,0,0,7.53,7.26,14.67,14.67,0,0,0,10.8,0,14.21,14.21,0,0,0,4.51-2.89,13.6,13.6,0,0,0,3.09-4.37,14.09,14.09,0,0,0,0-11,13.75,13.75,0,0,0-3.09-4.38,14.56,14.56,0,0,0-15.31-2.88,13.72,13.72,0,0,0-7.53,7.26A13.33,13.33,0,0,0,449.11,789.37Z"/><path class="cls-1" d="M526.56,777.17a16,16,0,0,0-4.25-2.55,11.28,11.28,0,0,0-4.11-.83,6.64,6.64,0,0,0-4.11,1.2,3.7,3.7,0,0,0-1.59,3.11,3.09,3.09,0,0,0,.8,2.19,7,7,0,0,0,2.08,1.49,18.35,18.35,0,0,0,2.92,1.1c1.08.31,2.16.64,3.22,1q6.36,2.13,9.31,5.67a14,14,0,0,1,2.95,9.25,18.06,18.06,0,0,1-1.29,7,14.46,14.46,0,0,1-3.78,5.34,17.5,17.5,0,0,1-6.1,3.45,25.64,25.64,0,0,1-8.19,1.22,30.08,30.08,0,0,1-17.57-5.63l5.57-10.48a22.57,22.57,0,0,0,5.77,3.85,13.87,13.87,0,0,0,5.64,1.26,6.74,6.74,0,0,0,4.74-1.46,4.44,4.44,0,0,0,1.56-3.32,4.52,4.52,0,0,0-.4-2,4.28,4.28,0,0,0-1.33-1.53,10.79,10.79,0,0,0-2.42-1.29c-1-.4-2.2-.84-3.61-1.33q-2.52-.79-4.94-1.75a15.47,15.47,0,0,1-4.31-2.56,11.74,11.74,0,0,1-3.05-4,14.08,14.08,0,0,1-1.16-6.13,17.85,17.85,0,0,1,1.22-6.73,15,15,0,0,1,3.45-5.17,15.2,15.2,0,0,1,5.44-3.35,20.42,20.42,0,0,1,7.19-1.2,31.76,31.76,0,0,1,7.76,1,34.31,34.31,0,0,1,7.76,3Z"/><path class="cls-1" d="M554.94,764.38v50h-13v-50Z"/><path class="cls-1" d="M584.37,775.38v39h-13v-39H560.7v-11h34.35v11Z"/><path class="cls-1" d="M598.1,789.37A25.75,25.75,0,0,1,614.58,765a31.66,31.66,0,0,1,22.31,0,26.45,26.45,0,0,1,8.79,5.6,25.66,25.66,0,0,1,5.73,8.39,27.16,27.16,0,0,1,0,20.75,25.66,25.66,0,0,1-5.73,8.39,26.45,26.45,0,0,1-8.79,5.6,31.81,31.81,0,0,1-22.31,0,25.88,25.88,0,0,1-16.48-24.37Zm13.59,0a13.38,13.38,0,0,0,1.13,5.51,13.81,13.81,0,0,0,7.53,7.26,14.67,14.67,0,0,0,10.8,0,14.1,14.1,0,0,0,4.51-2.89,13.6,13.6,0,0,0,3.09-4.37,14.09,14.09,0,0,0,0-11,13.75,13.75,0,0,0-3.09-4.38,14.25,14.25,0,0,0-4.51-2.88,14.67,14.67,0,0,0-10.8,0,13.72,13.72,0,0,0-7.53,7.26A13.33,13.33,0,0,0,611.69,789.37Z"/><path class="cls-1" d="M703.26,814.37H687.08l-12.4-19.23v19.23h-13v-50h20.22a20,20,0,0,1,7.29,1.22,14.2,14.2,0,0,1,5.14,3.35,14,14,0,0,1,3,4.91,17,17,0,0,1,1,6,14.71,14.71,0,0,1-2.75,9.25,13.89,13.89,0,0,1-8.12,4.8Zm-28.58-27.65h2.46a9.48,9.48,0,0,0,5.9-1.59,6.13,6.13,0,0,0,0-9.15,9.48,9.48,0,0,0-5.9-1.59h-2.46Z"/><path class="cls-1" d="M737.14,775.38H721.69v8.36h14.59v11H721.69v8.62h15.45v11H708.7v-50h28.44Z"/><path class="cls-1" d="M773.94,777.17a15.93,15.93,0,0,0-4.24-2.55,11.33,11.33,0,0,0-4.11-.83,6.64,6.64,0,0,0-4.11,1.2,3.7,3.7,0,0,0-1.59,3.11,3.09,3.09,0,0,0,.79,2.19,7,7,0,0,0,2.09,1.49,17.64,17.64,0,0,0,2.92,1.1q1.62.47,3.21,1,6.38,2.13,9.32,5.67a14,14,0,0,1,2.95,9.25,18.06,18.06,0,0,1-1.29,7,14.46,14.46,0,0,1-3.78,5.34,17.5,17.5,0,0,1-6.1,3.45,25.64,25.64,0,0,1-8.19,1.22,30.08,30.08,0,0,1-17.57-5.63l5.57-10.48a22.4,22.4,0,0,0,5.77,3.85,13.86,13.86,0,0,0,5.63,1.26A6.74,6.74,0,0,0,766,803.3a4.44,4.44,0,0,0,1.56-3.32,4.38,4.38,0,0,0-.4-2,4.15,4.15,0,0,0-1.32-1.53,11,11,0,0,0-2.42-1.29c-1-.4-2.2-.84-3.62-1.33-1.68-.53-3.32-1.11-4.94-1.75a15.62,15.62,0,0,1-4.31-2.56,11.86,11.86,0,0,1-3-4,14.23,14.23,0,0,1-1.16-6.13,17.65,17.65,0,0,1,1.23-6.73,15,15,0,0,1,3.45-5.17,15.2,15.2,0,0,1,5.44-3.35,20.42,20.42,0,0,1,7.19-1.2,31.82,31.82,0,0,1,7.76,1,34.49,34.49,0,0,1,7.76,3Z"/><path class="cls-1" d="M434.88,936.07H402l-5.29,15.4H372.09l33.75-88.65H431l33.74,88.65H440.17Zm-6.12-17.52L418.42,889l-10.35,29.51Z"/><path class="cls-1" d="M467.56,907.15a45.67,45.67,0,0,1,29.22-43.21,56.29,56.29,0,0,1,39.56,0,46.7,46.7,0,0,1,15.58,9.93,45.5,45.5,0,0,1,10.17,14.88,46.27,46.27,0,0,1,3.64,18.4,47.47,47.47,0,0,1-3,17,42.86,42.86,0,0,1-8.65,14l15,15.75L548,957.23l-8.11-8.34a58.9,58.9,0,0,1-11,3.7,54.27,54.27,0,0,1-12.29,1.35,53,53,0,0,1-19.81-3.59,45.86,45.86,0,0,1-29.22-43.2Zm24.1,0a23.7,23.7,0,0,0,2,9.76,24.69,24.69,0,0,0,5.41,7.75,24.25,24.25,0,0,0,7.94,5.12,25.28,25.28,0,0,0,9.58,1.82,27.09,27.09,0,0,0,6.11-.7L509.53,917l21.76-2.7,6.11,6.46a22.7,22.7,0,0,0,4.23-13.63,23.51,23.51,0,0,0-2-9.76,24.13,24.13,0,0,0-5.46-7.76,25.23,25.23,0,0,0-8-5.12,26.12,26.12,0,0,0-19.16,0,24.44,24.44,0,0,0-13.35,12.88A23.67,23.67,0,0,0,491.66,907.15Z"/><path class="cls-1" d="M603.36,862.82V911c0,2.58.09,5.23.29,7.93a21.79,21.79,0,0,0,1.76,7.35,12.18,12.18,0,0,0,4.65,5.35q3.16,2.05,8.93,2.06t8.88-2.06a12.68,12.68,0,0,0,4.64-5.35,20.91,20.91,0,0,0,1.83-7.35c.19-2.7.29-5.35.29-7.93V862.82h22.93V914.2q0,20.7-9.47,30.22T619,953.94q-19.63,0-29.15-9.52t-9.53-30.22V862.82Z"/><path class="cls-1" d="M699.18,862.82v88.65h-23V862.82Zm10-22.57L686.6,855.77l-8.94-8.35,19.17-18.34Z"/></svg>